<?xml version="1.0" standalone="no"?>
<!DOCTYPE svg PUBLIC "-//W3C//DTD SVG 1.1//EN" "http://www.w3.org/Graphics/SVG/1.1/DTD/svg11.dtd" >
<svg>
<metadata>
Created by FontForge 20090914 at Thu Oct 14 23:06:21 2021
 By www-data
Copyright 2016 by (URW)++ Design &#38; Development GmbH
</metadata>
<defs>
<font id="URWGeometric-Regular" horiz-adv-x="549" >
  <font-face 
    font-family="URW Geometric"
    font-weight="400"
    font-stretch="normal"
    units-per-em="1000"
    panose-1="0 0 0 0 0 0 0 0 0 0"
    ascent="800"
    descent="-200"
    x-height="443"
    cap-height="667"
    bbox="-123 -245.001 1215 1060"
    underline-thickness="50"
    underline-position="-175"
    unicode-range="U+0020-U+FB04"
  />
<missing-glyph horiz-adv-x="250" 
 />
    <glyph glyph-name="ff" unicode="ff" horiz-adv-x="481" 
d="M230 379h-82.001v-379h-71v379h-45v64h45v80c0 94 35.667 141 107 141c10.667 0 25.334 -2.33301 44.001 -7v-65c-12.667 3.33301 -22.667 5 -30 5c-33.333 0 -50 -24.667 -50 -74v-80h82v-64zM460.999 379h-81.001v-379h-71v379h-46v64h46v90c0 94 35.667 141 107 141
c10.667 0 25.334 -2.33301 44.001 -7v-65c-12.667 3.33301 -22.667 5 -30 5c-33.333 0 -50 -24.667 -50 -74v-90h81v-64z" />
    <glyph glyph-name="fi" unicode="fi" horiz-adv-x="434" 
d="M230 379h-82.001v-379h-71v379h-45v64h45v90c0 94 35.667 141 107 141c10.667 0 25.334 -2.33301 44.001 -7v-65c-12.667 3.33301 -22.667 5 -30 5c-33.333 0 -50 -24.667 -50 -74v-90h82v-64zM298.999 443h71v-443h-71v443zM334.999 642c14 0 26 -5 36 -15
s15 -22 15 -36s-5 -26 -15 -36s-22 -15 -36 -15s-26 5 -36 15s-15 22.333 -15 37c0 13.333 5 25 15 35s22 15 36 15z" />
    <glyph glyph-name="fl" unicode="fl" horiz-adv-x="434" 
d="M230 379h-82.001v-379h-71v379h-45v64h45v90c0 94 35.667 141 107 141c10.667 0 25.334 -2.33301 44.001 -7v-65c-12.667 3.33301 -22.667 5 -30 5c-33.333 0 -50 -24.667 -50 -74v-90h82v-64zM369.999 667v-667h-71v667h71z" />
    <glyph glyph-name="ffi" unicode="ffi" horiz-adv-x="665" 
d="M230 379h-82.001v-379h-71v379h-45v64h45v80c0 94 35.667 141 107 141c10.667 0 25.334 -2.33301 44.001 -7v-65c-12.667 3.33301 -22.667 5 -30 5c-33.333 0 -50 -24.667 -50 -74v-80h82v-64zM460.999 379h-82.001v-379h-71v379h-45v64h45v90c0 94 35.667 141 107 141
c11.333 0 26.333 -2.33301 45 -7v-65c-13.333 3.33301 -23.666 5 -30.999 5c-33.333 0 -50 -24.667 -50 -74v-90h82v-64zM530.998 443h71v-443h-71v443zM565.998 642c14 0 26 -5 36 -15s15 -22 15 -36s-5 -26 -15 -36s-22 -15 -36 -15s-26 5 -36 15s-15 22.333 -15 37
c0 13.333 5 25 15 35s22 15 36 15z" />
    <glyph glyph-name="ffl" unicode="ffl" horiz-adv-x="665" 
d="M230 379h-82.001v-379h-71v379h-45v64h45v80c0 94 35.667 141 107 141c10.667 0 25.334 -2.33301 44.001 -7v-65c-12.667 3.33301 -22.667 5 -30 5c-33.333 0 -50 -24.667 -50 -74v-80h82v-64zM460.999 379h-82.001v-379h-71v379h-45v64h45v90c0 94 35.667 141 107 141
c11.333 0 26.333 -2.33301 45 -7v-65c-13.333 3.33301 -23.666 5 -30.999 5c-33.333 0 -50 -24.667 -50 -74v-90h82v-64zM530.998 667h71v-667h-71v667z" />
    <glyph glyph-name=".notdef" horiz-adv-x="250" 
 />
    <glyph glyph-name="space" unicode=" " horiz-adv-x="250" 
 />
    <glyph glyph-name="exclam" unicode="!" horiz-adv-x="279" 
d="M140 89c13.333 0 24.833 -4.83301 34.5 -14.5s14.5 -21.167 14.5 -34.5c0 -14 -4.83301 -25.833 -14.5 -35.5s-21.167 -14.5 -34.5 -14.5c-14 0 -25.833 4.83301 -35.5 14.5s-14.5 21.5 -14.5 35.5c0 13.333 5 24.833 15 34.5s21.667 14.5 35 14.5zM173 150h-67l-8 517
h83z" />
    <glyph glyph-name="quotedbl" unicode="&#x22;" horiz-adv-x="307" 
d="M118 667l-11 -257h-52l-12 257h75zM264 667l-12 -257h-52l-12 257h76z" />
    <glyph glyph-name="numbersign" unicode="#" horiz-adv-x="585" 
d="M86 1l39 194h-75l11 57h75l33 163h-75l12 57h75l42 208l59 -14l-39 -194h155l42 208l60 -13l-40 -195h75l-11 -57h-75l-33 -163h75l-11 -57h-75l-42 -208l-60 14l40 194h-156l-42 -208zM199 252h155l33 163h-155z" />
    <glyph glyph-name="dollar" unicode="$" horiz-adv-x="567" 
d="M326 -103h-73v93c-47.333 4 -87.833 21.167 -121.5 51.5s-55.167 69.833 -64.5 118.5l72 21c20.667 -81.333 66 -122 136 -122c37.333 0 69 12.667 95 38s39 56 39 92c0 26.667 -8.66699 49 -26 67s-47.333 35.333 -90 52l-62 24c-92 36 -138 91.333 -138 166
c0 46 14.333 85 43 117s67.667 52.333 117 61v91h73v-91c60.667 -11.333 107.667 -45.333 141 -102l-59 -39c-32 49.333 -72 74 -120 74c-34.667 0 -63.5 -10.667 -86.5 -32s-34.5 -48 -34.5 -80c0 -44.667 32 -79.667 96 -105l66 -25c54 -20.667 93.333 -45.167 118 -73.5
s37 -62.833 37 -103.5c0 -46.667 -14.833 -88.167 -44.5 -124.5s-67.5 -59.833 -113.5 -70.5v-98z" />
    <glyph glyph-name="percent" unicode="%" horiz-adv-x="901" 
d="M696 402c103.333 0 155 -68.333 155 -205c0 -136 -51 -204 -153 -204c-102.667 0 -154 69 -154 207c0 134.667 50.667 202 152 202zM698 351c-64.667 0 -97 -50.667 -97 -152c0 -103.333 32.333 -155 97 -155c64 0 96 51.333 96 154c0 102 -32 153 -96 153zM202 674
c103.333 0 155 -68.333 155 -205c0 -136 -51 -204 -153 -204c-102.667 0 -154 69 -154 207c0 134.667 50.667 202 152 202zM204 623c-64.667 0 -97 -50.667 -97 -152c0 -103.333 32.333 -155 97 -155c64 0 96 51.333 96 154c0 102 -32 153 -96 153zM237 11l386 668l41 -24
l-386 -667z" />
    <glyph glyph-name="ampersand" unicode="&#x26;" horiz-adv-x="639" 
d="M307 372l166 -199c16.667 30 32.334 66.667 47.001 110l66 -19c-20 -63.333 -41.667 -113 -65 -149l96 -115h-87l-51 63c-52.667 -50 -116.334 -75 -191.001 -75c-62.667 0 -114.667 17.833 -156 53.5s-62 80.167 -62 133.5c0 37.333 11.333 72 34 104s60 66.333 112 103
l-3 4c-48.667 60 -73 110.667 -73 152c0 40.667 13.833 74.334 41.5 101.001s62.167 40 103.5 40c40.667 0 74.5 -13 101.5 -39s40.5 -58.333 40.5 -97c0 -30 -8.5 -57.333 -25.5 -82s-48.5 -54.334 -94.5 -89.001zM433 118l-177.001 215c-44 -32.667 -74.167 -60 -90.5 -82
s-24.5 -46.333 -24.5 -73c0 -35.333 14 -64.833 42 -88.5s62.667 -35.5 104 -35.5c58.667 0 107.334 21.333 146.001 64zM266.999 419c37.333 29.333 62.667 52.833 76 70.5s20 36.834 20 57.501c0 21.333 -7.33301 38.833 -22 52.5s-33.334 20.5 -56.001 20.5
c-23.333 0 -42.666 -7.5 -57.999 -22.5s-23 -33.833 -23 -56.5c0 -30.667 21 -71.334 63 -122.001z" />
    <glyph glyph-name="quotesingle" unicode="'" horiz-adv-x="162" 
d="M118 667l-11 -257h-52l-12 257h75z" />
    <glyph glyph-name="parenleft" unicode="(" horiz-adv-x="294" 
d="M166 733l64 -28.999c-50 -128.667 -75 -271.334 -75 -428.001c0 -158 25 -300.667 75 -428l-64 -29c-25.333 54.667 -45.5 123 -60.5 205s-22.5 166 -22.5 252s7.5 169.833 22.5 251.5s35.167 150.167 60.5 205.5z" />
    <glyph glyph-name="parenright" unicode=")" horiz-adv-x="294" 
d="M126 -181l-63 28.998c50 128.667 75 271.334 75 428.001s-25 299.334 -75 428.001l63 29c26 -54.667 46.5 -123 61.5 -205s22.5 -166 22.5 -252s-7.5 -170 -22.5 -252s-35.5 -150.333 -61.5 -205z" />
    <glyph glyph-name="asterisk" unicode="*" horiz-adv-x="464" 
d="M88 649l116 -43l-5 124h67l-5 -124l116 43l21 -63l-120 -34l77 -97l-54 -40l-69 104l-68 -104l-54 40l77 97l-120 34z" />
    <glyph glyph-name="plus" unicode="+" horiz-adv-x="556" 
d="M47 343h199v200h65v-200h198v-62h-198v-200h-65v200h-199v62z" />
    <glyph glyph-name="comma" unicode="," horiz-adv-x="227" 
d="M24 -133l83 231l65 -24l-100 -226z" />
    <glyph glyph-name="hyphen" unicode="-" horiz-adv-x="257" 
d="M30 280v65h196v-65h-196z" />
    <glyph glyph-name="period" unicode="." horiz-adv-x="227" 
d="M113 89c14 0 25.833 -4.83301 35.5 -14.5s14.5 -21.167 14.5 -34.5c0 -14 -4.83301 -25.833 -14.5 -35.5s-21.167 -14.5 -34.5 -14.5c-14 0 -25.833 4.83301 -35.5 14.5s-14.5 21.5 -14.5 35.5c0 13.333 4.83301 24.833 14.5 34.5s21.167 14.5 34.5 14.5z" />
    <glyph glyph-name="slash" unicode="/" horiz-adv-x="548" 
d="M55 20l382 660l56 -33l-382 -660z" />
    <glyph glyph-name="zero" unicode="0" horiz-adv-x="572" 
d="M286 679c164 0 246 -115.333 246 -346c0 -230 -81.667 -345 -245 -345c-84 0 -146.167 28.667 -186.5 86s-60.5 145.333 -60.5 264c0 227.333 82 341 246 341zM286 611c-55.333 0 -97.5 -23.333 -126.5 -70s-43.5 -114.667 -43.5 -204c0 -187.333 56.667 -281 170 -281
s170 92.667 170 278c0 184.667 -56.667 277 -170 277z" />
    <glyph glyph-name="one" unicode="1" horiz-adv-x="300" 
d="M221 667v-667h-74v584l-105 -61l-34 59l146 85h67z" />
    <glyph glyph-name="two" unicode="2" horiz-adv-x="481" 
d="M455 0l-408.001 0.000976562v66l244 275c50.667 58 76 111 76 159c0 32.667 -11.167 59.167 -33.5 79.5s-51.5 30.5 -87.5 30.5s-64.5 -8.5 -85.5 -25.5s-37.167 -44.167 -48.5 -81.5l-67 18c12 50.667 35.833 89.667 71.5 117s79.834 41 132.501 41
c56.667 0 102.667 -16.667 138 -50s53 -77 53 -131c0 -62.667 -22.667 -119.334 -68 -170.001l-231 -260h314v-68z" />
    <glyph glyph-name="three" unicode="3" horiz-adv-x="472" 
d="M188 315l0.000976562 67.9971h28c40.667 0 72.334 10 95.001 30s34 47.667 34 83c0 34.667 -10.833 62.334 -32.5 83.001s-50.167 31 -85.5 31c-26.667 0 -49.334 -5.5 -68.001 -16.5s-37.334 -29.167 -56.001 -54.5l-61 35c43.333 70 105 105 185 105
c56 0 101.667 -16.833 137 -50.5s53 -77.167 53 -130.5c0 -58 -23.667 -105.333 -71 -142c57.333 -40 86 -94.667 86 -164c0 -59.333 -19.833 -108.166 -59.5 -146.499s-90.5 -57.5 -152.5 -57.5c-48.667 0 -90.667 13 -126 39s-60 62.333 -74 109l-4 15l72 20
c20 -75.333 64.333 -113 133 -113c40 0 72.833 12.333 98.5 37s38.5 56.334 38.5 95.001c0 40 -12.333 70.833 -37 92.5s-59.667 32.5 -105 32.5h-28z" />
    <glyph glyph-name="four" unicode="4" horiz-adv-x="518" 
d="M313 679l59 -38l-264 -425h219v176h74v-176h82v-68h-82v-148h-74v148h-297v76z" />
    <glyph glyph-name="five" unicode="5" horiz-adv-x="520" 
d="M208 598l-35.001 -173.001l14 5c18 6.66699 39 10 63 10c62.667 0 115.5 -21.5 158.5 -64.5s64.5 -95.833 64.5 -158.5c0 -64 -22.167 -118.167 -66.5 -162.5s-98.166 -66.5 -161.499 -66.5c-59.333 0 -111 19 -155 57c-14.667 12.667 -31.334 33.334 -50.001 62.001
l59 42c28.667 -62 76.667 -93 144 -93c44 0 81 15.167 111 45.5s45 67.5 45 111.5c0 46 -14.833 84.333 -44.5 115s-66.5 46 -110.5 46c-20 0 -39.667 -4 -59 -12s-34.666 -18.333 -45.999 -31l-57 12l65 324h293v-69h-232z" />
    <glyph glyph-name="six" unicode="6" horiz-adv-x="543" 
d="M95 366l221.001 313l57 -43l-149 -213c18 5.33301 35 8 51 8c62 0 114.167 -20.667 156.5 -62s63.5 -92.333 63.5 -153c0 -63.333 -21.833 -117.166 -65.5 -161.499s-96.834 -66.5 -159.501 -66.5s-116 22 -160 66s-66 97.667 -66 161c0 51.333 17 101.666 51 150.999z
M269.001 365c-42.667 0 -78.667 -14.833 -108 -44.5s-44 -66.167 -44 -109.5c0 -44 14.5 -80.833 43.5 -110.5s65.167 -44.5 108.5 -44.5c42.667 0 78.834 15 108.501 45s44.5 66.333 44.5 109c0 45.333 -14.333 82.5 -43 111.5s-65.334 43.5 -110.001 43.5z" />
    <glyph glyph-name="seven" unicode="7" horiz-adv-x="450" 
d="M49 22l308 576h-340v69h423v-60l-327 -619z" />
    <glyph glyph-name="eight" unicode="8" horiz-adv-x="507" 
d="M134 355c-48 40 -72.002 87.333 -72.002 142c0 52 18.333 95.333 55 130s82.334 52 137.001 52s100.167 -17.333 136.5 -52s54.5 -78 54.5 -130c0 -54 -24.333 -101.333 -73 -142c63.333 -43.333 95 -99 95 -167c0 -58 -20.167 -105.833 -60.5 -143.5
s-91.166 -56.5 -152.499 -56.5c-62 0 -113.167 18.833 -153.5 56.5s-60.5 85.5 -60.5 143.5c0 67.333 31.333 123 94 167zM254.998 317c-42 0 -76.168 -12.167 -102.501 -36.5s-39.5 -55.833 -39.5 -94.5c0 -37.333 13.333 -68.333 40 -93s60.334 -37 101.001 -37
s74.167 12.333 100.5 37s39.5 55.667 39.5 93c0 38 -13 69.333 -39 94s-59.333 37 -100 37zM252.997 613c-35.333 0 -64.667 -10.832 -88 -32.499s-35 -48.834 -35 -81.501c0 -34 11.5 -62 34.5 -84s52.167 -33 87.5 -33c36.667 0 66.667 10.833 90 32.5s35 49.167 35 82.5
s-11.667 61 -35 83s-53 33 -89 33z" />
    <glyph glyph-name="nine" unicode="9" horiz-adv-x="545" 
d="M447 300l-221.001 -312l-56 42l151 214c-17.333 -4 -34.333 -6 -51 -6c-64 0 -117.167 20.167 -159.5 60.5s-63.5 91.166 -63.5 152.499c0 63.333 21.833 117.166 65.5 161.499s96.834 66.5 159.501 66.5s116 -22.167 160 -66.5s66 -98.166 66 -161.499
c0 -53.333 -17 -103.666 -51 -150.999zM272.999 611c-42.667 0 -78.834 -14.999 -108.501 -44.999s-44.5 -66.333 -44.5 -109c0 -44.667 14.333 -81.334 43 -110.001s65.334 -43 110.001 -43c42.667 0 78.667 14.5 108 43.5s44 64.833 44 107.5c0 44 -14.667 81 -44 111
s-65.333 45 -108 45z" />
    <glyph glyph-name="colon" unicode=":" horiz-adv-x="227" 
d="M113 89c14 0 25.833 -4.83301 35.5 -14.5s14.5 -21.167 14.5 -34.5c0 -14 -4.83301 -25.833 -14.5 -35.5s-21.167 -14.5 -34.5 -14.5c-14 0 -25.833 4.83301 -35.5 14.5s-14.5 21.5 -14.5 35.5c0 13.333 4.83301 24.833 14.5 34.5s21.167 14.5 34.5 14.5zM113 426
c14 0 25.833 -4.83398 35.5 -14.501s14.5 -21.167 14.5 -34.5s-4.83301 -24.833 -14.5 -34.5s-21.167 -14.5 -34.5 -14.5c-14 0 -25.833 4.83301 -35.5 14.5s-14.5 21.5 -14.5 35.5c0 12.667 4.83301 23.834 14.5 33.501s21.167 14.5 34.5 14.5z" />
    <glyph glyph-name="semicolon" unicode=";" horiz-adv-x="227" 
d="M130 426c13.333 0 24.833 -4.83398 34.5 -14.501s14.5 -21.167 14.5 -34.5s-4.83301 -24.833 -14.5 -34.5s-21.167 -14.5 -34.5 -14.5c-14 0 -25.833 4.83301 -35.5 14.5s-14.5 21.5 -14.5 35.5c0 12.667 5 23.834 15 33.501s21.667 14.5 35 14.5zM24 -133.001l83 231
l65 -24l-100 -226z" />
    <glyph glyph-name="less" unicode="&#x3c;" horiz-adv-x="556" 
d="M61 369l433 204v-75l-353 -161l353 -162v-74l-433 203v65z" />
    <glyph glyph-name="equal" unicode="=" horiz-adv-x="556" 
d="M76 409h404v-63h-404v63zM76 278h404v-63h-404v63z" />
    <glyph glyph-name="greater" unicode="&#x3e;" horiz-adv-x="556" 
d="M494 304l-433 -203v74l353 162l-353 161v75l433 -204v-65z" />
    <glyph glyph-name="question" unicode="?" horiz-adv-x="421" 
d="M202 89c13.333 0 24.833 -4.83301 34.5 -14.5s14.5 -21.167 14.5 -34.5c0 -14 -4.83301 -25.833 -14.5 -35.5s-21.5 -14.5 -35.5 -14.5c-13.333 0 -24.833 5 -34.5 15s-14.5 21.667 -14.5 35s5 24.833 15 34.5s21.667 14.5 35 14.5zM238 150l-73 0.00292969v75
c0 31.333 3.66699 54.833 11 70.5s23 33.5 47 53.5l43 37c43.333 37.333 65 76.666 65 117.999c0 31.333 -10.5 56.833 -31.5 76.5s-48.833 29.5 -83.5 29.5c-29.333 0 -53.333 -5.66699 -72 -17s-38 -32 -58 -62l-53 45c38.667 68.667 98.334 103 179.001 103
c59.333 0 106.166 -16 140.499 -48s51.5 -75.333 51.5 -130c0 -29.333 -6.16699 -55.833 -18.5 -79.5s-33.5 -49.834 -63.5 -78.501l-49 -46c-16.667 -15.333 -26.667 -26.833 -30 -34.5s-5 -22.834 -5 -45.501v-67z" />
    <glyph glyph-name="at" unicode="@" horiz-adv-x="899" 
d="M507 521l116.998 -0.00292969l-43 -341h23c51.333 0 91 17 119 51s42 82.667 42 146c0 70.667 -18.333 130.334 -55 179.001c-48.667 67.333 -124 101 -226 101c-104.667 0 -189.167 -30.667 -253.5 -92s-96.5 -142 -96.5 -242c0 -101.333 32.167 -178.833 96.5 -232.5
s147.833 -80.5 250.5 -80.5c70.667 0 144 12.333 220 37l20 -54c-72.667 -25.333 -154 -38 -244 -38c-119.333 0 -215.833 31.833 -289.5 95.5s-110.5 153.834 -110.5 270.501s37.167 211 111.5 283s171.5 108 291.5 108c102.667 0 185.334 -30.167 248.001 -90.5
s94 -141.166 94 -242.499c0 -83.333 -23.333 -148.333 -70 -195c-40 -39.333 -98.333 -59 -175 -59h-136c-52 0 -93.833 16 -125.5 48s-47.5 74.333 -47.5 127c0 44 9.83301 83.333 29.5 118s46.834 60.667 81.501 78c34 16.667 76.667 25 128 25zM448.998 179.997h73
l36 286h-61c-52.667 0 -94 -14.333 -124 -43s-45 -68.667 -45 -120c0 -38 10.833 -68 32.5 -90s51.167 -33 88.5 -33z" />
    <glyph glyph-name="A" unicode="A" horiz-adv-x="620" 
d="M464 189h-308l-72 -189h-77l257 667h93l257 -667h-78zM309 595l-127 -337h255z" />
    <glyph glyph-name="B" unicode="B" horiz-adv-x="522" 
d="M252 0l-172 -0.00195312v667h138c73.333 0 127.333 -13 162 -39c20.667 -15.333 37 -35.5 49 -60.5s18 -50.833 18 -77.5c0 -54.667 -25.667 -101 -77 -139c22.667 -9.33301 40.667 -19.666 54 -30.999c37.333 -35.333 56 -80.333 56 -135
c0 -57.333 -22.667 -103.666 -68 -138.999c-20.667 -16.667 -43 -28.5 -67 -35.5s-55 -10.5 -93 -10.5zM154 308.998v-239.999h92c53.333 0 92.333 9.66699 117 29c29.333 23.333 44 53.666 44 90.999c0 20.667 -5.16699 40 -15.5 58s-23.833 31.667 -40.5 41
c-23.333 14 -61.333 21 -114 21h-83zM154 598.999l-0.000976562 -226h76c49.333 0 85 9 107 27c26.667 21.333 40 50.333 40 87c0 38.667 -13.667 68 -41 88c-21.333 16 -56.666 24 -105.999 24h-76z" />
    <glyph glyph-name="C" unicode="C" horiz-adv-x="662" 
d="M625 572l-51.001 -51c-29.333 31.333 -58.666 53.833 -87.999 67.5s-63 20.5 -101 20.5c-75.333 0 -138.833 -26.5 -190.5 -79.5s-77.5 -118.5 -77.5 -196.5c0 -76.667 25.833 -141.667 77.5 -195s115.167 -80 190.5 -80c37.333 0 70.833 7 100.5 21s60.167 37 91.5 69
l52 -51c-39.333 -38.667 -77.833 -66.5 -115.5 -83.5s-80.167 -25.5 -127.5 -25.5c-95.333 0 -176.5 33.5 -243.5 100.5s-100.5 148.5 -100.5 244.5c0 96.667 33.5 178.5 100.5 245.5s148.167 100.5 243.5 100.5c46.667 0 88.5 -8.33301 125.5 -25s74.833 -44 113.5 -82z
" />
    <glyph glyph-name="D" unicode="D" horiz-adv-x="619" 
d="M80 0l-0.00195312 667.001h137c110.667 0 198.334 -29.833 263.001 -89.5s97 -140.834 97 -243.501s-32.167 -184 -96.5 -244s-152.166 -90 -263.499 -90h-137zM219.998 598.001l-65 -0.000976562v-529h65c86.667 0 155.334 23.833 206.001 71.5s76 112.167 76 193.5
c0 80.667 -25.333 144.834 -76 192.501s-119.334 71.5 -206.001 71.5z" />
    <glyph glyph-name="E" unicode="E" horiz-adv-x="475" 
d="M423 667v-69h-268v-225h238v-69h-238v-235h278v-69h-353v667h343z" />
    <glyph glyph-name="F" unicode="F" horiz-adv-x="436" 
d="M400 667v-69h-245v-225h223v-69h-223v-304h-75v667h320z" />
    <glyph glyph-name="G" unicode="G" horiz-adv-x="727" 
d="M410 275l-0.000976562 69.001h274v-37c0 -96 -27 -173.167 -81 -231.5s-125.667 -87.5 -215 -87.5c-96 0 -177.667 33.333 -245 100s-101 147.667 -101 243c0 97.333 33.333 179.666 100 246.999s148 101 244 101c46.667 0 88.5 -8.33301 125.5 -25s75.167 -44 114.5 -82
l-51 -51c-30.667 31.333 -60.667 53.833 -90 67.5s-62.666 20.5 -99.999 20.5c-76 0 -139.667 -26.5 -191 -79.5s-77 -118.833 -77 -197.5c0 -76.667 26 -141.5 78 -194.5s115.667 -79.5 191 -79.5c64.667 0 117.167 19.833 157.5 59.5s61.5 92.167 63.5 157.5h-197z" />
    <glyph glyph-name="H" unicode="H" horiz-adv-x="650" 
d="M155 667v-294h340v294h75v-667h-75v304h-340v-304h-75v667h75z" />
    <glyph glyph-name="I" unicode="I" horiz-adv-x="235" 
d="M80 667h75v-667h-75v667z" />
    <glyph glyph-name="J" unicode="J" horiz-adv-x="402" 
d="M246 667h75v-467c0 -42 -3.83301 -75.667 -11.5 -101s-20.5 -47 -38.5 -65c-30.667 -30.667 -69.334 -46 -116.001 -46c-27.333 0 -52.666 5.5 -75.999 16.5s-49 29.167 -77 54.5l45 54c37.333 -36.667 73 -55 107 -55c61.333 0 92 47.333 92 142v467z" />
    <glyph glyph-name="K" unicode="K" horiz-adv-x="567" 
d="M554 667l-251 -276l258 -391h-87l-221 336l-98 -108v-228h-75v667h75v-341l310 341h89z" />
    <glyph glyph-name="L" unicode="L" horiz-adv-x="426" 
d="M80 667h75v-598h258v-69h-333v667z" />
    <glyph glyph-name="M" unicode="M" horiz-adv-x="810" 
d="M155 0h-75v667h80l245 -437l245 437h80v-667h-75v539l-217 -389h-66l-217 389v-539z" />
    <glyph glyph-name="N" unicode="N" horiz-adv-x="710" 
d="M155 0h-75v667h70l405 -545v545h75v-667h-70l-405 545v-545z" />
    <glyph glyph-name="O" unicode="O" horiz-adv-x="764" 
d="M382 679c93.333 0 173.333 -34.002 240 -102.002s100 -149.333 100 -244c0 -95.333 -33.5 -176.666 -100.5 -243.999s-147.833 -101 -242.5 -101c-92.667 0 -172 34.333 -238 103s-99 151.334 -99 248.001c0 91.333 33.833 170.833 101.5 238.5
s147.167 101.5 238.5 101.5zM382 608.998c-72.667 0 -135 -26.668 -187 -80.001s-78 -117 -78 -191c0 -77.333 25.667 -143.333 77 -198s113.333 -82 186 -82c74 0 137 26.833 189 80.5s78 118.5 78 194.5c0 76.667 -25.833 141.834 -77.5 195.501
s-114.167 80.5 -187.5 80.5z" />
    <glyph glyph-name="P" unicode="P" horiz-adv-x="467" 
d="M217 270h-62v-270h-75v667h137c76.667 0 132.667 -16.333 168 -49c41.333 -37.333 62 -87 62 -149c0 -61.333 -20.667 -111 -62 -149c-35.333 -33.333 -91.333 -50 -168 -50zM155 598v-260h71c98.667 0 148 43.667 148 131c0 86 -49.333 129 -148 129h-71z" />
    <glyph glyph-name="Q" unicode="Q" horiz-adv-x="762" 
d="M608 77l63.999 -64.001l-50 -50l-71 72c-53.333 -31.333 -109.666 -47 -168.999 -47c-93.333 0 -173.333 33.833 -240 101.5s-100 148.834 -100 243.501s33.5 176 100.5 244s146.833 102 239.5 102s172.5 -34 239.5 -102s100.5 -149 100.5 -243
c0 -101.333 -38 -187 -114 -257zM497.999 86.999l-52.999 54.001l50 50l62 -63c60 54 90 122.667 90 206c0 76 -25.833 140.833 -77.5 194.5s-114.167 80.5 -187.5 80.5s-135.833 -26.833 -187.5 -80.5s-77.5 -118.834 -77.5 -195.501c0 -76 26 -140.833 78 -194.5
s114.667 -80.5 188 -80.5c41.333 0 79.666 9.66699 114.999 29z" />
    <glyph glyph-name="R" unicode="R" horiz-adv-x="533" 
d="M349 289l160 -289h-84l-149 273c-26 -2 -45.667 -3 -59 -3h-62v-270h-75v667h137c82 0 142.333 -17 181 -51c44 -38.667 66 -89 66 -151c0 -40 -10.167 -75.5 -30.5 -106.5s-48.5 -54.167 -84.5 -69.5zM155 598v-260h71c110 0 165 42.333 165 127
c0 88.667 -55 133 -165 133h-71z" />
    <glyph glyph-name="S" unicode="S" horiz-adv-x="505" 
d="M441 574l-58.999 -39.002c-32.667 50 -73 75 -121 75c-34.667 0 -63.5 -10.667 -86.5 -32s-34.5 -48 -34.5 -80c0 -45.333 32 -80.666 96 -105.999l66 -25c54 -21.333 93.333 -46.166 118 -74.499s37 -62.833 37 -103.5c0 -56.667 -20.333 -104.334 -61 -143.001
s-90.667 -58 -150 -58c-52.667 0 -97 15 -133 45s-60.333 72.333 -73 127l72 20c20.667 -81.333 66 -122 136 -122c37.333 0 69 12.667 95 38s39 56.333 39 93c0 26.667 -8.83301 48.834 -26.5 66.501s-47.5 34.834 -89.5 51.501l-62 25
c-92 35.333 -138 90.666 -138 165.999c0 52 18.667 95.167 56 129.5s84.333 51.5 141 51.5c75.333 0 134.666 -35 177.999 -105z" />
    <glyph glyph-name="T" unicode="T" horiz-adv-x="433" 
d="M427 598h-172v-598h-75v598h-173v69h420v-69z" />
    <glyph glyph-name="U" unicode="U" horiz-adv-x="635" 
d="M80 667h74.999v-414c0 -59.333 7.33301 -100.666 22 -123.999c13.333 -21.333 33 -38.5 59 -51.5s53.333 -19.5 82 -19.5s55.834 6.5 81.501 19.5s45.167 30.167 58.5 51.5c14.667 23.333 22 64.666 22 123.999v414h75v-434c0 -66 -14.667 -117.333 -44 -154
c-22 -28.667 -50.167 -51 -84.5 -67s-70.5 -24 -108.5 -24c-38.667 0 -75.167 8 -109.5 24s-62.5 38.333 -84.5 67c-29.333 36.667 -44 88 -44 154v434z" />
    <glyph glyph-name="V" unicode="V" horiz-adv-x="553" 
d="M7 667h78l192 -580l193 580h77l-225 -667h-90z" />
    <glyph glyph-name="W" unicode="W" horiz-adv-x="880" 
d="M7 667h78l165 -559l157 559h67l157 -559l165 559h78l-204 -667h-76l-154 540l-153 -540h-77z" />
    <glyph glyph-name="X" unicode="X" horiz-adv-x="530" 
d="M504 667l-198 -317l218 -350h-84l-175 285l-176 -285h-82l218 348l-198 319h82l157 -255l158 255h80z" />
    <glyph glyph-name="Y" unicode="Y" horiz-adv-x="507" 
d="M216 0v278l-216 389h82l172 -318l172 318h81l-216 -389v-278h-75z" />
    <glyph glyph-name="Z" unicode="Z" horiz-adv-x="509" 
d="M476 601l-365 -532h373v-69h-461v66l370 532h-340v69h423v-66z" />
    <glyph glyph-name="bracketleft" unicode="[" horiz-adv-x="293" 
d="M248 662h-93v-772h93v-66h-165v904h165v-66z" />
    <glyph glyph-name="backslash" unicode="\" horiz-adv-x="548" 
d="M55 647l56 33l382 -660l-56 -33z" />
    <glyph glyph-name="bracketright" unicode="]" horiz-adv-x="293" 
d="M138 -110v772h-93v66h165v-904h-165v66h93z" />
    <glyph glyph-name="asciicircum" unicode="^" horiz-adv-x="500" 
d="M249 609l-144 -245h-81l176 305h99l176 -305h-81z" />
    <glyph glyph-name="underscore" unicode="_" horiz-adv-x="500" 
d="M0 -131v66h500v-66h-500z" />
    <glyph glyph-name="grave" unicode="`" horiz-adv-x="476" 
d="M236 515l-125 126l70 38l100 -138z" />
    <glyph glyph-name="a" unicode="a" 
d="M486 443v-443.001h-71v58c-41.333 -46.667 -93.333 -70 -156 -70c-62 0 -114.833 22.833 -158.5 68.5s-65.5 100.834 -65.5 165.501s21.833 119.667 65.5 165s96.5 68 158.5 68c61.333 0 113.333 -23.333 156 -70v58h71zM266 389.999
c-47.333 0 -85.667 -15.501 -115 -46.501s-44 -71.167 -44 -120.5c0 -50 14.5 -90.833 43.5 -122.5s66.5 -47.5 112.5 -47.5c45.333 0 82.333 15.833 111 47.5s43 72.167 43 121.5c0 48.667 -14.333 88.834 -43 120.501s-64.667 47.5 -108 47.5z" />
    <glyph glyph-name="b" unicode="b" 
d="M134 0l-71 0.000976562v667h71v-282c42.667 46.667 94.667 70 156 70c62 0 114.833 -22.667 158.5 -68s65.5 -100.333 65.5 -165s-21.833 -119.834 -65.5 -165.501s-96.5 -68.5 -158.5 -68.5c-62.667 0 -114.667 23.333 -156 70v-58zM289 390.001
c-46 0 -83.332 -15.501 -111.999 -46.501s-43 -71.167 -43 -120.5c0 -50 14.167 -90.833 42.5 -122.5s64.833 -47.5 109.5 -47.5c45.333 0 82.666 15.833 111.999 47.5s44 72.167 44 121.5c0 48.667 -14.5 88.834 -43.5 120.501s-65.5 47.5 -109.5 47.5z" />
    <glyph glyph-name="c" unicode="c" horiz-adv-x="457" 
d="M432 380l-46.998 -48.002c-34 38.667 -74.333 58 -121 58c-46 0 -83.667 -15.667 -113 -47s-44 -71.666 -44 -120.999c0 -50 14.667 -90.667 44 -122s67.333 -47 114 -47c26 0 48.167 4.66699 66.5 14s37.166 25.333 56.499 48l48 -48
c-26.667 -28.667 -53.167 -49 -79.5 -61s-56.5 -18 -90.5 -18c-65.333 0 -120.166 22.333 -164.499 67s-66.5 100.334 -66.5 167.001c0 66 22.167 121.333 66.5 166s99.166 67 164.499 67c61.333 0 116.666 -25 165.999 -75z" />
    <glyph glyph-name="d" unicode="d" 
d="M486 667v-667.001h-71v58c-41.333 -46.667 -93.333 -70 -156 -70c-62 0 -114.833 22.833 -158.5 68.5s-65.5 100.834 -65.5 165.501s21.833 119.667 65.5 165s96.5 68 158.5 68c61.333 0 113.333 -23.333 156 -70v282h71zM265 389.999
c-46.667 0 -84.668 -15.501 -114.001 -46.501s-44 -71.167 -44 -120.5c0 -50 14.5 -90.833 43.5 -122.5s66.5 -47.5 112.5 -47.5c44.667 0 81.167 15.833 109.5 47.5s42.5 72.167 42.5 121.5c0 48.667 -14.167 88.834 -42.5 120.501s-64.166 47.5 -107.499 47.5z" />
    <glyph glyph-name="e" unicode="e" horiz-adv-x="496" 
d="M462 213v-22.001h-354c5.33301 -41.333 21.5 -74.666 48.5 -99.999s59.833 -38 98.5 -38c59.333 0 104.333 26 135 78l64 -27c-46.667 -77.333 -112.667 -116 -198 -116c-63.333 0 -116 22.5 -158 67.5s-63 100.833 -63 167.5c0 64.667 20.833 119.5 62.5 164.5
s92.5 67.5 152.5 67.5c62 0 112.833 -22.667 152.5 -68s59.5 -103.333 59.5 -174zM108 251.999h283.001c-6 42.667 -21.5 76.5 -46.5 101.5s-56.167 37.5 -93.5 37.5s-68.833 -12.5 -94.5 -37.5s-41.834 -58.833 -48.501 -101.5z" />
    <glyph glyph-name="f" unicode="f" horiz-adv-x="250" 
d="M230 379h-82.001v-379h-71v379h-45v64h45v90c0 94 35.667 141 107 141c10.667 0 25.334 -2.33301 44.001 -7v-65c-12.667 3.33301 -22.667 5 -30 5c-33.333 0 -50 -24.667 -50 -74v-90h82v-64z" />
    <glyph glyph-name="g" unicode="g" 
d="M415 443l71 -0.00195312v-451c0 -71.333 -21.167 -128.666 -63.5 -171.999s-98.5 -65 -168.5 -65c-41.333 0 -77.666 7.66699 -108.999 23s-62 40.333 -92 75l47 47c25.333 -30 49.166 -50.833 71.499 -62.5s49.833 -17.5 82.5 -17.5c50 0 89.333 15.333 118 46
s43 72.667 43 126v66c-41.333 -46.667 -93.333 -70 -156 -70c-62 0 -114.833 22.833 -158.5 68.5s-65.5 100.834 -65.5 165.501s21.833 119.667 65.5 165s96.5 68 158.5 68c61.333 0 113.333 -23.333 156 -70v58zM266 389.998c-47.333 0 -85.6689 -15.501 -115.002 -46.501
s-44 -71.167 -44 -120.5c0 -50 14.5 -90.833 43.5 -122.5s66.5 -47.5 112.5 -47.5c44.667 0 81.334 15.833 110.001 47.5s43 72.167 43 121.5c0 48.667 -14.167 88.834 -42.5 120.501s-64.166 47.5 -107.499 47.5z" />
    <glyph glyph-name="h" unicode="h" horiz-adv-x="509" 
d="M63 667h71v-274c33.333 41.333 78 62 134 62c54 0 98 -18.667 132 -56c30.667 -33.333 46 -86.333 46 -159v-240h-71v231c0 59.333 -10 100 -30 122c-21.333 22.667 -49.333 34 -84 34c-43.333 0 -76.333 -14 -99 -42c-18.667 -23.333 -28 -64.333 -28 -123v-222h-71v667
z" />
    <glyph glyph-name="i" unicode="i" horiz-adv-x="199" 
d="M64 443h71v-443h-71v443zM100 642c14 0 26 -5 36 -15s15 -22 15 -36s-5 -26 -15 -36s-22 -15 -36 -15s-26 5 -36 15s-15 22.333 -15 37c0 13.333 5 25 15 35s22 15 36 15z" />
    <glyph glyph-name="j" unicode="j" horiz-adv-x="209" 
d="M73 -100v543h71v-543c0 -93.333 -35.667 -140 -107 -140c-11.333 0 -26 2.33301 -44 7v64c13.333 -3.33301 23.333 -5 30 -5c33.333 0 50 24.667 50 74zM109 642c14 0 26 -5 36 -15s15 -22 15 -36s-5 -26 -15 -36s-22 -15 -36 -15s-26 5 -36 15s-15 22.333 -15 37
c0 13.333 5 25 15 35s22 15 36 15z" />
    <glyph glyph-name="k" unicode="k" horiz-adv-x="465" 
d="M439 443l-181 -180l205 -263h-89l-164 215l-76 -75v-140h-71v667h71v-438l214 214h91z" />
    <glyph glyph-name="l" unicode="l" horiz-adv-x="199" 
d="M135 667v-667h-71v667h71z" />
    <glyph glyph-name="m" unicode="m" horiz-adv-x="786" 
d="M63 443l71.001 0.00292969v-50c30 41.333 71.667 62 125 62c58 0 103 -24.667 135 -74c36.667 49.333 85.334 74 146.001 74c60 0 107.333 -21 142 -63c27.333 -34.667 41 -85.334 41 -152.001v-240h-71v231c0 21.333 -1.16699 40 -3.5 56s-7 32.167 -14 48.5
s-17.833 28.833 -32.5 37.5s-33 13 -55 13c-40.667 0 -71.334 -14 -92.001 -42c-17.333 -22 -26 -62.667 -26 -122v-222h-71v231c0 21.333 -1.33301 40.166 -4 56.499s-7.33398 32.666 -14.001 48.999s-17.5 28.833 -32.5 37.5s-33.5 13 -55.5 13c-40 0 -70.667 -14 -92 -42
c-17.333 -22.667 -26 -63.667 -26 -123v-222h-71v443z" />
    <glyph glyph-name="n" unicode="n" horiz-adv-x="509" 
d="M63 443h71v-50c33.333 41.333 78 62 134 62c54 0 98 -18.667 132 -56c30.667 -33.333 46 -86.333 46 -159v-240h-71v231c0 59.333 -10 100 -30 122c-21.333 22.667 -49.333 34 -84 34c-43.333 0 -76.333 -14 -99 -42c-18.667 -23.333 -28 -64.333 -28 -123v-222h-71v443z
" />
    <glyph glyph-name="o" unicode="o" horiz-adv-x="526" 
d="M267 455c62.667 0 115.833 -22.666 159.5 -67.999s65.5 -100.333 65.5 -165c0 -66 -22 -121.5 -66 -166.5s-98 -67.5 -162 -67.5c-65.333 0 -119.833 22.667 -163.5 68s-65.5 101.333 -65.5 168c0 65.333 22.333 120.166 67 164.499s99.667 66.5 165 66.5z
M265.999 390.001c-47.333 0 -85.666 -15.501 -114.999 -46.501s-44 -71.167 -44 -120.5c0 -50 14.5 -90.833 43.5 -122.5s66.833 -47.5 113.5 -47.5c45.333 0 82.666 15.833 111.999 47.5s44 72.167 44 121.5c0 48.667 -14.5 88.834 -43.5 120.501s-65.833 47.5 -110.5 47.5
z" />
    <glyph glyph-name="p" unicode="p" 
d="M63 -233v676.001h71v-58c41.333 46.667 93.333 70 156 70c62 0 114.833 -22.833 158.5 -68.5s65.5 -100.834 65.5 -165.501s-21.833 -119.667 -65.5 -165s-96.5 -68 -158.5 -68c-61.333 0 -113.333 23.333 -156 70v-291h-71zM286 390.001
c-44.667 0 -81.166 -15.666 -109.499 -46.999s-42.5 -72 -42.5 -122c0 -48.667 14.167 -88.834 42.5 -120.501s64.166 -47.5 107.499 -47.5c46.667 0 84.667 15.5 114 46.5s44 71.167 44 120.5c0 50 -14.5 90.833 -43.5 122.5s-66.5 47.5 -112.5 47.5z" />
    <glyph glyph-name="q" unicode="q" 
d="M415 443l71 -0.000976562v-676h-71v291c-42.667 -46.667 -94.667 -70 -156 -70c-62 0 -114.833 22.667 -158.5 68s-65.5 100.333 -65.5 165s21.833 119.834 65.5 165.501s96.5 68.5 158.5 68.5c62.667 0 114.667 -23.333 156 -70v58zM263 389.999
c-45.333 0 -82.667 -15.832 -112 -47.499s-44 -72.167 -44 -121.5c0 -48.667 14.5 -88.834 43.5 -120.501s65.5 -47.5 109.5 -47.5c46 0 83.333 15.5 112 46.5s43 71.167 43 120.5c0 50 -14.167 90.833 -42.5 122.5s-64.833 47.5 -109.5 47.5z" />
    <glyph glyph-name="r" unicode="r" horiz-adv-x="293" 
d="M63 443l70.999 0.000976562v-50c27.333 33.333 66 50 116 50c8 0 15.667 -0.333008 23 -1v-64c-6.66699 0.666992 -13 1 -19 1c-47.333 0 -79.166 -14.333 -95.499 -43s-24.5 -69.334 -24.5 -122.001v-214h-71v443z" />
    <glyph glyph-name="s" unicode="s" horiz-adv-x="371" 
d="M324 375l-58.001 -31.001c-20 32 -45.667 48 -77 48c-21.333 0 -38.833 -5.83301 -52.5 -17.5s-20.5 -26.5 -20.5 -44.5c0 -17.333 6.33301 -31.666 19 -42.999c7.33301 -5.33301 26.666 -14.333 57.999 -27l43 -16c35.333 -14 61 -30 77 -48s24 -40.333 24 -67
c0 -40 -14.667 -73.5 -44 -100.5s-65.666 -40.5 -108.999 -40.5c-73.333 0 -124.666 37.667 -153.999 113l61 26c13.333 -28 27 -47.5 41 -58.5s32 -16.5 54 -16.5c23.333 0 42.5 7 57.5 21s22.5 31.333 22.5 52c0 16.667 -5 29.5 -15 38.5s-31 19.833 -63 32.5l-48 19
c-60 24 -90 61.333 -90 112c0 36.667 13.5 67.167 40.5 91.5s60.5 36.5 100.5 36.5c58 0 102.333 -26.667 133 -80z" />
    <glyph glyph-name="t" unicode="t" horiz-adv-x="246" 
d="M217 379h-74v-246c0 -49.333 16.667 -74 50 -74c8.66699 0 18.667 2 30 6v-65c-16 -4.66699 -30.667 -7 -44 -7c-71.333 0 -107 46.667 -107 140v246h-50v64h50v105l71 28v-133h74v-64z" />
    <glyph glyph-name="u" unicode="u" horiz-adv-x="509" 
d="M446 0l-71 0.000976562v50c-33.333 -41.333 -78 -62 -134 -62c-54 0 -98 18.667 -132 56c-30.667 33.333 -46 86.333 -46 159v240h71v-231c0 -59.333 10 -100 30 -122c21.333 -22.667 49.333 -34 84 -34c43.333 0 76.333 14 99 42c18.667 23.333 28 64.666 28 123.999
v221h71v-443z" />
    <glyph glyph-name="v" unicode="v" horiz-adv-x="451" 
d="M1 443h77l148 -356l149 356h76l-188 -443h-74z" />
    <glyph glyph-name="w" unicode="w" horiz-adv-x="668" 
d="M1 443h76l122 -336l105 336h60l106 -336l122 336h76l-167 -443h-60l-107 333l-106 -333h-60z" />
    <glyph glyph-name="x" unicode="x" horiz-adv-x="442" 
d="M423 443l-160 -213l174 -230h-84l-132 176l-133 -176h-83l175 230l-162 213h84l119 -159l121 159h81z" />
    <glyph glyph-name="y" unicode="y" horiz-adv-x="441" 
d="M71 -233l110 253l-180 423h77l141 -336l146 336h76l-296 -676h-74z" />
    <glyph glyph-name="z" unicode="z" horiz-adv-x="419" 
d="M392 384l-274 -320h284v-64h-373v58l275 321h-260v64h348v-59z" />
    <glyph glyph-name="braceleft" unicode="{" horiz-adv-x="299" 
d="M174 593l0.00292969 -200.001c-0.666992 -32.667 -5.5 -57.667 -14.5 -75s-24.167 -31.333 -45.5 -42c21.333 -11.333 36.666 -26 45.999 -44s14 -43.333 14 -76v-197c0 -29.333 4.66699 -48.666 14 -57.999s28.666 -14 57.999 -14h8v-62
c-8.66699 -0.666992 -17.334 -1 -26.001 -1c-45.333 0 -77.666 11 -96.999 33s-29 58.333 -29 109v190c0 28.667 -4.16699 50 -12.5 64s-23.166 23.667 -44.499 29v59c20.667 6 35.167 15.667 43.5 29s12.833 33.333 13.5 60v190
c-0.666992 51.333 9.16602 87.666 29.499 108.999s54.833 32 103.5 32h19v-63h-10h-4c-26 0 -43.833 -5.16699 -53.5 -15.5s-13.834 -29.166 -12.501 -56.499z" />
    <glyph glyph-name="bar" unicode="|" horiz-adv-x="500" 
d="M214 -176v904h72v-904h-72z" />
    <glyph glyph-name="braceright" unicode="}" horiz-adv-x="299" 
d="M125 -41l0.000976562 196.999c0 32.667 4.66699 58 14 76s24.666 32.667 45.999 44c-21.333 10.667 -36.5 24.667 -45.5 42s-13.833 42.333 -14.5 75v200c0.666992 28.667 -4 47.834 -14 57.501s-30 14.5 -60 14.5h-6v63h19c48.667 0 83.167 -10.667 103.5 -32
s30.166 -57.666 29.499 -108.999v-190c0.666992 -26.667 5.16699 -46.667 13.5 -60s22.833 -23 43.5 -29v-59c-21.333 -5.33301 -36.166 -15 -44.499 -29s-12.5 -35.333 -12.5 -64v-190c0 -50.667 -9.66699 -87 -29 -109s-51.666 -33 -96.999 -33
c-8.66699 0 -17.334 0.333008 -26.001 1v62h10c28.667 0 47.5 4.66699 56.5 14s13.5 28.666 13.5 57.999z" />
    <glyph glyph-name="asciitilde" unicode="~" horiz-adv-x="667" 
d="M136 582l-43.001 29c20.667 42.667 41.334 72.5 62.001 89.5s45.667 25.5 75 25.5c26 0 63.333 -11.333 112 -34c44.667 -21.333 77 -32 97 -32c18.667 0 34.5 5 47.5 15s27.167 27.667 42.5 53l45 -26c-19.333 -39.333 -40.5 -68 -63.5 -86s-49.833 -27 -80.5 -27
c-14 0 -29.667 3 -47 9s-48.333 19 -93 39c-26 12 -47.667 18 -65 18c-33.333 0 -63 -24.333 -89 -73z" />
    <glyph glyph-name="uni00A0" unicode="&#xa0;" horiz-adv-x="250" 
 />
    <glyph glyph-name="exclamdown" unicode="&#xa1;" horiz-adv-x="279" 
d="M98 -184l8 517h67l8 -517h-83zM139 493c14 0 25.833 -4.83301 35.5 -14.5s14.5 -21.5 14.5 -35.5c0 -13.333 -4.83301 -24.833 -14.5 -34.5s-21.167 -14.5 -34.5 -14.5c-14 0 -25.833 4.83301 -35.5 14.5s-14.5 21.5 -14.5 35.5c0 13.333 4.83301 24.833 14.5 34.5
s21.167 14.5 34.5 14.5z" />
    <glyph glyph-name="cent" unicode="&#xa2;" 
d="M323 0l-72.999 0.00292969v104c-54 11.333 -97.833 38.166 -131.5 80.499s-50.5 91.833 -50.5 148.5s16.833 106.167 50.5 148.5s77.5 69.166 131.5 80.499v105h73v-102c54 -6 101.333 -30.333 142 -73l-48 -48c-33.333 38.667 -73.333 58 -120 58
c-46 0 -83.667 -15.667 -113 -47s-44 -72 -44 -122s14.667 -90.667 44 -122s67.333 -47 114 -47c26 0 48.167 4.66699 66.5 14s37.166 25.333 56.499 48l47 -48c-40 -44.667 -88.333 -70.334 -145 -77.001v-101z" />
    <glyph glyph-name="sterling" unicode="&#xa3;" horiz-adv-x="559" 
d="M412 367l-0.000976562 -67h-191c9.33301 -42.667 14 -80.334 14 -113.001c0 -23.333 -4 -43.5 -12 -60.5s-23 -36.167 -45 -57.5h331v-69h-434v69c33.333 26.667 55.833 49 67.5 67s17.5 39.667 17.5 65c0 23.333 -4.66699 56.333 -14 99h-71v67h56
c-7.33301 37.333 -11 70.333 -11 99c0 50.667 10 92.667 30 126c16 26.667 39.333 47.834 70 63.501s63.667 23.5 99 23.5c72 0 128.667 -35 170 -105l-59 -39c-30.667 50 -68.667 75 -114 75c-39.333 0 -69.666 -12.5 -90.999 -37.5s-32 -60.5 -32 -106.5
c0 -23.333 4.66699 -56.333 14 -99h205z" />
    <glyph glyph-name="currency" unicode="&#xa4;" horiz-adv-x="727" 
d="M92 569l41 39.001l89 -90c40.667 32.667 88 49 142 49c53.333 0 100.333 -16.333 141 -49l90 90l40 -39l-90 -92c31.333 -40.667 47 -88.334 47 -143.001c0 -54 -15.667 -102 -47 -144l90 -91l-39 -41l-90 91c-42 -32.667 -89.333 -49 -142 -49
c-53.333 0 -101 16.333 -143 49l-89 -91l-40 41l90 91c-31.333 41.333 -47 89.333 -47 144c0 54 15.667 101.667 47 143zM366 502.001c-47.333 0 -85.666 -15.501 -114.999 -46.501s-44 -71.167 -44 -120.5c0 -50 14.5 -90.833 43.5 -122.5s66.833 -47.5 113.5 -47.5
c45.333 0 82.666 15.833 111.999 47.5s44 72.167 44 121.5c0 48.667 -14.5 88.834 -43.5 120.501s-65.833 47.5 -110.5 47.5z" />
    <glyph glyph-name="yen" unicode="&#xa5;" horiz-adv-x="556" 
d="M478 233h-162v-233h-75v233h-163v67h151l-37 66h-114v67h77l-130 234h81l173 -319l171 319h81l-129 -234h76v-67h-113l-37 -66h150v-67z" />
    <glyph glyph-name="brokenbar" unicode="&#xa6;" horiz-adv-x="500" 
d="M214 210h72v-386h-72v386zM286 728v-380h-72v380h72z" />
    <glyph glyph-name="section" unicode="&#xa7;" horiz-adv-x="543" 
d="M252 392l65.9971 -24.9971c53.333 -21.333 92.5 -46 117.5 -74s37.5 -62.333 37.5 -103c0 -50.667 -16.333 -94 -49 -130c-4.66699 -6 -7.66699 -9.66699 -9 -11c30.667 -28.667 46 -66.334 46 -113.001c0 -54.667 -18.167 -98.5 -54.5 -131.5
s-84.833 -49.5 -145.5 -49.5c-89.333 0 -158.666 45 -207.999 135l59 38c39.333 -69.333 90 -104 152 -104c36.667 0 66.334 10.5 89.001 31.5s34 48.167 34 81.5c0 25.333 -9.16699 47.166 -27.5 65.499s-48.166 35.5 -89.499 51.5l-62 25
c-92 35.333 -138 90.666 -138 165.999c0 51.333 21.333 97 64 137c-35.333 30.667 -53 69.667 -53 117c0 51.333 18.667 94.166 56 128.499s84.333 51.5 141 51.5c74 0 132.333 -35 175 -105l-59 -39c-32 50 -71.333 75 -118 75c-34.667 0 -63.5 -10.667 -86.5 -32
s-34.5 -48 -34.5 -80c0 -45.333 32.333 -80.666 97 -105.999zM281.997 307.003l-63 24.999c-8 2.66699 -15 5.66699 -21 9c-36 -25.333 -54 -57 -54 -95c0 -46.667 32 -82.334 96 -107.001l66 -25c15.333 -6 31.333 -13.333 48 -22c29.333 30 44 62.333 44 97
c0 26.667 -8.66699 48.834 -26 66.501s-47.333 34.834 -90 51.501z" />
    <glyph glyph-name="dieresis" unicode="&#xa8;" horiz-adv-x="476" 
d="M146 641c14 0 25.833 -4.83398 35.5 -14.501s14.5 -21.5 14.5 -35.5c0 -13.333 -5 -25 -15 -35s-21.667 -15 -35 -15c-14 0 -25.833 4.83301 -35.5 14.5s-14.5 21.834 -14.5 36.501c0 13.333 5 24.833 15 34.5s21.667 14.5 35 14.5zM329 640.999
c14 0 25.833 -4.83301 35.5 -14.5s14.5 -21.5 14.5 -35.5s-4.83301 -25.833 -14.5 -35.5s-21.5 -14.5 -35.5 -14.5s-25.833 5 -35.5 15s-14.5 22 -14.5 36c0 13.333 5 24.833 15 34.5s21.667 14.5 35 14.5z" />
    <glyph glyph-name="copyright" unicode="&#xa9;" horiz-adv-x="857" 
d="M435 712c101.333 0 188.668 -37.332 262.001 -111.999s110 -163.334 110 -266.001c0 -104.667 -36.833 -194 -110.5 -268s-162.834 -111 -267.501 -111c-105.333 0 -194.833 37 -268.5 111s-110.5 164 -110.5 270c0 104.667 37.333 193.5 112 266.5
s165.667 109.5 273 109.5zM434.002 657.001c-90.667 0 -168.166 -30.999 -232.499 -92.999s-96.5 -138 -96.5 -228c0 -90.667 31.5 -167.667 94.5 -231s139.5 -95 229.5 -95c89.333 0 165.5 31.667 228.5 95s94.5 139.666 94.5 228.999c0 87.333 -31.333 163 -94 227
s-137.334 96 -224.001 96zM611.003 488.002l-44.001 -44c-21.333 22.667 -41.166 38.5 -59.499 47.5s-39.833 13.5 -64.5 13.5c-46.667 0 -86 -16.5 -118 -49.5s-48 -73.833 -48 -122.5c0 -48 16 -88.5 48 -121.5s71 -49.5 117 -49.5c25.333 0 46.833 4.33301 64.5 13
s38.5 25 62.5 49l44 -45c-30 -28.667 -57.5 -48.834 -82.5 -60.501s-54.167 -17.5 -87.5 -17.5c-64.667 0 -119.5 22.5 -164.5 67.5s-67.5 99.833 -67.5 164.5s22.5 119.667 67.5 165s99.833 68 164.5 68c32.667 0 61.5 -5.66699 86.5 -17s52.167 -31.666 81.5 -60.999z" />
    <glyph glyph-name="ordfeminine" unicode="&#xaa;" horiz-adv-x="358" 
d="M314 672v-266h-54v30c-26.667 -24.667 -56 -37 -88 -37c-38.667 0 -71.5 13.667 -98.5 41s-40.5 60.333 -40.5 99s13.5 71.667 40.5 99s59.833 41 98.5 41c32 0 61.333 -12.333 88 -37v30h54zM177 631c-26.667 0 -48.332 -8.50098 -64.999 -25.501s-25 -38.833 -25 -65.5
c0 -27.333 8.16699 -49.666 24.5 -66.999s37.5 -26 63.5 -26c25.333 0 46.166 8.66699 62.499 26s24.5 39.333 24.5 66s-8 48.667 -24 66s-36.333 26 -61 26z" />
    <glyph glyph-name="guillemotleft" unicode="&#xab;" horiz-adv-x="431" 
d="M232 372l-118 -150l118 -147l-46 -37l-149 184l149 187zM381 372l-119 -150l119 -147l-47 -37l-149 184l149 187z" />
    <glyph glyph-name="logicalnot" unicode="&#xac;" horiz-adv-x="667" 
d="M600 343v-262h-71v198h-462v64h533z" />
    <glyph glyph-name="uni00AD" unicode="&#xad;" horiz-adv-x="257" 
d="M30 280v65h196v-65h-196z" />
    <glyph glyph-name="registered" unicode="&#xae;" horiz-adv-x="857" 
d="M435 712c101.333 0 188.668 -37.332 262.001 -111.999s110 -163.334 110 -266.001c0 -104.667 -36.833 -194 -110.5 -268s-162.834 -111 -267.501 -111c-105.333 0 -194.833 37 -268.5 111s-110.5 164 -110.5 270c0 104.667 37.333 193.5 112 266.5
s165.667 109.5 273 109.5zM434.002 657.001c-90.667 0 -168.166 -30.999 -232.499 -92.999s-96.5 -138 -96.5 -228c0 -90.667 31.5 -167.667 94.5 -231s139.5 -95 229.5 -95c89.333 0 165.5 31.667 228.5 95s94.5 139.666 94.5 228.999c0 87.333 -31.333 163 -94 227
s-137.334 96 -224.001 96zM494.003 295.002l112.001 -187.001h-74l-104 178h-65v-178h-64v450h121c51.333 0 89.666 -11.333 114.999 -34c28.667 -26.667 43 -60.667 43 -102c0 -61.333 -28 -103.666 -84 -126.999zM426.004 499.001h-63v-154h63c58.667 0 88 25.667 88 77
s-29.333 77 -88 77z" />
    <glyph glyph-name="macron" unicode="&#xaf;" horiz-adv-x="476" 
d="M101 558v64h273v-64h-273z" />
    <glyph glyph-name="degree" unicode="&#xb0;" horiz-adv-x="346" 
d="M208 740c38 0 70.501 -13.667 97.501 -41s40.5 -60.333 40.5 -99s-13.5 -71.667 -40.5 -99s-59.833 -41 -98.5 -41s-71.667 13.667 -99 41s-41 60.333 -41 99c0 39.333 13.667 72.5 41 99.5s60.666 40.5 99.999 40.5zM208.001 685c-24 0 -44.332 -8.33301 -60.999 -25
s-25 -36.667 -25 -60s8.33301 -43.333 25 -60s36.667 -25 60 -25s43.166 8.33301 59.499 25s24.5 36.667 24.5 60s-8.16699 43.333 -24.5 60s-35.833 25 -58.5 25z" />
    <glyph glyph-name="plusminus" unicode="&#xb1;" horiz-adv-x="556" 
d="M47 63h462v-63h-462v63zM47 391h199v200h65v-200h198v-62h-198v-200h-65v200h-199v62z" />
    <glyph glyph-name="twosuperior" unicode="&#xb2;" horiz-adv-x="387" 
d="M323 406l-256.999 0.00195312v46l148 160c29.333 31.333 44 60.666 44 87.999c0 17.333 -6.16699 31.166 -18.5 41.499s-28.5 15.5 -48.5 15.5c-21.333 0 -37.5 -4.83301 -48.5 -14.5s-19.833 -26.167 -26.5 -49.5l-52 14c6 31.333 20.5 56 43.5 74s51.833 27 86.5 27
c35.333 0 64.166 -10.167 86.499 -30.5s33.5 -46.833 33.5 -79.5c0 -36.667 -14 -70.667 -42 -102l-129 -139h180v-51z" />
    <glyph glyph-name="threesuperior" unicode="&#xb3;" horiz-adv-x="387" 
d="M161 587l0.000976562 50.999h23c22.667 0 40.167 5 52.5 15s18.5 24.333 18.5 43c0 18 -5.83301 32.333 -17.5 43s-27.167 16 -46.5 16c-16 0 -29.167 -3 -39.5 -9s-21.5 -16.667 -33.5 -32l-47 25c30 45.333 70 68 120 68c35.333 0 64 -10.167 86 -30.5
s33 -46.833 33 -79.5c0 -34 -12.667 -61 -38 -81c31.333 -23.333 47 -54.666 47 -93.999c0 -36 -12.5 -65.5 -37.5 -88.5s-56.833 -34.5 -95.5 -34.5c-30.667 0 -57.167 7.83301 -79.5 23.5s-37.833 37.5 -46.5 65.5l-3 14l55 15c6 -24 14.667 -41 26 -51
s27.666 -15 48.999 -15c22 0 40.167 6.5 54.5 19.5s21.5 29.833 21.5 50.5c0 44 -26.333 66 -79 66h-23z" />
    <glyph glyph-name="acute" unicode="&#xb4;" horiz-adv-x="476" 
d="M295 679l70 -38l-125 -126l-45 26z" />
    <glyph glyph-name="mu" unicode="&#xb5;" horiz-adv-x="509" 
d="M134 43l-0.000976562 -275.999h-71v676h71v-231c0 -59.333 10 -100 30 -122c21.333 -22.667 49.333 -34 84 -34c43.333 0 76.333 14 99 42c18.667 23.333 28 64.666 28 123.999v221h71v-443h-71v43c-33.333 -36.667 -76.666 -55 -129.999 -55c-42 0 -79 18.333 -111 55z
" />
    <glyph glyph-name="paragraph" unicode="&#xb6;" horiz-adv-x="640" 
d="M295 -233v453h-11c-61.333 0 -112.833 21.667 -154.5 65s-62.5 96.333 -62.5 159s20.833 115.5 62.5 158.5s93.167 64.5 154.5 64.5h306v-62h-65v-838h-65v838h-100v-838h-65z" />
    <glyph glyph-name="periodcentered" unicode="&#xb7;" horiz-adv-x="224" 
d="M112 358c13.333 0 24.666 -4.66602 33.999 -13.999s14 -20.333 14 -33c0 -13.333 -4.66699 -24.5 -14 -33.5s-20.666 -13.5 -33.999 -13.5s-24.666 4.66699 -33.999 14s-14 20.666 -14 33.999c0 12.667 4.66699 23.5 14 32.5s20.666 13.5 33.999 13.5z" />
    <glyph glyph-name="cedilla" unicode="&#xb8;" horiz-adv-x="476" 
d="M254 -47l66 -28l-101 -128l-49 24z" />
    <glyph glyph-name="onesuperior" unicode="&#xb9;" horiz-adv-x="387" 
d="M238 801v-395h-57v331l-59 -33l-27 45l94 52h49z" />
    <glyph glyph-name="ordmasculine" unicode="&#xba;" horiz-adv-x="351" 
d="M178 679c38.667 0 71.667 -13.5 99 -40.5s41 -60.167 41 -99.5s-13.667 -72.5 -41 -99.5s-61 -40.5 -101 -40.5c-40.667 0 -74.667 13.5 -102 40.5s-41 60.5 -41 100.5c0 39.333 13.833 72.333 41.5 99s62.167 40 103.5 40zM177 631
c-26.667 0 -48.334 -8.50098 -65.001 -25.501s-25 -38.833 -25 -65.5c0 -27.333 8.16699 -49.666 24.5 -66.999s37.833 -26 64.5 -26c26 0 47.167 8.5 63.5 25.5s24.5 39.167 24.5 66.5c0 26.667 -8.16699 48.667 -24.5 66s-37.166 26 -62.499 26z" />
    <glyph glyph-name="guillemotright" unicode="&#xbb;" horiz-adv-x="431" 
d="M51 75l119 147l-119 150l46 37l149 -187l-149 -184zM199 75l119 147l-119 150l47 37l149 -187l-149 -184z" />
    <glyph glyph-name="onequarter" unicode="&#xbc;" horiz-adv-x="833" 
d="M160 11l386 668l41 -24l-385 -667zM618 405l45 -28l-155 -241h114v102h56v-102h49v-51h-49v-85h-56v85h-178v52zM203 667v-395h-57v331l-59 -33l-27 45l94 52h49z" />
    <glyph glyph-name="onehalf" unicode="&#xbd;" horiz-adv-x="833" 
d="M160 11l386 668l41 -24l-385 -667zM753 0l-257 0.00195312v46l148 160c29.333 31.333 44 60.666 44 87.999c0 17.333 -6.16699 31.166 -18.5 41.499s-28.5 15.5 -48.5 15.5c-20.667 0 -36.667 -4.83301 -48 -14.5s-20.666 -26.167 -27.999 -49.5l-51 14
c16 67.333 59.333 101 130 101c35.333 0 64.166 -10.167 86.499 -30.5s33.5 -46.833 33.5 -79.5c0 -36.667 -14 -70.667 -42 -102l-129 -139h180v-51zM203 667.002v-395h-57v331l-59 -33l-27 45l94 52h49z" />
    <glyph glyph-name="threequarters" unicode="&#xbe;" horiz-adv-x="833" 
d="M222 11l386 668l41 -24l-386 -667zM658 405l45 -28l-156 -241h115v102h56v-102h49v-51h-49v-85h-56v85h-179v52zM156 453v51h23c22.667 0 40.167 5.16699 52.5 15.5s18.5 24.833 18.5 43.5c0 18 -5.83301 32.333 -17.5 43s-27.167 16 -46.5 16c-16 0 -29.167 -3 -39.5 -9
s-21.5 -17 -33.5 -33l-47 25c28.667 46 68.667 69 120 69c34.667 0 63.167 -10.333 85.5 -31s33.5 -47 33.5 -79c0 -34.667 -12.667 -61.667 -38 -81c31.333 -23.333 47 -55 47 -95c0 -36 -12.5 -65.5 -37.5 -88.5s-56.833 -34.5 -95.5 -34.5
c-30.667 0 -57 7.83301 -79 23.5s-37.667 37.834 -47 66.501l-3 14l55 14c6.66699 -24.667 15.5 -41.834 26.5 -51.501s27.167 -14.5 48.5 -14.5c22 0 40.167 6.5 54.5 19.5s21.5 29.833 21.5 50.5c0 44 -26.333 66 -79 66h-23z" />
    <glyph glyph-name="questiondown" unicode="&#xbf;" horiz-adv-x="421" 
d="M199 333l73 -0.00292969v-75c0 -31.333 -3.66699 -54.833 -11 -70.5s-23 -33.5 -47 -53.5l-43 -37c-43.333 -37.333 -65 -76.333 -65 -117c0 -32 10.5 -57.667 31.5 -77s48.833 -29 83.5 -29c29.333 0 53.166 5.66699 71.499 17s37.833 32 58.5 62l53 -45
c-39.333 -68.667 -99 -103 -179 -103c-59.333 0 -106.166 15.833 -140.499 47.5s-51.5 74.834 -51.5 129.501c0 29.333 6.16699 55.833 18.5 79.5s33.5 49.834 63.5 78.501l49 46c16.667 15.333 26.667 26.833 30 34.5s5 22.834 5 45.501v67zM236 492.997
c13.333 0 24.833 -4.83301 34.5 -14.5s14.5 -21.5 14.5 -35.5c0 -13.333 -5 -24.833 -15 -34.5s-21.667 -14.5 -35 -14.5s-24.833 4.83301 -34.5 14.5s-14.5 21.167 -14.5 34.5c0 14 4.83301 25.833 14.5 35.5s21.5 14.5 35.5 14.5z" />
    <glyph glyph-name="Agrave" unicode="&#xc0;" horiz-adv-x="620" 
d="M464 189h-308l-72 -189h-77l257 667h93l257 -667h-78zM309 595l-127 -337h255zM309 715l-125 126l70 37l100 -137z" />
    <glyph glyph-name="Aacute" unicode="&#xc1;" horiz-adv-x="620" 
d="M464 189h-308l-72 -189h-77l257 667h93l257 -667h-78zM309 595l-127 -337h255zM364 878l70 -37l-125 -126l-45 26z" />
    <glyph glyph-name="Acircumflex" unicode="&#xc2;" horiz-adv-x="620" 
d="M464 189h-308l-72 -189h-77l257 667h93l257 -667h-78zM309 595l-127 -337h255zM402 715l-92 87l-92 -87l-51 26l115 126h57l115 -126z" />
    <glyph glyph-name="Atilde" unicode="&#xc3;" horiz-adv-x="620" 
d="M464 189h-308l-72 -189h-77l257 667h93l257 -667h-78zM309 595l-127 -337h255zM389 841l57 -14c-2 -27.333 -9.66699 -48.333 -23 -63s-31.666 -22 -54.999 -22c-16.667 0 -39.334 6.33301 -68.001 19c-20.667 10 -35 15 -43 15s-13.833 -2.5 -17.5 -7.5
s-6.5 -14.167 -8.5 -27.5l-57 13c3.33301 26.667 12 47.5 26 62.5s32 22.5 54 22.5c15.333 0 38.333 -7 69 -21c18 -8.66699 32.333 -13 43 -13c8 0 13.5 2.5 16.5 7.5s5.16699 14.5 6.5 28.5z" />
    <glyph glyph-name="Adieresis" unicode="&#xc4;" horiz-adv-x="620" 
d="M464 189h-308l-72 -189h-77l257 667h93l257 -667h-78zM309 595l-127 -337h255zM219 841c14 0 25.833 -4.83398 35.5 -14.501s14.5 -21.5 14.5 -35.5c0 -13.333 -5 -25 -15 -35s-21.667 -15 -35 -15c-14 0 -25.833 4.83301 -35.5 14.5s-14.5 21.834 -14.5 36.501
c0 13.333 5 24.833 15 34.5s21.667 14.5 35 14.5zM402 840.999c14 0 25.833 -4.83301 35.5 -14.5s14.5 -21.5 14.5 -35.5s-4.83301 -25.833 -14.5 -35.5s-21.5 -14.5 -35.5 -14.5s-25.833 5 -35.5 15s-14.5 22 -14.5 36c0 13.333 5 24.833 15 34.5s21.667 14.5 35 14.5z" />
    <glyph glyph-name="Aring" unicode="&#xc5;" horiz-adv-x="620" 
d="M464 189h-308l-72 -189h-77l257 667h93l257 -667h-78zM309 595l-127 -337h255zM310 878c24.667 0 45.832 -8.5 63.499 -25.5s26.5 -37.5 26.5 -61.5c0 -24.667 -8.66699 -45.5 -26 -62.5s-38.333 -25.5 -63 -25.5c-25.333 0 -46.666 8.5 -63.999 25.5
s-26 37.833 -26 62.5c0 24 8.83301 44.5 26.5 61.5s38.5 25.5 62.5 25.5zM310.998 842c-14.667 0 -27 -5 -37 -15s-15 -22 -15 -36c0 -14.667 5 -27 15 -37s22.333 -15 37 -15c14 0 26 5 36 15s15 22 15 36c0 14.667 -5 27 -15 37s-22 15 -36 15z" />
    <glyph glyph-name="AE" unicode="&#xc6;" horiz-adv-x="840" 
d="M445 0v189h-259l-96 -189h-83l343 667h438v-69h-268v-225h238v-69h-238v-235h278v-69h-353zM221 258h224v340h-52z" />
    <glyph glyph-name="Ccedilla" unicode="&#xc7;" horiz-adv-x="662" 
d="M625 572l-51.001 -51c-29.333 31.333 -58.666 53.833 -87.999 67.5s-63 20.5 -101 20.5c-75.333 0 -138.833 -26.5 -190.5 -79.5s-77.5 -118.5 -77.5 -196.5c0 -76.667 25.833 -141.667 77.5 -195s115.167 -80 190.5 -80c37.333 0 70.833 7 100.5 21s60.167 37 91.5 69
l52 -51c-39.333 -38.667 -77.833 -66.5 -115.5 -83.5s-80.167 -25.5 -127.5 -25.5c-95.333 0 -176.5 33.5 -243.5 100.5s-100.5 148.5 -100.5 244.5c0 96.667 33.5 178.5 100.5 245.5s148.167 100.5 243.5 100.5c46.667 0 88.5 -8.33301 125.5 -25s74.833 -44 113.5 -82z
M346.999 -47l66 -28l-101 -128l-49 24z" />
    <glyph glyph-name="Egrave" unicode="&#xc8;" horiz-adv-x="475" 
d="M423 667v-69h-268v-225h238v-69h-238v-235h278v-69h-353v667h343zM263 715l-125 126l70 37l100 -137z" />
    <glyph glyph-name="Eacute" unicode="&#xc9;" horiz-adv-x="475" 
d="M423 667v-69h-268v-225h238v-69h-238v-235h278v-69h-353v667h343zM305 878l70 -37l-125 -126l-45 26z" />
    <glyph glyph-name="Ecircumflex" unicode="&#xca;" horiz-adv-x="475" 
d="M423 667v-69h-268v-225h238v-69h-238v-235h278v-69h-353v667h343zM349 715l-92 87l-92 -87l-52 26l115 126h57l115 -126z" />
    <glyph glyph-name="Edieresis" unicode="&#xcb;" horiz-adv-x="475" 
d="M423 667v-69h-268v-225h238v-69h-238v-235h278v-69h-353v667h343zM163 841c14 0 25.833 -4.83398 35.5 -14.501s14.5 -21.5 14.5 -35.5c0 -13.333 -5 -25 -15 -35s-21.667 -15 -35 -15c-14 0 -25.833 4.83301 -35.5 14.5s-14.5 21.834 -14.5 36.501
c0 13.333 5 24.833 15 34.5s21.667 14.5 35 14.5zM347 840.999c14 0 25.833 -4.83301 35.5 -14.5s14.5 -21.5 14.5 -35.5s-4.83301 -25.833 -14.5 -35.5s-21.5 -14.5 -35.5 -14.5s-25.833 5 -35.5 15s-14.5 22 -14.5 36c0 13.333 5 24.833 15 34.5s21.667 14.5 35 14.5z" />
    <glyph glyph-name="Igrave" unicode="&#xcc;" horiz-adv-x="235" 
d="M80 667h75v-667h-75v667zM115 715l-125 126l70 37l100 -137z" />
    <glyph glyph-name="Iacute" unicode="&#xcd;" horiz-adv-x="235" 
d="M80 667h75v-667h-75v667zM175 878l70 -37l-125 -126l-45 26z" />
    <glyph glyph-name="Icircumflex" unicode="&#xce;" horiz-adv-x="235" 
d="M80 667h75v-667h-75v667zM209 715l-92 87l-92 -87l-51 26l115 126h57l115 -126z" />
    <glyph glyph-name="Idieresis" unicode="&#xcf;" horiz-adv-x="235" 
d="M80 667h75v-667h-75v667zM51 841c14 0 25.833 -4.83398 35.5 -14.501s14.5 -21.5 14.5 -35.5c0 -13.333 -5 -25 -15 -35s-21.667 -15 -35 -15c-14 0 -25.833 4.83301 -35.5 14.5s-14.5 21.834 -14.5 36.501c0 13.333 5 24.833 15 34.5s21.667 14.5 35 14.5zM184 840.999
c14 0 25.833 -4.83301 35.5 -14.5s14.5 -21.5 14.5 -35.5s-4.83301 -25.833 -14.5 -35.5s-21.5 -14.5 -35.5 -14.5s-25.833 5 -35.5 15s-14.5 22 -14.5 36c0 13.333 5 24.833 15 34.5s21.667 14.5 35 14.5z" />
    <glyph glyph-name="Eth" unicode="&#xd0;" horiz-adv-x="634" 
d="M28 393l67 0.000976562v274h137c110.667 0 198.167 -29.833 262.5 -89.5s96.5 -140.834 96.5 -243.501s-32.167 -184 -96.5 -244s-151.833 -90 -262.5 -90h-137v326h-67v67zM170 598.001v-205.001h159v-67h-159v-257h65c86 0 154.333 23.833 205 71.5
s76 112.167 76 193.5c0 80.667 -25.333 144.834 -76 192.501s-119 71.5 -205 71.5h-65z" />
    <glyph glyph-name="Ntilde" unicode="&#xd1;" horiz-adv-x="710" 
d="M155 0h-75v667h70l405 -545v545h75v-667h-70l-405 545v-545zM442 841l57 -14c-2 -27.333 -9.66699 -48.333 -23 -63s-31.666 -22 -54.999 -22c-16.667 0 -39.334 6.33301 -68.001 19c-20.667 10 -35 15 -43 15s-13.833 -2.5 -17.5 -7.5s-6.5 -14.167 -8.5 -27.5l-57 13
c3.33301 26.667 12 47.5 26 62.5s32 22.5 54 22.5c15.333 0 38.333 -7 69 -21c18 -8.66699 32.333 -13 43 -13c8 0 13.5 2.5 16.5 7.5s5.16699 14.5 6.5 28.5z" />
    <glyph glyph-name="Ograve" unicode="&#xd2;" horiz-adv-x="764" 
d="M382 679c93.333 0 173.333 -34.002 240 -102.002s100 -149.333 100 -244c0 -95.333 -33.5 -176.666 -100.5 -243.999s-147.833 -101 -242.5 -101c-92.667 0 -172 34.333 -238 103s-99 151.334 -99 248.001c0 91.333 33.833 170.833 101.5 238.5
s147.167 101.5 238.5 101.5zM382 608.998c-72.667 0 -135 -26.668 -187 -80.001s-78 -117 -78 -191c0 -77.333 25.667 -143.333 77 -198s113.333 -82 186 -82c74 0 137 26.833 189 80.5s78 118.5 78 194.5c0 76.667 -25.833 141.834 -77.5 195.501
s-114.167 80.5 -187.5 80.5zM382 714.997l-125 126l70 37l100 -137z" />
    <glyph glyph-name="Oacute" unicode="&#xd3;" horiz-adv-x="764" 
d="M382 679c93.333 0 173.333 -34.002 240 -102.002s100 -149.333 100 -244c0 -95.333 -33.5 -176.666 -100.5 -243.999s-147.833 -101 -242.5 -101c-92.667 0 -172 34.333 -238 103s-99 151.334 -99 248.001c0 91.333 33.833 170.833 101.5 238.5
s147.167 101.5 238.5 101.5zM382 608.998c-72.667 0 -135 -26.668 -187 -80.001s-78 -117 -78 -191c0 -77.333 25.667 -143.333 77 -198s113.333 -82 186 -82c74 0 137 26.833 189 80.5s78 118.5 78 194.5c0 76.667 -25.833 141.834 -77.5 195.501
s-114.167 80.5 -187.5 80.5zM437 877.997l70 -37l-125 -126l-45 26z" />
    <glyph glyph-name="Ocircumflex" unicode="&#xd4;" horiz-adv-x="764" 
d="M382 679c93.333 0 173.333 -34.002 240 -102.002s100 -149.333 100 -244c0 -95.333 -33.5 -176.666 -100.5 -243.999s-147.833 -101 -242.5 -101c-92.667 0 -172 34.333 -238 103s-99 151.334 -99 248.001c0 91.333 33.833 170.833 101.5 238.5
s147.167 101.5 238.5 101.5zM382 608.998c-72.667 0 -135 -26.668 -187 -80.001s-78 -117 -78 -191c0 -77.333 25.667 -143.333 77 -198s113.333 -82 186 -82c74 0 137 26.833 189 80.5s78 118.5 78 194.5c0 76.667 -25.833 141.834 -77.5 195.501
s-114.167 80.5 -187.5 80.5zM474 714.997l-92 87l-92 -87l-51 26l115 126h56l115 -126z" />
    <glyph glyph-name="Otilde" unicode="&#xd5;" horiz-adv-x="764" 
d="M382 679c93.333 0 173.333 -34.002 240 -102.002s100 -149.333 100 -244c0 -95.333 -33.5 -176.666 -100.5 -243.999s-147.833 -101 -242.5 -101c-92.667 0 -172 34.333 -238 103s-99 151.334 -99 248.001c0 91.333 33.833 170.833 101.5 238.5
s147.167 101.5 238.5 101.5zM382 608.998c-72.667 0 -135 -26.668 -187 -80.001s-78 -117 -78 -191c0 -77.333 25.667 -143.333 77 -198s113.333 -82 186 -82c74 0 137 26.833 189 80.5s78 118.5 78 194.5c0 76.667 -25.833 141.834 -77.5 195.501
s-114.167 80.5 -187.5 80.5zM461 840.997l56.999 -14c-2 -27.333 -9.66699 -48.333 -23 -63s-31.666 -22 -54.999 -22c-17.333 0 -40 6.33301 -68 19c-21.333 10 -35.666 15 -42.999 15c-8 0 -13.833 -2.5 -17.5 -7.5s-6.83398 -14.167 -9.50098 -27.5l-56 13
c3.33301 26.667 11.833 47.5 25.5 62.5s31.5 22.5 53.5 22.5c16 0 39.333 -7 70 -21c18 -8.66699 32 -13 42 -13c8.66699 0 14.5 2.5 17.5 7.5s5.16699 14.5 6.5 28.5z" />
    <glyph glyph-name="Odieresis" unicode="&#xd6;" horiz-adv-x="764" 
d="M382 679c93.333 0 173.333 -34.002 240 -102.002s100 -149.333 100 -244c0 -95.333 -33.5 -176.666 -100.5 -243.999s-147.833 -101 -242.5 -101c-92.667 0 -172 34.333 -238 103s-99 151.334 -99 248.001c0 91.333 33.833 170.833 101.5 238.5
s147.167 101.5 238.5 101.5zM382 608.998c-72.667 0 -135 -26.668 -187 -80.001s-78 -117 -78 -191c0 -77.333 25.667 -143.333 77 -198s113.333 -82 186 -82c74 0 137 26.833 189 80.5s78 118.5 78 194.5c0 76.667 -25.833 141.834 -77.5 195.501
s-114.167 80.5 -187.5 80.5zM290 840.997c14 0 25.833 -4.83398 35.5 -14.501s14.5 -21.5 14.5 -35.5c0 -13.333 -5 -25 -15 -35s-21.667 -15 -35 -15c-14 0 -25.833 4.83301 -35.5 14.5s-14.5 21.834 -14.5 36.501c0 13.333 5 24.833 15 34.5s21.667 14.5 35 14.5z
M474 840.996c14 0 25.833 -4.83301 35.5 -14.5s14.5 -21.5 14.5 -35.5s-4.83301 -25.833 -14.5 -35.5s-21.5 -14.5 -35.5 -14.5s-25.833 5 -35.5 15s-14.5 22 -14.5 36c0 13.333 5 24.833 15 34.5s21.667 14.5 35 14.5z" />
    <glyph glyph-name="multiply" unicode="&#xd7;" horiz-adv-x="556" 
d="M92 171l141 141l-141 141l45 45l141 -141l141 141l44 -45l-140 -141l140 -141l-44 -45l-141 141l-141 -141z" />
    <glyph glyph-name="Oslash" unicode="&#xd8;" horiz-adv-x="771" 
d="M95 -2l-41 40.001l73 73c-54 63.333 -81 137.666 -81 222.999c0 94 33.5 175 100.5 243s146.833 102 239.5 102c83.333 0 156.333 -27.667 219 -83l72 73l41 -40l-73 -73c54 -63.333 81 -138 81 -224c0 -94 -33.5 -174.833 -100.5 -242.5s-146.833 -101.5 -239.5 -101.5
c-83.333 0 -156.333 27.667 -219 83zM178 163.001l376.999 382.002c-51.333 42.667 -107.666 64 -168.999 64c-73.333 0 -135.833 -26.833 -187.5 -80.5s-77.5 -118.834 -77.5 -195.501c0 -62.667 19 -119.334 57 -170.001zM593.999 504.003l-377.002 -382
c50.667 -42.667 107.334 -64 170.001 -64c72.667 0 134.834 27 186.501 81s77.5 118.667 77.5 194c0 64 -19 121 -57 171z" />
    <glyph glyph-name="Ugrave" unicode="&#xd9;" horiz-adv-x="635" 
d="M80 667h74.999v-414c0 -59.333 7.33301 -100.666 22 -123.999c13.333 -21.333 33 -38.5 59 -51.5s53.333 -19.5 82 -19.5s55.834 6.5 81.501 19.5s45.167 30.167 58.5 51.5c14.667 23.333 22 64.666 22 123.999v414h75v-434c0 -66 -14.667 -117.333 -44 -154
c-22 -28.667 -50.167 -51 -84.5 -67s-70.5 -24 -108.5 -24c-38.667 0 -75.167 8 -109.5 24s-62.5 38.333 -84.5 67c-29.333 36.667 -44 88 -44 154v434zM323.999 715l-125 126l70 37l100 -137z" />
    <glyph glyph-name="Uacute" unicode="&#xda;" horiz-adv-x="635" 
d="M80 667h74.999v-414c0 -59.333 7.33301 -100.666 22 -123.999c13.333 -21.333 33 -38.5 59 -51.5s53.333 -19.5 82 -19.5s55.834 6.5 81.501 19.5s45.167 30.167 58.5 51.5c14.667 23.333 22 64.666 22 123.999v414h75v-434c0 -66 -14.667 -117.333 -44 -154
c-22 -28.667 -50.167 -51 -84.5 -67s-70.5 -24 -108.5 -24c-38.667 0 -75.167 8 -109.5 24s-62.5 38.333 -84.5 67c-29.333 36.667 -44 88 -44 154v434zM365.999 878l70 -37l-125 -126l-45 26z" />
    <glyph glyph-name="Ucircumflex" unicode="&#xdb;" horiz-adv-x="635" 
d="M80 667h74.999v-414c0 -59.333 7.33301 -100.666 22 -123.999c13.333 -21.333 33 -38.5 59 -51.5s53.333 -19.5 82 -19.5s55.834 6.5 81.501 19.5s45.167 30.167 58.5 51.5c14.667 23.333 22 64.666 22 123.999v414h75v-434c0 -66 -14.667 -117.333 -44 -154
c-22 -28.667 -50.167 -51 -84.5 -67s-70.5 -24 -108.5 -24c-38.667 0 -75.167 8 -109.5 24s-62.5 38.333 -84.5 67c-29.333 36.667 -44 88 -44 154v434zM409.999 715l-92 87l-92 -87l-52 26l115 126h57l115 -126z" />
    <glyph glyph-name="Udieresis" unicode="&#xdc;" horiz-adv-x="635" 
d="M80 667h74.999v-414c0 -59.333 7.33301 -100.666 22 -123.999c13.333 -21.333 33 -38.5 59 -51.5s53.333 -19.5 82 -19.5s55.834 6.5 81.501 19.5s45.167 30.167 58.5 51.5c14.667 23.333 22 64.666 22 123.999v414h75v-434c0 -66 -14.667 -117.333 -44 -154
c-22 -28.667 -50.167 -51 -84.5 -67s-70.5 -24 -108.5 -24c-38.667 0 -75.167 8 -109.5 24s-62.5 38.333 -84.5 67c-29.333 36.667 -44 88 -44 154v434zM225.999 841c14 0 25.833 -4.83398 35.5 -14.501s14.5 -21.5 14.5 -35.5c0 -13.333 -5 -25 -15 -35
s-21.667 -15 -35 -15c-14 0 -25.833 4.83301 -35.5 14.5s-14.5 21.834 -14.5 36.501c0 13.333 5 24.833 15 34.5s21.667 14.5 35 14.5zM408.999 840.999c14 0 25.833 -4.83301 35.5 -14.5s14.5 -21.5 14.5 -35.5s-4.83301 -25.833 -14.5 -35.5s-21.5 -14.5 -35.5 -14.5
s-25.833 5 -35.5 15s-14.5 22 -14.5 36c0 13.333 5 24.833 15 34.5s21.667 14.5 35 14.5z" />
    <glyph glyph-name="Yacute" unicode="&#xdd;" horiz-adv-x="507" 
d="M216 0v278l-216 389h82l172 -318l172 318h81l-216 -389v-278h-75zM302 878l70 -37l-125 -126l-45 26z" />
    <glyph glyph-name="Thorn" unicode="&#xde;" horiz-adv-x="467" 
d="M155 667v-100h62c76.667 0 132.667 -16.333 168 -49c41.333 -37.333 62 -87 62 -149c0 -61.333 -20.667 -111 -62 -149c-35.333 -33.333 -91.333 -50 -168 -50h-62v-170h-75v667h75zM155 498v-260h71c98.667 0 148 43.667 148 131c0 86 -49.333 129 -148 129h-71z" />
    <glyph glyph-name="germandbls" unicode="&#xdf;" horiz-adv-x="518" 
d="M134 0h-70.999v499c0 52.667 16.667 95.834 50 129.501s75.666 50.5 126.999 50.5c54 0 97.833 -16.5 131.5 -49.5s50.5 -76.167 50.5 -129.5c0 -61.333 -18.667 -106 -56 -134c33.333 -14 59.5 -36.333 78.5 -67s28.5 -66 28.5 -106c0 -58 -19.833 -104.667 -59.5 -140
s-91.834 -53 -156.501 -53h-56v68h59c42 0 76 12 102 36s39 55 39 93c0 24 -6.16699 46.167 -18.5 66.5s-28.166 35.166 -47.499 44.499c-20.667 9.33301 -46.334 14 -77.001 14h-5v65h5c29.333 0 52.333 9.5 69 28.5s25 45.833 25 80.5c0 36.667 -9.66699 65.667 -29 87
s-45.666 32 -78.999 32c-32.667 0 -59.167 -10.667 -79.5 -32s-30.5 -49.333 -30.5 -84v-499z" />
    <glyph glyph-name="agrave" unicode="&#xe0;" 
d="M486 443v-443.001h-71v58c-41.333 -46.667 -93.333 -70 -156 -70c-62 0 -114.833 22.833 -158.5 68.5s-65.5 100.834 -65.5 165.501s21.833 119.667 65.5 165s96.5 68 158.5 68c61.333 0 113.333 -23.333 156 -70v58h71zM266 389.999
c-47.333 0 -85.667 -15.501 -115 -46.501s-44 -71.167 -44 -120.5c0 -50 14.5 -90.833 43.5 -122.5s66.5 -47.5 112.5 -47.5c45.333 0 82.333 15.833 111 47.5s43 72.167 43 121.5c0 48.667 -14.333 88.834 -43 120.501s-64.667 47.5 -108 47.5zM260.999 514.998l-125 126
l70 38l100 -138z" />
    <glyph glyph-name="aacute" unicode="&#xe1;" 
d="M486 443v-443.001h-71v58c-41.333 -46.667 -93.333 -70 -156 -70c-62 0 -114.833 22.833 -158.5 68.5s-65.5 100.834 -65.5 165.501s21.833 119.667 65.5 165s96.5 68 158.5 68c61.333 0 113.333 -23.333 156 -70v58h71zM266 389.999
c-47.333 0 -85.667 -15.501 -115 -46.501s-44 -71.167 -44 -120.5c0 -50 14.5 -90.833 43.5 -122.5s66.5 -47.5 112.5 -47.5c45.333 0 82.333 15.833 111 47.5s43 72.167 43 121.5c0 48.667 -14.333 88.834 -43 120.501s-64.667 47.5 -108 47.5zM321.999 678.998l70 -38
l-125 -126l-45 26z" />
    <glyph glyph-name="acircumflex" unicode="&#xe2;" 
d="M486 443v-443.001h-71v58c-41.333 -46.667 -93.333 -70 -156 -70c-62 0 -114.833 22.833 -158.5 68.5s-65.5 100.834 -65.5 165.501s21.833 119.667 65.5 165s96.5 68 158.5 68c61.333 0 113.333 -23.333 156 -70v58h71zM266 389.999
c-47.333 0 -85.667 -15.501 -115 -46.501s-44 -71.167 -44 -120.5c0 -50 14.5 -90.833 43.5 -122.5s66.5 -47.5 112.5 -47.5c45.333 0 82.333 15.833 111 47.5s43 72.167 43 121.5c0 48.667 -14.333 88.834 -43 120.501s-64.667 47.5 -108 47.5zM352.999 514.998l-92 87
l-92 -87l-52 26l115 126h57l115 -126z" />
    <glyph glyph-name="atilde" unicode="&#xe3;" 
d="M486 443v-443.001h-71v58c-41.333 -46.667 -93.333 -70 -156 -70c-62 0 -114.833 22.833 -158.5 68.5s-65.5 100.834 -65.5 165.501s21.833 119.667 65.5 165s96.5 68 158.5 68c61.333 0 113.333 -23.333 156 -70v58h71zM266 389.999
c-47.333 0 -85.667 -15.501 -115 -46.501s-44 -71.167 -44 -120.5c0 -50 14.5 -90.833 43.5 -122.5s66.5 -47.5 112.5 -47.5c45.333 0 82.333 15.833 111 47.5s43 72.167 43 121.5c0 48.667 -14.333 88.834 -43 120.501s-64.667 47.5 -108 47.5zM339.999 640.998l57.002 -14
c-5.33301 -56.667 -31.666 -85 -78.999 -85c-16.667 0 -39 6.33301 -67 19c-21.333 10 -36 15 -44 15c-7.33301 0 -12.833 -2.5 -16.5 -7.5s-6.83398 -14.167 -9.50098 -27.5l-56 13c2.66699 26.667 11 47.5 25 62.5s32 22.5 54 22.5c15.333 0 38.666 -7 69.999 -21
c18 -8.66699 32 -13 42 -13c8 0 13.667 2.5 17 7.5s5.66602 14.5 6.99902 28.5z" />
    <glyph glyph-name="adieresis" unicode="&#xe4;" 
d="M486 443v-443.001h-71v58c-41.333 -46.667 -93.333 -70 -156 -70c-62 0 -114.833 22.833 -158.5 68.5s-65.5 100.834 -65.5 165.501s21.833 119.667 65.5 165s96.5 68 158.5 68c61.333 0 113.333 -23.333 156 -70v58h71zM266 389.999
c-47.333 0 -85.667 -15.501 -115 -46.501s-44 -71.167 -44 -120.5c0 -50 14.5 -90.833 43.5 -122.5s66.5 -47.5 112.5 -47.5c45.333 0 82.333 15.833 111 47.5s43 72.167 43 121.5c0 48.667 -14.333 88.834 -43 120.501s-64.667 47.5 -108 47.5zM176.999 640.998
c14 0 25.833 -4.83398 35.5 -14.501s14.5 -21.5 14.5 -35.5c0 -13.333 -5 -25 -15 -35s-21.667 -15 -35 -15c-14 0 -25.833 4.83301 -35.5 14.5s-14.5 21.834 -14.5 36.501c0 13.333 5 24.833 15 34.5s21.667 14.5 35 14.5zM360.999 640.997
c14 0 25.833 -4.83301 35.5 -14.5s14.5 -21.5 14.5 -35.5s-4.83301 -25.833 -14.5 -35.5s-21.5 -14.5 -35.5 -14.5s-25.833 5 -35.5 15s-14.5 22 -14.5 36c0 13.333 5 24.833 15 34.5s21.667 14.5 35 14.5z" />
    <glyph glyph-name="aring" unicode="&#xe5;" 
d="M486 443v-443.001h-71v58c-41.333 -46.667 -93.333 -70 -156 -70c-62 0 -114.833 22.833 -158.5 68.5s-65.5 100.834 -65.5 165.501s21.833 119.667 65.5 165s96.5 68 158.5 68c61.333 0 113.333 -23.333 156 -70v58h71zM266 389.999
c-47.333 0 -85.667 -15.501 -115 -46.501s-44 -71.167 -44 -120.5c0 -50 14.5 -90.833 43.5 -122.5s66.5 -47.5 112.5 -47.5c45.333 0 82.333 15.833 111 47.5s43 72.167 43 121.5c0 48.667 -14.333 88.834 -43 120.501s-64.667 47.5 -108 47.5zM271.999 678.998
c25.333 0 46.666 -8.49902 63.999 -25.499s26 -37.833 26 -62.5s-8.66699 -45.5 -26 -62.5s-38.333 -25.5 -63 -25.5c-25.333 0 -46.666 8.66699 -63.999 26s-26 38.333 -26 63c0 23.333 8.83301 43.666 26.5 60.999s38.5 26 62.5 26zM272.999 642.999
c-14.667 0 -27 -5 -37 -15s-15 -22 -15 -36c0 -14.667 5 -27.167 15 -37.5s22.333 -15.5 37 -15.5c14 0 26 5 36 15s15 22.333 15 37s-5 27 -15 37s-22 15 -36 15z" />
    <glyph glyph-name="ae" unicode="&#xe6;" horiz-adv-x="822" 
d="M715 131l64.002 -27.001c-46.667 -77.333 -112.667 -116 -198 -116c-70.667 0 -128 28.333 -172 85c-28.667 -56.667 -87.667 -85 -177 -85c-60.667 0 -108.667 13.5 -144 40.5s-53 63.833 -53 110.5c0 46 16.333 82.167 49 108.5s77.667 39.5 135 39.5h141
c-8.66699 69.333 -52.334 104 -131.001 104c-51.333 0 -99 -16.667 -143 -50l-33 47c55.333 44.667 116.666 67 183.999 67c82 0 138 -29.333 168 -88c44 58.667 100.667 88 170 88c62 0 112.833 -22.667 152.5 -68s59.5 -103.333 59.5 -174v-22h-354
c5.33301 -41.333 21.5 -74.666 48.5 -99.999s59.833 -38 98.5 -38c59.333 0 104.333 26 135 78zM362.002 142.999v83h-129c-41.333 0 -73 -7.5 -95 -22.5s-33 -36.5 -33 -64.5s11 -49.5 33 -64.5s53.667 -22.5 95 -22.5c86 0 129 30.333 129 91zM433.002 251.999h283
c-6 42.667 -21.5 76.5 -46.5 101.5s-56.167 37.5 -93.5 37.5s-69 -12.5 -95 -37.5s-42 -58.833 -48 -101.5z" />
    <glyph glyph-name="ccedilla" unicode="&#xe7;" horiz-adv-x="457" 
d="M432 380l-46.998 -48.002c-34 38.667 -74.333 58 -121 58c-46 0 -83.667 -15.667 -113 -47s-44 -71.666 -44 -120.999c0 -50 14.667 -90.667 44 -122s67.333 -47 114 -47c26 0 48.167 4.66699 66.5 14s37.166 25.333 56.499 48l48 -48
c-26.667 -28.667 -53.167 -49 -79.5 -61s-56.5 -18 -90.5 -18c-65.333 0 -120.166 22.333 -164.499 67s-66.5 100.334 -66.5 167.001c0 66 22.167 121.333 66.5 166s99.166 67 164.499 67c61.333 0 116.666 -25 165.999 -75zM228.002 -47.002l66 -28l-101 -128l-49 24z" />
    <glyph glyph-name="egrave" unicode="&#xe8;" horiz-adv-x="496" 
d="M462 213v-22.001h-354c5.33301 -41.333 21.5 -74.666 48.5 -99.999s59.833 -38 98.5 -38c59.333 0 104.333 26 135 78l64 -27c-46.667 -77.333 -112.667 -116 -198 -116c-63.333 0 -116 22.5 -158 67.5s-63 100.833 -63 167.5c0 64.667 20.833 119.5 62.5 164.5
s92.5 67.5 152.5 67.5c62 0 112.833 -22.667 152.5 -68s59.5 -103.333 59.5 -174zM108 251.999h283.001c-6 42.667 -21.5 76.5 -46.5 101.5s-56.167 37.5 -93.5 37.5s-68.833 -12.5 -94.5 -37.5s-41.834 -58.833 -48.501 -101.5zM254.001 514.999l-125 126l70 38l100 -138z
" />
    <glyph glyph-name="eacute" unicode="&#xe9;" horiz-adv-x="496" 
d="M462 213v-22.001h-354c5.33301 -41.333 21.5 -74.666 48.5 -99.999s59.833 -38 98.5 -38c59.333 0 104.333 26 135 78l64 -27c-46.667 -77.333 -112.667 -116 -198 -116c-63.333 0 -116 22.5 -158 67.5s-63 100.833 -63 167.5c0 64.667 20.833 119.5 62.5 164.5
s92.5 67.5 152.5 67.5c62 0 112.833 -22.667 152.5 -68s59.5 -103.333 59.5 -174zM108 251.999h283.001c-6 42.667 -21.5 76.5 -46.5 101.5s-56.167 37.5 -93.5 37.5s-68.833 -12.5 -94.5 -37.5s-41.834 -58.833 -48.501 -101.5zM299.001 678.999l70 -38l-125 -126l-45 26z
" />
    <glyph glyph-name="ecircumflex" unicode="&#xea;" horiz-adv-x="496" 
d="M462 213v-22.001h-354c5.33301 -41.333 21.5 -74.666 48.5 -99.999s59.833 -38 98.5 -38c59.333 0 104.333 26 135 78l64 -27c-46.667 -77.333 -112.667 -116 -198 -116c-63.333 0 -116 22.5 -158 67.5s-63 100.833 -63 167.5c0 64.667 20.833 119.5 62.5 164.5
s92.5 67.5 152.5 67.5c62 0 112.833 -22.667 152.5 -68s59.5 -103.333 59.5 -174zM108 251.999h283.001c-6 42.667 -21.5 76.5 -46.5 101.5s-56.167 37.5 -93.5 37.5s-68.833 -12.5 -94.5 -37.5s-41.834 -58.833 -48.501 -101.5zM341.001 514.999l-92 87l-92 -87l-52 26
l115 126h57l115 -126z" />
    <glyph glyph-name="edieresis" unicode="&#xeb;" horiz-adv-x="496" 
d="M462 213v-22.001h-354c5.33301 -41.333 21.5 -74.666 48.5 -99.999s59.833 -38 98.5 -38c59.333 0 104.333 26 135 78l64 -27c-46.667 -77.333 -112.667 -116 -198 -116c-63.333 0 -116 22.5 -158 67.5s-63 100.833 -63 167.5c0 64.667 20.833 119.5 62.5 164.5
s92.5 67.5 152.5 67.5c62 0 112.833 -22.667 152.5 -68s59.5 -103.333 59.5 -174zM108 251.999h283.001c-6 42.667 -21.5 76.5 -46.5 101.5s-56.167 37.5 -93.5 37.5s-68.833 -12.5 -94.5 -37.5s-41.834 -58.833 -48.501 -101.5zM157.001 640.999
c14 0 25.833 -4.83398 35.5 -14.501s14.5 -21.5 14.5 -35.5c0 -13.333 -5 -25 -15 -35s-21.667 -15 -35 -15c-14 0 -25.833 4.83301 -35.5 14.5s-14.5 21.834 -14.5 36.501c0 13.333 5 24.833 15 34.5s21.667 14.5 35 14.5zM340.001 640.998
c14 0 25.833 -4.83301 35.5 -14.5s14.5 -21.5 14.5 -35.5s-4.83301 -25.833 -14.5 -35.5s-21.5 -14.5 -35.5 -14.5s-25.833 5 -35.5 15s-14.5 22 -14.5 36c0 13.333 5 24.833 15 34.5s21.667 14.5 35 14.5z" />
    <glyph glyph-name="igrave" unicode="&#xec;" horiz-adv-x="199" 
d="M65 443h71v-443h-71v443zM94 515l-125 126l70 38l100 -138z" />
    <glyph glyph-name="iacute" unicode="&#xed;" horiz-adv-x="199" 
d="M64 443h71v-443h-71v443zM161 679l70 -38l-125 -126l-45 26z" />
    <glyph glyph-name="icircumflex" unicode="&#xee;" horiz-adv-x="199" 
d="M64 443h71v-443h-71v443zM191 515l-92 87l-92 -87l-51 26l115 126h57l115 -126z" />
    <glyph glyph-name="idieresis" unicode="&#xef;" horiz-adv-x="199" 
d="M64 443h71v-443h-71v443zM32 641c14 0 25.833 -4.83398 35.5 -14.501s14.5 -21.5 14.5 -35.5c0 -13.333 -5 -25 -15 -35s-21.667 -15 -35 -15c-14 0 -25.833 4.83301 -35.5 14.5s-14.5 21.834 -14.5 36.501c0 13.333 5 24.833 15 34.5s21.667 14.5 35 14.5zM165 640.999
c14 0 25.833 -4.83301 35.5 -14.5s14.5 -21.5 14.5 -35.5s-4.83301 -25.833 -14.5 -35.5s-21.5 -14.5 -35.5 -14.5s-25.833 5 -35.5 15s-14.5 22 -14.5 36c0 13.333 5 24.833 15 34.5s21.667 14.5 35 14.5z" />
    <glyph glyph-name="eth" unicode="&#xf0;" horiz-adv-x="530" 
d="M352 660l29.001 -34.999l-60 -32c55.333 -36 98 -83.5 128 -142.5s45 -124.5 45 -196.5c0 -64 -12 -116.333 -36 -157c-20 -34 -47.167 -60.667 -81.5 -80s-71.833 -29 -112.5 -29c-64.667 0 -119 22.5 -163 67.5s-66 100.5 -66 166.5c0 64.667 21.667 119.5 65 164.5
s95.666 67.5 156.999 67.5c48.667 0 89 -14.667 121 -44c-18 36 -36 64 -54 84s-43.333 40 -76 60l-89 -48l-30 35l69 37c-30.667 11.333 -62.667 19.666 -96 24.999l9 63c64 -9.33301 119 -25 165 -47zM265.001 390.001c-46.667 0 -84.5 -15.667 -113.5 -47
s-43.5 -71.666 -43.5 -120.999c0 -48.667 14.667 -88.834 44 -120.501s66.666 -47.5 111.999 -47.5c44.667 0 81.834 15.667 111.501 47s44.5 70.666 44.5 117.999c0 50.667 -14.333 91.834 -43 123.501s-66 47.5 -112 47.5z" />
    <glyph glyph-name="ntilde" unicode="&#xf1;" horiz-adv-x="509" 
d="M63 443h71v-50c33.333 41.333 78 62 134 62c54 0 98 -18.667 132 -56c30.667 -33.333 46 -86.333 46 -159v-240h-71v231c0 59.333 -10 100 -30 122c-21.333 22.667 -49.333 34 -84 34c-43.333 0 -76.333 -14 -99 -42c-18.667 -23.333 -28 -64.333 -28 -123v-222h-71v443z
M338 641l58.001 -14c-5.33301 -56.667 -31.666 -85 -78.999 -85c-16.667 0 -39.334 6.33301 -68.001 19c-20.667 10 -35 15 -43 15s-13.833 -2.5 -17.5 -7.5s-6.5 -14.167 -8.5 -27.5l-57 13c3.33301 26.667 12 47.5 26 62.5s32 22.5 54 22.5c15.333 0 38.333 -7 69 -21
c19.333 -8.66699 33.666 -13 42.999 -13c8 0 13.5 2.5 16.5 7.5s5.16699 14.5 6.5 28.5z" />
    <glyph glyph-name="ograve" unicode="&#xf2;" horiz-adv-x="526" 
d="M267 455c62.667 0 115.833 -22.666 159.5 -67.999s65.5 -100.333 65.5 -165c0 -66 -22 -121.5 -66 -166.5s-98 -67.5 -162 -67.5c-65.333 0 -119.833 22.667 -163.5 68s-65.5 101.333 -65.5 168c0 65.333 22.333 120.166 67 164.499s99.667 66.5 165 66.5z
M265.999 390.001c-47.333 0 -85.666 -15.501 -114.999 -46.501s-44 -71.167 -44 -120.5c0 -50 14.5 -90.833 43.5 -122.5s66.833 -47.5 113.5 -47.5c45.333 0 82.666 15.833 111.999 47.5s44 72.167 44 121.5c0 48.667 -14.5 88.834 -43.5 120.501s-65.833 47.5 -110.5 47.5
zM262.999 515l-125 126l70 38l100 -138z" />
    <glyph glyph-name="oacute" unicode="&#xf3;" horiz-adv-x="526" 
d="M267 455c62.667 0 115.833 -22.666 159.5 -67.999s65.5 -100.333 65.5 -165c0 -66 -22 -121.5 -66 -166.5s-98 -67.5 -162 -67.5c-65.333 0 -119.833 22.667 -163.5 68s-65.5 101.333 -65.5 168c0 65.333 22.333 120.166 67 164.499s99.667 66.5 165 66.5z
M265.999 390.001c-47.333 0 -85.666 -15.501 -114.999 -46.501s-44 -71.167 -44 -120.5c0 -50 14.5 -90.833 43.5 -122.5s66.833 -47.5 113.5 -47.5c45.333 0 82.666 15.833 111.999 47.5s44 72.167 44 121.5c0 48.667 -14.5 88.834 -43.5 120.501s-65.833 47.5 -110.5 47.5
zM317.999 679l70 -38l-125 -126l-45 26z" />
    <glyph glyph-name="ocircumflex" unicode="&#xf4;" horiz-adv-x="526" 
d="M267 455c62.667 0 115.834 -22.666 159.501 -67.999s65.5 -100.333 65.5 -165c0 -66 -22 -121.5 -66 -166.5s-98.333 -67.5 -163 -67.5s-118.834 22.667 -162.501 68s-65.5 101.333 -65.5 168c0 65.333 22.333 120.166 67 164.499s99.667 66.5 165 66.5zM266 390.001
c-47.333 0 -85.666 -15.501 -114.999 -46.501s-44 -71.167 -44 -120.5c0 -50 14.5 -90.833 43.5 -122.5s66.833 -47.5 113.5 -47.5c45.333 0 82.666 15.833 111.999 47.5s44 72.167 44 121.5c0 48.667 -14.5 88.834 -43.5 120.501s-65.833 47.5 -110.5 47.5zM355 515l-92 87
l-92 -87l-51 26l115 126h57l115 -126z" />
    <glyph glyph-name="otilde" unicode="&#xf5;" horiz-adv-x="526" 
d="M267 455c62.667 0 115.833 -22.666 159.5 -67.999s65.5 -100.333 65.5 -165c0 -66 -22 -121.5 -66 -166.5s-98 -67.5 -162 -67.5c-65.333 0 -119.833 22.667 -163.5 68s-65.5 101.333 -65.5 168c0 65.333 22.333 120.166 67 164.499s99.667 66.5 165 66.5z
M265.999 390.001c-47.333 0 -85.666 -15.501 -114.999 -46.501s-44 -71.167 -44 -120.5c0 -50 14.5 -90.833 43.5 -122.5s66.833 -47.5 113.5 -47.5c45.333 0 82.666 15.833 111.999 47.5s44 72.167 44 121.5c0 48.667 -14.5 88.834 -43.5 120.501s-65.833 47.5 -110.5 47.5
zM341.999 641l57 -14c-2 -27.333 -9.66699 -48.333 -23 -63s-31.666 -22 -54.999 -22c-16.667 0 -39.334 6.33301 -68.001 19c-20.667 10 -35 15 -43 15s-13.833 -2.5 -17.5 -7.5s-6.5 -14.167 -8.5 -27.5l-57 13c3.33301 26.667 12 47.5 26 62.5s32 22.5 54 22.5
c15.333 0 38.333 -7 69 -21c18 -8.66699 32.333 -13 43 -13c8 0 13.5 2.5 16.5 7.5s5.16699 14.5 6.5 28.5z" />
    <glyph glyph-name="odieresis" unicode="&#xf6;" horiz-adv-x="526" 
d="M267 455c62.667 0 115.833 -22.666 159.5 -67.999s65.5 -100.333 65.5 -165c0 -66 -22 -121.5 -66 -166.5s-98 -67.5 -162 -67.5c-65.333 0 -119.833 22.667 -163.5 68s-65.5 101.333 -65.5 168c0 65.333 22.333 120.166 67 164.499s99.667 66.5 165 66.5z
M265.999 390.001c-47.333 0 -85.666 -15.501 -114.999 -46.501s-44 -71.167 -44 -120.5c0 -50 14.5 -90.833 43.5 -122.5s66.833 -47.5 113.5 -47.5c45.333 0 82.666 15.833 111.999 47.5s44 72.167 44 121.5c0 48.667 -14.5 88.834 -43.5 120.501s-65.833 47.5 -110.5 47.5
zM171.999 641c14 0 25.833 -4.83398 35.5 -14.501s14.5 -21.5 14.5 -35.5c0 -13.333 -5 -25 -15 -35s-21.667 -15 -35 -15c-14 0 -25.833 4.83301 -35.5 14.5s-14.5 21.834 -14.5 36.501c0 13.333 5 24.833 15 34.5s21.667 14.5 35 14.5zM354.999 640.999
c14 0 25.833 -4.83301 35.5 -14.5s14.5 -21.5 14.5 -35.5s-4.83301 -25.833 -14.5 -35.5s-21.5 -14.5 -35.5 -14.5s-25.833 5 -35.5 15s-14.5 22 -14.5 36c0 13.333 5 24.833 15 34.5s21.667 14.5 35 14.5z" />
    <glyph glyph-name="divide" unicode="&#xf7;" horiz-adv-x="556" 
d="M64 343h429v-63h-429v63zM279 191c14.667 0 27.167 -5.16699 37.5 -15.5s15.5 -22.833 15.5 -37.5s-5.33301 -27.334 -16 -38.001s-23.334 -16 -38.001 -16s-27.167 5.33301 -37.5 16s-15.5 23.334 -15.5 38.001s5.33301 27.167 16 37.5s23.334 15.5 38.001 15.5z
M279 540c14.667 0 27.167 -5.16895 37.5 -15.502s15.5 -22.833 15.5 -37.5c0 -15.333 -5.33301 -28.166 -16 -38.499s-23.334 -15.5 -38.001 -15.5s-27.167 5.33301 -37.5 16s-15.5 23.334 -15.5 38.001s5.33301 27.167 16 37.5s23.334 15.5 38.001 15.5z" />
    <glyph glyph-name="oslash" unicode="&#xf8;" horiz-adv-x="539" 
d="M79 -2l-38 37l46 45c-30.667 40.667 -46 88 -46 142c0 65.333 22 120.5 66 165.5s98 67.5 162 67.5c56.667 0 105.667 -17.667 147 -53l44 43l38 -37l-46 -44c30.667 -44 46 -91.333 46 -142c0 -66 -22 -121.5 -66 -166.5s-98 -67.5 -162 -67.5
c-56.667 0 -105.667 17.667 -147 53zM135 126l235 231.001c-28 22 -61.333 33 -100 33c-46.667 0 -84.5 -15.667 -113.5 -47s-43.5 -72 -43.5 -122c0 -34.667 7.33301 -66.334 22 -95.001zM404 317.001l-236 -230.999c29.333 -22 63 -33 101 -33c46 0 83.667 15.667 113 47
s44 71.666 44 120.999c0 38 -7.33301 70 -22 96z" />
    <glyph glyph-name="ugrave" unicode="&#xf9;" horiz-adv-x="509" 
d="M446 0l-71 0.000976562v50c-33.333 -41.333 -78 -62 -134 -62c-54 0 -98 18.667 -132 56c-30.667 33.333 -46 86.333 -46 159v240h71v-231c0 -59.333 10 -100 30 -122c21.333 -22.667 49.333 -34 84 -34c43.333 0 76.333 14 99 42c18.667 23.333 28 64.666 28 123.999
v221h71v-443zM256 515.001l-125 126l70 38l100 -138z" />
    <glyph glyph-name="uacute" unicode="&#xfa;" horiz-adv-x="509" 
d="M446 0l-71 0.000976562v50c-33.333 -41.333 -78 -62 -134 -62c-54 0 -98 18.667 -132 56c-30.667 33.333 -46 86.333 -46 159v240h71v-231c0 -59.333 10 -100 30 -122c21.333 -22.667 49.333 -34 84 -34c43.333 0 76.333 14 99 42c18.667 23.333 28 64.666 28 123.999
v221h71v-443zM305 679.001l70 -38l-125 -126l-45 26z" />
    <glyph glyph-name="ucircumflex" unicode="&#xfb;" horiz-adv-x="509" 
d="M446 0l-71 0.000976562v50c-33.333 -41.333 -78 -62 -134 -62c-54 0 -98 18.667 -132 56c-30.667 33.333 -46 86.333 -46 159v240h71v-231c0 -59.333 10 -100 30 -122c21.333 -22.667 49.333 -34 84 -34c43.333 0 76.333 14 99 42c18.667 23.333 28 64.666 28 123.999
v221h71v-443zM347 515.001l-92 87l-92 -87l-52 26l115 126h57l115 -126z" />
    <glyph glyph-name="udieresis" unicode="&#xfc;" horiz-adv-x="509" 
d="M446 0l-71 0.000976562v50c-33.333 -41.333 -78 -62 -134 -62c-54 0 -98 18.667 -132 56c-30.667 33.333 -46 86.333 -46 159v240h71v-231c0 -59.333 10 -100 30 -122c21.333 -22.667 49.333 -34 84 -34c43.333 0 76.333 14 99 42c18.667 23.333 28 64.666 28 123.999
v221h71v-443zM163 641.001c14 0 25.833 -4.83398 35.5 -14.501s14.5 -21.5 14.5 -35.5c0 -13.333 -5 -25 -15 -35s-21.667 -15 -35 -15c-14 0 -25.833 4.83301 -35.5 14.5s-14.5 21.834 -14.5 36.501c0 13.333 5 24.833 15 34.5s21.667 14.5 35 14.5zM346 641
c14 0 25.833 -4.83301 35.5 -14.5s14.5 -21.5 14.5 -35.5s-4.83301 -25.833 -14.5 -35.5s-21.5 -14.5 -35.5 -14.5s-25.833 5 -35.5 15s-14.5 22 -14.5 36c0 13.333 5 24.833 15 34.5s21.667 14.5 35 14.5z" />
    <glyph glyph-name="yacute" unicode="&#xfd;" horiz-adv-x="441" 
d="M71 -233l110 253l-180 423h77l141 -336l146 336h76l-296 -676h-74zM274 679l70 -38l-125 -126l-45 26z" />
    <glyph glyph-name="thorn" unicode="&#xfe;" horiz-adv-x="550" 
d="M64 -233v900.001h71v-282c41.333 46.667 93.333 70 156 70c62 0 114.833 -22.833 158.5 -68.5s65.5 -100.834 65.5 -165.501s-21.833 -119.667 -65.5 -165s-96.5 -68 -158.5 -68c-61.333 0 -113.333 23.333 -156 70v-291h-71zM287 390.001
c-44.667 0 -81.166 -15.666 -109.499 -46.999s-42.5 -72 -42.5 -122c0 -48.667 14.167 -88.834 42.5 -120.501s64.166 -47.5 107.499 -47.5c46.667 0 84.667 15.5 114 46.5s44 71.167 44 120.5c0 50 -14.5 90.833 -43.5 122.5s-66.5 47.5 -112.5 47.5z" />
    <glyph glyph-name="ydieresis" unicode="&#xff;" horiz-adv-x="441" 
d="M71 -233l110 253l-180 423h77l141 -336l146 336h76l-296 -676h-74zM129 641c14 0 25.833 -4.83398 35.5 -14.501s14.5 -21.5 14.5 -35.5c0 -13.333 -5 -25 -15 -35s-21.667 -15 -35 -15c-14 0 -25.833 4.83301 -35.5 14.5s-14.5 21.834 -14.5 36.501
c0 13.333 5 24.833 15 34.5s21.667 14.5 35 14.5zM313 640.999c14 0 25.833 -4.83301 35.5 -14.5s14.5 -21.5 14.5 -35.5s-4.83301 -25.833 -14.5 -35.5s-21.5 -14.5 -35.5 -14.5s-25.833 5 -35.5 15s-14.5 22 -14.5 36c0 13.333 5 24.833 15 34.5s21.667 14.5 35 14.5z" />
    <glyph glyph-name="Amacron" unicode="&#x100;" horiz-adv-x="620" 
d="M464 189h-308l-72 -189h-77l257 667h93l257 -667h-78zM309 595l-127 -337h255zM174 758v64h273v-64h-273z" />
    <glyph glyph-name="amacron" unicode="&#x101;" 
d="M486 443v-443.001h-71v58c-41.333 -46.667 -93.333 -70 -156 -70c-62 0 -114.833 22.833 -158.5 68.5s-65.5 100.834 -65.5 165.501s21.833 119.667 65.5 165s96.5 68 158.5 68c61.333 0 113.333 -23.333 156 -70v58h71zM266 389.999
c-47.333 0 -85.667 -15.501 -115 -46.501s-44 -71.167 -44 -120.5c0 -50 14.5 -90.833 43.5 -122.5s66.5 -47.5 112.5 -47.5c45.333 0 82.333 15.833 111 47.5s43 72.167 43 121.5c0 48.667 -14.333 88.834 -43 120.501s-64.667 47.5 -108 47.5zM135.999 557.998v64h273v-64
h-273z" />
    <glyph glyph-name="Abreve" unicode="&#x102;" horiz-adv-x="620" 
d="M464 189h-308l-72 -189h-77l257 667h93l257 -667h-78zM309 595l-127 -337h255zM179 847l61.001 5.00098c0.666992 -24 7.16699 -42.5 19.5 -55.5s28.833 -19.5 49.5 -19.5c40.667 0 64.667 25 72 75l61 -5c-4.66699 -40.667 -18.834 -72.834 -42.501 -96.501
s-53.834 -35.5 -90.501 -35.5c-43.333 0 -77.666 16.333 -102.999 49c-17.333 21.333 -26.333 49 -27 83z" />
    <glyph glyph-name="abreve" unicode="&#x103;" 
d="M486 443v-443.001h-71v58c-41.333 -46.667 -93.333 -70 -156 -70c-62 0 -114.833 22.833 -158.5 68.5s-65.5 100.834 -65.5 165.501s21.833 119.667 65.5 165s96.5 68 158.5 68c61.333 0 113.333 -23.333 156 -70v58h71zM266 389.999
c-47.333 0 -85.667 -15.501 -115 -46.501s-44 -71.167 -44 -120.5c0 -50 14.5 -90.833 43.5 -122.5s66.5 -47.5 112.5 -47.5c45.333 0 82.333 15.833 111 47.5s43 72.167 43 121.5c0 48.667 -14.333 88.834 -43 120.501s-64.667 47.5 -108 47.5zM129.999 646.998
l61.0039 4.99902c1.33301 -23.333 8 -41.666 20 -54.999s28.333 -20 49 -20c41.333 0 65.666 25 72.999 75l61 -5c-4.66699 -40.667 -18.834 -72.834 -42.501 -96.501s-53.834 -35.5 -90.501 -35.5c-38.667 0 -69.834 12.333 -93.501 37s-36.167 56.334 -37.5 95.001z" />
    <glyph glyph-name="Aogonek" unicode="&#x104;" horiz-adv-x="620" 
d="M542 0h-6l-72 189h-308l-72 -189h-77l257 667h93l257 -667c-24.667 -28 -37 -50 -37 -66c0 -17.333 11 -26 33 -26c8.66699 0 21 2.33301 37 7l20 -51c-22.667 -8.66699 -43.667 -13 -63 -13c-26.667 0 -48.667 7.16699 -66 21.5s-26 32.5 -26 54.5c0 24 10 48.333 30 73
zM309 595l-127 -337h255z" />
    <glyph glyph-name="aogonek" unicode="&#x105;" 
d="M415 0v57.999c-41.333 -46.667 -93.333 -70 -156 -70c-62 0 -114.833 22.833 -158.5 68.5s-65.5 100.834 -65.5 165.501s21.833 119.667 65.5 165s96.5 68 158.5 68c61.333 0 113.333 -23.333 156 -70v58h71v-443c-24 -27.333 -36 -49.333 -36 -66
c0 -17.333 10.667 -26 32 -26c8.66699 0 21 2.33301 37 7l20 -51c-22.667 -8.66699 -43.667 -13 -63 -13c-26 0 -47.667 7.16699 -65 21.5s-26 32.5 -26 54.5c0 24.667 10 49 30 73zM266 389.999c-47.333 0 -85.667 -15.501 -115 -46.501s-44 -71.167 -44 -120.5
c0 -50 14.5 -90.833 43.5 -122.5s66.5 -47.5 112.5 -47.5c45.333 0 82.333 15.833 111 47.5s43 72.167 43 121.5c0 48.667 -14.333 88.834 -43 120.501s-64.667 47.5 -108 47.5z" />
    <glyph glyph-name="Cacute" unicode="&#x106;" horiz-adv-x="662" 
d="M625 572l-51.001 -51c-29.333 31.333 -58.666 53.833 -87.999 67.5s-63 20.5 -101 20.5c-75.333 0 -138.833 -26.5 -190.5 -79.5s-77.5 -118.5 -77.5 -196.5c0 -76.667 25.833 -141.667 77.5 -195s115.167 -80 190.5 -80c37.333 0 70.833 7 100.5 21s60.167 37 91.5 69
l52 -51c-39.333 -38.667 -77.833 -66.5 -115.5 -83.5s-80.167 -25.5 -127.5 -25.5c-95.333 0 -176.5 33.5 -243.5 100.5s-100.5 148.5 -100.5 244.5c0 96.667 33.5 178.5 100.5 245.5s148.167 100.5 243.5 100.5c46.667 0 88.5 -8.33301 125.5 -25s74.833 -44 113.5 -82z
M440.999 878l70 -37l-125 -126l-45 26z" />
    <glyph glyph-name="cacute" unicode="&#x107;" horiz-adv-x="457" 
d="M432 380l-46.998 -48.002c-34 38.667 -74.333 58 -121 58c-46 0 -83.667 -15.667 -113 -47s-44 -71.666 -44 -120.999c0 -50 14.667 -90.667 44 -122s67.333 -47 114 -47c26 0 48.167 4.66699 66.5 14s37.166 25.333 56.499 48l48 -48
c-26.667 -28.667 -53.167 -49 -79.5 -61s-56.5 -18 -90.5 -18c-65.333 0 -120.166 22.333 -164.499 67s-66.5 100.334 -66.5 167.001c0 66 22.167 121.333 66.5 166s99.166 67 164.499 67c61.333 0 116.666 -25 165.999 -75zM302.002 678.998l70 -38l-125 -126l-45 26z" />
    <glyph glyph-name="Ccircumflex" unicode="&#x108;" horiz-adv-x="662" 
d="M625 572l-51.001 -51c-29.333 31.333 -58.666 53.833 -87.999 67.5s-63 20.5 -101 20.5c-75.333 0 -138.833 -26.5 -190.5 -79.5s-77.5 -118.5 -77.5 -196.5c0 -76.667 25.833 -141.667 77.5 -195s115.167 -80 190.5 -80c37.333 0 70.833 7 100.5 21s60.167 37 91.5 69
l52 -51c-39.333 -38.667 -77.833 -66.5 -115.5 -83.5s-80.167 -25.5 -127.5 -25.5c-95.333 0 -176.5 33.5 -243.5 100.5s-100.5 148.5 -100.5 244.5c0 96.667 33.5 178.5 100.5 245.5s148.167 100.5 243.5 100.5c46.667 0 88.5 -8.33301 125.5 -25s74.833 -44 113.5 -82z
M460.999 715l-92 87l-92 -87l-51 26l115 126h57l114 -126z" />
    <glyph glyph-name="ccircumflex" unicode="&#x109;" horiz-adv-x="457" 
d="M432 380l-46.998 -48.002c-34 38.667 -74.333 58 -121 58c-46 0 -83.667 -15.667 -113 -47s-44 -71.666 -44 -120.999c0 -50 14.667 -90.667 44 -122s67.333 -47 114 -47c26 0 48.167 4.66699 66.5 14s37.166 25.333 56.499 48l48 -48
c-26.667 -28.667 -53.167 -49 -79.5 -61s-56.5 -18 -90.5 -18c-65.333 0 -120.166 22.333 -164.499 67s-66.5 100.334 -66.5 167.001c0 66 22.167 121.333 66.5 166s99.166 67 164.499 67c61.333 0 116.666 -25 165.999 -75zM341.002 514.998l-92 87l-92 -87l-51 26l115 126
h56l115 -126z" />
    <glyph glyph-name="Cdotaccent" unicode="&#x10a;" horiz-adv-x="662" 
d="M625 572l-51.001 -51c-29.333 31.333 -58.666 53.833 -87.999 67.5s-63 20.5 -101 20.5c-75.333 0 -138.833 -26.5 -190.5 -79.5s-77.5 -118.5 -77.5 -196.5c0 -76.667 25.833 -141.667 77.5 -195s115.167 -80 190.5 -80c37.333 0 70.833 7 100.5 21s60.167 37 91.5 69
l52 -51c-39.333 -38.667 -77.833 -66.5 -115.5 -83.5s-80.167 -25.5 -127.5 -25.5c-95.333 0 -176.5 33.5 -243.5 100.5s-100.5 148.5 -100.5 244.5c0 96.667 33.5 178.5 100.5 245.5s148.167 100.5 243.5 100.5c46.667 0 88.5 -8.33301 125.5 -25s74.833 -44 113.5 -82z
M377.999 841c14 0 25.833 -4.83398 35.5 -14.501s14.5 -21.5 14.5 -35.5c0 -13.333 -5 -25 -15 -35s-21.667 -15 -35 -15c-14 0 -25.833 4.83301 -35.5 14.5s-14.5 21.834 -14.5 36.501c0 13.333 5 24.833 15 34.5s21.667 14.5 35 14.5z" />
    <glyph glyph-name="cdotaccent" unicode="&#x10b;" horiz-adv-x="457" 
d="M432 380l-46.998 -48.002c-34 38.667 -74.333 58 -121 58c-46 0 -83.667 -15.667 -113 -47s-44 -71.666 -44 -120.999c0 -50 14.667 -90.667 44 -122s67.333 -47 114 -47c26 0 48.167 4.66699 66.5 14s37.166 25.333 56.499 48l48 -48
c-26.667 -28.667 -53.167 -49 -79.5 -61s-56.5 -18 -90.5 -18c-65.333 0 -120.166 22.333 -164.499 67s-66.5 100.334 -66.5 167.001c0 66 22.167 121.333 66.5 166s99.166 67 164.499 67c61.333 0 116.666 -25 165.999 -75zM253.002 640.998
c14 0 25.833 -4.83398 35.5 -14.501s14.5 -21.5 14.5 -35.5c0 -13.333 -5 -25 -15 -35s-21.667 -15 -35 -15c-14 0 -25.833 4.83301 -35.5 14.5s-14.5 21.834 -14.5 36.501c0 13.333 5 24.833 15 34.5s21.667 14.5 35 14.5z" />
    <glyph glyph-name="Ccaron" unicode="&#x10c;" horiz-adv-x="662" 
d="M625 572l-51.001 -51c-29.333 31.333 -58.666 53.833 -87.999 67.5s-63 20.5 -101 20.5c-75.333 0 -138.833 -26.5 -190.5 -79.5s-77.5 -118.5 -77.5 -196.5c0 -76.667 25.833 -141.667 77.5 -195s115.167 -80 190.5 -80c37.333 0 70.833 7 100.5 21s60.167 37 91.5 69
l52 -51c-39.333 -38.667 -77.833 -66.5 -115.5 -83.5s-80.167 -25.5 -127.5 -25.5c-95.333 0 -176.5 33.5 -243.5 100.5s-100.5 148.5 -100.5 244.5c0 96.667 33.5 178.5 100.5 245.5s148.167 100.5 243.5 100.5c46.667 0 88.5 -8.33301 125.5 -25s74.833 -44 113.5 -82z
M276.999 873l92 -87l92 87l51 -26l-114 -126h-57l-115 126z" />
    <glyph glyph-name="ccaron" unicode="&#x10d;" horiz-adv-x="457" 
d="M432 380l-46.998 -48.002c-34 38.667 -74.333 58 -121 58c-46 0 -83.667 -15.667 -113 -47s-44 -71.666 -44 -120.999c0 -50 14.667 -90.667 44 -122s67.333 -47 114 -47c26 0 48.167 4.66699 66.5 14s37.166 25.333 56.499 48l48 -48
c-26.667 -28.667 -53.167 -49 -79.5 -61s-56.5 -18 -90.5 -18c-65.333 0 -120.166 22.333 -164.499 67s-66.5 100.334 -66.5 167.001c0 66 22.167 121.333 66.5 166s99.166 67 164.499 67c61.333 0 116.666 -25 165.999 -75zM157.002 672.998l92 -87l92 87l51 -26l-115 -126
h-56l-115 126z" />
    <glyph glyph-name="Dcaron" unicode="&#x10e;" horiz-adv-x="619" 
d="M80 0l-0.00195312 667.001h137c110.667 0 198.334 -29.833 263.001 -89.5s97 -140.834 97 -243.501s-32.167 -184 -96.5 -244s-152.166 -90 -263.499 -90h-137zM219.998 598.001l-65 -0.000976562v-529h65c86.667 0 155.334 23.833 206.001 71.5s76 112.167 76 193.5
c0 80.667 -25.333 144.834 -76 192.501s-119.334 71.5 -206.001 71.5zM197.998 873l92 -87l92 87l51 -26l-115 -126h-56l-115 126z" />
    <glyph glyph-name="dcaron" unicode="&#x10f;" horiz-adv-x="643" 
d="M486 667v-667.001h-71v58c-41.333 -46.667 -93.333 -70 -156 -70c-62 0 -114.833 22.833 -158.5 68.5s-65.5 100.834 -65.5 165.501s21.833 119.667 65.5 165s96.5 68 158.5 68c61.333 0 113.333 -23.333 156 -70v282h71zM265 389.999
c-46.667 0 -84.668 -15.501 -114.001 -46.501s-44 -71.167 -44 -120.5c0 -50 14.5 -90.833 43.5 -122.5s66.5 -47.5 112.5 -47.5c44.667 0 81.167 15.833 109.5 47.5s42.5 72.167 42.5 121.5c0 48.667 -14.167 88.834 -42.5 120.501s-64.166 47.5 -107.499 47.5z
M532.999 520.998l46 158l69 -21l-65 -153z" />
    <glyph glyph-name="Dcroat" unicode="&#x110;" horiz-adv-x="634" 
d="M28 393l67 0.000976562v274h137c110.667 0 198.167 -29.833 262.5 -89.5s96.5 -140.834 96.5 -243.501s-32.167 -184 -96.5 -244s-151.833 -90 -262.5 -90h-137v326h-67v67zM170 598.001v-205.001h159v-67h-159v-257h65c86 0 154.333 23.833 205 71.5
s76 112.167 76 193.5c0 80.667 -25.333 144.834 -76 192.501s-119 71.5 -205 71.5h-65z" />
    <glyph glyph-name="dcroat" unicode="&#x111;" 
d="M295 585l120 -0.000976562v82h71v-82h60v-64h-60v-521h-71v58c-41.333 -46.667 -93.333 -70 -156 -70c-62 0 -114.833 22.833 -158.5 68.5s-65.5 100.834 -65.5 165.501s21.833 119.667 65.5 165s96.5 68 158.5 68c61.333 0 113.333 -23.333 156 -70v136h-120v64z
M265 389.999c-46.667 0 -84.668 -15.501 -114.001 -46.501s-44 -71.167 -44 -120.5c0 -50 14.5 -90.833 43.5 -122.5s66.5 -47.5 112.5 -47.5c44.667 0 81.167 15.833 109.5 47.5s42.5 72.167 42.5 121.5c0 48.667 -14.167 88.834 -42.5 120.501s-64.166 47.5 -107.499 47.5
z" />
    <glyph glyph-name="Emacron" unicode="&#x112;" horiz-adv-x="475" 
d="M423 667v-69h-268v-225h238v-69h-238v-235h278v-69h-353v667h343zM120 758v64h273v-64h-273z" />
    <glyph glyph-name="emacron" unicode="&#x113;" horiz-adv-x="496" 
d="M462 213v-22.001h-354c5.33301 -41.333 21.5 -74.666 48.5 -99.999s59.833 -38 98.5 -38c59.333 0 104.333 26 135 78l64 -27c-46.667 -77.333 -112.667 -116 -198 -116c-63.333 0 -116 22.5 -158 67.5s-63 100.833 -63 167.5c0 64.667 20.833 119.5 62.5 164.5
s92.5 67.5 152.5 67.5c62 0 112.833 -22.667 152.5 -68s59.5 -103.333 59.5 -174zM108 251.999h283.001c-6 42.667 -21.5 76.5 -46.5 101.5s-56.167 37.5 -93.5 37.5s-68.833 -12.5 -94.5 -37.5s-41.834 -58.833 -48.501 -101.5zM112.001 557.999v64h273v-64h-273z" />
    <glyph glyph-name="Ebreve" unicode="&#x114;" horiz-adv-x="475" 
d="M423 667v-69h-268v-225h238v-69h-238v-235h278v-69h-353v667h343zM125 847l61.001 5.00098c0.666992 -24 7.16699 -42.5 19.5 -55.5s28.833 -19.5 49.5 -19.5c40.667 0 64.667 25 72 75l61 -5c-4.66699 -40.667 -18.667 -72.834 -42 -96.501s-53.333 -35.5 -90 -35.5
c-42.667 0 -77.334 16.333 -104.001 49c-17.333 21.333 -26.333 49 -27 83z" />
    <glyph glyph-name="ebreve" unicode="&#x115;" horiz-adv-x="496" 
d="M462 213v-22.001h-354c5.33301 -41.333 21.5 -74.666 48.5 -99.999s59.833 -38 98.5 -38c59.333 0 104.333 26 135 78l64 -27c-46.667 -77.333 -112.667 -116 -198 -116c-63.333 0 -116 22.5 -158 67.5s-63 100.833 -63 167.5c0 64.667 20.833 119.5 62.5 164.5
s92.5 67.5 152.5 67.5c62 0 112.833 -22.667 152.5 -68s59.5 -103.333 59.5 -174zM108 251.999h283.001c-6 42.667 -21.5 76.5 -46.5 101.5s-56.167 37.5 -93.5 37.5s-68.833 -12.5 -94.5 -37.5s-41.834 -58.833 -48.501 -101.5zM120.001 646.999l61.0039 4.99902
c1.33301 -23.333 8 -41.666 20 -54.999s28.333 -20 49 -20c41.333 0 65.666 25 72.999 75l61 -5c-4.66699 -40.667 -18.834 -72.834 -42.501 -96.501s-53.834 -35.5 -90.501 -35.5c-38.667 0 -69.834 12.333 -93.501 37s-36.167 56.334 -37.5 95.001z" />
    <glyph glyph-name="Edotaccent" unicode="&#x116;" horiz-adv-x="475" 
d="M423 667v-69h-268v-225h238v-69h-238v-235h278v-69h-353v667h343zM257 841c14 0 25.833 -4.83398 35.5 -14.501s14.5 -21.5 14.5 -35.5c0 -13.333 -5 -25 -15 -35s-21.667 -15 -35 -15c-14 0 -25.833 4.83301 -35.5 14.5s-14.5 21.834 -14.5 36.501
c0 13.333 5 24.833 15 34.5s21.667 14.5 35 14.5z" />
    <glyph glyph-name="edotaccent" unicode="&#x117;" horiz-adv-x="496" 
d="M462 213v-22.001h-354c5.33301 -41.333 21.5 -74.666 48.5 -99.999s59.833 -38 98.5 -38c59.333 0 104.333 26 135 78l64 -27c-46.667 -77.333 -112.667 -116 -198 -116c-63.333 0 -116 22.5 -158 67.5s-63 100.833 -63 167.5c0 64.667 20.833 119.5 62.5 164.5
s92.5 67.5 152.5 67.5c62 0 112.833 -22.667 152.5 -68s59.5 -103.333 59.5 -174zM108 251.999h283.001c-6 42.667 -21.5 76.5 -46.5 101.5s-56.167 37.5 -93.5 37.5s-68.833 -12.5 -94.5 -37.5s-41.834 -58.833 -48.501 -101.5zM249.001 640.999
c14 0 25.833 -4.83398 35.5 -14.501s14.5 -21.5 14.5 -35.5c0 -13.333 -5 -25 -15 -35s-21.667 -15 -35 -15c-14 0 -25.833 4.83301 -35.5 14.5s-14.5 21.834 -14.5 36.501c0 13.333 5 24.833 15 34.5s21.667 14.5 35 14.5z" />
    <glyph glyph-name="Eogonek" unicode="&#x118;" horiz-adv-x="475" 
d="M155 69h278.001v-69c-24 -27.333 -36 -49.333 -36 -66c0 -17.333 10.667 -26 32 -26c11.333 0 23.666 2.33301 36.999 7l20 -51c-22.667 -8.66699 -43.667 -13 -63 -13c-26.667 0 -48.5 7.16699 -65.5 21.5s-25.5 32.5 -25.5 54.5c0 22.667 10 47 30 73h-282v667h343v-69
h-268v-225h238v-69h-238v-235z" />
    <glyph glyph-name="eogonek" unicode="&#x119;" horiz-adv-x="496" 
d="M390 131l63.999 -27.001c-38 -66.667 -94.667 -104.667 -170 -114c-18.667 -22.667 -28 -41.667 -28 -57c0 -17.333 11 -26 33 -26c8.66699 0 21 2.33301 37 7l20 -50c-24 -9.33301 -45 -14 -63 -14c-26.667 0 -48.667 7.16699 -66 21.5s-26 32.833 -26 55.5
c0 22 8 43.667 24 65c-53.333 9.33301 -96.666 35.5 -129.999 78.5s-50 93.833 -50 152.5c0 64.667 20.833 119.5 62.5 164.5s92.5 67.5 152.5 67.5c62 0 112.833 -22.667 152.5 -68s59.5 -103.333 59.5 -174v-22h-354c5.33301 -41.333 21.5 -74.666 48.5 -99.999
s59.833 -38 98.5 -38c59.333 0 104.333 26 135 78zM107.999 251.999h283.001c-6 42.667 -21.5 76.5 -46.5 101.5s-56.167 37.5 -93.5 37.5s-68.833 -12.5 -94.5 -37.5s-41.834 -58.833 -48.501 -101.5z" />
    <glyph glyph-name="Ecaron" unicode="&#x11a;" horiz-adv-x="475" 
d="M423 667v-69h-268v-225h238v-69h-238v-235h278v-69h-353v667h343zM165 873l92 -87l92 87l51 -26l-115 -126h-57l-115 126z" />
    <glyph glyph-name="ecaron" unicode="&#x11b;" horiz-adv-x="496" 
d="M462 213v-22.001h-354c5.33301 -41.333 21.5 -74.666 48.5 -99.999s59.833 -38 98.5 -38c59.333 0 104.333 26 135 78l64 -27c-46.667 -77.333 -112.667 -116 -198 -116c-63.333 0 -116 22.5 -158 67.5s-63 100.833 -63 167.5c0 64.667 20.833 119.5 62.5 164.5
s92.5 67.5 152.5 67.5c62 0 112.833 -22.667 152.5 -68s59.5 -103.333 59.5 -174zM108 251.999h283.001c-6 42.667 -21.5 76.5 -46.5 101.5s-56.167 37.5 -93.5 37.5s-68.833 -12.5 -94.5 -37.5s-41.834 -58.833 -48.501 -101.5zM157.001 672.999l92 -87l92 87l51 -26
l-115 -126h-57l-115 126z" />
    <glyph glyph-name="Gcircumflex" unicode="&#x11c;" horiz-adv-x="727" 
d="M410 275l-0.000976562 69.001h274v-37c0 -96 -27 -173.167 -81 -231.5s-125.667 -87.5 -215 -87.5c-96 0 -177.667 33.333 -245 100s-101 147.667 -101 243c0 97.333 33.333 179.666 100 246.999s148 101 244 101c46.667 0 88.5 -8.33301 125.5 -25s75.167 -44 114.5 -82
l-51 -51c-30.667 31.333 -60.667 53.833 -90 67.5s-62.666 20.5 -99.999 20.5c-76 0 -139.667 -26.5 -191 -79.5s-77 -118.833 -77 -197.5c0 -76.667 26 -141.5 78 -194.5s115.667 -79.5 191 -79.5c64.667 0 117.167 19.833 157.5 59.5s61.5 92.167 63.5 157.5h-197z
M460.999 715.001l-92 87l-92 -87l-51 26l115 126h57l115 -126z" />
    <glyph glyph-name="gcircumflex" unicode="&#x11d;" 
d="M415 443l71 -0.00195312v-451c0 -71.333 -21.167 -128.666 -63.5 -171.999s-98.5 -65 -168.5 -65c-41.333 0 -77.666 7.66699 -108.999 23s-62 40.333 -92 75l47 47c25.333 -30 49.166 -50.833 71.499 -62.5s49.833 -17.5 82.5 -17.5c50 0 89.333 15.333 118 46
s43 72.667 43 126v66c-41.333 -46.667 -93.333 -70 -156 -70c-62 0 -114.833 22.833 -158.5 68.5s-65.5 100.834 -65.5 165.501s21.833 119.667 65.5 165s96.5 68 158.5 68c61.333 0 113.333 -23.333 156 -70v58zM266 389.998c-47.333 0 -85.6689 -15.501 -115.002 -46.501
s-44 -71.167 -44 -120.5c0 -50 14.5 -90.833 43.5 -122.5s66.5 -47.5 112.5 -47.5c44.667 0 81.334 15.833 110.001 47.5s43 72.167 43 121.5c0 48.667 -14.167 88.834 -42.5 120.501s-64.166 47.5 -107.499 47.5zM352.997 514.997l-92 87l-92 -87l-52 26l115 126h57
l115 -126z" />
    <glyph glyph-name="Gbreve" unicode="&#x11e;" horiz-adv-x="727" 
d="M410 275l-0.000976562 69.001h274v-37c0 -96 -27 -173.167 -81 -231.5s-125.667 -87.5 -215 -87.5c-96 0 -177.667 33.333 -245 100s-101 147.667 -101 243c0 97.333 33.333 179.666 100 246.999s148 101 244 101c46.667 0 88.5 -8.33301 125.5 -25s75.167 -44 114.5 -82
l-51 -51c-30.667 31.333 -60.667 53.833 -90 67.5s-62.666 20.5 -99.999 20.5c-76 0 -139.667 -26.5 -191 -79.5s-77 -118.833 -77 -197.5c0 -76.667 26 -141.5 78 -194.5s115.667 -79.5 191 -79.5c64.667 0 117.167 19.833 157.5 59.5s61.5 92.167 63.5 157.5h-197z
M255.999 847.001l61.001 5.00098c0.666992 -24 7.16699 -42.5 19.5 -55.5s28.833 -19.5 49.5 -19.5c40.667 0 64.667 25 72 75l61 -5c-4.66699 -40.667 -18.834 -72.834 -42.501 -96.501s-53.834 -35.5 -90.501 -35.5c-43.333 0 -77.666 16.333 -102.999 49
c-17.333 21.333 -26.333 49 -27 83z" />
    <glyph glyph-name="gbreve" unicode="&#x11f;" 
d="M415 443l71 -0.00195312v-451c0 -71.333 -21.167 -128.666 -63.5 -171.999s-98.5 -65 -168.5 -65c-41.333 0 -77.666 7.66699 -108.999 23s-62 40.333 -92 75l47 47c25.333 -30 49.166 -50.833 71.499 -62.5s49.833 -17.5 82.5 -17.5c50 0 89.333 15.333 118 46
s43 72.667 43 126v66c-41.333 -46.667 -93.333 -70 -156 -70c-62 0 -114.833 22.833 -158.5 68.5s-65.5 100.834 -65.5 165.501s21.833 119.667 65.5 165s96.5 68 158.5 68c61.333 0 113.333 -23.333 156 -70v58zM266 389.998c-47.333 0 -85.6689 -15.501 -115.002 -46.501
s-44 -71.167 -44 -120.5c0 -50 14.5 -90.833 43.5 -122.5s66.5 -47.5 112.5 -47.5c44.667 0 81.334 15.833 110.001 47.5s43 72.167 43 121.5c0 48.667 -14.167 88.834 -42.5 120.501s-64.166 47.5 -107.499 47.5zM129.997 646.997l61.0039 4.99902
c1.33301 -23.333 8 -41.666 20 -54.999s28.333 -20 49 -20c41.333 0 65.666 25 72.999 75l61 -5c-4.66699 -40.667 -18.834 -72.834 -42.501 -96.501s-53.834 -35.5 -90.501 -35.5c-38.667 0 -69.834 12.333 -93.501 37s-36.167 56.334 -37.5 95.001z" />
    <glyph glyph-name="Gdotaccent" unicode="&#x120;" horiz-adv-x="727" 
d="M410 275l-0.000976562 69.001h274v-37c0 -96 -27 -173.167 -81 -231.5s-125.667 -87.5 -215 -87.5c-96 0 -177.667 33.333 -245 100s-101 147.667 -101 243c0 97.333 33.333 179.666 100 246.999s148 101 244 101c46.667 0 88.5 -8.33301 125.5 -25s75.167 -44 114.5 -82
l-51 -51c-30.667 31.333 -60.667 53.833 -90 67.5s-62.666 20.5 -99.999 20.5c-76 0 -139.667 -26.5 -191 -79.5s-77 -118.833 -77 -197.5c0 -76.667 26 -141.5 78 -194.5s115.667 -79.5 191 -79.5c64.667 0 117.167 19.833 157.5 59.5s61.5 92.167 63.5 157.5h-197z
M385.999 841.001c14 0 25.833 -4.83398 35.5 -14.501s14.5 -21.5 14.5 -35.5c0 -13.333 -5 -25 -15 -35s-21.667 -15 -35 -15c-14 0 -25.833 4.83301 -35.5 14.5s-14.5 21.834 -14.5 36.501c0 13.333 5 24.833 15 34.5s21.667 14.5 35 14.5z" />
    <glyph glyph-name="gdotaccent" unicode="&#x121;" 
d="M415 443l71 -0.00195312v-451c0 -71.333 -21.167 -128.666 -63.5 -171.999s-98.5 -65 -168.5 -65c-41.333 0 -77.666 7.66699 -108.999 23s-62 40.333 -92 75l47 47c25.333 -30 49.166 -50.833 71.499 -62.5s49.833 -17.5 82.5 -17.5c50 0 89.333 15.333 118 46
s43 72.667 43 126v66c-41.333 -46.667 -93.333 -70 -156 -70c-62 0 -114.833 22.833 -158.5 68.5s-65.5 100.834 -65.5 165.501s21.833 119.667 65.5 165s96.5 68 158.5 68c61.333 0 113.333 -23.333 156 -70v58zM266 389.998c-47.333 0 -85.6689 -15.501 -115.002 -46.501
s-44 -71.167 -44 -120.5c0 -50 14.5 -90.833 43.5 -122.5s66.5 -47.5 112.5 -47.5c44.667 0 81.334 15.833 110.001 47.5s43 72.167 43 121.5c0 48.667 -14.167 88.834 -42.5 120.501s-64.166 47.5 -107.499 47.5zM260.997 640.997c14 0 25.833 -4.83398 35.5 -14.501
s14.5 -21.5 14.5 -35.5c0 -13.333 -5 -25 -15 -35s-21.667 -15 -35 -15c-14 0 -25.833 4.83301 -35.5 14.5s-14.5 21.834 -14.5 36.501c0 13.333 5 24.833 15 34.5s21.667 14.5 35 14.5z" />
    <glyph glyph-name="Gcommaaccent" unicode="&#x122;" horiz-adv-x="727" 
d="M410 275l-0.000976562 69.001h274v-37c0 -96 -27 -173.167 -81 -231.5s-125.667 -87.5 -215 -87.5c-96 0 -177.667 33.333 -245 100s-101 147.667 -101 243c0 97.333 33.333 179.666 100 246.999s148 101 244 101c46.667 0 88.5 -8.33301 125.5 -25s75.167 -44 114.5 -82
l-51 -51c-30.667 31.333 -60.667 53.833 -90 67.5s-62.666 20.5 -99.999 20.5c-76 0 -139.667 -26.5 -191 -79.5s-77 -118.833 -77 -197.5c0 -76.667 26 -141.5 78 -194.5s115.667 -79.5 191 -79.5c64.667 0 117.167 19.833 157.5 59.5s61.5 92.167 63.5 157.5h-197z
M304.999 -203.999l47 157l69 -21l-66 -152z" />
    <glyph glyph-name="gcommaaccent" unicode="&#x123;" 
d="M415 443l71 -0.00195312v-451c0 -71.333 -21.167 -128.666 -63.5 -171.999s-98.5 -65 -168.5 -65c-41.333 0 -77.666 7.66699 -108.999 23s-62 40.333 -92 75l47 47c25.333 -30 49.166 -50.833 71.499 -62.5s49.833 -17.5 82.5 -17.5c50 0 89.333 15.333 118 46
s43 72.667 43 126v66c-41.333 -46.667 -93.333 -70 -156 -70c-62 0 -114.833 22.833 -158.5 68.5s-65.5 100.834 -65.5 165.501s21.833 119.667 65.5 165s96.5 68 158.5 68c61.333 0 113.333 -23.333 156 -70v58zM266 389.998c-47.333 0 -85.6689 -15.501 -115.002 -46.501
s-44 -71.167 -44 -120.5c0 -50 14.5 -90.833 43.5 -122.5s66.5 -47.5 112.5 -47.5c44.667 0 81.334 15.833 110.001 47.5s43 72.167 43 121.5c0 48.667 -14.167 88.834 -42.5 120.501s-64.166 47.5 -107.499 47.5zM344.997 662.997l-47 -158l-69 21l66 153z" />
    <glyph glyph-name="Hcircumflex" unicode="&#x124;" horiz-adv-x="650" 
d="M155 667v-294h340v294h75v-667h-75v304h-340v-304h-75v667h75zM417 715l-92 87l-92 -87l-51 26l115 126h56l115 -126z" />
    <glyph glyph-name="hcircumflex" unicode="&#x125;" horiz-adv-x="509" 
d="M63 667h71v-274c33.333 41.333 78 62 134 62c54 0 98 -18.667 132 -56c30.667 -33.333 46 -86.333 46 -159v-240h-71v231c0 59.333 -10 100 -30 122c-21.333 22.667 -49.333 34 -84 34c-43.333 0 -76.333 -14 -99 -42c-18.667 -23.333 -28 -64.333 -28 -123v-222h-71v667
zM350 715l-92 87l-92 -87l-51 26l115 126h56l115 -126z" />
    <glyph glyph-name="Hbar" unicode="&#x126;" horiz-adv-x="653" 
d="M632 521h-60v-521h-75v304h-340v-304h-75v521h-60v64h60v82h75v-82h340v82h75v-82h60v-64zM497 373v148h-340v-148h340z" />
    <glyph glyph-name="hbar" unicode="&#x127;" horiz-adv-x="510" 
d="M254 521h-119.999v-128c33.333 41.333 77.666 62 132.999 62c54.667 0 99 -18.667 133 -56c30.667 -33.333 46 -86.333 46 -159v-240h-71v231c0 59.333 -10 100 -30 122c-21.333 22.667 -49.333 34 -84 34c-44 0 -77 -14 -99 -42c-18.667 -23.333 -28 -64.333 -28 -123
v-222h-71v521h-60v64h60v82h71v-82h120v-64z" />
    <glyph glyph-name="Itilde" unicode="&#x128;" horiz-adv-x="235" 
d="M80 667h75v-667h-75v667zM196 841l57 -14c-2 -27.333 -9.66699 -48.333 -23 -63s-31.666 -22 -54.999 -22c-17.333 0 -40 6.33301 -68 19c-21.333 10 -35.666 15 -42.999 15c-8 0 -13.833 -2.5 -17.5 -7.5s-6.83398 -14.167 -9.50098 -27.5l-56 13
c2.66699 26.667 11.167 47.5 25.5 62.5s32.166 22.5 53.499 22.5c16 0 39.333 -7 70 -21c18 -8.66699 32 -13 42 -13c8.66699 0 14.5 2.5 17.5 7.5s5.16699 14.5 6.5 28.5z" />
    <glyph glyph-name="itilde" unicode="&#x129;" horiz-adv-x="199" 
d="M64 443h71v-443h-71v443zM179 641l57 -14c-2 -27.333 -9.66699 -48.333 -23 -63s-31.666 -22 -54.999 -22c-17.333 0 -40 6.33301 -68 19c-21.333 10 -35.666 15 -42.999 15c-8 0 -13.833 -2.5 -17.5 -7.5s-6.83398 -14.167 -9.50098 -27.5l-56 13
c2.66699 26.667 11.167 47.5 25.5 62.5s32.166 22.5 53.499 22.5c16 0 39.333 -7 70 -21c18 -8.66699 32 -13 42 -13c8.66699 0 14.5 2.5 17.5 7.5s5.16699 14.5 6.5 28.5z" />
    <glyph glyph-name="Imacron" unicode="&#x12a;" horiz-adv-x="235" 
d="M80 667h75v-667h-75v667zM-19 758v64h273v-64h-273z" />
    <glyph glyph-name="imacron" unicode="&#x12b;" horiz-adv-x="199" 
d="M64 443h71v-443h-71v443zM-37 558v64h273v-64h-273z" />
    <glyph glyph-name="Ibreve" unicode="&#x12c;" horiz-adv-x="235" 
d="M80 667h75v-667h-75v667zM-14 847l61.001 5.00098c0.666992 -24 7.16699 -42.5 19.5 -55.5s28.833 -19.5 49.5 -19.5c40.667 0 64.667 25 72 75l61 -5c-4.66699 -40.667 -18.667 -72.834 -42 -96.501s-53.333 -35.5 -90 -35.5c-42.667 0 -77.334 16.333 -104.001 49
c-17.333 21.333 -26.333 49 -27 83z" />
    <glyph glyph-name="ibreve" unicode="&#x12d;" horiz-adv-x="199" 
d="M64 443h71v-443h-71v443zM-32 647l61.001 5c0.666992 -23.333 7.16699 -41.666 19.5 -54.999s28.833 -20 49.5 -20c40.667 0 64.667 25 72 75l61 -5c-4.66699 -40.667 -18.667 -72.834 -42 -96.501s-53.333 -35.5 -90 -35.5c-42.667 0 -77.334 16.333 -104.001 49
c-17.333 21.333 -26.333 49 -27 83z" />
    <glyph glyph-name="Iogonek" unicode="&#x12e;" horiz-adv-x="235" 
d="M83 0h-3v667h75v-667c-24.667 -27.333 -37 -49.333 -37 -66c0 -17.333 11 -26 33 -26c8.66699 0 21 2.33301 37 7l20 -51c-22.667 -8.66699 -43.667 -13 -63 -13c-26.667 0 -48.667 7.16699 -66 21.5s-26 32.833 -26 55.5c0 24 10 48 30 72z" />
    <glyph glyph-name="iogonek" unicode="&#x12f;" horiz-adv-x="199" 
d="M64 443l71 0.000976562v-443c-24 -28.667 -36 -51 -36 -67c0 -17.333 10.667 -26 32 -26c10 0 22.333 2.33301 37 7l20 -50c-24 -9.33301 -45 -14 -63 -14c-26.667 0 -48.5 7.16699 -65.5 21.5s-25.5 32.833 -25.5 55.5c0 23.333 10 47.666 30 72.999v443zM100 642.001
c14 0 26 -5 36 -15s15 -22 15 -36s-5 -26 -15 -36s-22 -15 -36 -15s-26 5 -36 15s-15 22.333 -15 37c0 13.333 5 25 15 35s22 15 36 15z" />
    <glyph glyph-name="Idotaccent" unicode="&#x130;" horiz-adv-x="235" 
d="M80 667h75v-667h-75v667zM117 841c14 0 25.833 -4.83398 35.5 -14.501s14.5 -21.5 14.5 -35.5c0 -13.333 -5 -25 -15 -35s-21.667 -15 -35 -15c-14 0 -25.833 4.83301 -35.5 14.5s-14.5 21.834 -14.5 36.501c0 13.333 5 24.833 15 34.5s21.667 14.5 35 14.5z" />
    <glyph glyph-name="dotlessi" unicode="&#x131;" horiz-adv-x="199" 
d="M64 443h71v-443h-71v443z" />
    <glyph glyph-name="IJ" unicode="&#x132;" horiz-adv-x="625" 
d="M80 667h75v-667h-75v667zM470 667h75v-467c0 -42.667 -3.66699 -76.5 -11 -101.5s-20 -46.5 -38 -64.5c-32 -30.667 -71 -46 -117 -46c-49.333 0 -100.333 23.667 -153 71l46 54c36.667 -36.667 72 -55 106 -55c61.333 0 92 47.333 92 142v467z" />
    <glyph glyph-name="ij" unicode="&#x133;" horiz-adv-x="394" 
d="M64 443h71v-443h-71v443zM259 -100v543h71v-543c0 -93.333 -35.667 -140 -107 -140c-11.333 0 -26 2.33301 -44 7v64c13.333 -3.33301 23.333 -5 30 -5c33.333 0 50 24.667 50 74zM100 642c14 0 26 -5 36 -15s15 -22 15 -36s-5 -26 -15 -36s-22 -15 -36 -15s-26 5 -36 15
s-15 22.333 -15 37c0 13.333 5 25 15 35s22 15 36 15zM295 642c14 0 26 -5 36 -15s15 -22 15 -36s-5 -26 -15 -36s-22 -15 -36 -15s-26 5 -36 15s-15 22.333 -15 37c0 13.333 5 25 15 35s22 15 36 15z" />
    <glyph glyph-name="Jcircumflex" unicode="&#x134;" horiz-adv-x="402" 
d="M246 667h75v-467c0 -42 -3.83301 -75.667 -11.5 -101s-20.5 -47 -38.5 -65c-30.667 -30.667 -69.334 -46 -116.001 -46c-27.333 0 -52.666 5.5 -75.999 16.5s-49 29.167 -77 54.5l45 54c37.333 -36.667 73 -55 107 -55c61.333 0 92 47.333 92 142v467zM338 715l-92 87
l-92 -87l-51 26l115 126h57l115 -126z" />
    <glyph glyph-name="jcircumflex" unicode="&#x135;" horiz-adv-x="209" 
d="M73 -100v543h71v-543c0 -93.333 -35.667 -140 -107 -140c-11.333 0 -26 2.33301 -44 7v64c13.333 -3.33301 23.333 -5 30 -5c33.333 0 50 24.667 50 74zM186 515l-92 87l-92 -87l-51 26l115 126h57l115 -126z" />
    <glyph glyph-name="Kcommaaccent" unicode="&#x136;" horiz-adv-x="567" 
d="M554 667l-251 -276l258 -391h-87l-221 336l-98 -108v-228h-75v667h75v-341l310 341h89zM241 -204l46 157l69 -21l-65 -152z" />
    <glyph glyph-name="kcommaaccent" unicode="&#x137;" horiz-adv-x="465" 
d="M439 443l-181 -179l205 -264h-89l-164 216l-76 -76v-140h-71v667h71v-438l214 215zM172 -204l47 157l69 -21l-66 -152z" />
    <glyph glyph-name="kgreenlandic" unicode="&#x138;" horiz-adv-x="465" 
d="M439 443l-181 -180l205 -263h-89l-164 215l-76 -75v-140h-71v443h71v-214l214 214h91z" />
    <glyph glyph-name="Lacute" unicode="&#x139;" horiz-adv-x="420" 
d="M80 667h75v-598h258v-69h-333v667zM175 878l70 -37l-125 -126l-45 26z" />
    <glyph glyph-name="lacute" unicode="&#x13a;" horiz-adv-x="199" 
d="M135 667v-667h-71v667h71zM161 890l70 -38l-125 -125l-45 25z" />
    <glyph glyph-name="Lcommaaccent" unicode="&#x13b;" horiz-adv-x="426" 
d="M80 667h75v-598h258v-69h-333v667zM189 -204l47 157l69 -21l-66 -152z" />
    <glyph glyph-name="lcommaaccent" unicode="&#x13c;" horiz-adv-x="199" 
d="M135 667v-667h-71v667h71zM25 -204l47 157l69 -21l-66 -152z" />
    <glyph glyph-name="Lcaron" unicode="&#x13d;" horiz-adv-x="426" 
d="M80 667h75v-598h258v-69h-333v667zM255 521l46 158l69 -21l-65 -153z" />
    <glyph glyph-name="lcaron" unicode="&#x13e;" horiz-adv-x="292" 
d="M135 667v-667h-71v667h71zM182 521l47 158l69 -21l-66 -153z" />
    <glyph glyph-name="Ldot" unicode="&#x13f;" horiz-adv-x="426" 
d="M80 667h75v-598h258v-69h-333v667zM319 383c14 0 25.833 -4.83301 35.5 -14.5s14.5 -21.167 14.5 -34.5c0 -14 -4.83301 -25.833 -14.5 -35.5s-21.167 -14.5 -34.5 -14.5c-14 0 -25.833 4.83301 -35.5 14.5s-14.5 21.5 -14.5 35.5c0 13.333 4.83301 24.833 14.5 34.5
s21.167 14.5 34.5 14.5z" />
    <glyph glyph-name="ldot" unicode="&#x140;" horiz-adv-x="338" 
d="M135 667v-667h-71v667h71zM268 383c14 0 25.833 -4.83301 35.5 -14.5s14.5 -21.167 14.5 -34.5c0 -14 -4.83301 -25.833 -14.5 -35.5s-21.167 -14.5 -34.5 -14.5c-14 0 -25.833 4.83301 -35.5 14.5s-14.5 21.5 -14.5 35.5c0 13.333 4.83301 24.833 14.5 34.5
s21.167 14.5 34.5 14.5z" />
    <glyph glyph-name="Lslash" unicode="&#x141;" horiz-adv-x="441" 
d="M28 314l67 47v306h75v-273l113 80v-76l-113 -80v-249h258v-69h-333v285l-67 -46v75z" />
    <glyph glyph-name="lslash" unicode="&#x142;" horiz-adv-x="250" 
d="M89 0v287l-64 -44v78l64 44v302h71v-255l65 43v-78l-65 -43v-334h-71z" />
    <glyph glyph-name="Nacute" unicode="&#x143;" horiz-adv-x="710" 
d="M155 0h-75v667h70l405 -545v545h75v-667h-70l-405 545v-545zM420 878l70 -37l-125 -126l-45 26z" />
    <glyph glyph-name="nacute" unicode="&#x144;" horiz-adv-x="509" 
d="M63 443h71v-50c33.333 41.333 78 62 134 62c54 0 98 -18.667 132 -56c30.667 -33.333 46 -86.333 46 -159v-240h-71v231c0 59.333 -10 100 -30 122c-21.333 22.667 -49.333 34 -84 34c-43.333 0 -76.333 -14 -99 -42c-18.667 -23.333 -28 -64.333 -28 -123v-222h-71v443z
M321 679l70 -38l-125 -126l-45 26z" />
    <glyph glyph-name="Ncommaaccent" unicode="&#x145;" horiz-adv-x="710" 
d="M155 0h-75v667h70l405 -545v545h75v-667h-70l-405 545v-545zM297 -204l47 157l69 -21l-66 -152z" />
    <glyph glyph-name="ncommaaccent" unicode="&#x146;" horiz-adv-x="509" 
d="M63 443h71v-50c33.333 41.333 78 62 134 62c54 0 98 -18.667 132 -56c30.667 -33.333 46 -86.333 46 -159v-240h-71v231c0 59.333 -10 100 -30 122c-21.333 22.667 -49.333 34 -84 34c-43.333 0 -76.333 -14 -99 -42c-18.667 -23.333 -28 -64.333 -28 -123v-222h-71v443z
M197 -204l47 157l69 -21l-66 -152z" />
    <glyph glyph-name="Ncaron" unicode="&#x147;" horiz-adv-x="710" 
d="M155 0h-75v667h70l405 -545v545h75v-667h-70l-405 545v-545zM280 873l92 -87l92 87l51 -26l-115 -126h-57l-115 126z" />
    <glyph glyph-name="ncaron" unicode="&#x148;" horiz-adv-x="509" 
d="M63 443h71v-50c33.333 41.333 78 62 134 62c54 0 98 -18.667 132 -56c30.667 -33.333 46 -86.333 46 -159v-240h-71v231c0 59.333 -10 100 -30 122c-21.333 22.667 -49.333 34 -84 34c-43.333 0 -76.333 -14 -99 -42c-18.667 -23.333 -28 -64.333 -28 -123v-222h-71v443z
M168 673l92 -87l92 87l51 -26l-115 -126h-57l-115 126z" />
    <glyph glyph-name="napostrophe" unicode="&#x149;" horiz-adv-x="590" 
d="M143 443h71v-50c33.333 41.333 78 62 134 62c54.667 0 99 -18.667 133 -56c30.667 -33.333 46 -86.333 46 -159v-240h-71v231c0 59.333 -10 100 -30 122c-21.333 22.667 -49.333 34 -84 34c-44 0 -77.333 -14 -100 -42c-18.667 -23.333 -28 -64.333 -28 -123v-222h-71
v443zM0 426l83 230l65 -24l-100 -225z" />
    <glyph glyph-name="Eng" unicode="&#x14a;" horiz-adv-x="710" 
d="M555 667h75v-676c0 -93.333 -35.667 -140 -107 -140c-10 0 -24.667 2 -44 6v65c12.667 -3.33301 22.667 -5 30 -5c32.667 0 49 24.667 49 74v11l-403 543v-545h-75v667h70l405 -545v545z" />
    <glyph glyph-name="eng" unicode="&#x14b;" horiz-adv-x="509" 
d="M295 -143v65c12.667 -3.33301 22.667 -5 30 -5c33.333 0 50 24.667 50 74v240c0 59.333 -10 100 -30 122c-21.333 22.667 -49.333 34 -84 34c-43.333 0 -76.333 -14 -99 -42c-18.667 -23.333 -28 -64.333 -28 -123v-222h-71v443h71v-50c33.333 41.333 78 62 134 62
c54 0 98 -18.667 132 -56c30.667 -33.333 46 -86.333 46 -159v-249c0 -93.333 -35.667 -140 -107 -140c-10 0 -24.667 2 -44 6z" />
    <glyph glyph-name="Omacron" unicode="&#x14c;" horiz-adv-x="764" 
d="M382 679c93.333 0 173.333 -34.002 240 -102.002s100 -149.333 100 -244c0 -95.333 -33.5 -176.666 -100.5 -243.999s-147.833 -101 -242.5 -101c-92.667 0 -172 34.333 -238 103s-99 151.334 -99 248.001c0 91.333 33.833 170.833 101.5 238.5
s147.167 101.5 238.5 101.5zM382 608.998c-72.667 0 -135 -26.668 -187 -80.001s-78 -117 -78 -191c0 -77.333 25.667 -143.333 77 -198s113.333 -82 186 -82c74 0 137 26.833 189 80.5s78 118.5 78 194.5c0 76.667 -25.833 141.834 -77.5 195.501
s-114.167 80.5 -187.5 80.5zM245 757.997v64h274v-64h-274z" />
    <glyph glyph-name="omacron" unicode="&#x14d;" horiz-adv-x="526" 
d="M267 455c62.667 0 115.833 -22.666 159.5 -67.999s65.5 -100.333 65.5 -165c0 -66 -22 -121.5 -66 -166.5s-98 -67.5 -162 -67.5c-65.333 0 -119.833 22.667 -163.5 68s-65.5 101.333 -65.5 168c0 65.333 22.333 120.166 67 164.499s99.667 66.5 165 66.5z
M265.999 390.001c-47.333 0 -85.666 -15.501 -114.999 -46.501s-44 -71.167 -44 -120.5c0 -50 14.5 -90.833 43.5 -122.5s66.833 -47.5 113.5 -47.5c45.333 0 82.666 15.833 111.999 47.5s44 72.167 44 121.5c0 48.667 -14.5 88.834 -43.5 120.501s-65.833 47.5 -110.5 47.5
zM126.999 558v64h273v-64h-273z" />
    <glyph glyph-name="Obreve" unicode="&#x14e;" horiz-adv-x="764" 
d="M382 679c93.333 0 173.333 -34.002 240 -102.002s100 -149.333 100 -244c0 -95.333 -33.5 -176.666 -100.5 -243.999s-147.833 -101 -242.5 -101c-92.667 0 -172 34.333 -238 103s-99 151.334 -99 248.001c0 91.333 33.833 170.833 101.5 238.5
s147.167 101.5 238.5 101.5zM382 608.998c-72.667 0 -135 -26.668 -187 -80.001s-78 -117 -78 -191c0 -77.333 25.667 -143.333 77 -198s113.333 -82 186 -82c74 0 137 26.833 189 80.5s78 118.5 78 194.5c0 76.667 -25.833 141.834 -77.5 195.501
s-114.167 80.5 -187.5 80.5zM250 846.997l61.0039 5c3.33301 -50 26.333 -75 69 -75c41.333 0 65.666 25 72.999 75l61 -5c-4.66699 -40.667 -18.834 -72.834 -42.501 -96.501s-53.834 -35.5 -90.501 -35.5c-38.667 0 -69.834 12.333 -93.501 37
s-36.167 56.334 -37.5 95.001z" />
    <glyph glyph-name="obreve" unicode="&#x14f;" horiz-adv-x="526" 
d="M267 455c62.667 0 115.833 -22.666 159.5 -67.999s65.5 -100.333 65.5 -165c0 -66 -22 -121.5 -66 -166.5s-98 -67.5 -162 -67.5c-65.333 0 -119.833 22.667 -163.5 68s-65.5 101.333 -65.5 168c0 65.333 22.333 120.166 67 164.499s99.667 66.5 165 66.5z
M265.999 390.001c-47.333 0 -85.666 -15.501 -114.999 -46.501s-44 -71.167 -44 -120.5c0 -50 14.5 -90.833 43.5 -122.5s66.833 -47.5 113.5 -47.5c45.333 0 82.666 15.833 111.999 47.5s44 72.167 44 121.5c0 48.667 -14.5 88.834 -43.5 120.501s-65.833 47.5 -110.5 47.5
zM131.999 647l61.001 5c1.33301 -23.333 8 -41.666 20 -54.999s28.333 -20 49 -20c40.667 0 64.667 25 72 75l61 -5c-4.66699 -40.667 -18.834 -72.834 -42.501 -96.501s-53.834 -35.5 -90.501 -35.5c-43.333 0 -77.666 16.333 -102.999 49
c-17.333 21.333 -26.333 49 -27 83z" />
    <glyph glyph-name="Ohungarumlaut" unicode="&#x150;" horiz-adv-x="764" 
d="M382 679c93.333 0 173.333 -34.002 240 -102.002s100 -149.333 100 -244c0 -95.333 -33.5 -176.666 -100.5 -243.999s-147.833 -101 -242.5 -101c-92.667 0 -172 34.333 -238 103s-99 151.334 -99 248.001c0 91.333 33.833 170.833 101.5 238.5
s147.167 101.5 238.5 101.5zM382 608.998c-72.667 0 -135 -26.668 -187 -80.001s-78 -117 -78 -191c0 -77.333 25.667 -143.333 77 -198s113.333 -82 186 -82c74 0 137 26.833 189 80.5s78 118.5 78 194.5c0 76.667 -25.833 141.834 -77.5 195.501
s-114.167 80.5 -187.5 80.5zM372 877.997l67 -37l-125 -126l-42 26zM512 877.997l67 -37l-125 -126l-42 26z" />
    <glyph glyph-name="ohungarumlaut" unicode="&#x151;" horiz-adv-x="526" 
d="M267 455c62.667 0 115.833 -22.666 159.5 -67.999s65.5 -100.333 65.5 -165c0 -66 -22 -121.5 -66 -166.5s-98 -67.5 -162 -67.5c-65.333 0 -119.833 22.667 -163.5 68s-65.5 101.333 -65.5 168c0 65.333 22.333 120.166 67 164.499s99.667 66.5 165 66.5z
M265.999 390.001c-47.333 0 -85.666 -15.501 -114.999 -46.501s-44 -71.167 -44 -120.5c0 -50 14.5 -90.833 43.5 -122.5s66.833 -47.5 113.5 -47.5c45.333 0 82.666 15.833 111.999 47.5s44 72.167 44 121.5c0 48.667 -14.5 88.834 -43.5 120.501s-65.833 47.5 -110.5 47.5
zM262.999 679l67 -38l-125 -126l-42 26zM402.999 679l67 -38l-125 -126l-42 26z" />
    <glyph glyph-name="OE" unicode="&#x152;" horiz-adv-x="1042" 
d="M646 548v119h344v-69h-269v-225h239v-69h-239v-235h279v-69h-354v118c-32.667 -40.667 -72.167 -72.5 -118.5 -95.5s-95.166 -34.5 -146.499 -34.5c-93.333 0 -173.333 34 -240 102s-100 149.333 -100 244c0 94 33.5 175 100.5 243s146.833 102 239.5 102
c51.333 0 100.166 -11.5 146.499 -34.5s85.833 -55.167 118.5 -96.5zM381 609c-72.667 0 -135 -26.668 -187 -80.001s-78 -117 -78 -191c0 -77.333 25.667 -143.333 77 -198s113.333 -82 186 -82c74 0 137 26.833 189 80.5s78 118.834 78 195.501
c0 76 -25.833 140.833 -77.5 194.5s-114.167 80.5 -187.5 80.5z" />
    <glyph glyph-name="oe" unicode="&#x153;" horiz-adv-x="881" 
d="M775 131l63 -27.0029c-45.333 -77.333 -111.333 -116 -198 -116c-81.333 0 -143 35 -185 105c-21.333 -33.333 -48.833 -59.166 -82.5 -77.499s-70.167 -27.5 -109.5 -27.5c-64 0 -118 22.5 -162 67.5s-66 100.167 -66 165.5c0 66 22 121.5 66 166.5s98 67.5 162 67.5
c39.333 0 75.833 -9 109.5 -27s61.167 -43.667 82.5 -77c44.667 69.333 104.667 104 180 104c61.333 0 112 -22.667 152 -68s60 -102.666 60 -171.999c0 -9.33301 -0.333008 -17.333 -1 -24h-353c4.66699 -41.333 20.5 -74.666 47.5 -99.999s60.167 -38 99.5 -38
c60 0 105 26 135 78zM266 389.997c-47.333 0 -85.666 -15.501 -114.999 -46.501s-44 -71.167 -44 -120.5c0 -50 14.5 -90.833 43.5 -122.5s66.833 -47.5 113.5 -47.5c45.333 0 82.666 15.833 111.999 47.5s44 72.167 44 121.5c0 48.667 -14.5 88.834 -43.5 120.501
s-65.833 47.5 -110.5 47.5zM493 251.996h283c-6.66699 42.667 -22.5 76.5 -47.5 101.5s-56.167 37.5 -93.5 37.5s-68.833 -12.5 -94.5 -37.5s-41.5 -58.833 -47.5 -101.5z" />
    <glyph glyph-name="Racute" unicode="&#x154;" horiz-adv-x="533" 
d="M349 289l160 -289h-84l-149 273c-26 -2 -45.667 -3 -59 -3h-62v-270h-75v667h137c82 0 142.333 -17 181 -51c44 -38.667 66 -89 66 -151c0 -40 -10.167 -75.5 -30.5 -106.5s-48.5 -54.167 -84.5 -69.5zM155 598v-260h71c110 0 165 42.333 165 127
c0 88.667 -55 133 -165 133h-71zM307 878l70 -37l-125 -126l-45 26z" />
    <glyph glyph-name="racute" unicode="&#x155;" horiz-adv-x="293" 
d="M63 443l70.999 0.000976562v-50c27.333 33.333 66 50 116 50c8 0 15.667 -0.333008 23 -1v-64c-6.66699 0.666992 -13 1 -19 1c-47.333 0 -79.166 -14.333 -95.499 -43s-24.5 -69.334 -24.5 -122.001v-214h-71v443zM195.999 679.001l70 -38l-125 -126l-45 26z" />
    <glyph glyph-name="Rcommaaccent" unicode="&#x156;" horiz-adv-x="533" 
d="M349 289l160 -289h-84l-149 273c-26 -2 -45.667 -3 -59 -3h-62v-270h-75v667h137c82 0 142.333 -17 181 -51c44 -38.667 66 -89 66 -151c0 -40 -10.167 -75.5 -30.5 -106.5s-48.5 -54.167 -84.5 -69.5zM155 598v-260h71c110 0 165 42.333 165 127
c0 88.667 -55 133 -165 133h-71zM217 -204l47 157l69 -21l-66 -152z" />
    <glyph glyph-name="rcommaaccent" unicode="&#x157;" horiz-adv-x="293" 
d="M63 443l70.999 0.000976562v-50c27.333 33.333 66 50 116 50c8 0 15.667 -0.333008 23 -1v-64c-6.66699 0.666992 -13 1 -19 1c-47.333 0 -79.166 -14.333 -95.499 -43s-24.5 -69.334 -24.5 -122.001v-214h-71v443zM23.999 -203.999l47 157l69 -21l-66 -152z" />
    <glyph glyph-name="Rcaron" unicode="&#x158;" horiz-adv-x="533" 
d="M349 289l160 -289h-84l-149 273c-26 -2 -45.667 -3 -59 -3h-62v-270h-75v667h137c82 0 142.333 -17 181 -51c44 -38.667 66 -89 66 -151c0 -40 -10.167 -75.5 -30.5 -106.5s-48.5 -54.167 -84.5 -69.5zM155 598v-260h71c110 0 165 42.333 165 127
c0 88.667 -55 133 -165 133h-71zM165 873l92 -87l92 87l51 -26l-115 -126h-57l-115 126z" />
    <glyph glyph-name="rcaron" unicode="&#x159;" horiz-adv-x="293" 
d="M63 443l70.999 0.000976562v-50c27.333 33.333 66 50 116 50c8 0 15.667 -0.333008 23 -1v-64c-6.66699 0.666992 -13 1 -19 1c-47.333 0 -79.166 -14.333 -95.499 -43s-24.5 -69.334 -24.5 -122.001v-214h-71v443zM75.999 673.001l92 -87l92 87l52 -26l-115 -126h-57
l-115 126z" />
    <glyph glyph-name="Sacute" unicode="&#x15a;" horiz-adv-x="505" 
d="M441 574l-58.999 -39.002c-32.667 50 -73 75 -121 75c-34.667 0 -63.5 -10.667 -86.5 -32s-34.5 -48 -34.5 -80c0 -45.333 32 -80.666 96 -105.999l66 -25c54 -21.333 93.333 -46.166 118 -74.499s37 -62.833 37 -103.5c0 -56.667 -20.333 -104.334 -61 -143.001
s-90.667 -58 -150 -58c-52.667 0 -97 15 -133 45s-60.333 72.333 -73 127l72 20c20.667 -81.333 66 -122 136 -122c37.333 0 69 12.667 95 38s39 56.333 39 93c0 26.667 -8.83301 48.834 -26.5 66.501s-47.5 34.834 -89.5 51.501l-62 25
c-92 35.333 -138 90.666 -138 165.999c0 52 18.667 95.167 56 129.5s84.333 51.5 141 51.5c75.333 0 134.666 -35 177.999 -105zM317.001 877.998l70 -37l-125 -126l-45 26z" />
    <glyph glyph-name="sacute" unicode="&#x15b;" horiz-adv-x="371" 
d="M324 375l-58.001 -31.001c-20 32 -45.667 48 -77 48c-21.333 0 -38.833 -5.83301 -52.5 -17.5s-20.5 -26.5 -20.5 -44.5c0 -17.333 6.33301 -31.666 19 -42.999c7.33301 -5.33301 26.666 -14.333 57.999 -27l43 -16c35.333 -14 61 -30 77 -48s24 -40.333 24 -67
c0 -40 -14.667 -73.5 -44 -100.5s-65.666 -40.5 -108.999 -40.5c-73.333 0 -124.666 37.667 -153.999 113l61 26c13.333 -28 27 -47.5 41 -58.5s32 -16.5 54 -16.5c23.333 0 42.5 7 57.5 21s22.5 31.333 22.5 52c0 16.667 -5 29.5 -15 38.5s-31 19.833 -63 32.5l-48 19
c-60 24 -90 61.333 -90 112c0 36.667 13.5 67.167 40.5 91.5s60.5 36.5 100.5 36.5c58 0 102.333 -26.667 133 -80zM239.999 678.999l70 -38l-126 -126l-44 26z" />
    <glyph glyph-name="Scircumflex" unicode="&#x15c;" horiz-adv-x="505" 
d="M441 574l-58.999 -39.002c-32.667 50 -73 75 -121 75c-34.667 0 -63.5 -10.667 -86.5 -32s-34.5 -48 -34.5 -80c0 -45.333 32 -80.666 96 -105.999l66 -25c54 -21.333 93.333 -46.166 118 -74.499s37 -62.833 37 -103.5c0 -56.667 -20.333 -104.334 -61 -143.001
s-90.667 -58 -150 -58c-52.667 0 -97 15 -133 45s-60.333 72.333 -73 127l72 20c20.667 -81.333 66 -122 136 -122c37.333 0 69 12.667 95 38s39 56.333 39 93c0 26.667 -8.83301 48.834 -26.5 66.501s-47.5 34.834 -89.5 51.501l-62 25
c-92 35.333 -138 90.666 -138 165.999c0 52 18.667 95.167 56 129.5s84.333 51.5 141 51.5c75.333 0 134.666 -35 177.999 -105zM341.001 714.998l-92 87l-92 -87l-52 26l115 126h57l115 -126z" />
    <glyph glyph-name="scircumflex" unicode="&#x15d;" horiz-adv-x="371" 
d="M324 375l-58.001 -31.001c-20 32 -45.667 48 -77 48c-21.333 0 -38.833 -5.83301 -52.5 -17.5s-20.5 -26.5 -20.5 -44.5c0 -17.333 6.33301 -31.666 19 -42.999c7.33301 -5.33301 26.666 -14.333 57.999 -27l43 -16c35.333 -14 61 -30 77 -48s24 -40.333 24 -67
c0 -40 -14.667 -73.5 -44 -100.5s-65.666 -40.5 -108.999 -40.5c-73.333 0 -124.666 37.667 -153.999 113l61 26c13.333 -28 27 -47.5 41 -58.5s32 -16.5 54 -16.5c23.333 0 42.5 7 57.5 21s22.5 31.333 22.5 52c0 16.667 -5 29.5 -15 38.5s-31 19.833 -63 32.5l-48 19
c-60 24 -90 61.333 -90 112c0 36.667 13.5 67.167 40.5 91.5s60.5 36.5 100.5 36.5c58 0 102.333 -26.667 133 -80zM275.999 514.999l-92 87l-92 -87l-51 26l115 126h57l115 -126z" />
    <glyph glyph-name="Scedilla" unicode="&#x15e;" horiz-adv-x="505" 
d="M441 574l-58.999 -39.002c-32.667 50 -73 75 -121 75c-34.667 0 -63.5 -10.667 -86.5 -32s-34.5 -48 -34.5 -80c0 -45.333 32 -80.666 96 -105.999l66 -25c54 -21.333 93.333 -46.166 118 -74.499s37 -62.833 37 -103.5c0 -56.667 -20.333 -104.334 -61 -143.001
s-90.667 -58 -150 -58c-52.667 0 -97 15 -133 45s-60.333 72.333 -73 127l72 20c20.667 -81.333 66 -122 136 -122c37.333 0 69 12.667 95 38s39 56.333 39 93c0 26.667 -8.83301 48.834 -26.5 66.501s-47.5 34.834 -89.5 51.501l-62 25
c-92 35.333 -138 90.666 -138 165.999c0 52 18.667 95.167 56 129.5s84.333 51.5 141 51.5c75.333 0 134.666 -35 177.999 -105zM258.001 -47.002l66 -28l-101 -128l-49 24z" />
    <glyph glyph-name="scedilla" unicode="&#x15f;" horiz-adv-x="371" 
d="M324 375l-58.001 -31.001c-20 32 -45.667 48 -77 48c-21.333 0 -38.833 -5.83301 -52.5 -17.5s-20.5 -26.5 -20.5 -44.5c0 -17.333 6.33301 -31.666 19 -42.999c7.33301 -5.33301 26.666 -14.333 57.999 -27l43 -16c35.333 -14 61 -30 77 -48s24 -40.333 24 -67
c0 -40 -14.667 -73.5 -44 -100.5s-65.666 -40.5 -108.999 -40.5c-73.333 0 -124.666 37.667 -153.999 113l61 26c13.333 -28 27 -47.5 41 -58.5s32 -16.5 54 -16.5c23.333 0 42.5 7 57.5 21s22.5 31.333 22.5 52c0 16.667 -5 29.5 -15 38.5s-31 19.833 -63 32.5l-48 19
c-60 24 -90 61.333 -90 112c0 36.667 13.5 67.167 40.5 91.5s60.5 36.5 100.5 36.5c58 0 102.333 -26.667 133 -80zM184.999 -47.001l66 -28l-101 -128l-49 24z" />
    <glyph glyph-name="Scaron" unicode="&#x160;" horiz-adv-x="505" 
d="M441 574l-58.999 -39.002c-32.667 50 -73 75 -121 75c-34.667 0 -63.5 -10.667 -86.5 -32s-34.5 -48 -34.5 -80c0 -45.333 32 -80.666 96 -105.999l66 -25c54 -21.333 93.333 -46.166 118 -74.499s37 -62.833 37 -103.5c0 -56.667 -20.333 -104.334 -61 -143.001
s-90.667 -58 -150 -58c-52.667 0 -97 15 -133 45s-60.333 72.333 -73 127l72 20c20.667 -81.333 66 -122 136 -122c37.333 0 69 12.667 95 38s39 56.333 39 93c0 26.667 -8.83301 48.834 -26.5 66.501s-47.5 34.834 -89.5 51.501l-62 25
c-92 35.333 -138 90.666 -138 165.999c0 52 18.667 95.167 56 129.5s84.333 51.5 141 51.5c75.333 0 134.666 -35 177.999 -105zM157.001 872.998l92 -87l92 87l51 -26l-115 -126h-57l-115 126z" />
    <glyph glyph-name="scaron" unicode="&#x161;" horiz-adv-x="371" 
d="M324 375l-58.001 -31.001c-20 32 -45.667 48 -77 48c-21.333 0 -38.833 -5.83301 -52.5 -17.5s-20.5 -26.5 -20.5 -44.5c0 -17.333 6.33301 -31.666 19 -42.999c7.33301 -5.33301 26.666 -14.333 57.999 -27l43 -16c35.333 -14 61 -30 77 -48s24 -40.333 24 -67
c0 -40 -14.667 -73.5 -44 -100.5s-65.666 -40.5 -108.999 -40.5c-73.333 0 -124.666 37.667 -153.999 113l61 26c13.333 -28 27 -47.5 41 -58.5s32 -16.5 54 -16.5c23.333 0 42.5 7 57.5 21s22.5 31.333 22.5 52c0 16.667 -5 29.5 -15 38.5s-31 19.833 -63 32.5l-48 19
c-60 24 -90 61.333 -90 112c0 36.667 13.5 67.167 40.5 91.5s60.5 36.5 100.5 36.5c58 0 102.333 -26.667 133 -80zM91.999 672.999l92 -87l92 87l52 -26l-115 -126h-57l-115 126z" />
    <glyph glyph-name="Tcommaaccent" unicode="&#x162;" horiz-adv-x="433" 
d="M427 598h-172v-598h-75v598h-173v69h420v-69zM144 -204l46 157l69 -21l-65 -152z" />
    <glyph glyph-name="tcommaaccent" unicode="&#x163;" horiz-adv-x="246" 
d="M217 379h-74v-246c0 -49.333 16.667 -74 50 -74c8.66699 0 18.667 2 30 6v-65c-16 -4.66699 -30.667 -7 -44 -7c-71.333 0 -107 46.667 -107 140v246h-50v64h50v105l71 28v-133h74v-64zM65 -204l47 157l69 -21l-66 -152z" />
    <glyph glyph-name="Tcaron" unicode="&#x164;" horiz-adv-x="433" 
d="M427 598h-172v-598h-75v598h-173v69h420v-69zM125 873l92 -87l92 87l51 -26l-115 -126h-56l-115 126z" />
    <glyph glyph-name="tcaron" unicode="&#x165;" horiz-adv-x="300" 
d="M217 379h-74v-246c0 -49.333 16.667 -74 50 -74c8.66699 0 18.667 2 30 6v-65c-16 -4.66699 -30.667 -7 -44 -7c-71.333 0 -107 46.667 -107 140v246h-50v64h50v105l71 28v-133h74v-64zM190 521l47 158l69 -21l-66 -153z" />
    <glyph glyph-name="Tbar" unicode="&#x166;" horiz-adv-x="433" 
d="M360 379h-105v-379h-75v379h-106v64h106v155h-173v69h420v-69h-172v-155h105v-64z" />
    <glyph glyph-name="tbar" unicode="&#x167;" horiz-adv-x="246" 
d="M72 133v133h-50v61h50v55h-50v61h50v105l71 28v-133h74v-61h-74v-55h74v-61h-74v-133c0 -49.333 16.667 -74 50 -74c6.66699 0 16.667 2 30 6v-65c-16 -4.66699 -30.667 -7 -44 -7c-71.333 0 -107 46.667 -107 140z" />
    <glyph glyph-name="Utilde" unicode="&#x168;" horiz-adv-x="635" 
d="M80 667h74.999v-414c0 -59.333 7.33301 -100.666 22 -123.999c13.333 -21.333 33 -38.5 59 -51.5s53.333 -19.5 82 -19.5s55.834 6.5 81.501 19.5s45.167 30.167 58.5 51.5c14.667 23.333 22 64.666 22 123.999v414h75v-434c0 -66 -14.667 -117.333 -44 -154
c-22 -28.667 -50.167 -51 -84.5 -67s-70.5 -24 -108.5 -24c-38.667 0 -75.167 8 -109.5 24s-62.5 38.333 -84.5 67c-29.333 36.667 -44 88 -44 154v434zM396.999 841l57.001 -14c-5.33301 -56.667 -31.666 -85 -78.999 -85c-16.667 0 -39 6.33301 -67 19
c-21.333 10 -36 15 -44 15s-13.833 -2.5 -17.5 -7.5s-6.5 -14.167 -8.5 -27.5l-56 13c2.66699 26.667 11 47.5 25 62.5s32 22.5 54 22.5c15.333 0 38.333 -7 69 -21c19.333 -8.66699 33.666 -13 42.999 -13c8 0 13.667 2.5 17 7.5s5.66602 14.5 6.99902 28.5z" />
    <glyph glyph-name="utilde" unicode="&#x169;" horiz-adv-x="509" 
d="M446 0l-71 0.000976562v50c-33.333 -41.333 -78 -62 -134 -62c-54 0 -98 18.667 -132 56c-30.667 33.333 -46 86.333 -46 159v240h71v-231c0 -59.333 10 -100 30 -122c21.333 -22.667 49.333 -34 84 -34c43.333 0 76.333 14 99 42c18.667 23.333 28 64.666 28 123.999
v221h71v-443zM334 641.001l57.001 -14c-5.33301 -56.667 -31.666 -85 -78.999 -85c-16.667 0 -39 6.33301 -67 19c-21.333 10 -36 15 -44 15s-13.833 -2.5 -17.5 -7.5s-6.5 -14.167 -8.5 -27.5l-56 13c2.66699 26.667 11 47.5 25 62.5s32 22.5 54 22.5
c15.333 0 38.333 -7 69 -21c19.333 -8.66699 33.666 -13 42.999 -13c8 0 13.667 2.5 17 7.5s5.66602 14.5 6.99902 28.5z" />
    <glyph glyph-name="Umacron" unicode="&#x16a;" horiz-adv-x="635" 
d="M80 667h74.999v-414c0 -59.333 7.33301 -100.666 22 -123.999c13.333 -21.333 33 -38.5 59 -51.5s53.333 -19.5 82 -19.5s55.834 6.5 81.501 19.5s45.167 30.167 58.5 51.5c14.667 23.333 22 64.666 22 123.999v414h75v-434c0 -66 -14.667 -117.333 -44 -154
c-22 -28.667 -50.167 -51 -84.5 -67s-70.5 -24 -108.5 -24c-38.667 0 -75.167 8 -109.5 24s-62.5 38.333 -84.5 67c-29.333 36.667 -44 88 -44 154v434zM180.999 758v64h273v-64h-273z" />
    <glyph glyph-name="umacron" unicode="&#x16b;" horiz-adv-x="509" 
d="M446 0l-71 0.000976562v50c-33.333 -41.333 -78 -62 -134 -62c-54 0 -98 18.667 -132 56c-30.667 33.333 -46 86.333 -46 159v240h71v-231c0 -59.333 10 -100 30 -122c21.333 -22.667 49.333 -34 84 -34c43.333 0 76.333 14 99 42c18.667 23.333 28 64.666 28 123.999
v221h71v-443zM118 558.001v64h273v-64h-273z" />
    <glyph glyph-name="Ubreve" unicode="&#x16c;" horiz-adv-x="635" 
d="M80 667h74.999v-414c0 -59.333 7.33301 -100.666 22 -123.999c13.333 -21.333 33 -38.5 59 -51.5s53.333 -19.5 82 -19.5s55.834 6.5 81.501 19.5s45.167 30.167 58.5 51.5c14.667 23.333 22 64.666 22 123.999v414h75v-434c0 -66 -14.667 -117.333 -44 -154
c-22 -28.667 -50.167 -51 -84.5 -67s-70.5 -24 -108.5 -24c-38.667 0 -75.167 8 -109.5 24s-62.5 38.333 -84.5 67c-29.333 36.667 -44 88 -44 154v434zM185.999 847l61.001 5.00098c0.666992 -24 7.16699 -42.5 19.5 -55.5s28.833 -19.5 49.5 -19.5
c40.667 0 64.667 25 72 75l61 -5c-4.66699 -40.667 -18.667 -72.834 -42 -96.501s-53.333 -35.5 -90 -35.5c-42.667 0 -77.334 16.333 -104.001 49c-17.333 21.333 -26.333 49 -27 83z" />
    <glyph glyph-name="ubreve" unicode="&#x16d;" horiz-adv-x="509" 
d="M446 0l-71 0.000976562v50c-33.333 -41.333 -78 -62 -134 -62c-54 0 -98 18.667 -132 56c-30.667 33.333 -46 86.333 -46 159v240h71v-231c0 -59.333 10 -100 30 -122c21.333 -22.667 49.333 -34 84 -34c43.333 0 76.333 14 99 42c18.667 23.333 28 64.666 28 123.999
v221h71v-443zM123 647.001l61.001 5c0.666992 -23.333 7.16699 -41.666 19.5 -54.999s28.833 -20 49.5 -20c40.667 0 64.667 25 72 75l61 -5c-4.66699 -40.667 -18.667 -72.834 -42 -96.501s-53.333 -35.5 -90 -35.5c-42.667 0 -77.334 16.333 -104.001 49
c-17.333 21.333 -26.333 49 -27 83z" />
    <glyph glyph-name="Uring" unicode="&#x16e;" horiz-adv-x="635" 
d="M80 667h74.999v-414c0 -59.333 7.33301 -100.666 22 -123.999c13.333 -21.333 33 -38.5 59 -51.5s53.333 -19.5 82 -19.5s55.834 6.5 81.501 19.5s45.167 30.167 58.5 51.5c14.667 23.333 22 64.666 22 123.999v414h75v-434c0 -66 -14.667 -117.333 -44 -154
c-22 -28.667 -50.167 -51 -84.5 -67s-70.5 -24 -108.5 -24c-38.667 0 -75.167 8 -109.5 24s-62.5 38.333 -84.5 67c-29.333 36.667 -44 88 -44 154v434zM316.999 878c24.667 0 45.832 -8.5 63.499 -25.5s26.5 -37.5 26.5 -61.5c0 -24.667 -8.66699 -45.5 -26 -62.5
s-38.333 -25.5 -63 -25.5c-25.333 0 -46.666 8.5 -63.999 25.5s-26 37.833 -26 62.5c0 24 8.83301 44.5 26.5 61.5s38.5 25.5 62.5 25.5zM317.997 842c-14.667 0 -27 -5 -37 -15s-15 -22 -15 -36c0 -14.667 5 -27 15 -37s22.333 -15 37 -15c14 0 26 5 36 15s15 22 15 36
c0 14.667 -5 27 -15 37s-22 15 -36 15z" />
    <glyph glyph-name="uring" unicode="&#x16f;" horiz-adv-x="509" 
d="M446 0l-71 0.000976562v50c-33.333 -41.333 -78 -62 -134 -62c-54 0 -98 18.667 -132 56c-30.667 33.333 -46 86.333 -46 159v240h71v-231c0 -59.333 10 -100 30 -122c21.333 -22.667 49.333 -34 84 -34c43.333 0 76.333 14 99 42c18.667 23.333 28 64.666 28 123.999
v221h71v-443zM254 679.001c25.333 0 46.666 -8.49902 63.999 -25.499s26 -37.833 26 -62.5s-8.66699 -45.5 -26 -62.5s-38.333 -25.5 -63 -25.5c-25.333 0 -46.666 8.66699 -63.999 26s-26 38.333 -26 63c0 23.333 8.83301 43.666 26.5 60.999s38.5 26 62.5 26zM255 643.002
c-14.667 0 -27 -5 -37 -15s-15 -22 -15 -36c0 -14.667 5 -27.167 15 -37.5s22.333 -15.5 37 -15.5c14 0 26 5 36 15s15 22.333 15 37s-5 27 -15 37s-22 15 -36 15z" />
    <glyph glyph-name="Uhungarumlaut" unicode="&#x170;" horiz-adv-x="635" 
d="M80 667h74.999v-414c0 -59.333 7.33301 -100.666 22 -123.999c13.333 -21.333 33 -38.5 59 -51.5s53.333 -19.5 82 -19.5s55.834 6.5 81.501 19.5s45.167 30.167 58.5 51.5c14.667 23.333 22 64.666 22 123.999v414h75v-434c0 -66 -14.667 -117.333 -44 -154
c-22 -28.667 -50.167 -51 -84.5 -67s-70.5 -24 -108.5 -24c-38.667 0 -75.167 8 -109.5 24s-62.5 38.333 -84.5 67c-29.333 36.667 -44 88 -44 154v434zM297.999 878l66 -37l-125 -126l-41 26zM437.999 878l66 -37l-125 -126l-41 26z" />
    <glyph glyph-name="uhungarumlaut" unicode="&#x171;" horiz-adv-x="509" 
d="M446 0l-71 0.000976562v50c-33.333 -41.333 -78 -62 -134 -62c-54 0 -98 18.667 -132 56c-30.667 33.333 -46 86.333 -46 159v240h71v-231c0 -59.333 10 -100 30 -122c21.333 -22.667 49.333 -34 84 -34c43.333 0 76.333 14 99 42c18.667 23.333 28 64.666 28 123.999
v221h71v-443zM240 679.001l66 -38l-125 -126l-41 26zM380 679.001l66 -38l-125 -126l-41 26z" />
    <glyph glyph-name="Uogonek" unicode="&#x172;" horiz-adv-x="635" 
d="M485 667l75 -0.00195312v-433c2.66699 -64.667 -13.333 -118.334 -48 -161.001s-84.667 -70 -150 -82c-19.333 -22 -29 -41 -29 -57c0 -17.333 11 -26 33 -26c8.66699 0 21 2.33301 37 7l20 -51c-23.333 -8.66699 -44.333 -13 -63 -13
c-26.667 0 -48.667 7.16699 -66 21.5s-26 32.833 -26 55.5c0 20.667 7.33301 41.334 22 62.001c-67.333 10.667 -119 37.334 -155 80.001s-52.667 97.334 -50 164.001v433h75v-413c0 -59.333 7.33301 -101 22 -125c12.667 -20.667 32.167 -37.667 58.5 -51
s53.833 -20 82.5 -20c28 0 55.167 6.66699 81.5 20s45.833 30.333 58.5 51c14.667 24 22 65.667 22 125v413z" />
    <glyph glyph-name="uogonek" unicode="&#x173;" horiz-adv-x="509" 
d="M375 443l71 0.000976562v-443c-24 -27.333 -36 -49.333 -36 -66c0 -17.333 10.667 -26 32 -26c8.66699 0 21 2.33301 37 7l20 -51c-22.667 -8.66699 -43.667 -13 -63 -13c-26 0 -47.667 7.16699 -65 21.5s-26 32.5 -26 54.5c0 24.667 10 49 30 73v50
c-33.333 -41.333 -78 -62 -134 -62c-54 0 -98 18.667 -132 56c-30.667 33.333 -46 86.333 -46 159v240h71v-231c0 -59.333 10 -100 30 -122c21.333 -22.667 49.333 -34 84 -34c43.333 0 76.333 14 99 42c18.667 23.333 28 64.666 28 123.999v221z" />
    <glyph glyph-name="Wcircumflex" unicode="&#x174;" horiz-adv-x="880" 
d="M7 667h78l165 -559l157 559h67l157 -559l165 559h78l-204 -667h-76l-154 540l-153 -540h-77zM532 715l-92 87l-92 -87l-51 26l115 126h57l115 -126z" />
    <glyph glyph-name="wcircumflex" unicode="&#x175;" horiz-adv-x="668" 
d="M1 443h76l122 -336l105 336h60l106 -336l122 336h76l-167 -443h-60l-107 333l-106 -333h-60zM426 515l-92 87l-92 -87l-51 26l115 126h57l115 -126z" />
    <glyph glyph-name="Ycircumflex" unicode="&#x176;" horiz-adv-x="507" 
d="M216 0v278l-216 389h82l172 -318l172 318h81l-216 -389v-278h-75zM346 715l-92 87l-92 -87l-52 26l115 126h57l115 -126z" />
    <glyph glyph-name="ycircumflex" unicode="&#x177;" horiz-adv-x="441" 
d="M71 -233l110 253l-180 423h77l141 -336l146 336h76l-296 -676h-74zM314 515l-92 87l-92 -87l-51 26l115 126h56l115 -126z" />
    <glyph glyph-name="Ydieresis" unicode="&#x178;" horiz-adv-x="507" 
d="M216 0v278l-216 389h82l172 -318l172 318h81l-216 -389v-278h-75zM162 841c14 0 25.833 -4.83398 35.5 -14.501s14.5 -21.5 14.5 -35.5c0 -13.333 -5 -25 -15 -35s-21.667 -15 -35 -15c-14 0 -25.833 4.83301 -35.5 14.5s-14.5 21.834 -14.5 36.501
c0 13.333 5 24.833 15 34.5s21.667 14.5 35 14.5zM345 840.999c14 0 25.833 -4.83301 35.5 -14.5s14.5 -21.5 14.5 -35.5s-4.83301 -25.833 -14.5 -35.5s-21.5 -14.5 -35.5 -14.5s-25.833 5 -35.5 15s-14.5 22 -14.5 36c0 13.333 5 24.833 15 34.5s21.667 14.5 35 14.5z" />
    <glyph glyph-name="Zacute" unicode="&#x179;" horiz-adv-x="509" 
d="M476 601l-365 -532h373v-69h-461v66l370 532h-340v69h423v-66zM302 878l70 -37l-125 -126l-45 26z" />
    <glyph glyph-name="zacute" unicode="&#x17a;" horiz-adv-x="419" 
d="M392 384l-274 -320h284v-64h-373v58l275 321h-260v64h348v-59zM264 679l70 -38l-125 -126l-45 26z" />
    <glyph glyph-name="Zdotaccent" unicode="&#x17b;" horiz-adv-x="509" 
d="M476 601l-365 -532h373v-69h-461v66l370 532h-340v69h423v-66zM270 841c14 0 25.833 -4.83398 35.5 -14.501s14.5 -21.5 14.5 -35.5c0 -13.333 -5 -25 -15 -35s-21.667 -15 -35 -15c-14 0 -25.833 4.83301 -35.5 14.5s-14.5 21.834 -14.5 36.501
c0 13.333 5 24.833 15 34.5s21.667 14.5 35 14.5z" />
    <glyph glyph-name="zdotaccent" unicode="&#x17c;" horiz-adv-x="419" 
d="M392 384l-274 -320h284v-64h-373v58l275 321h-260v64h348v-59zM216 641c14 0 25.833 -4.83398 35.5 -14.501s14.5 -21.5 14.5 -35.5c0 -13.333 -5 -25 -15 -35s-21.667 -15 -35 -15c-14 0 -25.833 4.83301 -35.5 14.5s-14.5 21.834 -14.5 36.501
c0 13.333 5 24.833 15 34.5s21.667 14.5 35 14.5z" />
    <glyph glyph-name="Zcaron" unicode="&#x17d;" horiz-adv-x="509" 
d="M476 601l-365 -532h373v-69h-461v66l370 532h-340v69h423v-66zM178 873l92 -87l92 87l51 -26l-115 -126h-56l-115 126z" />
    <glyph glyph-name="zcaron" unicode="&#x17e;" horiz-adv-x="419" 
d="M392 384l-274 -320h284v-64h-373v58l275 321h-260v64h348v-59zM124 673l92 -87l92 87l51 -26l-115 -126h-57l-115 126z" />
    <glyph glyph-name="longs" unicode="&#x17f;" horiz-adv-x="228" 
d="M148 533l-0.000976562 -533h-71v379h-45v64h45v90c0 94 35.667 141 107 141c10.667 0 25.334 -2.33301 44.001 -7v-65c-12.667 3.33301 -22.667 5 -30 5c-33.333 0 -50 -24.667 -50 -74z" />
    <glyph glyph-name="uni018F" unicode="&#x18f;" horiz-adv-x="761" 
d="M42 366h597.997c-9.33301 72.667 -38.166 131.334 -86.499 176.001s-107.166 67 -176.499 67c-50 0 -96 -13 -138 -39s-74.667 -62.333 -98 -109l-66 34c28.667 57.333 69.834 102.333 123.501 135s113.5 49 179.5 49c96.667 0 177.667 -33.333 243 -100
s98 -148.667 98 -246c0 -96.667 -32.667 -178.334 -98 -245.001s-145.333 -100 -240 -100c-60.667 0 -117 14.667 -169 44s-92.667 69.333 -122 120c-30 50.667 -46 122 -48 214zM640.997 305h-518.998c7.33301 -59.333 23.666 -106.333 48.999 -141
c50.667 -70.667 120.667 -106 210 -106c47.333 0 90.5 11 129.5 33s70.167 53 93.5 93c17.333 28 29.666 68.333 36.999 121z" />
    <glyph glyph-name="florin" unicode="&#x192;" horiz-adv-x="464" 
d="M8 -190l13.001 65c12 -4 22 -6 30 -6c33.333 0 54.666 24.667 63.999 74l89 436h-45l13 64h45l18 90c19.333 94 64.666 141 135.999 141c10.667 0 25 -2.33301 43 -7l-14 -65c-12 3.33301 -21.667 5 -29 5c-33.333 0 -54.666 -24.667 -63.999 -74l-19 -90h82l-13 -64h-82
l-89 -436c-18 -93.333 -63 -140 -135 -140c-10.667 0 -25 2.33301 -43 7z" />
    <glyph glyph-name="Ohorn" unicode="&#x1a0;" horiz-adv-x="764" 
d="M636 719l50 24.999c37.333 -27.333 56 -62.333 56 -105c0 -47.333 -25.333 -86.666 -76 -117.999c37.333 -57.333 56 -120 56 -188c0 -94.667 -33.333 -175.834 -100 -243.501s-146.667 -101.5 -240 -101.5s-173.333 33.833 -240 101.5s-100 148.834 -100 243.501
s33.5 176 100.5 244s146.833 102 239.5 102c95.333 0 177.333 -36 246 -108c34 16.667 51 40 51 70c0 28 -14.333 54 -43 78zM382 608.999c-72.667 0 -135 -26.6689 -187 -80.002s-78 -117.333 -78 -192c0 -77.333 25.5 -143.166 76.5 -197.499s113.167 -81.5 186.5 -81.5
c74 0 137 26.833 189 80.5s78 118.5 78 194.5c0 76.667 -25.833 141.834 -77.5 195.501s-114.167 80.5 -187.5 80.5z" />
    <glyph glyph-name="ohorn" unicode="&#x1a1;" horiz-adv-x="560" 
d="M438 495l50.001 25c36.667 -28 55 -63 55 -105c0 -42.667 -21.667 -79.667 -65 -111c9.33301 -26.667 14 -53.667 14 -81c0 -66.667 -21.833 -122.5 -65.5 -167.5s-97.834 -67.5 -162.501 -67.5s-119 22.5 -163 67.5s-66 100.5 -66 166.5c0 65.333 22 120.5 66 165.5
s98 67.5 162 67.5c78.667 0 140.667 -32 186 -96c20.667 14 31 33.333 31 58c0 28 -14 54 -42 78zM266.001 390c-47.333 0 -85.666 -15.501 -114.999 -46.501s-44 -71.167 -44 -120.5c0 -50 14.5 -90.833 43.5 -122.5s66.833 -47.5 113.5 -47.5
c45.333 0 82.666 15.833 111.999 47.5s44 72.167 44 121.5c0 48.667 -14.5 88.834 -43.5 120.501s-65.833 47.5 -110.5 47.5z" />
    <glyph glyph-name="Uhorn" unicode="&#x1af;" horiz-adv-x="664" 
d="M480 667l75 -0.00195312v-92c28.667 15.333 43 37.333 43 66c0 28 -14.333 54 -43 78l50 25c37.333 -27.333 56 -62.333 56 -105c0 -28 -9.33301 -53.667 -28 -77s-44.667 -41.666 -78 -54.999v-274c0 -66 -14.667 -117.333 -44 -154c-22 -28.667 -50.167 -51 -84.5 -67
s-70.833 -24 -109.5 -24c-38 0 -74.167 8 -108.5 24s-62.5 38.333 -84.5 67c-29.333 36.667 -44 88 -44 154v434h75v-414c0 -59.333 7.33301 -100.666 22 -123.999c12.667 -20.667 32.167 -37.667 58.5 -51s53.5 -20 81.5 -20c28.667 0 56.167 6.66699 82.5 20
s45.833 30.333 58.5 51c14.667 24 22 65.333 22 124v414z" />
    <glyph glyph-name="uhorn" unicode="&#x1b0;" horiz-adv-x="569" 
d="M375 443l71 0.000976562v-92c28.667 16 43 38 43 66s-14.333 54 -43 78l50 25c37.333 -27.333 56 -62.333 56 -105c0 -28 -9.33301 -53.5 -28 -76.5s-44.667 -41.5 -78 -55.5v-283h-71v50c-33.333 -41.333 -78 -62 -134 -62c-54 0 -98 18.667 -132 56
c-30.667 33.333 -46 86.333 -46 159v240h71v-231c0 -59.333 10 -100 30 -122c21.333 -22.667 49.333 -34 84 -34c43.333 0 76.333 14 99 42c18.667 23.333 28 64.666 28 123.999v221z" />
    <glyph glyph-name="uni01C4" unicode="&#x1c4;" horiz-adv-x="1111" 
d="M80 0l-0.00195312 667.001h137c110.667 0 198.334 -29.833 263.001 -89.5s97 -140.834 97 -243.501s-32.167 -184 -96.5 -244s-152.166 -90 -263.499 -90h-137zM219.998 598.001l-65 -0.000976562v-529h65c86.667 0 155.334 23.833 206.001 71.5s76 112.167 76 193.5
c0 80.667 -25.333 144.834 -76 192.501s-119.334 71.5 -206.001 71.5zM1079 601l-366 -532h373v-69h-461v66l371 532h-341v69h424v-66zM779.998 873l92 -87l92 87l52 -26l-115 -126h-57l-115 126z" />
    <glyph glyph-name="uni01C5" unicode="&#x1c5;" horiz-adv-x="1021" 
d="M80 0l-0.00195312 667.001h137c110.667 0 198.334 -29.833 263.001 -89.5s97 -140.834 97 -243.501s-32.167 -184 -96.5 -244s-152.166 -90 -263.499 -90h-137zM219.998 598.001l-65 -0.000976562v-529h65c86.667 0 155.334 23.833 206.001 71.5s76 112.167 76 193.5
c0 80.667 -25.333 144.834 -76 192.501s-119.334 71.5 -206.001 71.5zM993.998 384l-274 -320h284v-64h-373v58l275 321h-260v64h348v-59zM724.998 673l92 -87l92 87l52 -26l-115 -126h-57l-115 126z" />
    <glyph glyph-name="uni01C6" unicode="&#x1c6;" horiz-adv-x="967" 
d="M486 667v-667.001h-71v58c-41.333 -46.667 -93.333 -70 -156 -70c-62 0 -114.833 22.833 -158.5 68.5s-65.5 100.834 -65.5 165.501s21.833 119.667 65.5 165s96.5 68 158.5 68c61.333 0 113.333 -23.333 156 -70v282h71zM265 389.999
c-46.667 0 -84.668 -15.501 -114.001 -46.501s-44 -71.167 -44 -120.5c0 -50 14.5 -90.833 43.5 -122.5s66.5 -47.5 112.5 -47.5c44.667 0 81.167 15.833 109.5 47.5s42.5 72.167 42.5 121.5c0 48.667 -14.167 88.834 -42.5 120.501s-64.166 47.5 -107.499 47.5z
M940.999 383.998l-274 -320h284v-64h-373v58l275 321h-260v64h348v-59zM671.999 672.998l92 -87l92 87l52 -26l-115 -126h-57l-115 126z" />
    <glyph glyph-name="uni01C7" unicode="&#x1c7;" horiz-adv-x="828" 
d="M80 667h75v-598h258v-69h-333v667zM673 667h75v-467c0 -42.667 -3.66699 -76.5 -11 -101.5s-20 -46.5 -38 -64.5c-32 -30.667 -71 -46 -117 -46c-49.333 0 -100.333 23.667 -153 71l46 54c36.667 -36.667 72 -55 106 -55c61.333 0 92 47.333 92 142v467z" />
    <glyph glyph-name="uni01C8" unicode="&#x1c8;" horiz-adv-x="629" 
d="M494 -100l0.000976562 543h71v-543c0 -93.333 -35.667 -140 -107 -140c-12 0 -27 2.33301 -45 7v64c13.333 -3.33301 23.666 -5 30.999 -5c33.333 0 50 24.667 50 74zM80.001 667h75v-598h258v-69h-333v667zM529.001 642c14 0 26 -5 36 -15s15 -22 15 -36s-5 -26 -15 -36
s-22 -15 -36 -15s-26 5 -36 15s-15 22.333 -15 37c0 13.333 5 25 15 35s22 15 36 15z" />
    <glyph glyph-name="uni01C9" unicode="&#x1c9;" horiz-adv-x="394" 
d="M259 -100v543h71v-543c0 -93.333 -35.667 -140 -107 -140c-11.333 0 -26 2.33301 -44 7v64c13.333 -3.33301 23.333 -5 30 -5c33.333 0 50 24.667 50 74zM135 667v-667h-71v667h71zM294 642c14 0 26 -5 36 -15s15 -22 15 -36s-5 -26 -15 -36s-22 -15 -36 -15
s-26 5 -36 15s-15 22.333 -15 37c0 13.333 5 25 15 35s22 15 36 15z" />
    <glyph glyph-name="uni01CA" unicode="&#x1ca;" horiz-adv-x="1108" 
d="M155 0h-75v667h70l405 -545v545h75v-667h-70l-405 545v-545zM953 667h75v-467c0 -42.667 -3.66699 -76.5 -11 -101.5s-20 -46.5 -38 -64.5c-32 -30.667 -71 -46 -117 -46c-49.333 0 -100.333 23.667 -153 71l46 54c36.667 -36.667 72 -55 106 -55
c61.333 0 92 47.333 92 142v467z" />
    <glyph glyph-name="uni01CB" unicode="&#x1cb;" horiz-adv-x="919" 
d="M784 -100l0.000976562 543h71v-543c0 -93.333 -35.667 -140 -107 -140c-12 0 -27 2.33301 -45 7v64c13.333 -3.33301 23.666 -5 30.999 -5c33.333 0 50 24.667 50 74zM155.001 0h-75v667h70l405 -545v545h75v-667h-70l-405 545v-545zM819.001 642c14 0 26 -5 36 -15
s15 -22 15 -36s-5 -26 -15 -36s-22 -15 -36 -15s-26 5 -36 15s-15 22.333 -15 37c0 13.333 5 25 15 35s22 15 36 15z" />
    <glyph glyph-name="uni01CC" unicode="&#x1cc;" horiz-adv-x="705" 
d="M63 443h71v-50c33.333 41.333 78 62 134 62c54 0 98 -18.667 132 -56c30.667 -33.333 46 -86.333 46 -159v-240h-71v231c0 59.333 -10 100 -30 122c-21.333 22.667 -49.333 34 -84 34c-43.333 0 -76.333 -14 -99 -42c-18.667 -23.333 -28 -64.333 -28 -123v-222h-71v443z
M570 -100v543h71v-543c0 -93.333 -35.667 -140 -107 -140c-11.333 0 -26 2.33301 -44 7v64c13.333 -3.33301 23.333 -5 30 -5c33.333 0 50 24.667 50 74zM605 642c14 0 26 -5 36 -15s15 -22 15 -36s-5 -26 -15 -36s-22 -15 -36 -15s-26 5 -36 15s-15 22.333 -15 37
c0 13.333 5 25 15 35s22 15 36 15z" />
    <glyph glyph-name="uni01CD" unicode="&#x1cd;" horiz-adv-x="620" 
d="M464 189h-308l-72 -189h-77l257 667h93l257 -667h-78zM309 595l-127 -337h255zM218 873l92 -87l92 87l52 -26l-115 -126h-57l-115 126z" />
    <glyph glyph-name="uni01CE" unicode="&#x1ce;" 
d="M486 443v-443.001h-71v58c-41.333 -46.667 -93.333 -70 -156 -70c-62 0 -114.833 22.833 -158.5 68.5s-65.5 100.834 -65.5 165.501s21.833 119.667 65.5 165s96.5 68 158.5 68c61.333 0 113.333 -23.333 156 -70v58h71zM266 389.999
c-47.333 0 -85.667 -15.501 -115 -46.501s-44 -71.167 -44 -120.5c0 -50 14.5 -90.833 43.5 -122.5s66.5 -47.5 112.5 -47.5c45.333 0 82.333 15.833 111 47.5s43 72.167 43 121.5c0 48.667 -14.333 88.834 -43 120.501s-64.667 47.5 -108 47.5zM168.999 672.998l92 -87
l92 87l51 -26l-115 -126h-57l-115 126z" />
    <glyph glyph-name="uni01CF" unicode="&#x1cf;" horiz-adv-x="235" 
d="M80 667h75v-667h-75v667zM25 873l92 -87l92 87l52 -26l-115 -126h-57l-115 126z" />
    <glyph glyph-name="uni01D0" unicode="&#x1d0;" horiz-adv-x="199" 
d="M64 443h71v-443h-71v443zM7 673l92 -87l92 87l52 -26l-115 -126h-57l-115 126z" />
    <glyph glyph-name="uni01D1" unicode="&#x1d1;" horiz-adv-x="764" 
d="M382 679c93.333 0 173.333 -34.002 240 -102.002s100 -149.333 100 -244c0 -95.333 -33.5 -176.666 -100.5 -243.999s-147.833 -101 -242.5 -101c-92.667 0 -172 34.333 -238 103s-99 151.334 -99 248.001c0 91.333 33.833 170.833 101.5 238.5
s147.167 101.5 238.5 101.5zM382 608.998c-72.667 0 -135 -26.668 -187 -80.001s-78 -117 -78 -191c0 -77.333 25.667 -143.333 77 -198s113.333 -82 186 -82c74 0 137 26.833 189 80.5s78 118.5 78 194.5c0 76.667 -25.833 141.834 -77.5 195.501
s-114.167 80.5 -187.5 80.5zM290 872.997l92 -87l92 87l51 -26l-115 -126h-56l-115 126z" />
    <glyph glyph-name="uni01D2" unicode="&#x1d2;" horiz-adv-x="526" 
d="M267 455c62.667 0 115.833 -22.666 159.5 -67.999s65.5 -100.333 65.5 -165c0 -66 -22 -121.5 -66 -166.5s-98 -67.5 -162 -67.5c-65.333 0 -119.833 22.667 -163.5 68s-65.5 101.333 -65.5 168c0 65.333 22.333 120.166 67 164.499s99.667 66.5 165 66.5z
M265.999 390.001c-47.333 0 -85.666 -15.501 -114.999 -46.501s-44 -71.167 -44 -120.5c0 -50 14.5 -90.833 43.5 -122.5s66.833 -47.5 113.5 -47.5c45.333 0 82.666 15.833 111.999 47.5s44 72.167 44 121.5c0 48.667 -14.5 88.834 -43.5 120.501s-65.833 47.5 -110.5 47.5
zM170.999 673l92 -87l92 87l52 -26l-115 -126h-57l-115 126z" />
    <glyph glyph-name="uni01D3" unicode="&#x1d3;" horiz-adv-x="635" 
d="M80 667h74.999v-414c0 -59.333 7.33301 -100.666 22 -123.999c13.333 -21.333 33 -38.5 59 -51.5s53.333 -19.5 82 -19.5s55.834 6.5 81.501 19.5s45.167 30.167 58.5 51.5c14.667 23.333 22 64.666 22 123.999v414h75v-434c0 -66 -14.667 -117.333 -44 -154
c-22 -28.667 -50.167 -51 -84.5 -67s-70.5 -24 -108.5 -24c-38.667 0 -75.167 8 -109.5 24s-62.5 38.333 -84.5 67c-29.333 36.667 -44 88 -44 154v434zM225.999 873l92 -87l92 87l51 -26l-115 -126h-57l-115 126z" />
    <glyph glyph-name="uni01D4" unicode="&#x1d4;" horiz-adv-x="509" 
d="M446 0l-71 0.000976562v50c-33.333 -41.333 -78 -62 -134 -62c-54 0 -98 18.667 -132 56c-30.667 33.333 -46 86.333 -46 159v240h71v-231c0 -59.333 10 -100 30 -122c21.333 -22.667 49.333 -34 84 -34c43.333 0 76.333 14 99 42c18.667 23.333 28 64.666 28 123.999
v221h71v-443zM163 673.001l92 -87l92 87l51 -26l-115 -126h-57l-115 126z" />
    <glyph glyph-name="uni01DD" unicode="&#x1dd;" horiz-adv-x="497" 
d="M36 260l351.003 -0.000976562c-6.66699 42 -22.334 74.5 -47.001 97.5s-56.334 34.5 -95.001 34.5c-52 0 -94.667 -21.333 -128 -64l-65 26c49.333 67.333 113.666 101 192.999 101c63.333 0 115.5 -21.667 156.5 -65s61.5 -98.666 61.5 -165.999
s-20.667 -123.5 -62 -168.5s-93 -67.5 -155 -67.5c-62.667 0 -113.5 22 -152.5 66s-58.5 101 -58.5 171c0 3.33301 0.333008 15 1 35zM389.003 204.999h-282c2 -50.667 14.833 -89 38.5 -115s57.167 -39 100.5 -39c87.333 0 135 51.333 143 154z" />
    <glyph glyph-name="Gcaron" unicode="&#x1e6;" horiz-adv-x="727" 
d="M410 275l-0.000976562 69.001h274v-37c0 -96 -27 -173.167 -81 -231.5s-125.667 -87.5 -215 -87.5c-96 0 -177.667 33.333 -245 100s-101 147.667 -101 243c0 97.333 33.333 179.666 100 246.999s148 101 244 101c46.667 0 88.5 -8.33301 125.5 -25s75.167 -44 114.5 -82
l-51 -51c-30.667 31.333 -60.667 53.833 -90 67.5s-62.666 20.5 -99.999 20.5c-76 0 -139.667 -26.5 -191 -79.5s-77 -118.833 -77 -197.5c0 -76.667 26 -141.5 78 -194.5s115.667 -79.5 191 -79.5c64.667 0 117.167 19.833 157.5 59.5s61.5 92.167 63.5 157.5h-197z
M293.999 873.001l92 -87l92 87l51 -26l-115 -126h-56l-115 126z" />
    <glyph glyph-name="gcaron" unicode="&#x1e7;" 
d="M415 443l71 -0.00195312v-451c0 -71.333 -21.167 -128.666 -63.5 -171.999s-98.5 -65 -168.5 -65c-41.333 0 -77.666 7.66699 -108.999 23s-62 40.333 -92 75l47 47c25.333 -30 49.166 -50.833 71.499 -62.5s49.833 -17.5 82.5 -17.5c50 0 89.333 15.333 118 46
s43 72.667 43 126v66c-41.333 -46.667 -93.333 -70 -156 -70c-62 0 -114.833 22.833 -158.5 68.5s-65.5 100.834 -65.5 165.501s21.833 119.667 65.5 165s96.5 68 158.5 68c61.333 0 113.333 -23.333 156 -70v58zM266 389.998c-47.333 0 -85.6689 -15.501 -115.002 -46.501
s-44 -71.167 -44 -120.5c0 -50 14.5 -90.833 43.5 -122.5s66.5 -47.5 112.5 -47.5c44.667 0 81.334 15.833 110.001 47.5s43 72.167 43 121.5c0 48.667 -14.167 88.834 -42.5 120.501s-64.166 47.5 -107.499 47.5zM168.997 672.997l92 -87l92 87l51 -26l-115 -126h-57
l-115 126z" />
    <glyph glyph-name="uni01F4" unicode="&#x1f4;" horiz-adv-x="727" 
d="M410 275l-0.000976562 69.001h274v-37c0 -96 -27 -173.167 -81 -231.5s-125.667 -87.5 -215 -87.5c-96 0 -177.667 33.333 -245 100s-101 147.667 -101 243c0 97.333 33.333 179.666 100 246.999s148 101 244 101c46.667 0 88.5 -8.33301 125.5 -25s75.167 -44 114.5 -82
l-51 -51c-30.667 31.333 -60.667 53.833 -90 67.5s-62.666 20.5 -99.999 20.5c-76 0 -139.667 -26.5 -191 -79.5s-77 -118.833 -77 -197.5c0 -76.667 26 -141.5 78 -194.5s115.667 -79.5 191 -79.5c64.667 0 117.167 19.833 157.5 59.5s61.5 92.167 63.5 157.5h-197z
M440.999 878.001l70 -37l-125 -126l-45 26z" />
    <glyph glyph-name="uni01F5" unicode="&#x1f5;" 
d="M415 443l71 -0.00195312v-451c0 -71.333 -21.167 -128.666 -63.5 -171.999s-98.5 -65 -168.5 -65c-41.333 0 -77.666 7.66699 -108.999 23s-62 40.333 -92 75l47 47c25.333 -30 49.166 -50.833 71.499 -62.5s49.833 -17.5 82.5 -17.5c50 0 89.333 15.333 118 46
s43 72.667 43 126v66c-41.333 -46.667 -93.333 -70 -156 -70c-62 0 -114.833 22.833 -158.5 68.5s-65.5 100.834 -65.5 165.501s21.833 119.667 65.5 165s96.5 68 158.5 68c61.333 0 113.333 -23.333 156 -70v58zM266 389.998c-47.333 0 -85.6689 -15.501 -115.002 -46.501
s-44 -71.167 -44 -120.5c0 -50 14.5 -90.833 43.5 -122.5s66.5 -47.5 112.5 -47.5c44.667 0 81.334 15.833 110.001 47.5s43 72.167 43 121.5c0 48.667 -14.167 88.834 -42.5 120.501s-64.166 47.5 -107.499 47.5zM313.997 678.997l70 -38l-125 -126l-45 26z" />
    <glyph glyph-name="Aringacute" unicode="&#x1fa;" horiz-adv-x="620" 
d="M464 189h-308l-72 -189h-77l257 667h93l257 -667h-78zM309 595l-127 -337h255zM325 1060l70 -38l-125 -125l-45 25zM310 878c24.667 0 45.832 -8.5 63.499 -25.5s26.5 -37.5 26.5 -61.5c0 -24.667 -8.66699 -45.5 -26 -62.5s-38.333 -25.5 -63 -25.5
c-25.333 0 -46.666 8.5 -63.999 25.5s-26 37.833 -26 62.5c0 24 8.83301 44.5 26.5 61.5s38.5 25.5 62.5 25.5zM310.998 842c-14.667 0 -27 -5 -37 -15s-15 -22 -15 -36c0 -14.667 5 -27 15 -37s22.333 -15 37 -15c14 0 26 5 36 15s15 22 15 36c0 14.667 -5 27 -15 37
s-22 15 -36 15z" />
    <glyph glyph-name="aringacute" unicode="&#x1fb;" 
d="M486 443v-443.001h-71v58c-41.333 -46.667 -93.333 -70 -156 -70c-62 0 -114.833 22.833 -158.5 68.5s-65.5 100.834 -65.5 165.501s21.833 119.667 65.5 165s96.5 68 158.5 68c61.333 0 113.333 -23.333 156 -70v58h71zM266 389.999
c-47.333 0 -85.667 -15.501 -115 -46.501s-44 -71.167 -44 -120.5c0 -50 14.5 -90.833 43.5 -122.5s66.5 -47.5 112.5 -47.5c45.333 0 82.333 15.833 111 47.5s43 72.167 43 121.5c0 48.667 -14.333 88.834 -43 120.501s-64.667 47.5 -108 47.5zM273.999 678.998
c25.333 0 46.6641 -8.49902 63.9971 -25.499s26 -37.833 26 -62.5s-8.66699 -45.5 -26 -62.5s-38.666 -25.5 -63.999 -25.5s-46.666 8.66699 -63.999 26s-26 38.333 -26 63c0 23.333 8.83301 43.666 26.5 60.999s38.834 26 63.501 26zM273.997 642.999
c-14 0 -26.167 -5 -36.5 -15s-15.5 -22 -15.5 -36c0 -14.667 5 -27.167 15 -37.5s22.333 -15.5 37 -15.5s27 5 37 15s15 22.333 15 37s-5 27 -15 37s-22.333 15 -37 15zM288.997 877.999l70 -37l-125 -126l-45 26z" />
    <glyph glyph-name="AEacute" unicode="&#x1fc;" horiz-adv-x="840" 
d="M445 0v189h-259l-96 -189h-83l343 667h438v-69h-268v-225h238v-69h-238v-235h278v-69h-353zM221 258h224v340h-52zM575 878l70 -37l-125 -126l-45 26z" />
    <glyph glyph-name="aeacute" unicode="&#x1fd;" horiz-adv-x="822" 
d="M715 131l64.002 -27.001c-46.667 -77.333 -112.667 -116 -198 -116c-70.667 0 -128 28.333 -172 85c-28.667 -56.667 -87.667 -85 -177 -85c-60.667 0 -108.667 13.5 -144 40.5s-53 63.833 -53 110.5c0 46 16.333 82.167 49 108.5s77.667 39.5 135 39.5h141
c-8.66699 69.333 -52.334 104 -131.001 104c-51.333 0 -99 -16.667 -143 -50l-33 47c55.333 44.667 116.666 67 183.999 67c82 0 138 -29.333 168 -88c44 58.667 100.667 88 170 88c62 0 112.833 -22.667 152.5 -68s59.5 -103.333 59.5 -174v-22h-354
c5.33301 -41.333 21.5 -74.666 48.5 -99.999s59.833 -38 98.5 -38c59.333 0 104.333 26 135 78zM362.002 142.999v83h-129c-41.333 0 -73 -7.5 -95 -22.5s-33 -36.5 -33 -64.5s11 -49.5 33 -64.5s53.667 -22.5 95 -22.5c86 0 129 30.333 129 91zM433.002 251.999h283
c-6 42.667 -21.5 76.5 -46.5 101.5s-56.167 37.5 -93.5 37.5s-69 -12.5 -95 -37.5s-42 -58.833 -48 -101.5zM461.002 678.999l70 -38l-125 -126l-45 26z" />
    <glyph glyph-name="Oslashacute" unicode="&#x1fe;" horiz-adv-x="771" 
d="M95 -2l-41 40.001l73 73c-54 63.333 -81 137.666 -81 222.999c0 94 33.5 175 100.5 243s146.833 102 239.5 102c83.333 0 156.333 -27.667 219 -83l72 73l41 -40l-73 -73c54 -63.333 81 -138 81 -224c0 -94 -33.5 -174.833 -100.5 -242.5s-146.833 -101.5 -239.5 -101.5
c-83.333 0 -156.333 27.667 -219 83zM178 163.001l376.999 382.002c-51.333 42.667 -107.666 64 -168.999 64c-73.333 0 -135.833 -26.833 -187.5 -80.5s-77.5 -118.834 -77.5 -195.501c0 -62.667 19 -119.334 57 -170.001zM593.999 504.003l-377.002 -382
c50.667 -42.667 107.334 -64 170.001 -64c72.667 0 134.834 27 186.501 81s77.5 118.667 77.5 194c0 64 -19 121 -57 171zM440.997 878.003l70 -37l-125 -126l-45 26z" />
    <glyph glyph-name="oslashacute" unicode="&#x1ff;" horiz-adv-x="539" 
d="M79 -2l-38 37l46 45c-30.667 40.667 -46 88 -46 142c0 65.333 22 120.5 66 165.5s98 67.5 162 67.5c56.667 0 105.667 -17.667 147 -53l44 43l38 -37l-46 -44c30.667 -44 46 -91.333 46 -142c0 -66 -22 -121.5 -66 -166.5s-98 -67.5 -162 -67.5
c-56.667 0 -105.667 17.667 -147 53zM135 126l235 231.001c-28 22 -61.333 33 -100 33c-46.667 0 -84.5 -15.667 -113.5 -47s-43.5 -72 -43.5 -122c0 -34.667 7.33301 -66.334 22 -95.001zM404 317.001l-236 -230.999c29.333 -22 63 -33 101 -33c46 0 83.667 15.667 113 47
s44 71.666 44 120.999c0 38 -7.33301 70 -22 96zM324 679.002l70 -38l-125 -126l-45 26z" />
    <glyph glyph-name="uni0200" unicode="&#x200;" horiz-adv-x="620" 
d="M464 189h-308l-72 -189h-77l257 667h93l257 -667h-78zM309 595l-127 -337h255zM241 715l-125 126l66 37l100 -137zM381 715l-125 126l66 37l100 -137z" />
    <glyph glyph-name="uni0201" unicode="&#x201;" 
d="M486 443v-443.001h-71v58c-41.333 -46.667 -93.333 -70 -156 -70c-62 0 -114.833 22.833 -158.5 68.5s-65.5 100.834 -65.5 165.501s21.833 119.667 65.5 165s96.5 68 158.5 68c61.333 0 113.333 -23.333 156 -70v58h71zM266 389.999
c-47.333 0 -85.667 -15.501 -115 -46.501s-44 -71.167 -44 -120.5c0 -50 14.5 -90.833 43.5 -122.5s66.5 -47.5 112.5 -47.5c45.333 0 82.333 15.833 111 47.5s43 72.167 43 121.5c0 48.667 -14.333 88.834 -43 120.501s-64.667 47.5 -108 47.5zM168.999 514.998l-125 126
l67 38l100 -138zM308.999 514.998l-125 126l67 38l100 -138z" />
    <glyph glyph-name="Scommaaccent" unicode="&#x218;" horiz-adv-x="505" 
d="M441 574l-58.999 -39.002c-32.667 50 -73 75 -121 75c-34.667 0 -63.5 -10.667 -86.5 -32s-34.5 -48 -34.5 -80c0 -45.333 32 -80.666 96 -105.999l66 -25c54 -21.333 93.333 -46.166 118 -74.499s37 -62.833 37 -103.5c0 -56.667 -20.333 -104.334 -61 -143.001
s-90.667 -58 -150 -58c-52.667 0 -97 15 -133 45s-60.333 72.333 -73 127l72 20c20.667 -81.333 66 -122 136 -122c37.333 0 69 12.667 95 38s39 56.333 39 93c0 26.667 -8.83301 48.834 -26.5 66.501s-47.5 34.834 -89.5 51.501l-62 25
c-92 35.333 -138 90.666 -138 165.999c0 52 18.667 95.167 56 129.5s84.333 51.5 141 51.5c75.333 0 134.666 -35 177.999 -105zM252.001 -47.002l66 -28l-101 -128l-49 24z" />
    <glyph glyph-name="scommaaccent" unicode="&#x219;" horiz-adv-x="371" 
d="M324 375l-58.001 -31.001c-20 32 -45.667 48 -77 48c-21.333 0 -38.833 -5.83301 -52.5 -17.5s-20.5 -26.5 -20.5 -44.5c0 -17.333 6.33301 -31.666 19 -42.999c7.33301 -5.33301 26.666 -14.333 57.999 -27l43 -16c35.333 -14 61 -30 77 -48s24 -40.333 24 -67
c0 -40 -14.667 -73.5 -44 -100.5s-65.666 -40.5 -108.999 -40.5c-73.333 0 -124.666 37.667 -153.999 113l61 26c13.333 -28 27 -47.5 41 -58.5s32 -16.5 54 -16.5c23.333 0 42.5 7 57.5 21s22.5 31.333 22.5 52c0 16.667 -5 29.5 -15 38.5s-31 19.833 -63 32.5l-48 19
c-60 24 -90 61.333 -90 112c0 36.667 13.5 67.167 40.5 91.5s60.5 36.5 100.5 36.5c58 0 102.333 -26.667 133 -80zM125.999 -204.001l46 157l69 -21l-65 -152z" />
    <glyph glyph-name="uni021A" unicode="&#x21a;" horiz-adv-x="433" 
d="M427 598h-172v-598h-75v598h-173v69h420v-69zM144 -204l46 157l69 -21l-65 -152z" />
    <glyph glyph-name="uni021B" unicode="&#x21b;" horiz-adv-x="246" 
d="M217 379h-74v-246c0 -49.333 16.667 -74 50 -74c8.66699 0 18.667 2 30 6v-65c-16 -4.66699 -30.667 -7 -44 -7c-71.333 0 -107 46.667 -107 140v246h-50v64h50v105l71 28v-133h74v-64zM65 -204l47 157l69 -21l-66 -152z" />
    <glyph glyph-name="uni0226" unicode="&#x226;" horiz-adv-x="620" 
d="M464 189h-308l-72 -189h-77l257 667h93l257 -667h-78zM309 595l-127 -337h255zM310 841c14 0 25.833 -4.83398 35.5 -14.501s14.5 -21.5 14.5 -35.5c0 -13.333 -5 -25 -15 -35s-21.667 -15 -35 -15c-14 0 -25.833 4.83301 -35.5 14.5s-14.5 21.834 -14.5 36.501
c0 13.333 5 24.833 15 34.5s21.667 14.5 35 14.5z" />
    <glyph glyph-name="uni0227" unicode="&#x227;" 
d="M486 443v-443.001h-71v58c-41.333 -46.667 -93.333 -70 -156 -70c-62 0 -114.833 22.833 -158.5 68.5s-65.5 100.834 -65.5 165.501s21.833 119.667 65.5 165s96.5 68 158.5 68c61.333 0 113.333 -23.333 156 -70v58h71zM266 389.999
c-47.333 0 -85.667 -15.501 -115 -46.501s-44 -71.167 -44 -120.5c0 -50 14.5 -90.833 43.5 -122.5s66.5 -47.5 112.5 -47.5c45.333 0 82.333 15.833 111 47.5s43 72.167 43 121.5c0 48.667 -14.333 88.834 -43 120.501s-64.667 47.5 -108 47.5zM260.999 640.998
c14 0 25.833 -4.83398 35.5 -14.501s14.5 -21.5 14.5 -35.5c0 -13.333 -5 -25 -15 -35s-21.667 -15 -35 -15c-14 0 -25.833 4.83301 -35.5 14.5s-14.5 21.834 -14.5 36.501c0 13.333 5 24.833 15 34.5s21.667 14.5 35 14.5z" />
    <glyph glyph-name="uni0237" unicode="&#x237;" horiz-adv-x="209" 
d="M73 -100v543h71v-543c0 -93.333 -35.667 -140 -107 -140c-11.333 0 -26 2.33301 -44 7v64c13.333 -3.33301 23.333 -5 30 -5c33.333 0 50 24.667 50 74z" />
    <glyph glyph-name="uni0259" unicode="&#x259;" horiz-adv-x="497" 
d="M36 260l351.003 -0.000976562c-6.66699 42 -22.334 74.5 -47.001 97.5s-56.334 34.5 -95.001 34.5c-52 0 -94.667 -21.333 -128 -64l-65 26c49.333 67.333 113.666 101 192.999 101c63.333 0 115.5 -21.667 156.5 -65s61.5 -98.666 61.5 -165.999
s-20.667 -123.5 -62 -168.5s-93 -67.5 -155 -67.5c-62.667 0 -113.5 22 -152.5 66s-58.5 101 -58.5 171c0 3.33301 0.333008 15 1 35zM389.003 204.999h-282c2 -50.667 14.833 -89 38.5 -115s57.167 -39 100.5 -39c87.333 0 135 51.333 143 154z" />
    <glyph glyph-name="uni02BB" unicode="&#x2bb;" horiz-adv-x="228" 
d="M194 681l-83 -231l-65 24l100 226z" />
    <glyph glyph-name="afii57929" unicode="&#x2bc;" horiz-adv-x="262" 
d="M57 469l83 231l65 -24l-100 -226z" />
    <glyph glyph-name="circumflex" unicode="&#x2c6;" horiz-adv-x="476" 
d="M330 515l-92 87l-92 -87l-51 26l115 126h57l115 -126z" />
    <glyph glyph-name="caron" unicode="&#x2c7;" horiz-adv-x="476" 
d="M146 673l92 -87l92 87l52 -26l-115 -126h-57l-115 126z" />
    <glyph glyph-name="uni02C9" unicode="&#x2c9;" horiz-adv-x="476" 
d="M101 558v64h273v-64h-273z" />
    <glyph glyph-name="breve" unicode="&#x2d8;" horiz-adv-x="476" 
d="M106 647l61.001 5c0.666992 -23.333 7.16699 -41.666 19.5 -54.999s28.833 -20 49.5 -20c40.667 0 64.667 25 72 75l61 -5c-4.66699 -40.667 -18.667 -72.834 -42 -96.501s-53.333 -35.5 -90 -35.5c-42.667 0 -77.334 16.333 -104.001 49
c-17.333 21.333 -26.333 49 -27 83z" />
    <glyph glyph-name="dotaccent" unicode="&#x2d9;" horiz-adv-x="476" 
d="M238 641c14 0 25.833 -4.83398 35.5 -14.501s14.5 -21.5 14.5 -35.5c0 -13.333 -5 -25 -15 -35s-21.667 -15 -35 -15c-14 0 -25.833 4.83301 -35.5 14.5s-14.5 21.834 -14.5 36.501c0 13.333 5 24.833 15 34.5s21.667 14.5 35 14.5z" />
    <glyph glyph-name="ring" unicode="&#x2da;" horiz-adv-x="476" 
d="M237 679c25.333 0 46.666 -8.49902 63.999 -25.499s26 -37.833 26 -62.5s-8.66699 -45.5 -26 -62.5s-38.333 -25.5 -63 -25.5c-25.333 0 -46.666 8.66699 -63.999 26s-26 38.333 -26 63c0 23.333 8.83301 43.666 26.5 60.999s38.5 26 62.5 26zM238 643.001
c-14.667 0 -27 -5 -37 -15s-15 -22 -15 -36c0 -14.667 5 -27.167 15 -37.5s22.333 -15.5 37 -15.5c14 0 26 5 36 15s15 22.333 15 37s-5 27 -15 37s-22 15 -36 15z" />
    <glyph glyph-name="ogonek" unicode="&#x2db;" horiz-adv-x="476" 
d="M356 0h71.001c-24 -28 -36 -50 -36 -66c0 -17.333 11 -26 33 -26c11.333 0 23.666 2.33301 36.999 7l20 -51c-23.333 -8.66699 -44.333 -13 -63 -13c-26.667 0 -48.667 7.16699 -66 21.5s-26 32.5 -26 54.5c0 24.667 10 49 30 73z" />
    <glyph glyph-name="tilde" unicode="&#x2dc;" horiz-adv-x="476" 
d="M317 641l57 -14c-2 -27.333 -9.66699 -48.333 -23 -63s-31.666 -22 -54.999 -22c-17.333 0 -40 6.33301 -68 19c-21.333 10 -35.666 15 -42.999 15c-8 0 -13.833 -2.5 -17.5 -7.5s-6.83398 -14.167 -9.50098 -27.5l-56 13c2.66699 26.667 11.167 47.5 25.5 62.5
s32.166 22.5 53.499 22.5c16 0 39.333 -7 70 -21c18 -8.66699 32 -13 42 -13c8.66699 0 14.5 2.5 17.5 7.5s5.16699 14.5 6.5 28.5z" />
    <glyph glyph-name="hungarumlaut" unicode="&#x2dd;" horiz-adv-x="476" 
d="M226 679l67 -38l-125 -126l-42 26zM366 679l67 -38l-125 -126l-42 26z" />
    <glyph glyph-name="uni0309" unicode="&#x309;" horiz-adv-x="476" 
d="M297 721l-64 -0.000976562c0.666992 14 5.33398 27.333 14.001 40l9 13c9.33301 12.667 14 22.334 14 29.001c0 16 -11 24 -33 24c-8.66699 0 -21 -2.33301 -37 -7l-20 51c23.333 8.66699 45 13 65 13c27.333 0 49.166 -6.16699 65.499 -18.5s24.5 -28.5 24.5 -48.5
c0 -17.333 -5.33301 -33.666 -16 -48.999l-15 -24c-4.66699 -6.66699 -7 -14.334 -7 -23.001z" />
    <glyph glyph-name="uni0312" unicode="&#x312;" horiz-adv-x="476" 
d="M400 663l-47 -158l-69 21l66 153z" />
    <glyph glyph-name="uni0313" unicode="&#x313;" horiz-adv-x="476" 
d="M284 521l47 158l69 -21l-66 -153z" />
    <glyph glyph-name="uni031B" unicode="&#x31b;" horiz-adv-x="476" 
d="M284 521l47 158l69 -21l-66 -153z" />
    <glyph glyph-name="uni0323" unicode="&#x323;" horiz-adv-x="476" 
d="M238 -60c14 0 26 -5 36 -15s15 -22 15 -36s-5 -26 -15 -36s-22 -15 -36 -15s-26 5 -36 15s-15 22.333 -15 37c0 13.333 5 25 15 35s22 15 36 15z" />
    <glyph glyph-name="uni0374" unicode="&#x374;" horiz-adv-x="187" 
d="M78 440h-53l66 270h74z" />
    <glyph glyph-name="uni0375" unicode="&#x375;" horiz-adv-x="187" 
d="M74 -119h-53l66 270h74z" />
    <glyph glyph-name="uni037A" unicode="&#x37a;" horiz-adv-x="467" 
d="M202 -64v63.999h61v-47c0 -25.333 2.5 -42 7.5 -50s15.167 -12 30.5 -12s29 1.66699 41 5l5 -48c-21.333 -5.33301 -43 -8 -65 -8c-34 0 -55.833 7.33301 -65.5 22s-14.5 39.334 -14.5 74.001z" />
    <glyph glyph-name="uni037E" unicode="&#x37e;" horiz-adv-x="227" 
d="M130 426c13.333 0 24.833 -4.83398 34.5 -14.501s14.5 -21.167 14.5 -34.5s-4.83301 -24.833 -14.5 -34.5s-21.167 -14.5 -34.5 -14.5c-14 0 -25.833 4.83301 -35.5 14.5s-14.5 21.5 -14.5 35.5c0 12.667 5 23.834 15 33.501s21.667 14.5 35 14.5zM24 -133.001l83 231
l65 -24l-100 -226z" />
    <glyph glyph-name="tonos" unicode="&#x384;" horiz-adv-x="495" 
d="M274 513h-51l-10 185h71z" />
    <glyph glyph-name="dieresistonos" unicode="&#x385;" horiz-adv-x="495" 
d="M130 639c13.333 0 24.833 -4.66699 34.5 -14s14.5 -20.666 14.5 -33.999s-4.83301 -24.833 -14.5 -34.5s-21.167 -14.5 -34.5 -14.5s-24.833 4.83301 -34.5 14.5s-14.5 21.167 -14.5 34.5s4.83301 24.666 14.5 33.999s21.167 14 34.5 14zM273 508h-51l-11 194h72z
M365 639c13.333 0 24.833 -4.66699 34.5 -14s14.5 -20.666 14.5 -33.999s-4.83301 -24.833 -14.5 -34.5s-21.167 -14.5 -34.5 -14.5s-24.833 4.83301 -34.5 14.5s-14.5 21.167 -14.5 34.5s4.83301 24.666 14.5 33.999s21.167 14 34.5 14z" />
    <glyph glyph-name="Alphatonos" unicode="&#x386;" horiz-adv-x="622" 
d="M534 0l-70 180h-310l-70 -180h-79l269 669h70l269 -669h-79zM179 249h260l-130 328zM118 496h-53l-11 211h74z" />
    <glyph glyph-name="uni0387" unicode="&#x387;" horiz-adv-x="224" 
d="M112 358c13.333 0 24.666 -4.66602 33.999 -13.999s14 -20.333 14 -33c0 -13.333 -4.66699 -24.5 -14 -33.5s-20.666 -13.5 -33.999 -13.5s-24.666 4.66699 -33.999 14s-14 20.666 -14 33.999c0 12.667 4.66699 23.5 14 32.5s20.666 13.5 33.999 13.5z" />
    <glyph glyph-name="Epsilontonos" unicode="&#x388;" horiz-adv-x="590" 
d="M546 0h-354v667h344v-68h-270v-227h240v-69h-240v-233h280v-70zM80 496h-52l-11 211h74z" />
    <glyph glyph-name="Etatonos" unicode="&#x389;" horiz-adv-x="764" 
d="M267 0h-75v667h75v-294h342v294h75v-667h-75v304h-342v-304zM80 496h-52l-11 211h74z" />
    <glyph glyph-name="Iotatonos" unicode="&#x38a;" horiz-adv-x="347" 
d="M267 0h-75v667h75v-667zM80 496h-52l-11 211h74z" />
    <glyph glyph-name="Omicrontonos" unicode="&#x38c;" horiz-adv-x="852" 
d="M470 679c95.333 0 175.833 -33.332 241.5 -99.999s98.5 -148.334 98.5 -245.001s-33 -178.5 -99 -245.5s-146.333 -100.5 -241 -100.5c-96.667 0 -177.667 33.5 -243 100.5s-98 150.167 -98 249.5c0 94 33.167 174.333 99.5 241s146.833 100 241.5 100zM470 609.001
c-74.667 0 -137.667 -26.167 -189 -78.5s-77 -116.833 -77 -193.5c0 -80.667 25.167 -147.334 75.5 -200.001s113.833 -79 190.5 -79c75.333 0 138.333 26.333 189 79s76 118.334 76 197.001c0 78 -25.333 143.333 -76 196s-113.667 79 -189 79zM80 496.001h-52l-11 211h74z
" />
    <glyph glyph-name="Upsilontonos" unicode="&#x38e;" horiz-adv-x="636" 
d="M419 0h-75v279l-217 388h84l171 -312l171 312h83l-217 -388v-279zM80 496h-52l-11 211h74z" />
    <glyph glyph-name="Omegatonos" unicode="&#x38f;" horiz-adv-x="866" 
d="M403 0l-264.999 0.000976562v69h191v27c-128 44.667 -192 133 -192 265c0 93.333 31.667 169.333 95 228s145.666 88 246.999 88c100.667 0 182.667 -29.333 246 -88s95 -134.667 95 -228c0 -132 -64 -220.333 -192 -265v-27h191v-69h-265v122c44 10 84 31.667 120 65
c46 43.333 69 98.333 69 165c0 77.333 -24 138.666 -72 183.999s-112.333 68 -193 68s-144.834 -22.833 -192.501 -68.5s-71.5 -107.167 -71.5 -184.5c0 -71.333 26.333 -129 79 -173c32.667 -28 69.334 -46.667 110.001 -56v-122zM80.001 496.001h-52l-11 211h74z" />
    <glyph glyph-name="iotadieresistonos" unicode="&#x390;" horiz-adv-x="226" 
d="M63 149l0.00195312 294.001h71v-296c0 -31.333 2 -52.333 6 -63c5.33301 -16.667 17.666 -25 36.999 -25c8.66699 0 21 2.66699 37 8l3 -65c-20.667 -6 -39.667 -9 -57 -9c-22 0 -40 4.5 -54 13.5s-23.833 22.167 -29.5 39.5s-9.33398 33.166 -11.001 47.499
s-2.5 32.833 -2.5 55.5zM-18.998 639.001c13.333 0 24.833 -4.66699 34.5 -14s14.5 -20.666 14.5 -33.999s-4.83301 -24.833 -14.5 -34.5s-21.167 -14.5 -34.5 -14.5s-24.833 4.83301 -34.5 14.5s-14.5 21.167 -14.5 34.5s4.83301 24.666 14.5 33.999s21.167 14 34.5 14z
M124.002 508.001h-51l-11 194h72zM216.002 639.001c13.333 0 24.833 -4.66699 34.5 -14s14.5 -20.666 14.5 -33.999s-4.83301 -24.833 -14.5 -34.5s-21.167 -14.5 -34.5 -14.5s-24.833 4.83301 -34.5 14.5s-14.5 21.167 -14.5 34.5s4.83301 24.666 14.5 33.999
s21.167 14 34.5 14z" />
    <glyph glyph-name="Alpha" unicode="&#x391;" horiz-adv-x="622" 
d="M536 0l-70 180h-310l-70 -180h-79l269 669h70l269 -669h-79zM181 249h260l-130 328z" />
    <glyph glyph-name="Beta" unicode="&#x392;" horiz-adv-x="524" 
d="M252 0h-172v667h138c72.667 0 126.667 -13 162 -39c20.667 -15.333 37 -35.333 49 -60s18 -50.334 18 -77.001c0 -62 -29.667 -109 -89 -141c82 -35.333 123 -90.666 123 -165.999c0 -56.667 -22.667 -102.667 -68 -138c-21.333 -17.333 -44 -29.333 -68 -36
s-55 -10 -93 -10zM152 311l-0.000976562 -244h94c52.667 0 92.334 10 119.001 30c29.333 23.333 44 54 44 92c0 20.667 -5 40.167 -15 58.5s-23.667 32.5 -41 42.5c-26 14 -64.667 21 -116 21h-85zM151.999 602v-231h78c29.333 0 51.5 2 66.5 6s28.833 11.333 41.5 22
c26.667 21.333 40 51 40 89c0 39.333 -13.667 69.333 -41 90c-23.333 16 -59 24 -107 24h-78z" />
    <glyph glyph-name="Gamma" unicode="&#x393;" horiz-adv-x="455" 
d="M155 0h-75v667h354v-69h-279v-598z" />
    <glyph glyph-name="uni0394" unicode="&#x394;" horiz-adv-x="604" 
d="M590 52v-52h-575v52l252 617h71zM98 68h409l-205 509z" />
    <glyph glyph-name="Epsilon" unicode="&#x395;" horiz-adv-x="478" 
d="M434 0h-354v667h344v-68h-270v-227h240v-69h-240v-233h280v-70z" />
    <glyph glyph-name="Zeta" unicode="&#x396;" horiz-adv-x="510" 
d="M485 0h-462v53l361 545h-331v69h425v-52l-358 -545h365v-70z" />
    <glyph glyph-name="Eta" unicode="&#x397;" horiz-adv-x="652" 
d="M155 0h-75v667h75v-294h341v294h75v-667h-75v304h-341v-304z" />
    <glyph glyph-name="Theta" unicode="&#x398;" horiz-adv-x="766" 
d="M383 679c95.333 0 176.001 -33.332 242.001 -99.999s99 -148.334 99 -245.001s-33 -178.5 -99 -245.5s-146.333 -100.5 -241 -100.5c-96.667 0 -177.834 33.5 -243.501 100.5s-98.5 150.167 -98.5 249.5c0 94 33.333 174.333 100 241s147 100 241 100zM383.001 609.001
c-74.667 0 -137.666 -26.167 -188.999 -78.5s-77 -116.833 -77 -193.5c0 -80.667 25.167 -147.334 75.5 -200.001s114.166 -79 191.499 -79c75.333 0 138.333 26.333 189 79s76 118.334 76 197.001c0 78 -25.5 143.333 -76.5 196s-114.167 79 -189.5 79zM547.002 305.001
h-328v67h328v-67z" />
    <glyph glyph-name="Iota" unicode="&#x399;" horiz-adv-x="235" 
d="M155 0h-75v667h75v-667z" />
    <glyph glyph-name="Kappa" unicode="&#x39a;" horiz-adv-x="573" 
d="M155 0h-75v667h75v-338l306 338h94l-250 -274l257 -393h-88l-220 338l-99 -110v-228z" />
    <glyph glyph-name="Lambda" unicode="&#x39b;" horiz-adv-x="555" 
d="M87 0h-79l237 669h68l235 -669h-79l-191 563z" />
    <glyph glyph-name="Mu" unicode="&#x39c;" horiz-adv-x="812" 
d="M156 0h-75v667h71l255 -425l254 425h71v-667h-75v522l-224 -370h-53l-224 370v-522z" />
    <glyph glyph-name="Nu" unicode="&#x39d;" horiz-adv-x="712" 
d="M156 0h-75v667h65l411 -538v538h75v-667h-64l-412 540v-540z" />
    <glyph glyph-name="Xi" unicode="&#x39e;" horiz-adv-x="565" 
d="M516 0h-467v69h467v-69zM488 305h-411v67h411v-67zM516 598h-467v69h467v-69z" />
    <glyph glyph-name="Omicron" unicode="&#x39f;" horiz-adv-x="766" 
d="M383 679c95.333 0 176.001 -33.332 242.001 -99.999s99 -148.334 99 -245.001s-33 -178.5 -99 -245.5s-146.333 -100.5 -241 -100.5c-96.667 0 -177.834 33.5 -243.501 100.5s-98.5 150.167 -98.5 249.5c0 94 33.333 174.333 100 241s147 100 241 100zM383.001 609.001
c-74.667 0 -137.666 -26.167 -188.999 -78.5s-77 -116.833 -77 -193.5c0 -80.667 25.167 -147.334 75.5 -200.001s114.166 -79 191.499 -79c75.333 0 138.333 26.333 189 79s76 118.334 76 197.001c0 78 -25.5 143.333 -76.5 196s-114.167 79 -189.5 79z" />
    <glyph glyph-name="Pi" unicode="&#x3a0;" horiz-adv-x="659" 
d="M155 0h-75v667h499v-667h-74v598h-350v-598z" />
    <glyph glyph-name="Rho" unicode="&#x3a1;" horiz-adv-x="468" 
d="M217 266h-62v-266h-75v667h137c77.333 0 133.666 -16.333 168.999 -49c41.333 -38 62 -88 62 -150s-20.667 -112.667 -62 -152c-35.333 -33.333 -91.666 -50 -168.999 -50zM154 599v-265h72c99.333 0 149 44.667 149 134c0 87.333 -49.667 131 -149 131h-72z" />
    <glyph glyph-name="Sigma" unicode="&#x3a3;" horiz-adv-x="523" 
d="M488 0h-431v39l196 314l-181 273v41h405v-69h-312l161 -232v-20l-174 -277h336v-69z" />
    <glyph glyph-name="Tau" unicode="&#x3a4;" horiz-adv-x="434" 
d="M255 0h-75v598h-173v69h421v-69h-173v-598z" />
    <glyph glyph-name="Upsilon" unicode="&#x3a5;" horiz-adv-x="508" 
d="M292 0h-75v279l-217 388h84l170 -312l171 312h83l-216 -388v-279z" />
    <glyph glyph-name="Phi" unicode="&#x3a6;" horiz-adv-x="852" 
d="M460 -54l-69 -0.000976562v99c-84 4 -151.667 20 -203 48c-46.667 24.667 -82.667 57.834 -108 99.501s-38 88.167 -38 139.5c0 56 14.667 106 44 150s71 77.667 125 101c47.333 20.667 107.333 33 180 37v100h69v-100c85.333 -4.66699 153.666 -20.667 204.999 -48
c96.667 -53.333 145 -133.333 145 -240c0 -56 -14.667 -105.833 -44 -149.5s-71 -77.167 -125 -100.5c-47.333 -22 -107.666 -34.333 -180.999 -37v-99zM391 109.999l-0.000976562 444.001c-64.667 -4 -115 -14.667 -151 -32c-82 -40.667 -123 -104 -123 -190
c0 -44.667 12.333 -84.334 37 -119.001s59.334 -61 104.001 -79c32 -12 76.333 -20 133 -24zM459.999 555l0.000976562 -445.001c67.333 4.66699 118 15.667 152 33c82 40.667 123 103.667 123 189c0 44.667 -12.333 84.334 -37 119.001s-59.334 61 -104.001 79
c-31.333 12.667 -76 21 -134 25z" />
    <glyph glyph-name="Chi" unicode="&#x3a7;" horiz-adv-x="534" 
d="M7 0l218 348l-198 319h84l157 -253l157 253h83l-198 -317l218 -350h-86l-175 284l-176 -284h-84z" />
    <glyph glyph-name="Psi" unicode="&#x3a8;" horiz-adv-x="761" 
d="M417 0h-73.001v166c-100.667 4 -173.5 25.5 -218.5 64.5s-67.5 99.833 -67.5 182.5v254h75v-235c-2 -68.667 12.667 -117.167 44 -145.5s87 -43.833 167 -46.5v427h73v-427c80 2.66699 135.5 18.167 166.5 46.5s45.5 76.833 43.5 145.5v235h75v-254
c0.666992 -82 -21.666 -142.667 -66.999 -182s-118 -61 -218 -65v-166z" />
    <glyph glyph-name="uni03A9" unicode="&#x3a9;" horiz-adv-x="780" 
d="M314 0l-265.001 -0.000976562v69h191v27c-128 46 -192 134.333 -192 265c0 96.667 32.5 173.5 97.5 230.5s146.5 85.5 244.5 85.5c97.333 0 178.5 -28.5 243.5 -85.5s97.5 -133.833 97.5 -230.5c0 -131.333 -63.667 -219.666 -191 -264.999v-27h190v-69h-264v122
c44 10 84 31.667 120 65c46 42 69 97 69 165c0 77.333 -24 138.666 -72 183.999s-112.333 68 -193 68s-145 -22.667 -193 -68s-72 -106.666 -72 -183.999c0 -72 26.333 -130 79 -174c32.667 -28 69.334 -46.667 110.001 -56v-122z" />
    <glyph glyph-name="Iotadieresis" unicode="&#x3aa;" horiz-adv-x="235" 
d="M156 0h-75v667h75v-667zM25 839c12 0 22.333 -4.33398 31 -13.001s13 -19 13 -31s-4.33301 -22.333 -13 -31s-19 -13 -31 -13c-12.667 0 -23.334 4.33301 -32.001 13s-13 19.334 -13 32.001c0 11.333 4.33301 21.333 13 30s19.334 13 32.001 13zM211 838.999
c12 0 22.334 -4.33398 31.001 -13.001s13 -19 13 -31s-4.33301 -22.333 -13 -31s-19 -13 -31 -13c-12.667 0 -23.334 4.33301 -32.001 13s-13 19.334 -13 32.001c0 11.333 4.5 21.333 13.5 30s19.5 13 31.5 13z" />
    <glyph glyph-name="Upsilondieresis" unicode="&#x3ab;" horiz-adv-x="508" 
d="M292 0h-75v279l-217 388h84l170 -312l171 312h83l-216 -388v-279zM160 839c12.667 0 23.333 -4.33398 32 -13.001s13 -19 13 -31s-4.5 -22.333 -13.5 -31s-19.5 -13 -31.5 -13s-22.333 4.33301 -31 13s-13 19.334 -13 32.001c0 11.333 4.33301 21.333 13 30s19 13 31 13z
M345.999 838.999c12.667 0 23.334 -4.33398 32.001 -13.001s13 -19 13 -31s-4.33301 -22.333 -13 -31s-19.334 -13 -32.001 -13c-12 0 -22.333 4.33301 -31 13s-13 19.334 -13 32.001c0 11.333 4.33301 21.333 13 30s19 13 31 13z" />
    <glyph glyph-name="alphatonos" unicode="&#x3ac;" horiz-adv-x="550" 
d="M487 0l-71.001 0.000976562v73c-41.333 -56.667 -94.666 -85 -159.999 -85c-62 0 -114.333 22.667 -157 68s-64 100.666 -64 165.999s21.333 120.5 64 165.5s95 67.5 157 67.5c34 0 63.5 -6.5 88.5 -19.5s48.833 -34.833 71.5 -65.5v73h71v-443zM265.999 390.001
c-46.667 0 -84.666 -15.6689 -113.999 -47.002s-44 -71.666 -44 -120.999s14.667 -89.833 44 -121.5s66.666 -47.5 111.999 -47.5c44.667 0 81.5 15.667 110.5 47s43.5 71 43.5 119c0 50.667 -14.167 91.834 -42.5 123.501s-64.833 47.5 -109.5 47.5zM296 512.999h-50
l-10 185h71z" />
    <glyph glyph-name="epsilontonos" unicode="&#x3ad;" horiz-adv-x="456" 
d="M246 252l101.999 -0.000976562v-52h-101c-42.667 0 -73.834 -6 -93.501 -18s-29.5 -30.667 -29.5 -56c0 -51.333 42.333 -77 127 -77c31.333 0 57.833 3.83301 79.5 11.5s43.834 21.167 66.501 40.5l40 -50c-31.333 -23.333 -61.666 -39.666 -90.999 -48.999
s-64.666 -14 -105.999 -14c-62 0 -109.333 11.333 -142 34s-49 55.667 -49 99c0 54.667 25.333 91 76 109c-43.333 18 -65 49.333 -65 94c0 42 16.167 74.333 48.5 97s78.166 34 137.499 34c36.667 0 68.167 -4.33301 94.5 -13s53.833 -24 82.5 -46l-40 -50
c-35.333 31.333 -78.666 47 -129.999 47c-38 0 -67.167 -6.66699 -87.5 -20s-30.5 -32.333 -30.5 -57c0 -22.667 8.66699 -39 26 -49s45.666 -15 84.999 -15zM275.999 512.999h-51l-10 185h71z" />
    <glyph glyph-name="etatonos" unicode="&#x3ae;" horiz-adv-x="511" 
d="M134 0l-71.001 -0.000976562v443h71v-60c20.667 26.667 41.334 45.334 62.001 56.001s46.667 16 78 16c54.667 0 98 -18.667 130 -56c28.667 -33.333 43 -86 43 -158v-474h-71v466c0 60 -10 101 -30 123c-22.667 22.667 -51 34 -85 34c-43.333 0 -76.333 -14 -99 -42
c-18.667 -23.333 -28 -65 -28 -125v-223zM284.999 512.999h-51l-10 185h71z" />
    <glyph glyph-name="iotatonos" unicode="&#x3af;" horiz-adv-x="226" 
d="M61 149l0.00390625 293.999h71v-296c0 -30 2 -51 6 -63c5.33301 -16.667 17.666 -25 36.999 -25c8.66699 0 21 2.66699 37 8l3 -65c-20.667 -6 -39.667 -9 -57 -9s-32.333 3.33301 -45 10s-22.334 14.834 -29.001 24.501s-11.834 22.167 -15.501 37.5
s-5.83398 28.833 -6.50098 40.5s-1 26.167 -1 43.5zM122.004 512.999h-51l-10 185h71z" />
    <glyph glyph-name="upsilondieresistonos" unicode="&#x3b0;" horiz-adv-x="498" 
d="M49 177v266h71v-258c0 -44.667 8.33301 -78.167 25 -100.5s46.667 -33.5 90 -33.5s73.333 11.333 90 34s25 56 25 100v258h71v-266c0 -64.667 -14.833 -112.334 -44.5 -143.001s-76.834 -46 -141.501 -46c-65.333 0 -112.666 15.333 -141.999 46s-44 78.334 -44 143.001z
M118 639c13.333 0 24.833 -4.66699 34.5 -14s14.5 -20.666 14.5 -33.999s-4.83301 -24.833 -14.5 -34.5s-21.167 -14.5 -34.5 -14.5s-24.833 4.83301 -34.5 14.5s-14.5 21.167 -14.5 34.5s4.83301 24.666 14.5 33.999s21.167 14 34.5 14zM261 508h-52l-10 194h72zM352 639
c13.333 0 24.833 -4.66699 34.5 -14s14.5 -20.666 14.5 -33.999s-4.83301 -24.833 -14.5 -34.5s-21.167 -14.5 -34.5 -14.5s-24.833 4.83301 -34.5 14.5s-14.5 21.167 -14.5 34.5s4.83301 24.666 14.5 33.999s21.167 14 34.5 14z" />
    <glyph glyph-name="alpha" unicode="&#x3b1;" horiz-adv-x="550" 
d="M487 0h-71v63c-40.667 -50 -93.334 -75 -158.001 -75c-62.667 0 -115.5 22.5 -158.5 67.5s-64.5 100.5 -64.5 166.5c0 65.333 21.333 120.5 64 165.5s95.334 67.5 158.001 67.5s115.667 -25 159 -75v63h71v-443zM266 390c-46.667 0 -84.666 -15.6689 -113.999 -47.002
s-44 -71.666 -44 -120.999s14.667 -89.833 44 -121.5s66.666 -47.5 111.999 -47.5c44.667 0 81.5 15.667 110.5 47s43.5 71 43.5 119c0 50.667 -14.167 91.834 -42.5 123.501s-64.833 47.5 -109.5 47.5z" />
    <glyph glyph-name="beta" unicode="&#x3b2;" horiz-adv-x="515" 
d="M134 38l0.00195312 -271.001h-71v707c0 37.333 2.5 65.666 7.5 84.999s14.833 38 29.5 56c33.333 42.667 80.666 64 141.999 64c52.667 0 95.834 -16.667 129.501 -50s50.5 -75.666 50.5 -126.999c0 -60.667 -21.667 -106 -65 -136c77.333 -33.333 116 -91.333 116 -174
c0 -60 -18.333 -108.167 -55 -144.5s-85.334 -54.5 -146.001 -54.5c-28.667 0 -51.834 2.83301 -69.501 8.5s-40.5 17.834 -68.5 36.501zM134.002 480.999l0.000976562 -370.997l6 -6c19.333 -16.667 34.666 -27.334 45.999 -32.001c22 -10.667 47.333 -16 76 -16
c41.333 0 74.833 12.667 100.5 38s38.5 58.666 38.5 99.999c0 40.667 -12.333 72.167 -37 94.5s-59.667 33.833 -105 34.5v64c62 4.66699 93 41 93 109c0 36 -10 64.833 -30 86.5s-46.333 32.5 -79 32.5c-40 0 -70.333 -16 -91 -48c-12 -18.667 -18 -47.334 -18 -86.001z
" />
    <glyph glyph-name="gamma" unicode="&#x3b3;" horiz-adv-x="453" 
d="M188 -233v233l-187 443h76l150 -362l149 362h76l-187 -443v-233h-77z" />
    <glyph glyph-name="delta" unicode="&#x3b4;" horiz-adv-x="528" 
d="M393 667l-0.000976562 -64.001h-84c-40.667 0 -68.5 -3.16699 -83.5 -9.5s-22.5 -17.833 -22.5 -34.5c0 -16 8 -29.667 24 -41c11.333 -8.66699 41 -27 89 -55c44 -26 79.333 -51 106 -75c47.333 -42 71 -98 71 -168c0 -66.667 -21.667 -122 -65 -166s-98 -66 -164 -66
s-120.667 22.167 -164 66.5s-65 100.166 -65 167.499c0 44 10 83.667 30 119s47.333 62 82 80c25.333 13.333 57.333 21 96 23c-0.666992 0.666992 -2.16699 1.83398 -4.5 3.50098s-4.16602 2.83398 -5.49902 3.50098l-40 25c-42.667 26 -64 57.667 -64 95
c0 41.333 20.667 69.333 62 84c24 8 66.333 12 127 12h75zM265.999 387.999c-46.667 0 -84.5 -15.499 -113.5 -46.499s-43.5 -71.167 -43.5 -120.5c0 -48.667 14.5 -88.667 43.5 -120s66.167 -47 111.5 -47s82.5 15.667 111.5 47s43.5 71.666 43.5 120.999
c0 47.333 -14.5 86.833 -43.5 118.5s-65.5 47.5 -109.5 47.5z" />
    <glyph glyph-name="epsilon" unicode="&#x3b5;" horiz-adv-x="456" 
d="M246 254h102v-56h-101c-42.667 0 -73.834 -5.83301 -93.501 -17.5s-29.5 -29.834 -29.5 -54.501c0 -50.667 42.333 -76 127 -76c32 0 58.833 3.83301 80.5 11.5s43.5 20.834 65.5 39.501l40 -50c-31.333 -23.333 -61.666 -39.666 -90.999 -48.999
s-64.666 -14 -105.999 -14c-62 0 -109.333 11.5 -142 34.5s-49 56.167 -49 99.5c0 53.333 25.333 89.666 76 108.999c-43.333 18 -65 49.333 -65 94c0 41.333 16.167 73.333 48.5 96s78.166 34 137.499 34c36.667 0 68.167 -4.33301 94.5 -13s53.833 -24 82.5 -46l-40 -50
c-35.333 31.333 -78.666 47 -129.999 47c-78.667 0 -118 -25.667 -118 -77c0 -22 8.66699 -37.833 26 -47.5s45.666 -14.5 84.999 -14.5z" />
    <glyph glyph-name="zeta" unicode="&#x3b6;" horiz-adv-x="359" 
d="M263 602l-211.999 0.00292969v65h305v-39c-98 -151.333 -161.833 -255.5 -191.5 -312.5s-44.5 -104.833 -44.5 -143.5c0 -40 12 -69.667 36 -89c10 -8 19.667 -13.5 29 -16.5s31 -7.16699 65 -12.5c38.667 -6.66699 66.5 -18.334 83.5 -35.001s25.5 -40.667 25.5 -72
c0 -30.667 -8.16699 -57.334 -24.5 -80.001s-45.5 -48 -87.5 -76l-38 47c32 21.333 53.5 39 64.5 53s16.5 30.333 16.5 49c0 22.667 -8 37.667 -24 45c-9.33301 5.33301 -30 9.66602 -62 12.999c-32.667 4 -57.834 9.33301 -75.501 16s-32.834 16.667 -45.501 30
c-26 27.333 -39 66.666 -39 117.999c0 34.667 6.83301 69.834 20.5 105.501s38.834 83.5 75.501 143.5c32.667 54 73.667 117.667 123 191z" />
    <glyph glyph-name="eta" unicode="&#x3b7;" horiz-adv-x="511" 
d="M134 0h-71v443h71v-50c19.333 22.667 39.5 38.667 60.5 48s47.167 14 78.5 14c54 0 97.667 -18.667 131 -56c28.667 -33.333 43 -86 43 -158v-474h-71v466c0 60 -10 101 -30 123c-22.667 22.667 -51 34 -85 34c-43.333 0 -76.333 -14 -99 -42
c-18.667 -23.333 -28 -65 -28 -125v-223z" />
    <glyph glyph-name="theta" unicode="&#x3b8;" horiz-adv-x="528" 
d="M264 679c34.667 0 65.8301 -7.33203 93.4971 -21.999s49.834 -33.5 66.501 -56.5s30.667 -50.167 42 -81.5s19.166 -62.166 23.499 -92.499s6.5 -61.166 6.5 -92.499c0 -40.667 -3.66699 -79.834 -11 -117.501s-19.333 -74.334 -36 -110.001
s-40.834 -64.334 -72.501 -86.001s-69.167 -32.5 -112.5 -32.5s-81 11 -113 33s-56.167 51.167 -72.5 87.5s-28.166 73.333 -35.499 111s-11 77.167 -11 118.5c0 40 3.83301 78.667 11.5 116s19.834 73.5 36.501 108.5s40.834 63.167 72.501 84.5s68.834 32 111.501 32z
M422.996 312.001h-317c6 -172 58.667 -258 158 -258c100 0 153 86 159 258zM105.996 374.001l316.999 0.00195312c-9.33301 159.333 -62.333 239 -159 239c-29.333 0 -54.666 -7.5 -75.999 -22.5s-37.5 -35.333 -48.5 -61s-19 -50.834 -24 -75.501
s-8.16699 -51.334 -9.5 -80.001z" />
    <glyph glyph-name="iota" unicode="&#x3b9;" horiz-adv-x="226" 
d="M63 149l0.00390625 293.999h71v-296c0 -30 2 -51 6 -63c5.33301 -16.667 17.666 -25 36.999 -25c8.66699 0 21 2.66699 37 8l3 -65c-20.667 -6 -39.667 -9 -57 -9s-32.333 3.33301 -45 10s-22.334 14.834 -29.001 24.501s-11.834 22.167 -15.501 37.5
s-5.83398 28.833 -6.50098 40.5s-1 26.167 -1 43.5z" />
    <glyph glyph-name="kappa" unicode="&#x3ba;" horiz-adv-x="467" 
d="M134 0h-71v443h71v-220l216 220h89l-180 -177l206 -266h-85l-168 221l-78 -78v-143z" />
    <glyph glyph-name="lambda" unicode="&#x3bb;" horiz-adv-x="422" 
d="M-11 0l182 443l-95 224h76l284 -667h-77l-151 353l-139 -353h-80z" />
    <glyph glyph-name="uni03BC" unicode="&#x3bc;" horiz-adv-x="511" 
d="M63 -233l-0.00195312 676h71v-235c0 -22.667 1.5 -42.5 4.5 -59.5s8.5 -33.167 16.5 -48.5s19.833 -27 35.5 -35s35.167 -12 58.5 -12c43.333 0 76.333 14 99 42c18.667 23.333 28 65 28 125v223h71v-443h-71v50c-19.333 -23.333 -38.666 -39.5 -57.999 -48.5
s-44.666 -13.5 -75.999 -13.5c-46.667 0 -82.667 17 -108 51v-272h-71z" />
    <glyph glyph-name="nu" unicode="&#x3bd;" horiz-adv-x="453" 
d="M261 0h-69l-191 443h76l150 -352l149 352h76z" />
    <glyph glyph-name="xi" unicode="&#x3be;" horiz-adv-x="365" 
d="M210 602h-157v65h310v-53c-138.667 -22 -208 -68.333 -208 -139s55 -106 165 -106h36v-55h-54c-55.333 0 -96.333 -8.66699 -123 -26c-39.333 -25.333 -59 -63.666 -59 -114.999c0 -40 12.333 -69.667 37 -89c9.33301 -8 19.666 -13.667 30.999 -17s32 -7.33301 62 -12
c42.667 -6.66699 73 -18.167 91 -34.5s27 -40.833 27 -73.5c0 -30.667 -8.33301 -57.5 -25 -80.5s-45.667 -48.167 -87 -75.5l-38 47c32 20.667 53.5 38 64.5 52s16.5 30.667 16.5 50c0 22 -8.66699 37.333 -26 46c-10.667 4.66699 -32.667 9 -66 13
c-55.333 6 -96.166 21.167 -122.499 45.5s-39.5 63.5 -39.5 117.5c0 90 43 152.333 129 187c-31.333 13.333 -54.333 28.333 -69 45s-22 40.667 -22 72c0 37.333 11 65.666 33 84.999s53.333 36.333 94 51z" />
    <glyph glyph-name="omicron" unicode="&#x3bf;" horiz-adv-x="528" 
d="M265 455c64.667 0 119 -22.334 163 -67.001s66 -100 66 -166s-22 -121.5 -66 -166.5s-98.333 -67.5 -163 -67.5c-66 0 -120.833 22.5 -164.5 67.5s-65.5 101.167 -65.5 168.5c0 64.667 22.167 119.334 66.5 164.001s98.833 67 163.5 67zM265 389.999
c-45.333 0 -82.833 -15.665 -112.5 -46.998s-44.5 -71 -44.5 -119c0 -50.667 14.5 -91.834 43.5 -123.501s66.833 -47.5 113.5 -47.5c45.333 0 82.666 15.833 111.999 47.5s44 72.167 44 121.5s-14.667 89.666 -44 120.999s-66.666 47 -111.999 47z" />
    <glyph glyph-name="pi" unicode="&#x3c0;" horiz-adv-x="523" 
d="M165 0h-72v378h-68v65h472v-65h-67v-378h-72v378h-193v-378z" />
    <glyph glyph-name="rho" unicode="&#x3c1;" horiz-adv-x="535" 
d="M120 64l0.000976562 -297.001h-72l1 418c0 42.667 3 77 9 103s16.333 50 31 72c41.333 62.667 103.333 94 186 94c66.667 0 121 -21.667 163 -65s63 -99.666 63 -168.999c0 -68.667 -19.833 -124.5 -59.5 -167.5s-90.834 -64.5 -153.501 -64.5
c-36.667 0 -67.167 6 -91.5 18s-49.833 31.333 -76.5 58zM276.001 388.999c-44.667 0 -81.5 -15.499 -110.5 -46.499s-43.5 -70.5 -43.5 -118.5c0 -50.667 14.167 -91.667 42.5 -123s65.5 -47 111.5 -47c44.667 0 81.167 15.5 109.5 46.5s42.5 71.167 42.5 120.5
s-14.167 89.666 -42.5 120.999s-64.833 47 -109.5 47z" />
    <glyph glyph-name="uni03C2" unicode="&#x3c2;" horiz-adv-x="452" 
d="M427 388l-45 -49.002c-34 34 -73 51 -117 51c-47.333 0 -85.333 -16.333 -114 -49s-43 -75.334 -43 -128.001c0 -54.667 14.667 -94.667 44 -120c11.333 -10 24.333 -17.5 39 -22.5s39 -10.167 73 -15.5c44 -7.33301 75.167 -19.166 93.5 -35.499
s27.5 -40.833 27.5 -73.5c0 -30 -8.33301 -56.5 -25 -79.5s-45.667 -48.5 -87 -76.5l-38 48c32 21.333 53.5 38.833 64.5 52.5s16.5 29.834 16.5 48.501c0 22.667 -9 38.334 -27 47.001c-12 5.33301 -35.333 9.66602 -70 12.999c-65.333 7.33301 -112 26.333 -140 57
c-29.333 34 -44 84 -44 150c0 72.667 21.5 132.334 64.5 179.001s98.167 70 165.5 70c58.667 0 112.667 -22.333 162 -67z" />
    <glyph glyph-name="sigma" unicode="&#x3c3;" horiz-adv-x="532" 
d="M304 443l231.002 0.000976562v-64h-117c25.333 -27.333 43.166 -53.333 53.499 -78s15.5 -53.334 15.5 -86.001c0 -67.333 -21.333 -122.166 -64 -164.499s-97.667 -63.5 -165 -63.5c-65.333 0 -118.833 21.5 -160.5 64.5s-62.5 98.167 -62.5 165.5
c0 42 8.83301 80.167 26.5 114.5s42.5 61.166 74.5 80.499c21.333 13.333 42.166 21.833 62.499 25.5s55.5 5.5 105.5 5.5zM337.002 379.001h-39c-39.333 0 -67.833 -2.16699 -85.5 -6.5s-34.167 -13.5 -49.5 -27.5c-35.333 -30 -53 -73 -53 -129
c0 -50 13.5 -89.833 40.5 -119.5s63.167 -44.5 108.5 -44.5c47.333 0 84.833 14.833 112.5 44.5s41.5 70.5 41.5 122.5c0 32 -5.83301 60.333 -17.5 85s-31.167 49.667 -58.5 75z" />
    <glyph glyph-name="tau" unicode="&#x3c4;" horiz-adv-x="356" 
d="M133 149l0.00292969 230.999h-125v63h341v-63h-145v-234c0 -32 2 -52.667 6 -62c5.33301 -16.667 17.666 -25 36.999 -25c8.66699 0 21.334 2.66699 38.001 8l2 -65c-20 -6 -39 -9 -57 -9c-17.333 0 -32.333 3.33301 -45 10s-22.334 14.834 -29.001 24.501
s-11.834 22.167 -15.501 37.5s-5.83398 28.833 -6.50098 40.5s-1 26.167 -1 43.5z" />
    <glyph glyph-name="upsilon" unicode="&#x3c5;" horiz-adv-x="498" 
d="M63 177v266h71v-258c0 -44.667 8.33301 -78.167 25 -100.5s46.667 -33.5 90 -33.5s73.333 11.333 90 34s25 56 25 100v258h71v-266c0 -64.667 -14.833 -112.334 -44.5 -143.001s-76.834 -46 -141.501 -46c-65.333 0 -112.666 15.333 -141.999 46s-44 78.334 -44 143.001z
" />
    <glyph glyph-name="phi" unicode="&#x3c6;" horiz-adv-x="634" 
d="M350 -11l0.00195312 -222.001h-70v222c-76 6 -135.833 29.333 -179.5 70s-65.5 93.667 -65.5 159c0 94 45.333 161.667 136 203l30 -50c-34.667 -21.333 -58.834 -43.166 -72.501 -65.499s-20.5 -50.166 -20.5 -83.499c0 -48.667 15.167 -87.834 45.5 -117.501
s72.5 -47.167 126.5 -52.5v397c18 2 31 3 39 3c90 0 159.167 -20 207.5 -60s72.5 -97 72.5 -171c0 -69.333 -21.833 -124.333 -65.5 -165s-104.834 -63 -183.501 -67zM350.002 387.999v-336c57.333 3.33301 101 19.333 131 48s45 68.667 45 120
c0 69.333 -26.667 118.333 -80 147c-23.333 12 -55.333 19 -96 21z" />
    <glyph glyph-name="chi" unicode="&#x3c7;" horiz-adv-x="445" 
d="M5 0l174 230l-161 213h85l119 -159l119 159h83l-160 -213l173 -230h-84l-132 176l-131 -176h-85z" />
    <glyph glyph-name="psi" unicode="&#x3c8;" horiz-adv-x="667" 
d="M67 229l0.00195312 214h73v-208c-1.33301 -65.333 8 -110.666 28 -135.999s57.333 -38 112 -38h4h18v382h70v-382h18h4c54.667 0 92 12.667 112 38s29.333 70.666 28 135.999v208h73v-214c2 -83.333 -14.333 -143 -49 -179s-92.334 -53.667 -173.001 -53h-13v-230h-70
v230h-13c-80.667 -0.666992 -138.334 17 -173.001 53s-51 95.667 -49 179z" />
    <glyph glyph-name="omega" unicode="&#x3c9;" horiz-adv-x="659" 
d="M297 199v89h66v-89c0 -19.333 0.666992 -35.5 2 -48.5s4.5 -27.667 9.5 -44s13.667 -28.666 26 -36.999s27.833 -12.5 46.5 -12.5c31.333 0 56.5 13.833 75.5 41.5s28.5 64.5 28.5 110.5c0 82 -29.333 154.667 -88 218l58 25c69.333 -63.333 104 -146.333 104 -249
c0 -65.333 -15.667 -117.333 -47 -156s-73.333 -58 -126 -58c-56 0 -96.667 22.333 -122 67c-26 -44.667 -66.667 -67 -122 -67c-52.667 0 -94.667 19.333 -126 58s-47 90.667 -47 156c0 102.667 34.667 185.667 104 249l58 -25c-58.667 -63.333 -88 -136.333 -88 -219
c0 -45.333 9.5 -81.833 28.5 -109.5s44.167 -41.5 75.5 -41.5c18.667 0 34.167 4.16699 46.5 12.5s21 20.666 26 36.999s8.16699 31 9.5 44s2 29.167 2 48.5z" />
    <glyph glyph-name="iotadieresis" unicode="&#x3ca;" horiz-adv-x="226" 
d="M63 149l0.00292969 293.999h71v-296c0 -34.667 2.83301 -58 8.5 -70s17.167 -18 34.5 -18c8.66699 0 21 2.66699 37 8l3 -65c-20.667 -6 -39.667 -9 -57 -9s-32.333 3.33301 -45 10s-22.334 14.834 -29.001 24.501s-11.834 22.167 -15.501 37.5
s-5.83398 28.833 -6.50098 40.5s-1 26.167 -1 43.5zM21.0029 638.999c13.333 0 24.833 -4.66699 34.5 -14s14.5 -20.666 14.5 -33.999s-4.83301 -24.833 -14.5 -34.5s-21.167 -14.5 -34.5 -14.5s-24.833 4.83301 -34.5 14.5s-14.5 21.167 -14.5 34.5
s4.83301 24.666 14.5 33.999s21.167 14 34.5 14zM205.003 638.999c13.333 0 24.833 -4.66699 34.5 -14s14.5 -20.666 14.5 -33.999s-4.83301 -24.833 -14.5 -34.5s-21.167 -14.5 -34.5 -14.5s-24.833 4.83301 -34.5 14.5s-14.5 21.167 -14.5 34.5
s4.83301 24.666 14.5 33.999s21.167 14 34.5 14z" />
    <glyph glyph-name="upsilondieresis" unicode="&#x3cb;" horiz-adv-x="498" 
d="M63 177v266h71v-258c0 -44.667 8.33301 -78.167 25 -100.5s46.667 -33.5 90 -33.5s73.333 11.333 90 34s25 56 25 100v258h71v-266c0 -64.667 -14.833 -112.334 -44.5 -143.001s-76.834 -46 -141.501 -46c-65.333 0 -112.666 15.333 -141.999 46s-44 78.334 -44 143.001z
M157 639c13.333 0 24.833 -4.66699 34.5 -14s14.5 -20.666 14.5 -33.999s-4.83301 -24.833 -14.5 -34.5s-21.167 -14.5 -34.5 -14.5s-24.833 4.83301 -34.5 14.5s-14.5 21.167 -14.5 34.5s4.83301 24.666 14.5 33.999s21.167 14 34.5 14zM341 639
c13.333 0 24.833 -4.66699 34.5 -14s14.5 -20.666 14.5 -33.999s-4.83301 -24.833 -14.5 -34.5s-21.167 -14.5 -34.5 -14.5s-24.833 4.83301 -34.5 14.5s-14.5 21.167 -14.5 34.5s4.83301 24.666 14.5 33.999s21.167 14 34.5 14z" />
    <glyph glyph-name="omicrontonos" unicode="&#x3cc;" horiz-adv-x="528" 
d="M265 455c64.667 0 119 -22.334 163 -67.001s66 -100 66 -166s-22 -121.5 -66 -166.5s-98.333 -67.5 -163 -67.5c-66 0 -120.833 22.5 -164.5 67.5s-65.5 101.167 -65.5 168.5c0 64.667 22.167 119.334 66.5 164.001s98.833 67 163.5 67zM265 389.999
c-45.333 0 -82.833 -15.665 -112.5 -46.998s-44.5 -71 -44.5 -119c0 -50.667 14.5 -91.834 43.5 -123.501s66.833 -47.5 113.5 -47.5c45.333 0 82.666 15.833 111.999 47.5s44 72.167 44 121.5s-14.667 89.666 -44 120.999s-66.666 47 -111.999 47zM290 513.001h-51l-10 185
h71z" />
    <glyph glyph-name="upsilontonos" unicode="&#x3cd;" horiz-adv-x="498" 
d="M63 177v266h71v-258c0 -44.667 8.33301 -78.167 25 -100.5s46.667 -33.5 90 -33.5s73.333 11.333 90 34s25 56 25 100v258h71v-266c0 -64.667 -14.833 -112.334 -44.5 -143.001s-76.834 -46 -141.501 -46c-65.333 0 -112.666 15.333 -141.999 46s-44 78.334 -44 143.001z
M274 513h-50l-11 185h72z" />
    <glyph glyph-name="omegatonos" unicode="&#x3ce;" horiz-adv-x="659" 
d="M297 199l-0.000976562 89h66v-89c0 -19.333 0.666992 -35.5 2 -48.5s4.5 -27.667 9.5 -44s13.667 -28.666 26 -36.999s27.833 -12.5 46.5 -12.5c31.333 0 56.5 13.833 75.5 41.5s28.5 64.5 28.5 110.5c0 82 -29.333 154.667 -88 218l58 25
c69.333 -63.333 104 -146.333 104 -249c0 -65.333 -15.5 -117.333 -46.5 -156s-72.5 -58 -124.5 -58c-56.667 0 -98 25 -124 75c-25.333 -50 -66.666 -75 -123.999 -75c-52 0 -93.5 19.333 -124.5 58s-46.5 90.667 -46.5 156c0 102.667 34.667 185.667 104 249l58 -25
c-58.667 -63.333 -88 -136.333 -88 -219c0 -45.333 9.5 -81.833 28.5 -109.5s44.167 -41.5 75.5 -41.5c18.667 0 34.167 4.16699 46.5 12.5s21 20.666 26 36.999s8.16699 31 9.5 44s2 29.167 2 48.5zM354.999 513h-51l-10 185h71z" />
    <glyph glyph-name="theta1" unicode="&#x3d1;" horiz-adv-x="528" 
d="M264 679c34.667 0 65.8301 -7.33203 93.4971 -21.999s49.834 -33.5 66.501 -56.5s30.667 -50.167 42 -81.5s19.166 -62.166 23.499 -92.499s6.5 -61.166 6.5 -92.499c0 -40.667 -3.66699 -79.834 -11 -117.501s-19.333 -74.334 -36 -110.001
s-40.834 -64.334 -72.501 -86.001s-69.167 -32.5 -112.5 -32.5s-81 11 -113 33s-56.167 51.167 -72.5 87.5s-28.166 73.333 -35.499 111s-11 77.167 -11 118.5c0 40 3.83301 78.667 11.5 116s19.834 73.5 36.501 108.5s40.834 63.167 72.501 84.5s68.834 32 111.501 32z
M422.996 312.001h-317c6 -172 58.667 -258 158 -258c100 0 153 86 159 258zM105.996 374.001l316.999 0.00195312c-9.33301 159.333 -62.333 239 -159 239c-29.333 0 -54.666 -7.5 -75.999 -22.5s-37.5 -35.333 -48.5 -61s-19 -50.834 -24 -75.501
s-8.16699 -51.334 -9.5 -80.001z" />
    <glyph glyph-name="phi1" unicode="&#x3d5;" horiz-adv-x="634" 
d="M350 -11l0.00195312 -222.001h-70v222c-76 6 -135.833 29.333 -179.5 70s-65.5 93.667 -65.5 159c0 94 45.333 161.667 136 203l30 -50c-34.667 -21.333 -58.834 -43.166 -72.501 -65.499s-20.5 -50.166 -20.5 -83.499c0 -48.667 15.167 -87.834 45.5 -117.501
s72.5 -47.167 126.5 -52.5v397c18 2 31 3 39 3c90 0 159.167 -20 207.5 -60s72.5 -97 72.5 -171c0 -69.333 -21.833 -124.333 -65.5 -165s-104.834 -63 -183.501 -67zM350.002 387.999v-336c57.333 3.33301 101 19.333 131 48s45 68.667 45 120
c0 69.333 -26.667 118.333 -80 147c-23.333 12 -55.333 19 -96 21z" />
    <glyph glyph-name="uni0400" unicode="&#x400;" horiz-adv-x="475" 
d="M423 667v-69h-268v-225h238v-69h-238v-235h278v-69h-353v667h343zM263 715l-125 126l70 37l100 -137z" />
    <glyph glyph-name="afii10023" unicode="&#x401;" horiz-adv-x="478" 
d="M434 0h-354v667h344v-68h-270v-227h240v-69h-240v-233h280v-70zM165 839c12 0 22.334 -4.33398 31.001 -13.001s13 -19 13 -31s-4.33301 -22.333 -13 -31s-19 -13 -31 -13c-12.667 0 -23.334 4.33301 -32.001 13s-13 19.334 -13 32.001c0 11.333 4.5 21.333 13.5 30
s19.5 13 31.5 13zM351.001 838.999c12 0 22.334 -4.33398 31.001 -13.001s13 -19 13 -31s-4.33301 -22.333 -13 -31s-19 -13 -31 -13c-12.667 0 -23.334 4.33301 -32.001 13s-13 19.334 -13 32.001c0 11.333 4.5 21.333 13.5 30s19.5 13 31.5 13z" />
    <glyph glyph-name="afii10051" unicode="&#x402;" horiz-adv-x="628" 
d="M221 0h-76v598h-134v69h398v-69h-188v-232c34 47.333 85.333 71 154 71c58.667 0 105.667 -18.333 141 -55c32 -32.667 48 -85.334 48 -158.001v-457h-72v449c0 58.667 -11.667 99.334 -35 122.001c-24 22.667 -56 34 -96 34c-48 0 -84.333 -14 -109 -42
c-20.667 -22.667 -31 -62.667 -31 -120v-210z" />
    <glyph glyph-name="afii10052" unicode="&#x403;" horiz-adv-x="455" 
d="M155 0h-75v667h354v-69h-279v-598zM308 879l70 -36l-125 -119l-45 23z" />
    <glyph glyph-name="afii10053" unicode="&#x404;" horiz-adv-x="660" 
d="M122 371l348.999 -0.000976562v-66h-350c6.66699 -37.333 13.167 -65.166 19.5 -83.499s15.5 -36.5 27.5 -54.5c52 -72.667 121 -109 207 -109c74 0 140.333 29 199 87l53 -50c-73.333 -71.333 -158 -107 -254 -107c-94.667 0 -173.5 32.667 -236.5 98
s-94.5 147.333 -94.5 246s31.667 181.167 95 247.5s142.666 99.5 237.999 99.5c90.667 0 173.334 -35 248.001 -105l-53 -50c-56.667 56.667 -122 85 -196 85c-45.333 0 -86.666 -10.5 -123.999 -31.5s-67 -50.167 -89 -87.5c-18 -31.333 -31 -71 -39 -119z" />
    <glyph glyph-name="afii10054" unicode="&#x405;" horiz-adv-x="505" 
d="M441 574l-58.999 -39.002c-32.667 50 -73 75 -121 75c-34.667 0 -63.5 -10.667 -86.5 -32s-34.5 -48 -34.5 -80c0 -45.333 32 -80.666 96 -105.999l66 -25c54 -21.333 93.333 -46.166 118 -74.499s37 -62.833 37 -103.5c0 -56.667 -20.333 -104.334 -61 -143.001
s-90.667 -58 -150 -58c-52.667 0 -97 15 -133 45s-60.333 72.333 -73 127l72 20c20.667 -81.333 66 -122 136 -122c37.333 0 69 12.667 95 38s39 56.333 39 93c0 26.667 -8.83301 48.834 -26.5 66.501s-47.5 34.834 -89.5 51.501l-62 25
c-92 35.333 -138 90.666 -138 165.999c0 52 18.667 95.167 56 129.5s84.333 51.5 141 51.5c75.333 0 134.666 -35 177.999 -105z" />
    <glyph glyph-name="afii10055" unicode="&#x406;" horiz-adv-x="235" 
d="M80 667h75v-667h-75v667z" />
    <glyph glyph-name="afii10056" unicode="&#x407;" horiz-adv-x="235" 
d="M81 667h75v-667h-75v667zM25 839c12 0 22.333 -4.33398 31 -13.001s13 -19 13 -31s-4.33301 -22.333 -13 -31s-19 -13 -31 -13c-12.667 0 -23.334 4.33301 -32.001 13s-13 19.334 -13 32.001c0 11.333 4.33301 21.333 13 30s19.334 13 32.001 13zM211 838.999
c12 0 22.334 -4.33398 31.001 -13.001s13 -19 13 -31s-4.33301 -22.333 -13 -31s-19 -13 -31 -13c-12.667 0 -23.334 4.33301 -32.001 13s-13 19.334 -13 32.001c0 11.333 4.5 21.333 13.5 30s19.5 13 31.5 13z" />
    <glyph glyph-name="afii10057" unicode="&#x408;" horiz-adv-x="402" 
d="M246 667h75v-467c0 -42 -3.83301 -75.667 -11.5 -101s-20.5 -47 -38.5 -65c-30.667 -30.667 -69.334 -46 -116.001 -46c-27.333 0 -52.666 5.5 -75.999 16.5s-49 29.167 -77 54.5l45 54c37.333 -36.667 73 -55 107 -55c61.333 0 92 47.333 92 142v467z" />
    <glyph glyph-name="afii10058" unicode="&#x409;" horiz-adv-x="876" 
d="M616 0h-173.001v598h-218l-1 -20c-9.33301 -190.667 -21.333 -322 -36 -394c-12.667 -64 -32.167 -111 -58.5 -141s-61.5 -45 -105.5 -45c-11.333 0 -21.666 0.666992 -30.999 2v71c12.667 -2 21 -3 25 -3c44 0 74.667 32.667 92 98c23.333 85.333 38.333 252.333 45 501
h363v-269h104c72 0 124.667 -14.667 158 -44c40.667 -35.333 61 -86.333 61 -153c0 -76 -25 -131.333 -75 -166c-34 -23.333 -84 -35 -150 -35zM517.999 333v-266.999h83c66.667 0 111 12 133 36c22 25.333 33 57.666 33 96.999c0 45.333 -13.333 80.333 -40 105
c-22 19.333 -64 29 -126 29h-83z" />
    <glyph glyph-name="afii10059" unicode="&#x40a;" horiz-adv-x="929" 
d="M668 0h-172v325h-341v-325h-75v667h75v-273h341v273h75v-269h103c146 0 219 -65.667 219 -197c0 -76 -25 -131.333 -75 -166c-33.333 -23.333 -83.333 -35 -150 -35zM571 333v-267.001h83c66 0 110 12.333 132 37c22 24 33 56.333 33 97
c0 44.667 -13.333 79.334 -40 104.001c-21.333 19.333 -63 29 -125 29h-83z" />
    <glyph glyph-name="afii10060" unicode="&#x40b;" horiz-adv-x="628" 
d="M221 0h-75.999v598h-134v69h398v-69h-188v-232c35.333 47.333 86.333 71 153 71c59.333 0 106.666 -18.333 141.999 -55c32 -32.667 48 -85.334 48 -158.001v-224h-72v216c0 58.667 -11.667 99.334 -35 122.001c-24 22.667 -56 34 -96 34c-48 0 -84.333 -14 -109 -42
c-20.667 -22.667 -31 -62.667 -31 -120v-210z" />
    <glyph glyph-name="afii10061" unicode="&#x40c;" horiz-adv-x="562" 
d="M155 0h-75v667h75v-338l306 338h94l-250 -274l257 -393h-88l-220 338l-99 -110v-228zM350 879l71 -36l-126 -119l-45 23z" />
    <glyph glyph-name="uni040D" unicode="&#x40d;" horiz-adv-x="649" 
d="M140 0h-60v667h72v-533l356 531h60v-666h-72v531zM327 724l-126 119l71 36l100 -132z" />
    </font>
</defs>
</svg>
