<?xml version="1.0" standalone="no"?>
<!DOCTYPE svg PUBLIC "-//W3C//DTD SVG 1.1//EN" "http://www.w3.org/Graphics/SVG/1.1/DTD/svg11.dtd" >
<svg>
<metadata>
Created by FontForge 20090914 at Thu Oct 14 23:05:49 2021
 By www-data
Copyright 2016 by (URW)++ Design &#38; Development GmbH
</metadata>
<defs>
<font id="URWGeometric-Bold" horiz-adv-x="387" >
  <font-face 
    font-family="URW Geometric"
    font-weight="700"
    font-stretch="normal"
    units-per-em="1000"
    panose-1="1 0 0 0 0 0 0 0 0 0"
    ascent="800"
    descent="-200"
    x-height="443"
    cap-height="667"
    bbox="-133 -282 1226 1085"
    underline-thickness="50"
    underline-position="-175"
    unicode-range="U+0020-U+FB04"
  />
<missing-glyph horiz-adv-x="230" 
 />
    <glyph glyph-name="ff" unicode="ff" horiz-adv-x="517" 
d="M178 514v-71.001h76v-103h-76v-340h-114v340h-42v103h42v71c0 48.667 10.667 86 32 112s52.333 39 93 39c16.667 0 37.667 -2.66699 63 -8v-103c-16.667 5.33301 -30 8 -40 8c-12.667 0 -21.5 -3.66699 -26.5 -11s-7.5 -19.666 -7.5 -36.999zM433 523.999v-81.001h76
v-103h-76v-340h-114v340h-42v103h42v81c0 48.667 10.667 86 32 112s52.333 39 93 39c18.667 0 39.667 -2.66699 63 -8v-103c-16.667 5.33301 -30 8 -40 8c-12.667 0 -21.5 -3.66699 -26.5 -11s-7.5 -19.666 -7.5 -36.999z" />
    <glyph glyph-name="fi" unicode="fi" horiz-adv-x="476" 
d="M178 524v-81.001h76v-103h-76v-340h-114v340h-42v103h42v81c0 48.667 10.667 86 32 112s52.333 39 93 39c18.667 0 39.667 -2.66699 63 -8v-103c-16.667 5.33301 -30 8 -40 8c-12.667 0 -21.5 -3.66699 -26.5 -11s-7.5 -19.666 -7.5 -36.999zM309 442.999h114v-443h-114
v443zM367 663.999c19.333 0 35.833 -6.99902 49.5 -20.999s20.5 -30.333 20.5 -49c0 -19.333 -7 -35.833 -21 -49.5s-30.667 -20.5 -50 -20.5c-20 0 -37 6.83301 -51 20.5s-21 30.5 -21 50.5c0 19.333 7 35.666 21 48.999s31.333 20 52 20z" />
    <glyph glyph-name="fl" unicode="fl" horiz-adv-x="477" 
d="M178 524v-81.001h76v-103h-76v-340h-114v340h-42v103h42v81c0 48.667 10.667 86 32 112s52.333 39 93 39c18.667 0 39.667 -2.66699 63 -8v-103c-16.667 5.33301 -30 8 -40 8c-12.667 0 -21.5 -3.66699 -26.5 -11s-7.5 -19.666 -7.5 -36.999zM423 666.999v-667h-114v667
h114z" />
    <glyph glyph-name="ffi" unicode="ffi" horiz-adv-x="729" 
d="M178 514v-71.001h76v-103h-76v-340h-114v340h-42v103h42v71c0 48.667 10.667 86 32 112s52.333 39 93 39c16.667 0 37.667 -2.66699 63 -8v-103c-16.667 5.33301 -30 8 -40 8c-12.667 0 -21.5 -3.66699 -26.5 -11s-7.5 -19.666 -7.5 -36.999zM433 523.999v-81.001h76
v-103h-76v-340h-114v340h-42v103h42v81c0 48.667 10.667 86 32 112s52.333 39 93 39c18.667 0 39.667 -2.66699 63 -8v-103c-16.667 5.33301 -30 8 -40 8c-12.667 0 -21.5 -3.66699 -26.5 -11s-7.5 -19.666 -7.5 -36.999zM562 442.998h114v-443h-114v443zM621 663.998
c19.333 0 35.833 -6.99902 49.5 -20.999s20.5 -30.333 20.5 -49c0 -19.333 -7 -35.833 -21 -49.5s-30.667 -20.5 -50 -20.5c-20 0 -37 6.83301 -51 20.5s-21 30.5 -21 50.5c0 19.333 7 35.666 21 48.999s31.333 20 52 20z" />
    <glyph glyph-name="ffl" unicode="ffl" horiz-adv-x="731" 
d="M178 514v-71.001h76v-103h-76v-340h-114v340h-42v103h42v71c0 48.667 10.667 86 32 112s52.333 39 93 39c16.667 0 37.667 -2.66699 63 -8v-103c-16.667 5.33301 -30 8 -40 8c-12.667 0 -21.5 -3.66699 -26.5 -11s-7.5 -19.666 -7.5 -36.999zM433 523.999v-81.001h76
v-103h-76v-340h-114v340h-42v103h42v81c0 48.667 10.667 86 32 112s52.333 39 93 39c18.667 0 39.667 -2.66699 63 -8v-103c-16.667 5.33301 -30 8 -40 8c-12.667 0 -21.5 -3.66699 -26.5 -11s-7.5 -19.666 -7.5 -36.999zM677 666.998v-667h-114v667h114z" />
    <glyph glyph-name=".notdef" horiz-adv-x="230" 
 />
    <glyph glyph-name="space" unicode=" " horiz-adv-x="230" 
 />
    <glyph glyph-name="exclam" unicode="!" horiz-adv-x="303" 
d="M153 127c19.333 0 35.833 -6.83203 49.5 -20.499s20.5 -30.167 20.5 -49.5s-7 -35.833 -21 -49.5s-30.667 -20.5 -50 -20.5c-20 0 -37 6.83301 -51 20.5s-21 30.5 -21 50.5c0 19.333 7 35.666 21 48.999s31.333 20 52 20zM205 171.001h-107l-10 496h127z" />
    <glyph glyph-name="quotedbl" unicode="&#x22;" horiz-adv-x="331" 
d="M150 687l-13 -297h-91l-13 297h117zM297 687l-13 -297h-90l-14 297h117z" />
    <glyph glyph-name="numbersign" unicode="#" horiz-adv-x="590" 
d="M75 6l37 178h-72l18 89h72l24 118h-72l18 89h72l41 200l94 -22l-36 -178h109l41 200l94 -20l-37 -180h72l-19 -89h-71l-24 -118h71l-18 -89h-71l-41 -200l-94 22l36 178h-109l-41 -200zM228 273h109l24 118h-109z" />
    <glyph glyph-name="dollar" unicode="$" horiz-adv-x="582" 
d="M356 -103l-117 0.00292969v93c-100.667 20 -161.334 86 -182.001 198l115 30l6 -24c16.667 -64.667 52.334 -97 107.001 -97c29.333 0 54.166 9.83301 74.499 29.5s30.5 43.5 30.5 71.5c0 19.333 -7.16699 35.666 -21.5 48.999s-39.5 26.666 -75.5 39.999l-60 23
c-97.333 38 -146 97.333 -146 178c0 44.667 13.833 84 41.5 118s64.5 56.667 110.5 68v93h117v-92c32 -9.33301 59.167 -23.166 81.5 -41.499s43.833 -45.5 64.5 -81.5l-96 -60c-17.333 26 -29.666 42.667 -36.999 50c-20.667 19.333 -44.667 29 -72 29
c-26.667 0 -48.667 -7.83301 -66 -23.5s-26 -35.834 -26 -60.501c0 -30.667 25.667 -56 77 -76l63 -24c110 -40.667 165 -103.334 165 -188.001c0 -46.667 -13.833 -88.167 -41.5 -124.5s-65.167 -62.5 -112.5 -78.5v-99z" />
    <glyph glyph-name="percent" unicode="%" horiz-adv-x="896" 
d="M694 404c108 0 162 -69.001 162 -207.001c0 -137.333 -53.333 -206 -160 -206c-108 0 -162 69.667 -162 209c0 66.667 13.667 117.334 41 152.001s67 52 119 52zM695 327.999c-51.333 0 -77 -43 -77 -129c0 -88 25.667 -132 77 -132s77 43.667 77 131
c0 86.667 -25.667 130 -77 130zM200 675.999c108.667 0 163 -68.667 163 -206s-53.667 -206 -161 -206c-108 0 -162 69.667 -162 209c0 66 13.667 116.333 41 151s67 52 119 52zM202 599.999c-52 0 -78 -42.667 -78 -128c0 -88 26 -132 78 -132c51.333 0 77 43.333 77 130
s-25.667 130 -77 130zM225 21.999l382 660l64 -37l-381 -660z" />
    <glyph glyph-name="ampersand" unicode="&#x26;" horiz-adv-x="662" 
d="M338 369l121.002 -143.999c6.66699 14.667 16 37.667 28 69l7 21l107 -29l-8 -23c-16 -52 -34.333 -95.333 -55 -130l112 -133h-141l-42 50c-54 -43.333 -113 -65 -177 -65c-64.667 0 -119.167 19.167 -163.5 57.5s-66.5 85.5 -66.5 141.5c0 36.667 10.167 70 30.5 100
s54.166 62 101.499 96c-24.667 32 -41.834 58.333 -51.501 79s-14.5 42 -14.5 64c0 45.333 15.333 83.166 46 113.499s69 45.5 115 45.5c44.667 0 82.167 -14.667 112.5 -44s45.5 -65.333 45.5 -108c0 -30.667 -8.16699 -58.167 -24.5 -82.5s-43.833 -50.5 -82.5 -78.5z
M396.002 135.001l-142 171c-30 -25.333 -50.833 -46.5 -62.5 -63.5s-17.5 -34.833 -17.5 -53.5c0 -28 11 -51.5 33 -70.5s49 -28.5 81 -28.5c39.333 0 75.333 15 108 45zM276.002 442.001c26.667 21.333 44.333 38.001 53 50.001s13 25.667 13 41
c0 16 -5.16699 29.333 -15.5 40s-23.5 16 -39.5 16c-17.333 0 -31.333 -5.66699 -42 -17s-16 -26 -16 -44c0 -11.333 3 -22.333 9 -33s18.667 -28.334 38 -53.001z" />
    <glyph glyph-name="quotesingle" unicode="'" horiz-adv-x="184" 
d="M150 687l-13 -297h-91l-13 297h117z" />
    <glyph glyph-name="parenleft" unicode="(" horiz-adv-x="320" 
d="M164 746l102 -48.001c-18.667 -49.333 -32 -88.666 -40 -117.999c-24.667 -95.333 -37 -196.666 -37 -303.999c0 -80.667 5.83301 -152.834 17.5 -216.501s31.5 -132.167 59.5 -205.5l-102 -48c-16.667 36 -27.167 60 -31.5 72s-10.5 33 -18.5 63
c-27.333 107.333 -41 219 -41 335c0 128 16.333 249 49 363c7.33301 26 21.333 61.667 42 107z" />
    <glyph glyph-name="parenright" unicode=")" horiz-adv-x="320" 
d="M53 698l101.998 48c22.667 -49.333 39.334 -94.333 50.001 -135c27.333 -108 41 -219.667 41 -335c0 -128 -16.333 -249 -49 -363c-6.66699 -24.667 -20.667 -60.334 -42 -107.001l-102 48c28 73.333 47.833 141.833 59.5 205.5s17.5 135.834 17.5 216.501
c0 118 -14.333 226 -43 324c-5.33301 19.333 -16.666 52 -33.999 98z" />
    <glyph glyph-name="asterisk" unicode="*" horiz-adv-x="493" 
d="M90 674l108 -40l-4 115h106l-4 -115l108 40l33 -102l-111 -31l72 -91l-87 -62l-64 96l-64 -96l-86 62l71 91l-111 31z" />
    <glyph glyph-name="plus" unicode="+" horiz-adv-x="556" 
d="M27 363h199v200h105v-200h198v-102h-198v-200h-105v200h-199v102z" />
    <glyph glyph-name="comma" unicode="," horiz-adv-x="259" 
d="M14 -144l96 267l104 -38l-117 -262z" />
    <glyph glyph-name="hyphen" unicode="-" horiz-adv-x="277" 
d="M24 260v104h229v-104h-229z" />
    <glyph glyph-name="period" unicode="." horiz-adv-x="251" 
d="M127 127c19.333 0 35.833 -6.83203 49.5 -20.499s20.5 -30.167 20.5 -49.5s-7 -35.833 -21 -49.5s-30.667 -20.5 -50 -20.5c-20 0 -37 6.83301 -51 20.5s-21 30.5 -21 50.5c0 19.333 7 35.666 21 48.999s31.333 20 52 20z" />
    <glyph glyph-name="slash" unicode="/" horiz-adv-x="554" 
d="M45 38l375 645l89 -53l-374 -646z" />
    <glyph glyph-name="zero" unicode="0" horiz-adv-x="578" 
d="M289 682c172.667 0 259 -116.333 259 -349c0 -232 -86 -348 -258 -348c-173.333 0 -260 117.667 -260 353c0 112.667 21.833 198.167 65.5 256.5s108.167 87.5 193.5 87.5zM289 571c-92 0 -138 -78 -138 -234c0 -160.667 46 -241 138 -241s138 79 138 237
c0 158.667 -46 238 -138 238z" />
    <glyph glyph-name="one" unicode="1" horiz-adv-x="325" 
d="M255 667v-667h-118v525l-84 -48l-56 97l164 93h94z" />
    <glyph glyph-name="two" unicode="2" horiz-adv-x="493" 
d="M477 0l-435.003 -0.000976562v94l237 264c44.667 49.333 67 94 67 134c0 24 -8.33301 43.167 -25 57.5s-38.667 21.5 -66 21.5c-19.333 0 -35.166 -2.16699 -47.499 -6.5s-22.666 -12.5 -30.999 -24.5s-14.333 -22.667 -18 -32s-8.5 -24 -14.5 -44l-109 30
c9.33301 42.667 23 76.667 41 102c40.667 57.333 101.334 86 182.001 86c60.667 0 110 -18 148 -54s57 -82.333 57 -139c0 -63.333 -23.667 -121.666 -71 -174.999l-184 -204h269v-110z" />
    <glyph glyph-name="three" unicode="3" horiz-adv-x="486" 
d="M175 294v108.001h52c65.333 0 98 28 98 84c0 25.333 -8.5 45.833 -25.5 61.5s-39.5 23.5 -67.5 23.5c-22.667 0 -41.5 -5.33301 -56.5 -16s-31.5 -30 -49.5 -58l-99 53c27.333 47.333 56.833 81.166 88.5 101.499s70.167 30.5 115.5 30.5
c61.333 0 111.833 -18.167 151.5 -54.5s59.5 -82.5 59.5 -138.5c0 -53.333 -20 -98 -60 -134c49.333 -42.667 74 -94.667 74 -156c0 -62 -21.5 -113.167 -64.5 -153.5s-97.5 -60.5 -163.5 -60.5c-70 0 -125.333 23 -166 69c-14 15.333 -25 31.833 -33 49.5
s-15.667 42.5 -23 74.5l115 30c4.66699 -18.667 9.16699 -33.5 13.5 -44.5s10.333 -22.333 18 -34s18 -20.167 31 -25.5s28.5 -8 46.5 -8c31.333 0 57 9.5 77 28.5s30 43.5 30 73.5c0 64 -36.667 96 -110 96h-52z" />
    <glyph glyph-name="four" unicode="4" horiz-adv-x="520" 
d="M303 687l97 -60l-240 -380h140v150h118v-150h77v-108h-77v-139h-118v139h-280v100z" />
    <glyph glyph-name="five" unicode="5" horiz-adv-x="535" 
d="M466 558l-224.004 -0.00292969l-22 -107c15.333 2.66699 29.333 4 42 4c66 0 121.833 -22.5 167.5 -67.5s68.5 -99.833 68.5 -164.5c0 -67.333 -23.667 -123.833 -71 -169.5s-105.666 -68.5 -174.999 -68.5c-47.333 0 -88.666 11.167 -123.999 33.5
s-68 58.166 -98 107.499l94 65c10.667 -17.333 19 -30.166 25 -38.499s14.333 -17.666 25 -27.999s22.5 -17.666 35.5 -21.999s28.167 -6.5 45.5 -6.5c35.333 0 65 11.833 89 35.5s36 52.834 36 87.501c0 36.667 -11.833 67 -35.5 91s-53.167 36 -88.5 36
c-31.333 0 -57.666 -10 -78.999 -30l-2 -2c-3.33301 -4 -6.66602 -7.66699 -9.99902 -11l-92 19l71 345h322v-109z" />
    <glyph glyph-name="six" unicode="6" horiz-adv-x="547" 
d="M87 376l223 310.999l93 -68l-126 -175c55.333 -2.66699 102 -17 140 -43c62 -43.333 93 -103 93 -179c0 -66 -23 -122 -69 -168s-102 -69 -168 -69c-66.667 0 -123.167 23 -169.5 69s-69.5 101.667 -69.5 167c0 54.667 17.667 106.334 53 155.001zM271 334.999
c-34 0 -62.333 -11.333 -85 -34s-34 -50.667 -34 -84c0 -35.333 11.333 -64.5 34 -87.5s51.334 -34.5 86.001 -34.5c33.333 0 61.666 11.833 84.999 35.5s35 52.167 35 85.5c0 34.667 -11.333 63.167 -34 85.5s-51.667 33.5 -87 33.5z" />
    <glyph glyph-name="seven" unicode="7" horiz-adv-x="454" 
d="M29 34l285 524h-307v109h448v-85l-323 -602z" />
    <glyph glyph-name="eight" unicode="8" horiz-adv-x="516" 
d="M114 356c-22.667 21.333 -38.8389 42.167 -48.5059 62.5s-14.5 43.833 -14.5 70.5c0 54.667 19.833 100.5 59.5 137.5s88.834 55.5 147.501 55.5s107.834 -18.5 147.501 -55.5s59.5 -82.833 59.5 -137.5c0 -48.667 -21 -93 -63 -133
c30.667 -24.667 52.334 -49.167 65.001 -73.5s19 -53.166 19 -86.499c0 -60.667 -21.667 -111 -65 -151s-97.666 -60 -162.999 -60s-119.666 20 -162.999 60s-65 90.333 -65 151c0 33.333 6.33301 62.166 19 86.499s34.334 48.833 65.001 73.5zM258.995 298.001
c-33.333 0 -60.335 -9.5 -81.002 -28.5s-31 -44.167 -31 -75.5c0 -30 10.333 -54.5 31 -73.5s47.334 -28.5 80.001 -28.5s59.334 9.66699 80.001 29s31 44 31 74c0 30.667 -10.167 55.5 -30.5 74.5s-46.833 28.5 -79.5 28.5zM257.993 579.001
c-27.333 0 -50.167 -8.5 -68.5 -25.5s-27.5 -38.167 -27.5 -63.5c0 -26.667 8.83301 -48.5 26.5 -65.5s40.5 -25.5 68.5 -25.5c28.667 0 52 8.33301 70 25s27 38 27 64c0 26.667 -9 48.5 -27 65.5s-41 25.5 -69 25.5z" />
    <glyph glyph-name="nine" unicode="9" horiz-adv-x="549" 
d="M460 291l-224 -311l-92 68l126 175c-56 2.66699 -103 17 -141 43c-29.333 20.667 -52 46.667 -68 78s-24 65 -24 101c0 66 23 122 69 168s102 69 168 69c66.667 0 123.167 -23 169.5 -69s69.5 -101.667 69.5 -167c0 -54 -17.667 -105.667 -53 -155zM275 572
c-33.333 0 -61.667 -11.833 -85 -35.5s-35 -52.167 -35 -85.5c0 -34.667 11.333 -63.167 34 -85.5s51.667 -33.5 87 -33.5c34 0 62.333 11.333 85 34s34 50.667 34 84c0 34.667 -11.5 63.667 -34.5 87s-51.5 35 -85.5 35z" />
    <glyph glyph-name="colon" unicode=":" horiz-adv-x="251" 
d="M127 127c19.333 0 35.833 -6.83203 49.5 -20.499s20.5 -30.167 20.5 -49.5s-7 -35.833 -21 -49.5s-30.667 -20.5 -50 -20.5c-20 0 -37 6.83301 -51 20.5s-21 30.5 -21 50.5c0 19.333 7 35.666 21 48.999s31.333 20 52 20zM127 429.001
c19.333 0 35.833 -6.83203 49.5 -20.499s20.5 -30.167 20.5 -49.5s-7 -35.833 -21 -49.5s-30.667 -20.5 -50 -20.5c-20 0 -37 6.83301 -51 20.5s-21 30.5 -21 50.5c0 19.333 7 35.666 21 48.999s31.333 20 52 20z" />
    <glyph glyph-name="semicolon" unicode=";" horiz-adv-x="254" 
d="M147 429c19.333 0 35.833 -6.83203 49.5 -20.499s20.5 -30.167 20.5 -49.5s-7 -35.833 -21 -49.5s-30.667 -20.5 -50 -20.5c-20 0 -37 6.83301 -51 20.5s-21 30.5 -21 50.5c0 19.333 7 35.666 21 48.999s31.333 20 52 20zM14 -143.999l96 267l105 -38l-117 -262z" />
    <glyph glyph-name="less" unicode="&#x3c;" horiz-adv-x="576" 
d="M51 382l473 222v-119l-325 -148l325 -149v-119l-473 223v90z" />
    <glyph glyph-name="equal" unicode="=" horiz-adv-x="556" 
d="M56 443h444v-103h-444v103zM56 284h444v-103h-444v103z" />
    <glyph glyph-name="greater" unicode="&#x3e;" horiz-adv-x="576" 
d="M524 291l-473 -222v119l325 149l-325 148v119l473 -222v-91z" />
    <glyph glyph-name="question" unicode="?" horiz-adv-x="435" 
d="M215 127c19.333 0 35.833 -6.83203 49.5 -20.499s20.5 -30.167 20.5 -49.5s-7 -35.833 -21 -49.5s-31 -20.5 -51 -20.5s-36.833 6.83301 -50.5 20.5s-20.5 30.5 -20.5 50.5c0 19.333 7 35.666 21 48.999s31.333 20 52 20zM272 171.001l-116.998 -0.00488281v66
c0 32.667 4.16699 57.834 12.5 75.501s25.166 36.834 50.499 57.501l41 34c35.333 30 53 60.667 53 92c0 22.667 -7.66699 40.834 -23 54.501s-36 20.5 -62 20.5c-25.333 0 -46 -5.66699 -62 -17s-34.333 -33.666 -55 -66.999l-87 70c43.333 83.333 109.666 125 198.999 125
c62.667 0 112.834 -17.167 150.501 -51.5s56.5 -80.166 56.5 -137.499c0 -30.667 -6.5 -58.5 -19.5 -83.5s-35.167 -51.833 -66.5 -80.5l-46 -43c-6.66699 -6 -12.334 -11.333 -17.001 -16c-5.33301 -5.33301 -8 -19 -8 -41v-58z" />
    <glyph glyph-name="at" unicode="@" horiz-adv-x="897" 
d="M505 531l134.001 -0.00195312l-43 -330h4c46 0 81.167 15 105.5 45s36.5 73.333 36.5 130c0 79.333 -23.167 141.5 -69.5 186.5s-109.833 67.5 -190.5 67.5c-98 0 -176.833 -28 -236.5 -84s-89.5 -130 -89.5 -222c0 -93.333 30 -164.5 90 -213.5s137.667 -73.5 233 -73.5
c40 0 75.333 2.66699 106 8s71 15.666 121 30.999l30 -81c-83.333 -28.667 -170.333 -43 -261 -43c-120.667 0 -218.834 32.167 -294.501 96.5s-113.5 155.5 -113.5 273.5c0 116.667 38 211.334 114 284.001s175.333 109 298 109c106 0 191.167 -30.667 255.5 -92
s96.5 -142.666 96.5 -243.999c0 -87.333 -24.667 -154.666 -74 -201.999c-42.667 -40.667 -103.667 -61 -183 -61h-133c-56 0 -101.167 17 -135.5 51s-51.5 78.667 -51.5 134c0 45.333 10.5 86.333 31.5 123s49.833 63.667 86.5 81s81 26 133 26zM449.001 200.998h56.999
l31 245h-41c-47.333 0 -84.166 -12.5 -110.499 -37.5s-39.5 -59.833 -39.5 -104.5c0 -32.667 9 -58 27 -76s43.333 -27 76 -27z" />
    <glyph glyph-name="A" unicode="A" horiz-adv-x="636" 
d="M515 0l-60 164h-274l-60 -164h-124l249 667h145l249 -667h-125zM221 274h194l-97 268z" />
    <glyph glyph-name="B" unicode="B" horiz-adv-x="528" 
d="M256 0h-186v667h155c73.333 0 129 -13.667 167 -41c22 -16.667 39.5 -38.167 52.5 -64.5s19.5 -53.5 19.5 -81.5c0 -46.667 -18.333 -88 -55 -124c58 -36 87 -89.667 87 -161c0 -60 -24.333 -109.333 -73 -148c-41.333 -31.333 -97 -47 -167 -47zM187 290
l-0.000976562 -182h64c44.667 0 76.667 7.66699 96 23c21.333 16 32 38.667 32 68c0 34 -13.333 58.667 -40 74c-19.333 11.333 -51.666 17 -96.999 17h-55zM186.999 561l-0.000976562 -169.001h49c76 0 114 28.333 114 85c0 32.667 -10.167 54.834 -30.5 66.501
s-48.166 17.5 -83.499 17.5h-49z" />
    <glyph glyph-name="C" unicode="C" horiz-adv-x="674" 
d="M648 558l-84.001 -81.0029c-30 32.667 -57.833 56.334 -83.5 71.001s-57.834 22 -96.501 22c-66 0 -121.167 -22.667 -165.5 -68s-66.5 -101.666 -66.5 -168.999c0 -66 22.333 -121.833 67 -167.5s99.334 -68.5 164.001 -68.5c38.667 0 70.834 7.5 96.501 22.5
s54.834 38.833 87.501 71.5l84 -80c-44.667 -46 -87.334 -78.5 -128.001 -97.5s-87 -28.5 -139 -28.5c-97.333 0 -180.333 33.833 -249 101.5s-103 149.834 -103 246.501s34.333 179 103 247s152 102 250 102c50 0 95.833 -9.83301 137.5 -29.5s83.5 -51.167 125.5 -94.5z
" />
    <glyph glyph-name="D" unicode="D" horiz-adv-x="619" 
d="M70 0v666.999h153c110.667 0 199 -30.167 265 -90.5s99 -141.166 99 -242.499c0 -102 -32.833 -183.167 -98.5 -243.5s-154.167 -90.5 -265.5 -90.5h-153zM226 556.999h-38v-447h38c75.333 0 134.5 20 177.5 60s64.5 94.667 64.5 164c0 68.667 -21.667 123 -65 163
s-102.333 60 -177 60z" />
    <glyph glyph-name="E" unicode="E" horiz-adv-x="483" 
d="M442 667v-109h-254v-165h226v-110h-226v-173h263v-110h-381v667h372z" />
    <glyph glyph-name="F" unicode="F" horiz-adv-x="446" 
d="M420 667v-109h-232v-165h212v-110h-212v-283h-118v667h350z" />
    <glyph glyph-name="G" unicode="G" horiz-adv-x="726" 
d="M383 256v110h310v-57c0 -97.333 -28.167 -175.666 -84.5 -234.999s-130.5 -89 -222.5 -89c-98.667 0 -182.334 33.667 -251.001 101s-103 149.333 -103 246c0 97.333 34.167 180 102.5 248s151.5 102 249.5 102c54.667 0 101.167 -9.83301 139.5 -29.5
s79.833 -50.834 124.5 -93.501l-84 -81c-32 32.667 -60.5 56.167 -85.5 70.5s-56.833 21.5 -95.5 21.5c-65.333 0 -120.166 -22.833 -164.499 -68.5s-66.5 -102.167 -66.5 -169.5c0 -66 22.333 -121.667 67 -167s99.667 -68 165 -68c74 0 128.333 29.333 163 88
c10 18 17.667 41.667 23 71h-187z" />
    <glyph glyph-name="H" unicode="H" horiz-adv-x="651" 
d="M188 667v-274h275v274h118v-667h-118v283h-275v-283h-118v667h118z" />
    <glyph glyph-name="I" unicode="I" horiz-adv-x="258" 
d="M70 667h118v-667h-118v667z" />
    <glyph glyph-name="J" unicode="J" horiz-adv-x="423" 
d="M234 667h118v-460c0 -42 -3.5 -75.333 -10.5 -100s-19.833 -47 -38.5 -67c-32.667 -36.667 -77 -55 -133 -55c-31.333 0 -60.833 6.83301 -88.5 20.5s-57.167 36.167 -88.5 67.5l74 86c38.667 -41.333 73 -62 103 -62c22.667 0 39 8.66699 49 26s15 45.333 15 84v460z
" />
    <glyph glyph-name="K" unicode="K" horiz-adv-x="592" 
d="M595 667l-261 -283l258 -384h-140l-198 298l-66 -71v-227h-118v667h118v-280l259 280h148z" />
    <glyph glyph-name="L" unicode="L" horiz-adv-x="435" 
d="M70 667h118v-557h245v-110h-363v667z" />
    <glyph glyph-name="M" unicode="M" horiz-adv-x="802" 
d="M188 0h-118v667h111l220 -391l220 391h111v-667h-118v437l-167 -298h-92l-167 298v-437z" />
    <glyph glyph-name="N" unicode="N" horiz-adv-x="707" 
d="M188 0h-118v667h102l347 -464v464h118v-667h-102l-347 464v-464z" />
    <glyph glyph-name="O" unicode="O" horiz-adv-x="762" 
d="M381 682c95.333 0 177.333 -34.166 246 -102.499s103 -150.5 103 -246.5s-34.333 -178 -103 -246s-151.667 -102 -249 -102c-95.333 0 -176.833 34.667 -244.5 104s-101.5 152.666 -101.5 249.999c0 92.667 34.667 173 104 241s151 102 245 102zM381 570.001
c-62.667 0 -116.5 -22.832 -161.5 -68.499s-67.5 -100.5 -67.5 -164.5c0 -66.667 22.167 -123.334 66.5 -170.001s97.833 -70 160.5 -70c64 0 118.5 23 163.5 69s67.5 101.667 67.5 167c0 66 -22.333 122 -67 168s-98.667 69 -162 69z" />
    <glyph glyph-name="P" unicode="P" horiz-adv-x="474" 
d="M223 252h-35v-252h-118v667h153c78 0 136.333 -17.333 175 -52c44 -40 66 -91.667 66 -155c0 -64 -22 -116 -66 -156c-38.667 -34.667 -97 -52 -175 -52zM188 559l-0.000976562 -200h43c78 0 117 33.667 117 101c0 36 -10.167 61.5 -30.5 76.5s-49.166 22.5 -86.499 22.5
h-43z" />
    <glyph glyph-name="Q" unicode="Q" horiz-adv-x="759" 
d="M631 92l61.001 -59l-82 -81l-72 71c-54 -25.333 -106.667 -38 -158 -38c-94.667 0 -176.334 34.167 -245.001 102.5s-103 150.166 -103 245.499s34.333 177.333 103 246s150.667 103 246 103s177.333 -34.167 246 -102.5s103 -150.166 103 -245.499
c0 -94 -33 -174.667 -99 -242zM407.001 152l81 81l61 -59c40.667 46 61 99 61 159c0 66 -22.333 122 -67 168s-98.667 69 -162 69s-117.333 -23 -162 -69s-67 -102 -67 -168c0 -64.667 22.333 -120.167 67 -166.5s98.667 -69.5 162 -69.5c22.667 0 46 4 70 12z" />
    <glyph glyph-name="R" unicode="R" horiz-adv-x="554" 
d="M380 283l159.001 -283h-134l-141 253c-12.667 -0.666992 -26.334 -1 -41.001 -1h-35v-252h-118v667h153c82.667 0 144.667 -17.333 186 -52c47.333 -40 71 -92.667 71 -158c0 -36.667 -8.83301 -70.5 -26.5 -101.5s-42.167 -55.167 -73.5 -72.5zM188.001 559v-200h43
c88.667 0 133 33.333 133 100s-44.333 100 -133 100h-43z" />
    <glyph glyph-name="S" unicode="S" horiz-adv-x="520" 
d="M475 552l-97 -59.9971c-20 31.333 -37.333 52.5 -52 63.5s-33.334 16.5 -56.001 16.5c-27.333 0 -49.666 -7.83301 -66.999 -23.5s-26 -35.834 -26 -60.501c0 -31.333 26 -57 78 -77l63 -24c56 -21.333 97.333 -47.333 124 -78s40 -67.667 40 -111
c0 -60 -21.833 -110.5 -65.5 -151.5s-97.5 -61.5 -161.5 -61.5c-44.667 0 -85 11.167 -121 33.5s-63 53.166 -81 92.499c-6 13.333 -13.667 38.666 -23 75.999l115 30c9.33301 -35.333 16.333 -57.666 21 -66.999c19.333 -36 50 -54 92 -54
c28.667 0 53.167 9.83301 73.5 29.5s30.5 43.5 30.5 71.5c0 19.333 -7.16699 35.666 -21.5 48.999s-39.166 27 -74.499 41l-60 23c-98 38 -147 97.667 -147 179c0 55.333 20.167 101.333 60.5 138s90.833 55 151.5 55c48 0 87.167 -10.667 117.5 -32s59.166 -54 86.499 -98z
" />
    <glyph glyph-name="T" unicode="T" horiz-adv-x="438" 
d="M441 558h-163v-558h-118v558h-163v109h444v-109z" />
    <glyph glyph-name="U" unicode="U" horiz-adv-x="639" 
d="M70 667h118.001v-410c0 -52 6 -87 18 -105c10 -16 25.667 -29.167 47 -39.5s43.333 -15.5 66 -15.5c23.333 0 45.666 5.16699 66.999 15.5s37 23.5 47 39.5c12 18 18 53 18 105v410h118v-429c0 -68 -15.333 -121 -46 -159c-22.667 -29.333 -52.167 -52.333 -88.5 -69
s-74.5 -25 -114.5 -25c-40.667 0 -79.167 8.33301 -115.5 25s-65.833 39.667 -88.5 69c-30.667 38 -46 91 -46 159v429z" />
    <glyph glyph-name="V" unicode="V" horiz-adv-x="570" 
d="M574 667l-220 -667h-137l-220 667h124l165 -499l164 499h124z" />
    <glyph glyph-name="W" unicode="W" horiz-adv-x="876" 
d="M-3 667h123l130 -460l139 460h99l140 -460l129 460h123l-198 -667h-109l-135 440l-134 -440h-109z" />
    <glyph glyph-name="X" unicode="X" horiz-adv-x="567" 
d="M552 667l-201 -319l220 -348h-135l-152 244l-153 -244h-134l220 347l-201 320h134l135 -216l135 216h132z" />
    <glyph glyph-name="Y" unicode="Y" horiz-adv-x="540" 
d="M211 0v276l-221 391h132l148 -270l148 270h132l-221 -391v-276h-118z" />
    <glyph glyph-name="Z" unicode="Z" horiz-adv-x="511" 
d="M489 575l-325 -465h332v-110h-483v92l329 466h-301v109h448v-92z" />
    <glyph glyph-name="bracketleft" unicode="[" horiz-adv-x="311" 
d="M276 625h-88v-698h88v-107h-203v912h203v-107z" />
    <glyph glyph-name="backslash" unicode="\" horiz-adv-x="554" 
d="M45 630l89 53l375 -645l-90 -54z" />
    <glyph glyph-name="bracketright" unicode="]" horiz-adv-x="311" 
d="M123 -73v698h-88v107h203v-912h-203v107h88z" />
    <glyph glyph-name="asciicircum" unicode="^" horiz-adv-x="568" 
d="M283 559l-130 -220h-139l206 355h127l206 -355h-140z" />
    <glyph glyph-name="underscore" unicode="_" horiz-adv-x="520" 
d="M-10 -150v103h540v-103h-540z" />
    <glyph glyph-name="grave" unicode="`" horiz-adv-x="476" 
d="M235 491l-154 154l108 58l122 -168z" />
    <glyph glyph-name="a" unicode="a" horiz-adv-x="544" 
d="M491 443v-443h-114v28c-38 -28.667 -77.667 -43 -119 -43c-64.667 0 -119.667 23 -165 69s-68 102 -68 168c0 65.333 22.667 121 68 167s100.333 69 165 69c41.333 0 81 -14.333 119 -43v28h114zM263 355c-36.667 0 -66.332 -12.167 -88.999 -36.5s-34 -56.5 -34 -96.5
c0 -39.333 11.167 -71.5 33.5 -96.5s51.166 -37.5 86.499 -37.5s64 12.5 86 37.5s33 57.167 33 96.5c0 38.667 -10.833 70.5 -32.5 95.5s-49.5 37.5 -83.5 37.5z" />
    <glyph glyph-name="b" unicode="b" horiz-adv-x="544" 
d="M167 0h-114v667h114v-252c38 28.667 77.667 43 119 43c64.667 0 119.667 -23 165 -69s68 -101.667 68 -167c0 -66 -22.667 -122 -68 -168s-100.333 -69 -165 -69c-41.333 0 -81 14.333 -119 43v-28zM286 355c-36 0 -64.999 -12.167 -86.999 -36.5s-33 -56.5 -33 -96.5
c0 -39.333 11 -71.5 33 -96.5s50.333 -37.5 85 -37.5c35.333 0 64.166 12.5 86.499 37.5s33.5 57.167 33.5 96.5c0 38.667 -11 70.5 -33 95.5s-50.333 37.5 -85 37.5z" />
    <glyph glyph-name="c" unicode="c" horiz-adv-x="465" 
d="M451 366l-76 -74.001c-24.667 26 -44.167 43 -58.5 51s-32.5 12 -54.5 12c-36.667 0 -66.167 -12.167 -88.5 -36.5s-33.5 -56.5 -33.5 -96.5c0 -40.667 11.167 -73.167 33.5 -97.5s52.166 -36.5 89.499 -36.5c22 0 41.5 4.83301 58.5 14.5s35.833 26.834 56.5 51.501
l76 -73c-31.333 -34.667 -61.666 -59.334 -90.999 -74.001s-63 -22 -101 -22c-66.667 0 -122.834 22.833 -168.501 68.5s-68.5 101.834 -68.5 168.501s22.833 122.667 68.5 168s101.834 68 168.501 68c36.667 0 69.667 -7.16699 99 -21.5s59.333 -37.833 90 -70.5z" />
    <glyph glyph-name="d" unicode="d" horiz-adv-x="544" 
d="M491 667v-667h-114v28c-38 -28.667 -77.667 -43 -119 -43c-64.667 0 -119.667 23 -165 69s-68 102 -68 168c0 65.333 22.667 121 68 167s100.333 69 165 69c41.333 0 81 -14.333 119 -43v252h114zM262 355c-36.667 0 -66.166 -12.167 -88.499 -36.5
s-33.5 -56.5 -33.5 -96.5c0 -39.333 11.167 -71.5 33.5 -96.5s51.166 -37.5 86.499 -37.5c34.667 0 63 12.5 85 37.5s33 57.167 33 96.5c0 38.667 -10.833 70.5 -32.5 95.5s-49.5 37.5 -83.5 37.5z" />
    <glyph glyph-name="e" unicode="e" horiz-adv-x="493" 
d="M468 179h-325.998c16.667 -60.667 53.667 -91 111 -91c39.333 0 70.666 12.333 93.999 37c2.66699 2 10.334 12.333 23.001 31l96 -40c-13.333 -23.333 -23.833 -39.666 -31.5 -48.999s-18.834 -20 -33.501 -32c-42.667 -33.333 -92 -50 -148 -50
c-64.667 0 -118.834 22.667 -162.501 68s-65.5 101.666 -65.5 168.999c0 66 21.667 121.833 65 167.5s96.333 68.5 159 68.5c67.333 0 120.833 -24.167 160.5 -72.5s59.5 -106.5 59.5 -174.5c0 -10 -0.333008 -20.667 -1 -32zM142.002 264h213c-20 62 -55.333 93 -106 93
c-55.333 0 -91 -31 -107 -93z" />
    <glyph glyph-name="f" unicode="f" horiz-adv-x="263" 
d="M178 524v-81.001h76v-103h-76v-340h-114v340h-42v103h42v81c0 48.667 10.667 86 32 112s52.333 39 93 39c18.667 0 39.667 -2.66699 63 -8v-103c-16.667 5.33301 -30 8 -40 8c-12.667 0 -21.5 -3.66699 -26.5 -11s-7.5 -19.666 -7.5 -36.999z" />
    <glyph glyph-name="g" unicode="g" horiz-adv-x="544" 
d="M377 -9v37.001c-22.667 -16.667 -42.667 -28 -60 -34s-37.666 -9 -60.999 -9c-64 0 -118.5 23.167 -163.5 69.5s-67.5 102.166 -67.5 167.499s22.5 121 67.5 167s99.5 69 163.5 69c23.333 0 43.666 -3 60.999 -9s37.333 -17.333 60 -34v28h114v-452
c0 -71.333 -22 -129 -66 -173s-101.667 -66 -173 -66c-62 0 -115.667 18 -161 54c-12.667 10 -32 30 -58 60l74 74l18 -20c21.333 -25.333 41 -42.5 59 -51.5s40.333 -13.5 67 -13.5c40 0 71 11.833 93 35.5s33 57.167 33 100.5zM262 355.001
c-36.667 0 -66.166 -12.168 -88.499 -36.501s-33.5 -56.166 -33.5 -95.499c0 -40 11.167 -72.5 33.5 -97.5s51.166 -37.5 86.499 -37.5c34.667 0 63 12.5 85 37.5s33 57.167 33 96.5c0 38.667 -11 70.5 -33 95.5s-49.667 37.5 -83 37.5z" />
    <glyph glyph-name="h" unicode="h" horiz-adv-x="509" 
d="M53 667l114 0.00292969v-247c32 25.333 66.333 38 103 38c55.333 0 101 -19.667 137 -59c32.667 -34.667 49 -88.334 49 -161.001v-238h-114v231c0 18 -0.833008 33.167 -2.5 45.5s-5 25.166 -10 38.499s-13.167 23.333 -24.5 30s-26 10 -44 10
c-20.667 0 -37.5 -3.5 -50.5 -10.5s-22.5 -17.333 -28.5 -31s-10 -27.334 -12 -41.001s-3 -30.5 -3 -50.5v-222h-114v667z" />
    <glyph glyph-name="i" unicode="i" horiz-adv-x="221" 
d="M53 443h114v-443h-114v443zM112 664c18.667 0 35 -6.99902 49 -20.999s21 -30.333 21 -49c0 -19.333 -7 -35.833 -21 -49.5s-30.667 -20.5 -50 -20.5c-20 0 -37 6.83301 -51 20.5s-21 30.5 -21 50.5c0 19.333 7 35.666 21 48.999s31.333 20 52 20z" />
    <glyph glyph-name="j" unicode="j" horiz-adv-x="230" 
d="M62 443h114v-535c0 -48.667 -10.667 -86 -32 -112s-51.666 -39 -90.999 -39c-18 0 -39.667 3.66699 -65 11v108c23.333 -7.33301 40.666 -11 51.999 -11c8.66699 0 14.5 3 17.5 9s4.5 17.333 4.5 34v535zM121 664c19.333 0 35.833 -6.99902 49.5 -20.999
s20.5 -30.333 20.5 -49c0 -19.333 -7 -35.833 -21 -49.5s-30.667 -20.5 -50 -20.5c-20 0 -37 6.83301 -51 20.5s-21 30.5 -21 50.5c0 19.333 7 35.666 21 48.999s31.333 20 52 20z" />
    <glyph glyph-name="k" unicode="k" horiz-adv-x="482" 
d="M478 443l-191 -186l203 -257h-140l-141 181l-42 -42v-139h-114v667h114v-382l161 158h150z" />
    <glyph glyph-name="l" unicode="l" horiz-adv-x="222" 
d="M168 667v-667h-114v667h114z" />
    <glyph glyph-name="m" unicode="m" horiz-adv-x="766" 
d="M53 443h113.998v-23c16.667 14.667 32 24.667 46 30s31 8 51 8c45.333 0 85.666 -18 120.999 -54c38 36 82.667 54 134 54c63.333 0 113.333 -22 150 -66c29.333 -36 44 -87.333 44 -154v-238h-114v230c0 45.333 -5.5 77.5 -16.5 96.5s-29.833 28.5 -56.5 28.5
c-15.333 0 -28.5 -2.83301 -39.5 -8.5s-19.5 -12.334 -25.5 -20.001s-10.5 -18.167 -13.5 -31.5s-4.83301 -25.166 -5.5 -35.499s-1 -23.166 -1 -38.499v-221h-114v230c0 45.333 -5.66699 77.5 -17 96.5s-30.333 28.5 -57 28.5c-19.333 0 -35.166 -3.66699 -47.499 -11
s-21.166 -18.333 -26.499 -33s-8.66602 -28.334 -9.99902 -41.001s-2 -29 -2 -49v-221h-114v443z" />
    <glyph glyph-name="n" unicode="n" horiz-adv-x="509" 
d="M53 443l114 0.00292969v-23c32 25.333 66.333 38 103 38c55.333 0 101 -19.667 137 -59c32.667 -34.667 49 -88.334 49 -161.001v-238h-114v231c0 18 -0.833008 33.167 -2.5 45.5s-5 25.166 -10 38.499s-13.167 23.333 -24.5 30s-26 10 -44 10
c-20.667 0 -37.5 -3.5 -50.5 -10.5s-22.5 -17.333 -28.5 -31s-10 -27.334 -12 -41.001s-3 -30.5 -3 -50.5v-222h-114v443z" />
    <glyph glyph-name="o" unicode="o" horiz-adv-x="521" 
d="M264 458c64.667 0 119.5 -22.999 164.5 -68.999s67.5 -101.667 67.5 -167c0 -66.667 -22.667 -122.834 -68 -168.501s-101 -68.5 -167 -68.5c-66.667 0 -122.667 23 -168 69s-68 102.667 -68 170c0 66 23 121.5 69 166.5s102.667 67.5 170 67.5zM263 355.001
c-36.667 0 -66.332 -12.167 -88.999 -36.5s-34 -56.5 -34 -96.5c0 -39.333 11.167 -71.5 33.5 -96.5s51.5 -37.5 87.5 -37.5c35.333 0 64.166 12.5 86.499 37.5s33.5 57.167 33.5 96.5c0 38.667 -11 70.5 -33 95.5s-50.333 37.5 -85 37.5z" />
    <glyph glyph-name="p" unicode="p" horiz-adv-x="544" 
d="M53 -233v676h114v-28c38 28.667 77.667 43 119 43c64.667 0 119.667 -23 165 -69s68 -102 68 -168c0 -65.333 -22.667 -121 -68 -167s-100.333 -69 -165 -69c-41.333 0 -81 14.333 -119 43v-261h-114zM284 355c-35.333 0 -63.834 -12.333 -85.501 -37
s-32.5 -57 -32.5 -97c0 -38.667 10.833 -70.5 32.5 -95.5s49.5 -37.5 83.5 -37.5c36.667 0 66.167 12.167 88.5 36.5s33.5 56.5 33.5 96.5c0 39.333 -11.167 71.5 -33.5 96.5s-51.166 37.5 -86.499 37.5z" />
    <glyph glyph-name="q" unicode="q" horiz-adv-x="544" 
d="M377 443h114v-676h-114v261c-38 -28.667 -77.667 -43 -119 -43c-64.667 0 -119.667 23 -165 69s-68 101.667 -68 167c0 66 22.667 122 68 168s100.333 69 165 69c41.333 0 81 -14.333 119 -43v28zM260 355c-35.333 0 -64.167 -12.5 -86.5 -37.5
s-33.5 -57.167 -33.5 -96.5c0 -38.667 11 -70.5 33 -95.5s50.333 -37.5 85 -37.5c36 0 65 12.167 87 36.5s33 56.5 33 96.5c0 39.333 -11 71.5 -33 96.5s-50.333 37.5 -85 37.5z" />
    <glyph glyph-name="r" unicode="r" horiz-adv-x="307" 
d="M53 443h114v-29c24.667 21.333 53.667 32 87 32c10.667 0 24.667 -1 42 -3v-102c-24 1.33301 -37.667 2 -41 2c-33.333 0 -56.333 -9.5 -69 -28.5s-19 -52.833 -19 -101.5v-213h-114v443z" />
    <glyph glyph-name="s" unicode="s" horiz-adv-x="384" 
d="M356 353l-88.998 -43.9971c-12.667 18.667 -23.667 31.334 -33 38.001s-20.666 10 -33.999 10c-14 0 -25.167 -3.33301 -33.5 -10s-12.5 -15.334 -12.5 -26.001c0 -9.33301 3.16699 -16.5 9.5 -21.5s22.166 -12.167 47.499 -21.5l40 -16
c37.333 -14.667 64.666 -32 81.999 -52s26 -44.333 26 -73c0 -42.667 -16 -78.667 -48 -108s-71.333 -44 -118 -44c-82.667 0 -140.334 46 -173.001 138l93 37c14 -28 26.667 -47 38 -57s25.666 -15 42.999 -15c15.333 0 27.666 4.16699 36.999 12.5s14 19.5 14 33.5
c0 9.33301 -3.5 16.666 -10.5 21.999s-22.167 12.666 -45.5 21.999l-45 17c-66 24.667 -99 65.667 -99 123c0 40 14.833 73.333 44.5 100s66.834 40 111.501 40c34.667 0 64.334 -8.33301 89.001 -25s46.667 -43.334 66 -80.001z" />
    <glyph glyph-name="t" unicode="t" horiz-adv-x="266" 
d="M240 340h-68.002v-197c0 -16.667 1.5 -28 4.5 -34s8.83301 -9 17.5 -9c10.667 0 28.334 3.33301 53.001 10v-107c-26.667 -7.33301 -48.667 -11 -66 -11c-39.333 0 -69.666 13 -90.999 39s-32 63.333 -32 112v197h-46v103h46v95l114 45v-140h68v-103z" />
    <glyph glyph-name="u" unicode="u" horiz-adv-x="509" 
d="M456 0l-114 -0.00390625v23c-32 -25.333 -66.333 -38 -103 -38c-55.333 0 -101 19.667 -137 59c-32.667 34.667 -49 88.334 -49 161.001v238h114v-231c0 -18 0.833008 -33.167 2.5 -45.5s5 -25.166 10 -38.499s13.167 -23.333 24.5 -30s26 -10 44 -10
c20.667 0 37.5 3.5 50.5 10.5s22.5 17.333 28.5 31s10 27.334 12 41.001s3 30.834 3 51.501v221h114v-443z" />
    <glyph glyph-name="v" unicode="v" horiz-adv-x="465" 
d="M-9 443h124l118 -279l118 279h124l-192 -443h-100z" />
    <glyph glyph-name="w" unicode="w" horiz-adv-x="662" 
d="M-9 443h122l83 -255l91 255h90l90 -255l83 255h122l-161 -443h-90l-89 251l-90 -251h-90z" />
    <glyph glyph-name="x" unicode="x" horiz-adv-x="478" 
d="M471 443l-164 -214l176 -229h-135l-109 143l-109 -143h-135l177 229l-165 214h136l97 -128l97 128h134z" />
    <glyph glyph-name="y" unicode="y" horiz-adv-x="473" 
d="M61 -233l113 254l-183 422h124l120 -283l125 283h123l-301 -676h-121z" />
    <glyph glyph-name="z" unicode="z" horiz-adv-x="412" 
d="M397 358l-226 -255h235v-103h-387v85l227 256h-213v102h364v-85z" />
    <glyph glyph-name="braceleft" unicode="{" horiz-adv-x="315" 
d="M204 585v-201.003c0 -49.333 -12.667 -85.333 -38 -108c25.333 -23.333 38 -60.333 38 -111v-198c0 -21.333 2.33301 -34 7 -38s20 -6 46 -6c8.66699 0 16.334 0.333008 23.001 1v-104c-26.667 -0.666992 -42.667 -1 -48 -1c-49.333 0 -85.5 12.5 -108.5 37.5
s-34.5 64.5 -34.5 118.5v190c-0.666992 25.333 -4 41.833 -10 49.5s-20.667 13.834 -44 18.501v91c22.667 4.66699 37.167 10.834 43.5 18.501s9.83301 22.834 10.5 45.501v189c0 54 11.5 93.5 34.5 118.5s59.167 37.5 108.5 37.5c8 0 24 -0.666992 48 -2v-103
c-20.667 0.666992 -31.334 1 -32.001 1c-20.667 0 -33.167 -2.16699 -37.5 -6.5s-6.5 -16.833 -6.5 -37.5z" />
    <glyph glyph-name="bar" unicode="|" horiz-adv-x="522" 
d="M204 -176v904h113v-904h-113z" />
    <glyph glyph-name="braceright" unicode="}" horiz-adv-x="315" 
d="M111 -33v198.003c0 50.667 12.667 87.667 38 111c-25.333 22.667 -38 58.667 -38 108v201c0 20.667 -2.33301 33.167 -7 37.5s-17.334 6.5 -38.001 6.5h-8l-23 -1v103c24 1.33301 40 2 48 2c49.333 0 85.5 -12.5 108.5 -37.5s34.5 -64.5 34.5 -118.5v-189
c0.666992 -22.667 4.16699 -37.834 10.5 -45.501s20.833 -13.834 43.5 -18.501v-91c-2.66699 -0.666992 -5.5 -1.33398 -8.5 -2.00098s-5.16699 -1.16699 -6.5 -1.5s-2.33301 -0.5 -3 -0.5c-14 -4 -23.5 -10.333 -28.5 -19s-7.5 -23.667 -7.5 -45v-190
c0 -54 -11.5 -93.5 -34.5 -118.5s-59.167 -37.5 -108.5 -37.5c-5.33301 0 -21.333 0.333008 -48 1v104c6.66699 -0.666992 14.334 -1 23.001 -1c26 0 41.333 2 46 6s7 16.667 7 38z" />
    <glyph glyph-name="asciitilde" unicode="~" horiz-adv-x="697" 
d="M158 555l-75 48.999c16 30.667 25.667 49 29 55c34 57.333 78.333 86 133 86c27.333 0 67.333 -12 120 -36c43.333 -19.333 73 -29 89 -29c17.333 0 30.833 4.33301 40.5 13s24.167 29 43.5 61l76 -45c-19.333 -38.667 -34.333 -64 -45 -76c-32 -42 -73.667 -63 -125 -63
c-15.333 0 -32 3 -50 9s-50.333 19.333 -97 40c-25.333 10.667 -44.333 16 -57 16c-20 0 -39 -12.333 -57 -37c-4 -5.33301 -12.333 -19.666 -25 -42.999z" />
    <glyph glyph-name="uni00A0" unicode="&#xa0;" horiz-adv-x="230" 
 />
    <glyph glyph-name="exclamdown" unicode="&#xa1;" horiz-adv-x="303" 
d="M88 -184l10 496h107l10 -496h-127zM152 495c19.333 0 36 -6.83398 50 -20.501s21 -30.5 21 -50.5c0 -19.333 -7 -35.666 -21 -48.999s-31.333 -20 -52 -20c-18.667 0 -35 6.83301 -49 20.5s-21 30.167 -21 49.5s7 35.833 21 49.5s31 20.5 51 20.5z" />
    <glyph glyph-name="cent" unicode="&#xa2;" horiz-adv-x="557" 
d="M351 0l-116.999 -0.000976562v104c-52.667 13.333 -95.167 41 -127.5 83s-48.5 90.667 -48.5 146s16 104 48 146s74.667 69.667 128 83v105h117v-104c49.333 -13.333 93.666 -42 132.999 -86l-76 -73c-25.333 26 -44.833 42.833 -58.5 50.5s-31.834 11.5 -54.501 11.5
c-36.667 0 -66.167 -12.167 -88.5 -36.5s-33.5 -56.5 -33.5 -96.5s11.333 -72.167 34 -96.5s52.334 -36.5 89.001 -36.5c22 0 41.5 4.83301 58.5 14.5s35.833 26.834 56.5 51.501l76 -74c-40.667 -46 -86 -75.667 -136 -89v-103z" />
    <glyph glyph-name="sterling" unicode="&#xa3;" horiz-adv-x="565" 
d="M434 389v-107.002h-177c5.33301 -31.333 8 -58.333 8 -81c0 -32.667 -9 -63.334 -27 -92.001h287v-109h-460v100c32.667 25.333 54.167 45.333 64.5 60s15.5 32.334 15.5 53.001c0 14 -2.66699 37 -8 69h-72v107h49c-4 24 -6 47.333 -6 70c0 54 10.667 97.333 32 130
c17.333 28.667 42.333 51.334 75 68.001s68 25 106 25c84.667 0 149 -43 193 -129l-94 -59c-16.667 28.667 -32.5 48.834 -47.5 60.501s-33.167 17.5 -54.5 17.5c-61.333 0 -92 -37.667 -92 -113c0 -16.667 2.66699 -40 8 -70h200z" />
    <glyph glyph-name="currency" unicode="&#xa4;" horiz-adv-x="723" 
d="M82 554l64 62l85 -86c40.667 26.667 84.334 40 131.001 40s90.334 -13.333 131.001 -40l85 86l64 -62l-87 -88c26 -42 39 -86 39 -132c0 -46.667 -13 -91 -39 -133l87 -87l-63 -64l-86 87c-42.667 -26.667 -86.334 -40 -131.001 -40s-88.334 13.333 -131.001 40l-86 -87
l-63 64l86 87c-25.333 42 -38 86.333 -38 133c0 46 13 90 39 132zM364 473c-39.333 0 -70.832 -12.667 -94.499 -38s-35.5 -59 -35.5 -101c0 -41.333 11.833 -75 35.5 -101s54.5 -39 92.5 -39c37.333 0 68 13 92 39s36 59.667 36 101c0 40.667 -11.833 74 -35.5 100
s-53.834 39 -90.501 39z" />
    <glyph glyph-name="yen" unicode="&#xa5;" horiz-adv-x="556" 
d="M491 348h-113l-18 -31h131v-97h-154v-220h-118v220h-154v97h131l-18 31h-113v97h58l-125 222h132l148 -270l148 270h132l-125 -222h58v-97z" />
    <glyph glyph-name="brokenbar" unicode="&#xa6;" horiz-adv-x="522" 
d="M204 210h113v-386h-113v386zM317 728v-380h-113v380h113z" />
    <glyph glyph-name="section" unicode="&#xa7;" horiz-adv-x="568" 
d="M277 407l63.9961 -24.001c57.333 -22 99.333 -48.5 126 -79.5s40 -68.833 40 -113.5s-16 -89 -48 -133c24.667 -31.333 37 -67.333 37 -108c0 -58.667 -20.167 -106.167 -60.5 -142.5s-93.166 -54.5 -158.499 -54.5c-74 0 -134.667 27 -182 81
c-13.333 16 -30.666 42.667 -51.999 80l98 61c10.667 -18.667 19.167 -33 25.5 -43s15.333 -21.167 27 -33.5s24.5 -21.333 38.5 -27s30 -8.5 48 -8.5c28.667 0 51.834 8 69.501 24s26.5 37 26.5 63c0 18.667 -7.5 34.834 -22.5 48.501s-40.5 27.5 -76.5 41.5l-61 23
c-99.333 38.667 -149 99 -149 181c0 50 17.333 93.667 52 131c-27.333 32.667 -41 70 -41 112c0 56 20.5 102.667 61.5 140s92.167 56 153.5 56c62.667 0 114.334 -21.333 155.001 -64c12 -12 28.333 -34.667 49 -68l-98 -61c-4 5.33301 -6.66699 9.66602 -8 12.999l-6 8
c-25.333 41.333 -56.333 62 -93 62c-28 0 -51 -8.16699 -69 -24.5s-27 -37.166 -27 -62.499c0 -32 27 -58 81 -78zM286.996 280.999l-72 26.9971c-19.333 -19.333 -29 -40.666 -29 -63.999c0 -33.333 26.333 -59.666 79 -78.999l63 -24l33 -14
c16 20.667 24 41.334 24 62.001s-7 37.5 -21 50.5s-39.667 26.833 -77 41.5z" />
    <glyph glyph-name="dieresis" unicode="&#xa8;" horiz-adv-x="476" 
d="M148 664c18.667 0 35 -6.99902 49 -20.999s21 -30.333 21 -49c0 -19.333 -7 -35.833 -21 -49.5s-30.667 -20.5 -50 -20.5c-20 0 -37 6.83301 -51 20.5s-21 30.5 -21 50.5c0 19.333 7 35.666 21 48.999s31.333 20 52 20zM332 664.001c18.667 0 35 -6.99902 49 -20.999
s21 -30.333 21 -49c0 -19.333 -7 -35.833 -21 -49.5s-30.667 -20.5 -50 -20.5c-20 0 -37 6.83301 -51 20.5s-21 30.5 -21 50.5c0 19.333 7 35.666 21 48.999s31.333 20 52 20z" />
    <glyph glyph-name="copyright" unicode="&#xa9;" horiz-adv-x="837" 
d="M425 712c101.333 0 188.668 -37.332 262.001 -111.999s110 -163.334 110 -266.001c0 -104.667 -36.833 -194 -110.5 -268s-162.834 -111 -267.501 -111c-105.333 0 -194.833 37 -268.5 111s-110.5 164 -110.5 270c0 104.667 37.333 193.5 112 266.5
s165.667 109.5 273 109.5zM423.002 633.001c-84 0 -155.666 -28.6689 -214.999 -86.002s-89 -127.666 -89 -210.999c0 -84 29.167 -155.333 87.5 -214s129.166 -88 212.499 -88c82.667 0 153.167 29.333 211.5 88s87.5 129.334 87.5 212.001
c0 81.333 -29.167 151.5 -87.5 210.5s-127.5 88.5 -207.5 88.5zM616.003 485.999l6.00098 -6.00195l-67 -65l-31 32c-24.667 21.333 -53.334 32 -86.001 32c-40.667 0 -74.667 -14 -102 -42s-41 -62.667 -41 -104c0 -40.667 13.833 -75 41.5 -103s61.5 -42 101.5 -42
c22 0 40.333 3.83301 55 11.5s34.334 23.5 59.001 47.5l6 5l66 -64c-0.666992 -0.666992 -2.33398 -2.16699 -5.00098 -4.5s-5 -4.66602 -7 -6.99902s-3.66699 -4.16602 -5 -5.49902c-50.667 -48.667 -107 -73 -169 -73c-66 0 -122.167 22.833 -168.5 68.5
s-69.5 101.167 -69.5 166.5s23.167 121 69.5 167s102.5 69 168.5 69c37.333 0 68.833 -6.5 94.5 -19.5s53.5 -34.167 83.5 -63.5z" />
    <glyph glyph-name="ordfeminine" unicode="&#xaa;" horiz-adv-x="349" 
d="M316 672l0.000976562 -266h-81v13c-20.667 -15.333 -43.334 -23 -68.001 -23c-40 0 -74 13.667 -102 41s-42 60.333 -42 99c0 40 14.333 74.333 43 103s62.667 43 102 43c24.667 0 47 -7.66699 67 -23v13h81zM172.001 610c-20.667 0 -37.167 -6.66602 -49.5 -19.999
s-18.5 -31 -18.5 -53c0 -20.667 6 -37.334 18 -50.001s28 -19 48 -19s36 6.5 48 19.5s18 30.167 18 51.5s-6 38.5 -18 51.5s-27.333 19.5 -46 19.5z" />
    <glyph glyph-name="guillemotleft" unicode="&#xab;" horiz-adv-x="484" 
d="M274 375l-121 -153l122 -150l-77 -61l-171 210l171 215zM444 375l-121 -153l121 -150l-77 -61l-170 210l170 215z" />
    <glyph glyph-name="logicalnot" unicode="&#xac;" horiz-adv-x="687" 
d="M630 363v-302h-111v198h-462v104h573z" />
    <glyph glyph-name="uni00AD" unicode="&#xad;" horiz-adv-x="277" 
d="M24 260v104h229v-104h-229z" />
    <glyph glyph-name="registered" unicode="&#xae;" horiz-adv-x="837" 
d="M425 712c101.333 0 188.668 -37.168 262.001 -111.501s110 -163.166 110 -266.499c0 -104.667 -36.833 -194 -110.5 -268s-162.834 -111 -267.501 -111c-105.333 0 -194.833 37 -268.5 111s-110.5 164 -110.5 270c0 104.667 37.333 193.5 112 266.5
s165.667 109.5 273 109.5zM423.002 632.999c-84 0 -155.667 -28.667 -215 -86s-89 -127.666 -89 -210.999c0 -84 29 -155.333 87 -214s128.667 -88 212 -88c75.333 0 141.333 24.667 198 74h-104l-91 165c-6.66699 -0.666992 -14.667 -1 -24 -1h-21v-164h-93v450h114
c56 0 98.333 -12 127 -36c32.667 -27.333 49 -63.333 49 -108c0 -50.667 -21 -89.667 -63 -117l106 -189c68 59.333 102 134.666 102 225.999c0 81.333 -29.167 151.5 -87.5 210.5s-127.5 88.5 -207.5 88.5zM376.002 470.999v-112h27c51.333 0 77 18.333 77 55
c0 20 -6 34.5 -18 43.5s-31.667 13.5 -59 13.5h-27z" />
    <glyph glyph-name="macron" unicode="&#xaf;" horiz-adv-x="476" 
d="M82 540v102h312v-102h-312z" />
    <glyph glyph-name="degree" unicode="&#xb0;" horiz-adv-x="332" 
d="M201 743c38.667 0 71.833 -14 99.5 -42s41.5 -61.667 41.5 -101s-13.833 -73 -41.5 -101s-61.167 -42 -100.5 -42s-73 14 -101 42s-42 61.667 -42 101c0 40 14 73.833 42 101.5s62 41.5 102 41.5zM199.999 658c-16 0 -29.667 -5.66699 -41 -17s-17 -25 -17 -41
s5.66699 -29.667 17 -41s25 -17 41 -17c15.333 0 28.666 5.66699 39.999 17s17 25 17 41s-5.66699 29.667 -17 41s-24.666 17 -39.999 17z" />
    <glyph glyph-name="plusminus" unicode="&#xb1;" horiz-adv-x="556" 
d="M27 102h502v-102h-502v102zM27 431h199v200h105v-200h198v-102h-198v-200h-105v200h-199v102z" />
    <glyph glyph-name="twosuperior" unicode="&#xb2;" 
d="M334 406l-273.999 0.00292969v62l145 153c25.333 27.333 38 51.666 38 72.999c0 12 -4.33301 21.5 -13 28.5s-20.667 10.5 -36 10.5c-18.667 0 -31.834 -3.83301 -39.501 -11.5s-15.167 -24.5 -22.5 -50.5l-77 20c16.667 78.667 63.667 118 141 118
c38 0 69 -10.833 93 -32.5s36 -49.834 36 -84.501c0 -38.667 -14.333 -73.334 -43 -104.001l-102 -107h154v-75z" />
    <glyph glyph-name="threesuperior" unicode="&#xb3;" 
d="M150 575l0.00292969 74.001h37c35.333 0 53 14 53 42c0 13.333 -4.5 24 -13.5 32s-21.167 12 -36.5 12c-13.333 0 -23.833 -2.83301 -31.5 -8.5s-17.834 -18.167 -30.501 -37.5l-70 37c19.333 29.333 38.166 50.666 56.499 63.999s43.5 20 75.5 20
c38 0 69.5 -11 94.5 -33s37.5 -50 37.5 -84c0 -29.333 -11 -55 -33 -77c28 -24 42 -54 42 -90c0 -37.333 -13.5 -68.166 -40.5 -92.499s-61.167 -36.5 -102.5 -36.5c-26.667 0 -50.834 5.66699 -72.501 17s-38.167 27.333 -49.5 48c-6.66699 12 -13 31 -19 57l81 20
c6.66699 -26.667 14 -44.334 22 -53.001s21 -13 39 -13c17.333 0 31.5 4.83301 42.5 14.5s16.5 22.5 16.5 38.5c0 32.667 -20.333 49 -61 49h-37z" />
    <glyph glyph-name="acute" unicode="&#xb4;" horiz-adv-x="476" 
d="M288 703l107 -58l-154 -154l-76 44z" />
    <glyph glyph-name="mu" unicode="&#xb5;" horiz-adv-x="509" 
d="M53 -233v675.998h114v-233c0 -44 6.16699 -75.333 18.5 -94s33.166 -28 62.499 -28c20.667 0 37.5 3.5 50.5 10.5s22.5 17.333 28.5 31s10 27.334 12 41.001s3 30.834 3 51.501v221h114v-443h-114v23c-30 -25.333 -60 -38 -90 -38c-29.333 0 -57.666 12.667 -84.999 38
v-256h-114z" />
    <glyph glyph-name="paragraph" unicode="&#xb6;" horiz-adv-x="645" 
d="M381 -233h-102v434c-44 4 -79.333 13.667 -106 29c-36 21.333 -64.333 50 -85 86s-31 75.333 -31 118c0 65.333 22.167 120.5 66.5 165.5s98.833 67.5 163.5 67.5h318v-98h-63v-802h-102v802h-59v-802z" />
    <glyph glyph-name="periodcentered" unicode="&#xb7;" horiz-adv-x="248" 
d="M125 379c19.333 0 35.666 -6.5 48.999 -19.5s20 -28.833 20 -47.5s-6.66699 -34.667 -20 -48s-29.666 -20 -48.999 -20s-35.833 6.66699 -49.5 20s-20.5 29.333 -20.5 48s6.83301 34.5 20.5 47.5s30.167 19.5 49.5 19.5z" />
    <glyph glyph-name="cedilla" unicode="&#xb8;" horiz-adv-x="476" 
d="M244 -22l105 -45l-127 -161l-82 42z" />
    <glyph glyph-name="onesuperior" unicode="&#xb9;" 
d="M250 801v-395h-83v297l-47 -25l-40 66l105 57h65z" />
    <glyph glyph-name="ordmasculine" unicode="&#xba;" horiz-adv-x="343" 
d="M173 682c40.667 0 75.166 -13.834 103.499 -41.501s42.5 -61.167 42.5 -100.5c0 -40 -14.333 -73.833 -43 -101.5s-63.667 -41.5 -105 -41.5c-42 0 -77.167 13.833 -105.5 41.5s-42.5 61.834 -42.5 102.501c0 40 14.333 73.5 43 100.5s64.334 40.5 107.001 40.5z
M171.999 608.999c-20.667 0 -37.168 -6.33203 -49.501 -18.999s-18.5 -29.334 -18.5 -50.001s6.16699 -37.5 18.5 -50.5s28.5 -19.5 48.5 -19.5s36.167 6.5 48.5 19.5s18.5 29.833 18.5 50.5c0 20 -6.16699 36.5 -18.5 49.5s-28.166 19.5 -47.499 19.5z" />
    <glyph glyph-name="guillemotright" unicode="&#xbb;" horiz-adv-x="484" 
d="M41 72l121 150l-121 153l77 61l171 -215l-171 -210zM211 72l121 150l-121 153l76 61l171 -215l-171 -210z" />
    <glyph glyph-name="onequarter" unicode="&#xbc;" horiz-adv-x="833" 
d="M613 409l69 -41l-142 -214h68v86h83v-86h46v-74h-46v-80h-83v80h-168v65zM220 667v-395h-83v297l-47 -25l-40 66l105 57h65zM154 22l381 660l65 -37l-382 -660z" />
    <glyph glyph-name="onehalf" unicode="&#xbd;" horiz-adv-x="833" 
d="M219 667v-395h-83v297l-47 -25l-40 66l105 57h65zM153 22l381 660l65 -37l-382 -660zM764 0l-273.001 0.00195312v62l144 153c25.333 27.333 38 51.666 38 72.999c0 12 -4.33301 21.5 -13 28.5s-20.667 10.5 -36 10.5c-18.667 0 -31.667 -3.66699 -39 -11
s-15 -24.333 -23 -51l-77 20c4.66699 20 10.334 37 17.001 51c24 44.667 65.333 67 124 67c38 0 69 -10.833 93 -32.5s36 -49.834 36 -84.501c0 -38 -14.667 -72.667 -44 -104l-101 -107h154v-75z" />
    <glyph glyph-name="threequarters" unicode="&#xbe;" horiz-adv-x="833" 
d="M145 441l0.000976562 74.001h37c35.333 0 53 14 53 42c0 12.667 -4.5 23 -13.5 31s-21.167 12 -36.5 12c-13.333 0 -24 -2.83301 -32 -8.5s-18 -17.5 -30 -35.5l-70 36c18 29.333 36.5 50.666 55.5 63.999s44.5 20 76.5 20c38 0 69.5 -11 94.5 -33s37.5 -50 37.5 -84
c0 -29.333 -11 -55 -33 -77c28 -24 42 -54 42 -90c0 -37.333 -13.5 -68.166 -40.5 -92.499s-61.167 -36.5 -102.5 -36.5c-26.667 0 -50.834 5.66699 -72.501 17s-38.167 27.333 -49.5 48c-6.66699 12 -13 31 -19 57l81 20c6.66699 -26.667 14 -44.334 22 -53.001
s21 -13 39 -13c17.333 0 31.5 4.83301 42.5 14.5s16.5 22.5 16.5 38.5c0 32.667 -20.333 49 -61 49h-37zM214.001 22.001l382 660l64 -37l-381 -660zM651.001 409.001l69 -41l-142 -214h68v86h83v-86h47v-74h-47v-80h-83v80h-168v65z" />
    <glyph glyph-name="questiondown" unicode="&#xbf;" horiz-adv-x="435" 
d="M180 312l116.999 0.00488281v-66c0 -32.667 -4.16699 -57.834 -12.5 -75.501s-25.166 -36.834 -50.499 -57.501l-41 -34c-35.333 -30 -53 -60.667 -53 -92c0 -22.667 7.66699 -40.834 23 -54.501s35.666 -20.5 60.999 -20.5c26 0 47 5.66699 63 17
s34.333 33.666 55 66.999l87 -70c-43.333 -83.333 -109.666 -125 -198.999 -125c-62.667 0 -112.834 17.167 -150.501 51.5s-56.5 80.166 -56.5 137.499c0 30.667 6.5 58.5 19.5 83.5s34.833 51.833 65.5 80.5l47 43c6.66699 6 12.334 11.333 17.001 16
c5.33301 5.33301 8 19 8 41v58zM237.999 495.005c20 0 37 -6.83398 51 -20.501s21 -30.5 21 -50.5c0 -19.333 -7 -35.666 -21 -48.999s-31.333 -20 -52 -20c-19.333 0 -35.833 6.83301 -49.5 20.5s-20.5 30.167 -20.5 49.5s7 35.833 21 49.5s30.667 20.5 50 20.5z" />
    <glyph glyph-name="Agrave" unicode="&#xc0;" horiz-adv-x="636" 
d="M515 0l-60 164h-274l-60 -164h-124l249 667h145l249 -667h-125zM221 274h194l-97 268zM314 691l-154 154l108 58l122 -168z" />
    <glyph glyph-name="Aacute" unicode="&#xc1;" horiz-adv-x="636" 
d="M515 0l-60 164h-274l-60 -164h-124l249 667h145l249 -667h-125zM221 274h194l-97 268zM366 903l108 -58l-154 -154l-76 44z" />
    <glyph glyph-name="Acircumflex" unicode="&#xc2;" horiz-adv-x="636" 
d="M515 0l-60 164h-274l-60 -164h-124l249 667h145l249 -667h-125zM221 274h194l-97 268zM407 692l-89 88l-88 -88l-87 43l139 151h73l138 -151z" />
    <glyph glyph-name="Atilde" unicode="&#xc3;" horiz-adv-x="636" 
d="M515 0l-60 164h-274l-60 -164h-124l249 667h145l249 -667h-125zM221 274h194l-97 268zM380 865l95.001 -23c-2 -25.333 -5.33301 -45 -10 -59c-15.333 -40 -45 -60 -89 -60c-20 0 -45.333 7 -76 21c-18 8 -28.667 12 -32 12c-2.66699 0 -5 -1.33301 -7 -4l-6 -35l-94 22
c3.33301 30 8.33301 51 15 63c17.333 37.333 46 56 86 56c17.333 0 43 -7.33301 77 -22c15.333 -7.33301 25.666 -11 30.999 -11c3.33301 0 5.5 1.66699 6.5 5s2.16699 15 3.5 35z" />
    <glyph glyph-name="Adieresis" unicode="&#xc4;" horiz-adv-x="636" 
d="M515 0l-60 164h-274l-60 -164h-124l249 667h145l249 -667h-125zM221 274h194l-97 268zM228 860c18.667 0 35 -6.99902 49 -20.999s21 -30.333 21 -49c0 -19.333 -7 -35.833 -21 -49.5s-30.667 -20.5 -50 -20.5c-20 0 -37 6.83301 -51 20.5s-21 30.5 -21 50.5
c0 19.333 7 35.666 21 48.999s31.333 20 52 20zM412 860.001c18.667 0 35 -6.99902 49 -20.999s21 -30.333 21 -49c0 -19.333 -7 -35.833 -21 -49.5s-30.667 -20.5 -50 -20.5c-20 0 -37 6.83301 -51 20.5s-21 30.5 -21 50.5c0 19.333 7 35.666 21 48.999s31.333 20 52 20z
" />
    <glyph glyph-name="Aring" unicode="&#xc5;" horiz-adv-x="636" 
d="M515 0l-60 164h-274l-60 -164h-124l249 667h145l249 -667h-125zM221 274h194l-97 268zM318 898c30 0 55.667 -10.5 77 -31.5s32 -46.167 32 -75.5s-10.667 -54.5 -32 -75.5s-47 -31.5 -77 -31.5c-30.667 0 -56.5 10.5 -77.5 31.5s-31.5 46.5 -31.5 76.5
c0 28.667 10.833 53.5 32.5 74.5s47.167 31.5 76.5 31.5zM318 843c-14 0 -26.167 -5 -36.5 -15s-15.5 -22 -15.5 -36c0 -14.667 5 -27.167 15 -37.5s22.333 -15.5 37 -15.5s27 5 37 15s15 22.333 15 37s-5 27 -15 37s-22.333 15 -37 15z" />
    <glyph glyph-name="AE" unicode="&#xc6;" horiz-adv-x="839" 
d="M426 0v164h-213l-84 -164h-132l349 667h452v-109h-254v-165h226v-110h-226v-173h263v-110h-381zM270 274h156v284h-10z" />
    <glyph glyph-name="Ccedilla" unicode="&#xc7;" horiz-adv-x="674" 
d="M648 558l-84.001 -81.0029c-30 32.667 -57.833 56.334 -83.5 71.001s-57.834 22 -96.501 22c-66 0 -121.167 -22.667 -165.5 -68s-66.5 -101.666 -66.5 -168.999c0 -66 22.333 -121.833 67 -167.5s99.334 -68.5 164.001 -68.5c38.667 0 70.834 7.5 96.501 22.5
s54.834 38.833 87.501 71.5l84 -80c-44.667 -46 -87.334 -78.5 -128.001 -97.5s-87 -28.5 -139 -28.5c-97.333 0 -180.333 33.833 -249 101.5s-103 149.834 -103 246.501s34.333 179 103 247s152 102 250 102c50 0 95.833 -9.83301 137.5 -29.5s83.5 -51.167 125.5 -94.5z
M344.999 -22.0029l104 -45l-126 -161l-82 42z" />
    <glyph glyph-name="Egrave" unicode="&#xc8;" horiz-adv-x="483" 
d="M442 667v-109h-254v-165h226v-110h-226v-173h263v-110h-381v667h372zM265 691l-154 154l108 58l122 -168z" />
    <glyph glyph-name="Eacute" unicode="&#xc9;" horiz-adv-x="483" 
d="M442 667v-109h-254v-165h226v-110h-226v-173h263v-110h-381v667h372zM304 903l108 -58l-154 -154l-77 44z" />
    <glyph glyph-name="Ecircumflex" unicode="&#xca;" horiz-adv-x="483" 
d="M442 667v-109h-254v-165h226v-110h-226v-173h263v-110h-381v667h372zM350 692l-89 88l-88 -88l-87 43l139 151h73l138 -151z" />
    <glyph glyph-name="Edieresis" unicode="&#xcb;" horiz-adv-x="483" 
d="M442 667v-109h-254v-165h226v-110h-226v-173h263v-110h-381v667h372zM170 860c18.667 0 35 -6.99902 49 -20.999s21 -30.333 21 -49c0 -19.333 -7 -35.833 -21 -49.5s-30.667 -20.5 -50 -20.5c-20 0 -37 6.83301 -51 20.5s-21 30.5 -21 50.5c0 19.333 7 35.666 21 48.999
s31.333 20 52 20zM354 860.001c18.667 0 35 -6.99902 49 -20.999s21 -30.333 21 -49c0 -19.333 -7 -35.833 -21 -49.5s-30.667 -20.5 -50 -20.5c-20 0 -37 6.83301 -51 20.5s-21 30.5 -21 50.5c0 19.333 7 35.666 21 48.999s31.333 20 52 20z" />
    <glyph glyph-name="Igrave" unicode="&#xcc;" horiz-adv-x="258" 
d="M70 667h118v-667h-118v667zM123 691l-154 154l108 58l122 -168z" />
    <glyph glyph-name="Iacute" unicode="&#xcd;" horiz-adv-x="258" 
d="M70 667h118v-667h-118v667zM181 903l107 -58l-154 -154l-76 44z" />
    <glyph glyph-name="Icircumflex" unicode="&#xce;" horiz-adv-x="258" 
d="M70 667h118v-667h-118v667zM217 692l-88 88l-89 -88l-86 43l138 151h74l138 -151z" />
    <glyph glyph-name="Idieresis" unicode="&#xcf;" horiz-adv-x="258" 
d="M70 667h118v-667h-118v667zM56 860c18.667 0 35 -6.99902 49 -20.999s21 -30.333 21 -49c0 -19.333 -7 -35.833 -21 -49.5s-30.667 -20.5 -50 -20.5c-20 0 -37 6.83301 -51 20.5s-21 30.5 -21 50.5c0 19.333 7 35.666 21 48.999s31.333 20 52 20zM207 860.001
c19.333 0 35.833 -6.99902 49.5 -20.999s20.5 -30.333 20.5 -49c0 -19.333 -7 -35.833 -21 -49.5s-30.667 -20.5 -50 -20.5c-20 0 -37 6.83301 -51 20.5s-21 30.5 -21 50.5c0 19.333 7 35.666 21 48.999s31.333 20 52 20z" />
    <glyph glyph-name="Eth" unicode="&#xd0;" horiz-adv-x="630" 
d="M18 412l63 -0.000976562v255h153c110.667 0 199 -30.167 265 -90.5s99 -141.166 99 -242.499c0 -102 -32.833 -183.167 -98.5 -243.5s-154.167 -90.5 -265.5 -90.5h-153v307h-63v105zM199 556.999v-145h143v-105h-143v-197h38c75.333 0 134.5 20 177.5 60
s64.5 94.667 64.5 164c0 68.667 -21.667 123 -65 163s-102.333 60 -177 60h-38z" />
    <glyph glyph-name="Ntilde" unicode="&#xd1;" horiz-adv-x="707" 
d="M188 0h-118v667h102l347 -464v464h118v-667h-102l-347 464v-464zM415 865l95.999 -23c-2.66699 -28 -6.33398 -47.667 -11.001 -59c-15.333 -40 -44.666 -60 -87.999 -60c-20.667 0 -46 7 -76 21c-18.667 8 -29.667 12 -33 12s-5.33301 -1.33301 -6 -4
c-0.666992 0 -3 -11.667 -7 -35l-93 22c2.66699 28 7.33398 49 14.001 63c17.333 37.333 46 56 86 56c17.333 0 43.333 -7.33301 78 -22c15.333 -7.33301 25.333 -11 30 -11c3.33301 0 5.5 1.66699 6.5 5s2.16699 15 3.5 35z" />
    <glyph glyph-name="Ograve" unicode="&#xd2;" horiz-adv-x="762" 
d="M381 682c95.333 0 177.333 -34.166 246 -102.499s103 -150.5 103 -246.5s-34.333 -178 -103 -246s-151.667 -102 -249 -102c-95.333 0 -176.833 34.667 -244.5 104s-101.5 152.666 -101.5 249.999c0 92.667 34.667 173 104 241s151 102 245 102zM381 570.001
c-62.667 0 -116.5 -22.832 -161.5 -68.499s-67.5 -100.5 -67.5 -164.5c0 -66.667 22.167 -123.334 66.5 -170.001s97.833 -70 160.5 -70c64 0 118.5 23 163.5 69s67.5 101.667 67.5 167c0 66 -22.333 122 -67 168s-98.667 69 -162 69zM378 691.002l-154 154l107 58l123 -168
z" />
    <glyph glyph-name="Oacute" unicode="&#xd3;" horiz-adv-x="762" 
d="M381 682c95.333 0 177.333 -34.166 246 -102.499s103 -150.5 103 -246.5s-34.333 -178 -103 -246s-151.667 -102 -249 -102c-95.333 0 -176.833 34.667 -244.5 104s-101.5 152.666 -101.5 249.999c0 92.667 34.667 173 104 241s151 102 245 102zM381 570.001
c-62.667 0 -116.5 -22.832 -161.5 -68.499s-67.5 -100.5 -67.5 -164.5c0 -66.667 22.167 -123.334 66.5 -170.001s97.833 -70 160.5 -70c64 0 118.5 23 163.5 69s67.5 101.667 67.5 167c0 66 -22.333 122 -67 168s-98.667 69 -162 69zM430 903.002l108 -58l-154 -154l-76 44
z" />
    <glyph glyph-name="Ocircumflex" unicode="&#xd4;" horiz-adv-x="762" 
d="M381 682c95.333 0 177.333 -34.166 246 -102.499s103 -150.5 103 -246.5s-34.333 -178 -103 -246s-151.667 -102 -249 -102c-95.333 0 -176.833 34.667 -244.5 104s-101.5 152.666 -101.5 249.999c0 92.667 34.667 173 104 241s151 102 245 102zM381 570.001
c-62.667 0 -116.5 -22.832 -161.5 -68.499s-67.5 -100.5 -67.5 -164.5c0 -66.667 22.167 -123.334 66.5 -170.001s97.833 -70 160.5 -70c64 0 118.5 23 163.5 69s67.5 101.667 67.5 167c0 66 -22.333 122 -67 168s-98.667 69 -162 69zM469 692.002l-88 88l-89 -88l-86 43
l138 151h74l138 -151z" />
    <glyph glyph-name="Otilde" unicode="&#xd5;" horiz-adv-x="762" 
d="M381 682c95.333 0 177.333 -34.166 246 -102.499s103 -150.5 103 -246.5s-34.333 -178 -103 -246s-151.667 -102 -249 -102c-95.333 0 -176.833 34.667 -244.5 104s-101.5 152.666 -101.5 249.999c0 92.667 34.667 173 104 241s151 102 245 102zM381 570.001
c-62.667 0 -116.5 -22.832 -161.5 -68.499s-67.5 -100.5 -67.5 -164.5c0 -66.667 22.167 -123.334 66.5 -170.001s97.833 -70 160.5 -70c64 0 118.5 23 163.5 69s67.5 101.667 67.5 167c0 66 -22.333 122 -67 168s-98.667 69 -162 69zM442 865.002l96.002 -22.999
c-2 -25.333 -5.33301 -45 -10 -59c-7.33301 -18.667 -18.833 -33.334 -34.5 -44.001s-33.834 -16 -54.501 -16c-20 0 -45.333 7 -76 21c-18.667 8 -29.334 12 -32.001 12c-4 0 -6.33301 -1.33301 -7 -4c-2 -8 -4.33301 -19.667 -7 -35l-93 22c3.33301 30 8 51 14 63
c18.667 37.333 47.334 56 86.001 56c17.333 0 43.333 -7.33301 78 -22c15.333 -7.33301 25.666 -11 30.999 -11c3.33301 0 5.33301 1.66699 6 5s1.66699 15 3 35z" />
    <glyph glyph-name="Odieresis" unicode="&#xd6;" horiz-adv-x="762" 
d="M381 682c95.333 0 177.333 -34.166 246 -102.499s103 -150.5 103 -246.5s-34.333 -178 -103 -246s-151.667 -102 -249 -102c-95.333 0 -176.833 34.667 -244.5 104s-101.5 152.666 -101.5 249.999c0 92.667 34.667 173 104 241s151 102 245 102zM381 570.001
c-62.667 0 -116.5 -22.832 -161.5 -68.499s-67.5 -100.5 -67.5 -164.5c0 -66.667 22.167 -123.334 66.5 -170.001s97.833 -70 160.5 -70c64 0 118.5 23 163.5 69s67.5 101.667 67.5 167c0 66 -22.333 122 -67 168s-98.667 69 -162 69zM291 860.002
c19.333 0 35.833 -6.99902 49.5 -20.999s20.5 -30.333 20.5 -49c0 -19.333 -7 -35.833 -21 -49.5s-30.667 -20.5 -50 -20.5c-20 0 -37 6.83301 -51 20.5s-21 30.5 -21 50.5c0 19.333 7 35.666 21 48.999s31.333 20 52 20zM475 860.003
c19.333 0 35.833 -6.99902 49.5 -20.999s20.5 -30.333 20.5 -49c0 -19.333 -7 -35.833 -21 -49.5s-30.667 -20.5 -50 -20.5c-20 0 -37 6.83301 -51 20.5s-21 30.5 -21 50.5c0 19.333 7 35.666 21 48.999s31.333 20 52 20z" />
    <glyph glyph-name="multiply" unicode="&#xd7;" horiz-adv-x="556" 
d="M64 171l141 141l-141 141l73 73l141 -141l141 141l73 -73l-141 -141l141 -141l-73 -73l-141 141l-141 -141z" />
    <glyph glyph-name="Oslash" unicode="&#xd8;" horiz-adv-x="769" 
d="M598 608l63 61.9971l64 -63l-63 -63c48 -65.333 72 -135.666 72 -210.999c0 -95.333 -34.333 -177.166 -103 -245.499s-150.334 -102.5 -245.001 -102.5c-78.667 0 -150 24.667 -214 74l-63 -62l-65 63l64 63c-48 64 -72 134.333 -72 211
c0 94.667 34.333 176.334 103 245.001s150.334 103 245.001 103c78.667 0 150 -24.667 214 -74zM192 205.997l323.999 320.999c-39.333 28.667 -83.333 43 -132 43c-63.333 0 -117.166 -23.167 -161.499 -69.5s-66.5 -102.166 -66.5 -167.499c0 -44.667 12 -87 36 -127z
M577.999 460.996l-324.001 -320c40.667 -29.333 84.667 -44 132 -44c62.667 0 116.334 23.167 161.001 69.5s67 101.833 67 166.5c0 45.333 -12 88 -36 128z" />
    <glyph glyph-name="Ugrave" unicode="&#xd9;" horiz-adv-x="639" 
d="M70 667h118.001v-410c0 -52 6 -87 18 -105c10 -16 25.667 -29.167 47 -39.5s43.333 -15.5 66 -15.5c23.333 0 45.666 5.16699 66.999 15.5s37 23.5 47 39.5c12 18 18 53 18 105v410h118v-429c0 -68 -15.333 -121 -46 -159c-22.667 -29.333 -52.167 -52.333 -88.5 -69
s-74.5 -25 -114.5 -25c-40.667 0 -79.167 8.33301 -115.5 25s-65.833 39.667 -88.5 69c-30.667 38 -46 91 -46 159v429zM323.001 691l-154 154l108 58l123 -168z" />
    <glyph glyph-name="Uacute" unicode="&#xda;" horiz-adv-x="639" 
d="M70 667h118.001v-410c0 -52 6 -87 18 -105c10 -16 25.667 -29.167 47 -39.5s43.333 -15.5 66 -15.5c23.333 0 45.666 5.16699 66.999 15.5s37 23.5 47 39.5c12 18 18 53 18 105v410h118v-429c0 -68 -15.333 -121 -46 -159c-22.667 -29.333 -52.167 -52.333 -88.5 -69
s-74.5 -25 -114.5 -25c-40.667 0 -79.167 8.33301 -115.5 25s-65.833 39.667 -88.5 69c-30.667 38 -46 91 -46 159v429zM362.001 903l108 -58l-154 -154l-76 44z" />
    <glyph glyph-name="Ucircumflex" unicode="&#xdb;" horiz-adv-x="639" 
d="M70 667h118.001v-410c0 -52 6 -87 18 -105c10 -16 25.667 -29.167 47 -39.5s43.333 -15.5 66 -15.5c23.333 0 45.666 5.16699 66.999 15.5s37 23.5 47 39.5c12 18 18 53 18 105v410h118v-429c0 -68 -15.333 -121 -46 -159c-22.667 -29.333 -52.167 -52.333 -88.5 -69
s-74.5 -25 -114.5 -25c-40.667 0 -79.167 8.33301 -115.5 25s-65.833 39.667 -88.5 69c-30.667 38 -46 91 -46 159v429zM408.001 692l-88 88l-89 -88l-86 43l138 151h74l138 -151z" />
    <glyph glyph-name="Udieresis" unicode="&#xdc;" horiz-adv-x="639" 
d="M70 667h118.001v-410c0 -52 6 -87 18 -105c10 -16 25.667 -29.167 47 -39.5s43.333 -15.5 66 -15.5c23.333 0 45.666 5.16699 66.999 15.5s37 23.5 47 39.5c12 18 18 53 18 105v410h118v-429c0 -68 -15.333 -121 -46 -159c-22.667 -29.333 -52.167 -52.333 -88.5 -69
s-74.5 -25 -114.5 -25c-40.667 0 -79.167 8.33301 -115.5 25s-65.833 39.667 -88.5 69c-30.667 38 -46 91 -46 159v429zM229.001 860c19.333 0 35.833 -6.99902 49.5 -20.999s20.5 -30.333 20.5 -49c0 -19.333 -7 -35.833 -21 -49.5s-30.667 -20.5 -50 -20.5
c-20 0 -37 6.83301 -51 20.5s-21 30.5 -21 50.5c0 19.333 7 35.666 21 48.999s31.333 20 52 20zM413.001 860.001c19.333 0 35.833 -6.99902 49.5 -20.999s20.5 -30.333 20.5 -49c0 -19.333 -7 -35.833 -21 -49.5s-30.667 -20.5 -50 -20.5c-20 0 -37 6.83301 -51 20.5
s-21 30.5 -21 50.5c0 19.333 7 35.666 21 48.999s31.333 20 52 20z" />
    <glyph glyph-name="Yacute" unicode="&#xdd;" horiz-adv-x="540" 
d="M211 0v276l-221 391h132l148 -270l148 270h132l-221 -391v-276h-118zM312 903l108 -58l-154 -154l-76 44z" />
    <glyph glyph-name="Thorn" unicode="&#xde;" horiz-adv-x="474" 
d="M188 667v-91h35c78 0 136.333 -17.333 175 -52c44 -40 66 -91.667 66 -155c0 -64 -22 -116 -66 -156c-38.667 -34.667 -97 -52 -175 -52h-35v-161h-118v667h118zM231 468h-43.001v-200h43c78 0 117 33.667 117 101c0 36 -10.167 61.5 -30.5 76.5
s-49.166 22.5 -86.499 22.5z" />
    <glyph glyph-name="germandbls" unicode="&#xdf;" horiz-adv-x="525" 
d="M167 0l-113.999 -0.000976562v490c0 55.333 18 101.166 54 137.499s81.667 54.5 137 54.5c58 0 105.333 -17.667 142 -53s55 -81 55 -137c0 -45.333 -15 -85.333 -45 -120c62.667 -39.333 94 -95.666 94 -168.999c0 -60 -21.167 -108.833 -63.5 -146.5
s-97.5 -56.5 -165.5 -56.5h-61v107h64c33.333 0 60.166 9.16699 80.499 27.5s30.5 42.5 30.5 72.5c0 32.667 -10.5 56.834 -31.5 72.501s-48.167 23.5 -81.5 23.5h-20v104h20c44.667 0 67 27 67 81c0 28.667 -7.16699 51.167 -21.5 67.5s-33.833 24.5 -58.5 24.5
c-25.333 0 -45.333 -8 -60 -24s-22 -38 -22 -66v-490z" />
    <glyph glyph-name="agrave" unicode="&#xe0;" horiz-adv-x="544" 
d="M491 443v-443h-114v28c-38 -28.667 -77.667 -43 -119 -43c-64.667 0 -119.667 23 -165 69s-68 102 -68 168c0 65.333 22.667 121 68 167s100.333 69 165 69c41.333 0 81 -14.333 119 -43v28h114zM263 355c-36.667 0 -66.332 -12.167 -88.999 -36.5s-34 -56.5 -34 -96.5
c0 -39.333 11.167 -71.5 33.5 -96.5s51.166 -37.5 86.499 -37.5s64 12.5 86 37.5s33 57.167 33 96.5c0 38.667 -10.833 70.5 -32.5 95.5s-49.5 37.5 -83.5 37.5zM255.002 491l-154 154l107 58l123 -168z" />
    <glyph glyph-name="aacute" unicode="&#xe1;" horiz-adv-x="544" 
d="M491 443v-443h-114v28c-38 -28.667 -77.667 -43 -119 -43c-64.667 0 -119.667 23 -165 69s-68 102 -68 168c0 65.333 22.667 121 68 167s100.333 69 165 69c41.333 0 81 -14.333 119 -43v28h114zM263 355c-36.667 0 -66.332 -12.167 -88.999 -36.5s-34 -56.5 -34 -96.5
c0 -39.333 11.167 -71.5 33.5 -96.5s51.166 -37.5 86.499 -37.5s64 12.5 86 37.5s33 57.167 33 96.5c0 38.667 -10.833 70.5 -32.5 95.5s-49.5 37.5 -83.5 37.5zM314.002 703l107 -58l-153 -154l-77 44z" />
    <glyph glyph-name="acircumflex" unicode="&#xe2;" horiz-adv-x="544" 
d="M491 443v-443h-114v28c-38 -28.667 -77.667 -43 -119 -43c-64.667 0 -119.667 23 -165 69s-68 102 -68 168c0 65.333 22.667 121 68 167s100.333 69 165 69c41.333 0 81 -14.333 119 -43v28h114zM263 355c-36.667 0 -66.332 -12.167 -88.999 -36.5s-34 -56.5 -34 -96.5
c0 -39.333 11.167 -71.5 33.5 -96.5s51.166 -37.5 86.499 -37.5s64 12.5 86 37.5s33 57.167 33 96.5c0 38.667 -10.833 70.5 -32.5 95.5s-49.5 37.5 -83.5 37.5zM346.002 492l-88 88l-89 -88l-86 43l138 151h74l138 -151z" />
    <glyph glyph-name="atilde" unicode="&#xe3;" horiz-adv-x="544" 
d="M491 443v-443h-114v28c-38 -28.667 -77.667 -43 -119 -43c-64.667 0 -119.667 23 -165 69s-68 102 -68 168c0 65.333 22.667 121 68 167s100.333 69 165 69c41.333 0 81 -14.333 119 -43v28h114zM263 355c-36.667 0 -66.332 -12.167 -88.999 -36.5s-34 -56.5 -34 -96.5
c0 -39.333 11.167 -71.5 33.5 -96.5s51.166 -37.5 86.499 -37.5s64 12.5 86 37.5s33 57.167 33 96.5c0 38.667 -10.833 70.5 -32.5 95.5s-49.5 37.5 -83.5 37.5zM319.002 665l95.998 -21.999c-2 -26.667 -5.66699 -46.334 -11 -59.001
c-7.33301 -19.333 -18.666 -34.333 -33.999 -45s-33.333 -16 -54 -16c-20 0 -45.333 7 -76 21c-18 8.66699 -28.667 13 -32 13c-4 0 -6.33301 -1.33301 -7 -4c-0.666992 0 -3 -12 -7 -36l-93 22c2.66699 28.667 7.33398 50 14.001 64c17.333 37.333 46 56 86 56
c17.333 0 43.333 -7.66699 78 -23c15.333 -7.33301 25.333 -11 30 -11c3.33301 0 5.5 1.66699 6.5 5s2.16699 15 3.5 35z" />
    <glyph glyph-name="adieresis" unicode="&#xe4;" horiz-adv-x="544" 
d="M491 443v-443h-114v28c-38 -28.667 -77.667 -43 -119 -43c-64.667 0 -119.667 23 -165 69s-68 102 -68 168c0 65.333 22.667 121 68 167s100.333 69 165 69c41.333 0 81 -14.333 119 -43v28h114zM263 355c-36.667 0 -66.332 -12.167 -88.999 -36.5s-34 -56.5 -34 -96.5
c0 -39.333 11.167 -71.5 33.5 -96.5s51.166 -37.5 86.499 -37.5s64 12.5 86 37.5s33 57.167 33 96.5c0 38.667 -10.833 70.5 -32.5 95.5s-49.5 37.5 -83.5 37.5zM176.002 664c18.667 0 35 -6.99902 49 -20.999s21 -30.333 21 -49c0 -19.333 -7 -35.833 -21 -49.5
s-30.667 -20.5 -50 -20.5c-20 0 -37 6.83301 -51 20.5s-21 30.5 -21 50.5c0 19.333 7 35.666 21 48.999s31.333 20 52 20zM360.002 664.001c18.667 0 35 -6.99902 49 -20.999s21 -30.333 21 -49c0 -19.333 -7 -35.833 -21 -49.5s-30.667 -20.5 -50 -20.5
c-20 0 -37 6.83301 -51 20.5s-21 30.5 -21 50.5c0 19.333 7 35.666 21 48.999s31.333 20 52 20z" />
    <glyph glyph-name="aring" unicode="&#xe5;" horiz-adv-x="544" 
d="M491 443v-443h-114v28c-38 -28.667 -77.667 -43 -119 -43c-64.667 0 -119.667 23 -165 69s-68 102 -68 168c0 65.333 22.667 121 68 167s100.333 69 165 69c41.333 0 81 -14.333 119 -43v28h114zM263 355c-36.667 0 -66.332 -12.167 -88.999 -36.5s-34 -56.5 -34 -96.5
c0 -39.333 11.167 -71.5 33.5 -96.5s51.166 -37.5 86.499 -37.5s64 12.5 86 37.5s33 57.167 33 96.5c0 38.667 -10.833 70.5 -32.5 95.5s-49.5 37.5 -83.5 37.5zM270.002 698c30 0 55.667 -10.5 77 -31.5s32 -46.167 32 -75.5s-10.667 -54.5 -32 -75.5s-47 -31.5 -77 -31.5
c-30.667 0 -56.5 10.5 -77.5 31.5s-31.5 46.5 -31.5 76.5c0 28.667 10.833 53.5 32.5 74.5s47.167 31.5 76.5 31.5zM270.002 643c-14 0 -26.167 -5 -36.5 -15s-15.5 -22 -15.5 -36c0 -14.667 5 -27.167 15 -37.5s22.333 -15.5 37 -15.5s27 5 37 15s15 22.333 15 37
s-5 27 -15 37s-22.333 15 -37 15z" />
    <glyph glyph-name="ae" unicode="&#xe6;" horiz-adv-x="815" 
d="M692 156l96.999 -40.001c-14 -23.333 -24.833 -39.666 -32.5 -48.999s-18.834 -20 -33.501 -32c-42.667 -33.333 -91.667 -50 -147 -50c-61.333 0 -114 21 -158 63c-36.667 -42 -96.334 -63 -179.001 -63c-64.667 0 -116.5 14.333 -155.5 43s-58.5 66.667 -58.5 114
c0 46.667 17.833 83.167 53.5 109.5s84.834 39.5 147.501 39.5h113c-14 44.667 -49 67 -105 67c-45.333 0 -90.666 -17 -135.999 -51l-59 73c35.333 28 68 48 98 60s66 18 108 18c76.667 0 133.334 -22 170.001 -66c42.667 44 94.667 66 156 66
c67.333 0 120.833 -24.167 160.5 -72.5s59.5 -106.5 59.5 -174.5c0 -5.33301 -0.333008 -16 -1 -32h-325c15.333 -60.667 52 -91 110 -91c39.333 0 70.666 12.333 93.999 37c4.66699 4 12.334 14.333 23.001 31zM341.999 149.999v56h-102c-67.333 0 -101 -21 -101 -63
c0 -38.667 33.667 -58 101 -58c68 0 102 21.667 102 65zM463.999 263.999l213.001 -0.000976562c-20 62 -55.333 93 -106 93c-26.667 0 -49.334 -8.16699 -68.001 -24.5s-31.667 -39.166 -39 -68.499z" />
    <glyph glyph-name="ccedilla" unicode="&#xe7;" horiz-adv-x="465" 
d="M451 366l-76 -74.001c-24.667 26 -44.167 43 -58.5 51s-32.5 12 -54.5 12c-36.667 0 -66.167 -12.167 -88.5 -36.5s-33.5 -56.5 -33.5 -96.5c0 -40.667 11.167 -73.167 33.5 -97.5s52.166 -36.5 89.499 -36.5c22 0 41.5 4.83301 58.5 14.5s35.833 26.834 56.5 51.501
l76 -73c-31.333 -34.667 -61.666 -59.334 -90.999 -74.001s-63 -22 -101 -22c-66.667 0 -122.834 22.833 -168.501 68.5s-68.5 101.834 -68.5 168.501s22.833 122.667 68.5 168s101.834 68 168.501 68c36.667 0 69.667 -7.16699 99 -21.5s59.333 -37.833 90 -70.5z
M224 -22.001l104 -45l-126 -161l-82 42z" />
    <glyph glyph-name="egrave" unicode="&#xe8;" horiz-adv-x="493" 
d="M468 179h-325.998c16.667 -60.667 53.667 -91 111 -91c39.333 0 70.666 12.333 93.999 37c2.66699 2 10.334 12.333 23.001 31l96 -40c-13.333 -23.333 -23.833 -39.666 -31.5 -48.999s-18.834 -20 -33.501 -32c-42.667 -33.333 -92 -50 -148 -50
c-64.667 0 -118.834 22.667 -162.501 68s-65.5 101.666 -65.5 168.999c0 66 21.667 121.833 65 167.5s96.333 68.5 159 68.5c67.333 0 120.833 -24.167 160.5 -72.5s59.5 -106.5 59.5 -174.5c0 -10 -0.333008 -20.667 -1 -32zM142.002 264h213c-20 62 -55.333 93 -106 93
c-55.333 0 -91 -31 -107 -93zM249.002 491l-154 154l107 58l123 -168z" />
    <glyph glyph-name="eacute" unicode="&#xe9;" horiz-adv-x="493" 
d="M468 179h-325.998c16.667 -60.667 53.667 -91 111 -91c39.333 0 70.666 12.333 93.999 37c2.66699 2 10.334 12.333 23.001 31l96 -40c-13.333 -23.333 -23.833 -39.666 -31.5 -48.999s-18.834 -20 -33.501 -32c-42.667 -33.333 -92 -50 -148 -50
c-64.667 0 -118.834 22.667 -162.501 68s-65.5 101.666 -65.5 168.999c0 66 21.667 121.833 65 167.5s96.333 68.5 159 68.5c67.333 0 120.833 -24.167 160.5 -72.5s59.5 -106.5 59.5 -174.5c0 -10 -0.333008 -20.667 -1 -32zM142.002 264h213c-20 62 -55.333 93 -106 93
c-55.333 0 -91 -31 -107 -93zM291.002 703l108 -58l-154 -154l-76 44z" />
    <glyph glyph-name="ecircumflex" unicode="&#xea;" horiz-adv-x="493" 
d="M468 179h-325.998c16.667 -60.667 53.667 -91 111 -91c39.333 0 70.666 12.333 93.999 37c2.66699 2 10.334 12.333 23.001 31l96 -40c-13.333 -23.333 -23.833 -39.666 -31.5 -48.999s-18.834 -20 -33.501 -32c-42.667 -33.333 -92 -50 -148 -50
c-64.667 0 -118.834 22.667 -162.501 68s-65.5 101.666 -65.5 168.999c0 66 21.667 121.833 65 167.5s96.333 68.5 159 68.5c67.333 0 120.833 -24.167 160.5 -72.5s59.5 -106.5 59.5 -174.5c0 -10 -0.333008 -20.667 -1 -32zM142.002 264h213c-20 62 -55.333 93 -106 93
c-55.333 0 -91 -31 -107 -93zM335.002 492l-89 88l-88 -88l-86 43l138 151h73l138 -151z" />
    <glyph glyph-name="edieresis" unicode="&#xeb;" horiz-adv-x="493" 
d="M468 179h-325.998c16.667 -60.667 53.667 -91 111 -91c39.333 0 70.666 12.333 93.999 37c2.66699 2 10.334 12.333 23.001 31l96 -40c-13.333 -23.333 -23.833 -39.666 -31.5 -48.999s-18.834 -20 -33.501 -32c-42.667 -33.333 -92 -50 -148 -50
c-64.667 0 -118.834 22.667 -162.501 68s-65.5 101.666 -65.5 168.999c0 66 21.667 121.833 65 167.5s96.333 68.5 159 68.5c67.333 0 120.833 -24.167 160.5 -72.5s59.5 -106.5 59.5 -174.5c0 -10 -0.333008 -20.667 -1 -32zM142.002 264h213c-20 62 -55.333 93 -106 93
c-55.333 0 -91 -31 -107 -93zM157.002 664c19.333 0 35.833 -6.99902 49.5 -20.999s20.5 -30.333 20.5 -49c0 -19.333 -7 -35.833 -21 -49.5s-30.667 -20.5 -50 -20.5c-20 0 -37 6.83301 -51 20.5s-21 30.5 -21 50.5c0 19.333 7 35.666 21 48.999s31.333 20 52 20z
M341.002 664.001c19.333 0 35.833 -6.99902 49.5 -20.999s20.5 -30.333 20.5 -49c0 -19.333 -7 -35.833 -21 -49.5s-30.667 -20.5 -50 -20.5c-20 0 -37 6.83301 -51 20.5s-21 30.5 -21 50.5c0 19.333 7 35.666 21 48.999s31.333 20 52 20z" />
    <glyph glyph-name="igrave" unicode="&#xec;" horiz-adv-x="221" 
d="M53 443h114v-443h-114v443zM101 491l-154 154l108 58l122 -168z" />
    <glyph glyph-name="iacute" unicode="&#xed;" horiz-adv-x="221" 
d="M53 443h114v-443h-114v443zM166 703l107 -58l-154 -154l-76 44z" />
    <glyph glyph-name="icircumflex" unicode="&#xee;" horiz-adv-x="221" 
d="M54 443h114v-443h-114v443zM199 492l-88 88l-89 -88l-86 43l138 151h74l138 -151z" />
    <glyph glyph-name="idieresis" unicode="&#xef;" horiz-adv-x="221" 
d="M54 443h114v-443h-114v443zM37 664c19.333 0 35.833 -6.99902 49.5 -20.999s20.5 -30.333 20.5 -49c0 -19.333 -7 -35.833 -21 -49.5s-30.667 -20.5 -50 -20.5c-20 0 -37 6.83301 -51 20.5s-21 30.5 -21 50.5c0 19.333 7 35.666 21 48.999s31.333 20 52 20zM188 664.001
c18.667 0 35 -6.99902 49 -20.999s21 -30.333 21 -49c0 -19.333 -7 -35.833 -21 -49.5s-30.667 -20.5 -50 -20.5c-20 0 -37 6.83301 -51 20.5s-21 30.5 -21 50.5c0 19.333 7 35.666 21 48.999s31.333 20 52 20z" />
    <glyph glyph-name="eth" unicode="&#xf0;" horiz-adv-x="526" 
d="M357 661l40.999 -51.9971l-53 -29c49.333 -36.667 87.333 -83.334 114 -140.001s40 -119 40 -187c0 -63.333 -12.333 -116 -37 -158c-20.667 -34 -48.667 -60.833 -84 -80.5s-73.666 -29.5 -114.999 -29.5c-66 0 -121.833 22.833 -167.5 68.5s-68.5 101.5 -68.5 167.5
c0 64 21.833 118.167 65.5 162.5s97.167 66.5 160.5 66.5c4 0 24 -3 60 -9c-28 33.333 -55.667 58.666 -83 75.999l-98 -53l-42 53l63 34c-12 4 -35.333 8.66699 -70 14l15 102c72 -8.66699 132.667 -24.334 182 -47.001zM262.999 355.003
c-36.667 0 -66.167 -12.333 -88.5 -37s-33.5 -56.667 -33.5 -96s11.333 -71.5 34 -96.5s52 -37.5 88 -37.5c35.333 0 64.333 12.333 87 37s34 56 34 94c0 40.667 -11.167 73.5 -33.5 98.5s-51.5 37.5 -87.5 37.5z" />
    <glyph glyph-name="ntilde" unicode="&#xf1;" horiz-adv-x="509" 
d="M53 443l114 0.00292969v-23c32 25.333 66.333 38 103 38c55.333 0 101 -19.667 137 -59c32.667 -34.667 49 -88.334 49 -161.001v-238h-114v231c0 18 -0.833008 33.167 -2.5 45.5s-5 25.166 -10 38.499s-13.167 23.333 -24.5 30s-26 10 -44 10
c-20.667 0 -37.5 -3.5 -50.5 -10.5s-22.5 -17.333 -28.5 -31s-10 -27.334 -12 -41.001s-3 -30.5 -3 -50.5v-222h-114v443zM316 665.003l95.998 -21.999c-3.33301 -28.667 -7 -48.334 -11 -59.001c-7.33301 -19.333 -18.666 -34.333 -33.999 -45s-33.333 -16 -54 -16
c-20 0 -45.333 7 -76 21c-18 8.66699 -29 13 -33 13c-3.33301 0 -5.33301 -1.33301 -6 -4c-0.666992 0 -3 -12 -7 -36l-93 22c2.66699 28.667 7.33398 50 14.001 64c17.333 37.333 46 56 86 56c17.333 0 43.333 -7.66699 78 -23c15.333 -7.33301 25.333 -11 30 -11
c3.33301 0 5.5 1.66699 6.5 5s2.16699 15 3.5 35z" />
    <glyph glyph-name="ograve" unicode="&#xf2;" horiz-adv-x="521" 
d="M264 458c64.667 0 119.5 -22.999 164.5 -68.999s67.5 -101.667 67.5 -167c0 -66.667 -22.667 -122.834 -68 -168.501s-101 -68.5 -167 -68.5c-66.667 0 -122.667 23 -168 69s-68 102.667 -68 170c0 66 23 121.5 69 166.5s102.667 67.5 170 67.5zM263 355.001
c-36.667 0 -66.332 -12.167 -88.999 -36.5s-34 -56.5 -34 -96.5c0 -39.333 11.167 -71.5 33.5 -96.5s51.5 -37.5 87.5 -37.5c35.333 0 64.166 12.5 86.499 37.5s33.5 57.167 33.5 96.5c0 38.667 -11 70.5 -33 95.5s-50.333 37.5 -85 37.5zM257.002 491.001l-153 154l107 58
l123 -168z" />
    <glyph glyph-name="oacute" unicode="&#xf3;" horiz-adv-x="521" 
d="M264 458c64.667 0 119.5 -22.999 164.5 -68.999s67.5 -101.667 67.5 -167c0 -66.667 -22.667 -122.834 -68 -168.501s-101 -68.5 -167 -68.5c-66.667 0 -122.667 23 -168 69s-68 102.667 -68 170c0 66 23 121.5 69 166.5s102.667 67.5 170 67.5zM263 355.001
c-36.667 0 -66.332 -12.167 -88.999 -36.5s-34 -56.5 -34 -96.5c0 -39.333 11.167 -71.5 33.5 -96.5s51.5 -37.5 87.5 -37.5c35.333 0 64.166 12.5 86.499 37.5s33.5 57.167 33.5 96.5c0 38.667 -11 70.5 -33 95.5s-50.333 37.5 -85 37.5zM310.002 703.001l108 -58
l-154 -154l-77 44z" />
    <glyph glyph-name="ocircumflex" unicode="&#xf4;" horiz-adv-x="521" 
d="M264 458c64.667 0 119.5 -22.999 164.5 -68.999s67.5 -101.667 67.5 -167c0 -66.667 -22.667 -122.834 -68 -168.501s-101 -68.5 -167 -68.5c-66.667 0 -122.667 23 -168 69s-68 102.667 -68 170c0 66 23 121.5 69 166.5s102.667 67.5 170 67.5zM263 355.001
c-36.667 0 -66.332 -12.167 -88.999 -36.5s-34 -56.5 -34 -96.5c0 -39.333 11.167 -71.5 33.5 -96.5s51.5 -37.5 87.5 -37.5c35.333 0 64.166 12.5 86.499 37.5s33.5 57.167 33.5 96.5c0 38.667 -11 70.5 -33 95.5s-50.333 37.5 -85 37.5zM349.002 492.001l-88 88l-89 -88
l-86 43l138 151h74l138 -151z" />
    <glyph glyph-name="otilde" unicode="&#xf5;" horiz-adv-x="521" 
d="M264 458c64.667 0 119.5 -22.999 164.5 -68.999s67.5 -101.667 67.5 -167c0 -66.667 -22.667 -122.834 -68 -168.501s-101 -68.5 -167 -68.5c-66.667 0 -122.667 23 -168 69s-68 102.667 -68 170c0 66 23 121.5 69 166.5s102.667 67.5 170 67.5zM263 355.001
c-36.667 0 -66.332 -12.167 -88.999 -36.5s-34 -56.5 -34 -96.5c0 -39.333 11.167 -71.5 33.5 -96.5s51.5 -37.5 87.5 -37.5c35.333 0 64.166 12.5 86.499 37.5s33.5 57.167 33.5 96.5c0 38.667 -11 70.5 -33 95.5s-50.333 37.5 -85 37.5zM322.002 665.001l95 -21.999
c-2 -28.667 -5.33301 -48.334 -10 -59.001c-7.33301 -19.333 -18.833 -34.333 -34.5 -45s-33.834 -16 -54.501 -16c-19.333 0 -44.333 7 -75 21c-18 8.66699 -29 13 -33 13c-2.66699 0 -5 -1.33301 -7 -4l-6 -36l-94 22c3.33301 28.667 8.33301 50 15 64
c17.333 37.333 46 56 86 56c16.667 0 42.334 -7.66699 77.001 -23c16.667 -7.33301 27 -11 31 -11c3.33301 0 5.5 1.66699 6.5 5s2.16699 15 3.5 35z" />
    <glyph glyph-name="odieresis" unicode="&#xf6;" horiz-adv-x="521" 
d="M264 458c64.667 0 119.5 -22.999 164.5 -68.999s67.5 -101.667 67.5 -167c0 -66.667 -22.667 -122.834 -68 -168.501s-101 -68.5 -167 -68.5c-66.667 0 -122.667 23 -168 69s-68 102.667 -68 170c0 66 23 121.5 69 166.5s102.667 67.5 170 67.5zM263 355.001
c-36.667 0 -66.332 -12.167 -88.999 -36.5s-34 -56.5 -34 -96.5c0 -39.333 11.167 -71.5 33.5 -96.5s51.5 -37.5 87.5 -37.5c35.333 0 64.166 12.5 86.499 37.5s33.5 57.167 33.5 96.5c0 38.667 -11 70.5 -33 95.5s-50.333 37.5 -85 37.5zM169.002 664.001
c19.333 0 35.833 -6.99902 49.5 -20.999s20.5 -30.333 20.5 -49c0 -19.333 -7 -35.833 -21 -49.5s-30.667 -20.5 -50 -20.5c-20 0 -37 6.83301 -51 20.5s-21 30.5 -21 50.5c0 19.333 7 35.666 21 48.999s31.333 20 52 20zM353.002 664.002
c19.333 0 35.833 -6.99902 49.5 -20.999s20.5 -30.333 20.5 -49c0 -19.333 -7 -35.833 -21 -49.5s-30.667 -20.5 -50 -20.5c-20 0 -37 6.83301 -51 20.5s-21 30.5 -21 50.5c0 19.333 7 35.666 21 48.999s31.333 20 52 20z" />
    <glyph glyph-name="divide" unicode="&#xf7;" horiz-adv-x="556" 
d="M280 211c19.333 0 36.166 -7.33301 50.499 -22s21.5 -31.667 21.5 -51c0 -20.667 -7.16699 -38.167 -21.5 -52.5s-31.833 -21.5 -52.5 -21.5c-20 0 -37.167 7.16699 -51.5 21.5s-21.5 31.833 -21.5 52.5c0 20 7.33301 37.167 22 51.5s32.334 21.5 53.001 21.5zM280 560
c19.333 0 36.166 -7.33301 50.499 -22s21.5 -31.667 21.5 -51c0 -20.667 -7.16699 -38.167 -21.5 -52.5s-31.833 -21.5 -52.5 -21.5c-20 0 -37.167 7.16699 -51.5 21.5s-21.5 31.833 -21.5 52.5c0 20 7.33301 37.167 22 51.5s32.334 21.5 53.001 21.5zM44 363h469v-103h-469
v103z" />
    <glyph glyph-name="oslash" unicode="&#xf8;" horiz-adv-x="534" 
d="M409 411l36 35l57 -55l-39 -37c26 -38.667 39 -83 39 -133c0 -66 -22.667 -121.833 -68 -167.5s-101 -68.5 -167 -68.5c-54 0 -101.667 15.667 -143 47l-36 -35l-57 55l39 37c-26 40.667 -39 85 -39 133c0 66.667 22.667 122.667 68 168s101 68 167 68
c53.333 0 101 -15.667 143 -47zM154 169l177 167.999c-20 12 -41.333 18 -64 18c-36 0 -65.167 -12.167 -87.5 -36.5s-33.5 -56.166 -33.5 -95.499c0 -16.667 2.66699 -34.667 8 -54zM379 273.999l-175.999 -168c20 -12 41.333 -18 64 -18c35.333 0 64.166 12.333 86.499 37
s33.5 56.667 33.5 96c0 19.333 -2.66699 37 -8 53z" />
    <glyph glyph-name="ugrave" unicode="&#xf9;" horiz-adv-x="509" 
d="M456 0l-114 -0.00390625v23c-32 -25.333 -66.333 -38 -103 -38c-55.333 0 -101 19.667 -137 59c-32.667 34.667 -49 88.334 -49 161.001v238h114v-231c0 -18 0.833008 -33.167 2.5 -45.5s5 -25.166 10 -38.499s13.167 -23.333 24.5 -30s26 -10 44 -10
c20.667 0 37.5 3.5 50.5 10.5s22.5 17.333 28.5 31s10 27.334 12 41.001s3 30.834 3 51.501v221h114v-443zM253 490.996l-154 154l108 58l123 -168z" />
    <glyph glyph-name="uacute" unicode="&#xfa;" horiz-adv-x="509" 
d="M456 0l-114 -0.00390625v23c-32 -25.333 -66.333 -38 -103 -38c-55.333 0 -101 19.667 -137 59c-32.667 34.667 -49 88.334 -49 161.001v238h114v-231c0 -18 0.833008 -33.167 2.5 -45.5s5 -25.166 10 -38.499s13.167 -23.333 24.5 -30s26 -10 44 -10
c20.667 0 37.5 3.5 50.5 10.5s22.5 17.333 28.5 31s10 27.334 12 41.001s3 30.834 3 51.501v221h114v-443zM299 702.996l108 -58l-154 -154l-76 44z" />
    <glyph glyph-name="ucircumflex" unicode="&#xfb;" horiz-adv-x="509" 
d="M456 0l-114 -0.00390625v23c-32 -25.333 -66.333 -38 -103 -38c-55.333 0 -101 19.667 -137 59c-32.667 34.667 -49 88.334 -49 161.001v238h114v-231c0 -18 0.833008 -33.167 2.5 -45.5s5 -25.166 10 -38.499s13.167 -23.333 24.5 -30s26 -10 44 -10
c20.667 0 37.5 3.5 50.5 10.5s22.5 17.333 28.5 31s10 27.334 12 41.001s3 30.834 3 51.501v221h114v-443zM343 491.996l-88 88l-89 -88l-86 43l138 151h74l138 -151z" />
    <glyph glyph-name="udieresis" unicode="&#xfc;" horiz-adv-x="509" 
d="M456 0l-114 -0.00390625v23c-32 -25.333 -66.333 -38 -103 -38c-55.333 0 -101 19.667 -137 59c-32.667 34.667 -49 88.334 -49 161.001v238h114v-231c0 -18 0.833008 -33.167 2.5 -45.5s5 -25.166 10 -38.499s13.167 -23.333 24.5 -30s26 -10 44 -10
c20.667 0 37.5 3.5 50.5 10.5s22.5 17.333 28.5 31s10 27.334 12 41.001s3 30.834 3 51.501v221h114v-443zM164 663.996c18.667 0 35 -6.99902 49 -20.999s21 -30.333 21 -49c0 -19.333 -7 -35.833 -21 -49.5s-30.667 -20.5 -50 -20.5c-20 0 -37 6.83301 -51 20.5
s-21 30.5 -21 50.5c0 19.333 7 35.666 21 48.999s31.333 20 52 20zM348 663.997c18.667 0 35 -6.99902 49 -20.999s21 -30.333 21 -49c0 -19.333 -7 -35.833 -21 -49.5s-30.667 -20.5 -50 -20.5c-20 0 -37 6.83301 -51 20.5s-21 30.5 -21 50.5c0 19.333 7 35.666 21 48.999
s31.333 20 52 20z" />
    <glyph glyph-name="yacute" unicode="&#xfd;" horiz-adv-x="473" 
d="M61 -233l113 254l-183 422h124l120 -283l125 283h123l-301 -676h-121zM284 703l108 -58l-154 -154l-77 44z" />
    <glyph glyph-name="thorn" unicode="&#xfe;" horiz-adv-x="545" 
d="M54 -233v900h114v-252c38 28.667 77.667 43 119 43c64.667 0 119.667 -23 165 -69s68 -102 68 -168c0 -65.333 -22.667 -121 -68 -167s-100.333 -69 -165 -69c-41.333 0 -81 14.333 -119 43v-261h-114zM285 355c-35.333 0 -63.834 -12.333 -85.501 -37
s-32.5 -57 -32.5 -97c0 -38.667 10.833 -70.5 32.5 -95.5s49.5 -37.5 83.5 -37.5c36.667 0 66.167 12.167 88.5 36.5s33.5 56.5 33.5 96.5c0 39.333 -11.167 71.5 -33.5 96.5s-51.166 37.5 -86.499 37.5z" />
    <glyph glyph-name="ydieresis" unicode="&#xff;" horiz-adv-x="473" 
d="M61 -233l113 254l-183 422h124l120 -283l125 283h123l-301 -676h-121zM147 664c19.333 0 35.833 -6.99902 49.5 -20.999s20.5 -30.333 20.5 -49c0 -19.333 -7 -35.833 -21 -49.5s-30.667 -20.5 -50 -20.5c-20 0 -37 6.83301 -51 20.5s-21 30.5 -21 50.5
c0 19.333 7 35.666 21 48.999s31.333 20 52 20zM331 664.001c19.333 0 35.833 -6.99902 49.5 -20.999s20.5 -30.333 20.5 -49c0 -19.333 -7 -35.833 -21 -49.5s-30.667 -20.5 -50 -20.5c-20 0 -37 6.83301 -51 20.5s-21 30.5 -21 50.5c0 19.333 7 35.666 21 48.999
s31.333 20 52 20z" />
    <glyph glyph-name="Amacron" unicode="&#x100;" horiz-adv-x="636" 
d="M515 0l-60 164h-274l-60 -164h-124l249 667h145l249 -667h-125zM221 274h194l-97 268zM162 740v102h312v-102h-312z" />
    <glyph glyph-name="amacron" unicode="&#x101;" horiz-adv-x="544" 
d="M491 443v-443h-114v28c-38 -28.667 -77.667 -43 -119 -43c-64.667 0 -119.667 23 -165 69s-68 102 -68 168c0 65.333 22.667 121 68 167s100.333 69 165 69c41.333 0 81 -14.333 119 -43v28h114zM263 355c-36.667 0 -66.332 -12.167 -88.999 -36.5s-34 -56.5 -34 -96.5
c0 -39.333 11.167 -71.5 33.5 -96.5s51.166 -37.5 86.499 -37.5s64 12.5 86 37.5s33 57.167 33 96.5c0 38.667 -10.833 70.5 -32.5 95.5s-49.5 37.5 -83.5 37.5zM114.002 540v102h312v-102h-312z" />
    <glyph glyph-name="Abreve" unicode="&#x102;" horiz-adv-x="636" 
d="M515 0l-60 164h-274l-60 -164h-124l249 667h145l249 -667h-125zM221 274h194l-97 268zM166 864l98.9971 8.99902c0.666992 -6.66699 1 -13.667 1 -21c2 -39.333 18.667 -59 50 -59c19.333 0 34.333 9.33301 45 28c3.33301 6 7 23 11 51l99 -8
c-3.33301 -29.333 -6.16602 -48.333 -8.49902 -57s-6.83301 -19 -13.5 -31c-30 -53.333 -74.333 -80 -133 -80c-31.333 0 -59.666 8.33301 -84.999 25s-43.666 39.334 -54.999 68.001c-6 15.333 -9.33301 40.333 -10 75z" />
    <glyph glyph-name="abreve" unicode="&#x103;" horiz-adv-x="544" 
d="M491 443v-443h-114v28c-38 -28.667 -77.667 -43 -119 -43c-64.667 0 -119.667 23 -165 69s-68 102 -68 168c0 65.333 22.667 121 68 167s100.333 69 165 69c41.333 0 81 -14.333 119 -43v28h114zM263 355c-36.667 0 -66.332 -12.167 -88.999 -36.5s-34 -56.5 -34 -96.5
c0 -39.333 11.167 -71.5 33.5 -96.5s51.166 -37.5 86.499 -37.5s64 12.5 86 37.5s33 57.167 33 96.5c0 38.667 -10.833 70.5 -32.5 95.5s-49.5 37.5 -83.5 37.5zM108.002 665l98.998 8l1 -21c2 -39.333 18.667 -59 50 -59c19.333 0 34 9.33301 44 28
c4 6 7.66699 23.333 11 52l99 -8c-3.33301 -29.333 -6 -48.5 -8 -57.5s-6.33301 -19.5 -13 -31.5c-30 -53.333 -74.333 -80 -133 -80c-31.333 0 -59.666 8.33301 -84.999 25s-43.666 39.334 -54.999 68.001c-6 15.333 -9.33301 40.666 -10 75.999z" />
    <glyph glyph-name="Aogonek" unicode="&#x104;" horiz-adv-x="636" 
d="M391 667l249 -667l-2 -3c-22.667 -29.333 -34 -49.666 -34 -60.999c0 -6 4 -9 12 -9c12 0 28.667 4 50 12l34 -86c-39.333 -14 -69 -21 -89 -21c-32 0 -58.5 9.16699 -79.5 27.5s-31.5 41.166 -31.5 68.499c0 21.333 8.66699 45.333 26 72h-11l-60 164h-274l-60 -164
h-124l249 667h145zM221 274h194l-97 268z" />
    <glyph glyph-name="aogonek" unicode="&#x105;" horiz-adv-x="544" 
d="M377 443l114.001 0.00195312v-443l-6 -8c-20 -24.667 -30 -43.334 -30 -56.001c0 -6 4.33301 -9 13 -9c11.333 0 27.666 4 48.999 12l34 -86c-8 -2.66699 -14 -5 -18 -7c-28 -9.33301 -51.333 -14 -70 -14c-32 0 -58.5 9.16699 -79.5 27.5s-31.5 41.166 -31.5 68.499
c0 22 8.33301 46 25 72v28c-38 -28.667 -77.667 -43 -119 -43c-64.667 0 -119.667 23 -165 69s-68 102 -68 168c0 65.333 22.667 121 68 167s100.333 69 165 69c41.333 0 81 -14.333 119 -43v28zM263.001 355.002c-36.667 0 -66.332 -12.167 -88.999 -36.5
s-34 -56.5 -34 -96.5c0 -39.333 11.167 -71.5 33.5 -96.5s51.166 -37.5 86.499 -37.5s64 12.5 86 37.5s33 57.167 33 96.5c0 38.667 -10.833 70.5 -32.5 95.5s-49.5 37.5 -83.5 37.5z" />
    <glyph glyph-name="Cacute" unicode="&#x106;" horiz-adv-x="674" 
d="M648 558l-84.001 -81.0029c-30 32.667 -57.833 56.334 -83.5 71.001s-57.834 22 -96.501 22c-66 0 -121.167 -22.667 -165.5 -68s-66.5 -101.666 -66.5 -168.999c0 -66 22.333 -121.833 67 -167.5s99.334 -68.5 164.001 -68.5c38.667 0 70.834 7.5 96.501 22.5
s54.834 38.833 87.501 71.5l84 -80c-44.667 -46 -87.334 -78.5 -128.001 -97.5s-87 -28.5 -139 -28.5c-97.333 0 -180.333 33.833 -249 101.5s-103 149.834 -103 246.501s34.333 179 103 247s152 102 250 102c50 0 95.833 -9.83301 137.5 -29.5s83.5 -51.167 125.5 -94.5z
M440.999 902.997l108 -58l-154 -154l-76 44z" />
    <glyph glyph-name="cacute" unicode="&#x107;" horiz-adv-x="465" 
d="M451 366l-76 -74.001c-24.667 26 -44.167 43 -58.5 51s-32.5 12 -54.5 12c-36.667 0 -66.167 -12.167 -88.5 -36.5s-33.5 -56.5 -33.5 -96.5c0 -40.667 11.167 -73.167 33.5 -97.5s52.166 -36.5 89.499 -36.5c22 0 41.5 4.83301 58.5 14.5s35.833 26.834 56.5 51.501
l76 -73c-31.333 -34.667 -61.666 -59.334 -90.999 -74.001s-63 -22 -101 -22c-66.667 0 -122.834 22.833 -168.501 68.5s-68.5 101.834 -68.5 168.501s22.833 122.667 68.5 168s101.834 68 168.501 68c36.667 0 69.667 -7.16699 99 -21.5s59.333 -37.833 90 -70.5z
M300 702.999l108 -58l-154 -154l-76 44z" />
    <glyph glyph-name="Ccircumflex" unicode="&#x108;" horiz-adv-x="674" 
d="M648 558l-84.001 -81.0029c-30 32.667 -57.833 56.334 -83.5 71.001s-57.834 22 -96.501 22c-66 0 -121.167 -22.667 -165.5 -68s-66.5 -101.666 -66.5 -168.999c0 -66 22.333 -121.833 67 -167.5s99.334 -68.5 164.001 -68.5c38.667 0 70.834 7.5 96.501 22.5
s54.834 38.833 87.501 71.5l84 -80c-44.667 -46 -87.334 -78.5 -128.001 -97.5s-87 -28.5 -139 -28.5c-97.333 0 -180.333 33.833 -249 101.5s-103 149.834 -103 246.501s34.333 179 103 247s152 102 250 102c50 0 95.833 -9.83301 137.5 -29.5s83.5 -51.167 125.5 -94.5z
M463.999 691.997l-89 88l-88 -88l-87 43l138 151h74l138 -151z" />
    <glyph glyph-name="ccircumflex" unicode="&#x109;" horiz-adv-x="465" 
d="M451 366l-76 -74.001c-24.667 26 -44.167 43 -58.5 51s-32.5 12 -54.5 12c-36.667 0 -66.167 -12.167 -88.5 -36.5s-33.5 -56.5 -33.5 -96.5c0 -40.667 11.167 -73.167 33.5 -97.5s52.166 -36.5 89.499 -36.5c22 0 41.5 4.83301 58.5 14.5s35.833 26.834 56.5 51.501
l76 -73c-31.333 -34.667 -61.666 -59.334 -90.999 -74.001s-63 -22 -101 -22c-66.667 0 -122.834 22.833 -168.501 68.5s-68.5 101.834 -68.5 168.501s22.833 122.667 68.5 168s101.834 68 168.501 68c36.667 0 69.667 -7.16699 99 -21.5s59.333 -37.833 90 -70.5z
M341 491.999l-88 88l-89 -88l-86 43l138 151h74l138 -151z" />
    <glyph glyph-name="Cdotaccent" unicode="&#x10a;" horiz-adv-x="674" 
d="M648 558l-84.001 -81.0029c-30 32.667 -57.833 56.334 -83.5 71.001s-57.834 22 -96.501 22c-66 0 -121.167 -22.667 -165.5 -68s-66.5 -101.666 -66.5 -168.999c0 -66 22.333 -121.833 67 -167.5s99.334 -68.5 164.001 -68.5c38.667 0 70.834 7.5 96.501 22.5
s54.834 38.833 87.501 71.5l84 -80c-44.667 -46 -87.334 -78.5 -128.001 -97.5s-87 -28.5 -139 -28.5c-97.333 0 -180.333 33.833 -249 101.5s-103 149.834 -103 246.501s34.333 179 103 247s152 102 250 102c50 0 95.833 -9.83301 137.5 -29.5s83.5 -51.167 125.5 -94.5z
M384.999 859.997c19.333 0 35.833 -6.99902 49.5 -20.999s20.5 -30.333 20.5 -49c0 -19.333 -7 -35.833 -21 -49.5s-30.667 -20.5 -50 -20.5c-20 0 -37 6.83301 -51 20.5s-21 30.5 -21 50.5c0 19.333 7 35.666 21 48.999s31.333 20 52 20z" />
    <glyph glyph-name="cdotaccent" unicode="&#x10b;" horiz-adv-x="465" 
d="M451 366l-76 -74.001c-24.667 26 -44.167 43 -58.5 51s-32.5 12 -54.5 12c-36.667 0 -66.167 -12.167 -88.5 -36.5s-33.5 -56.5 -33.5 -96.5c0 -40.667 11.167 -73.167 33.5 -97.5s52.166 -36.5 89.499 -36.5c22 0 41.5 4.83301 58.5 14.5s35.833 26.834 56.5 51.501
l76 -73c-31.333 -34.667 -61.666 -59.334 -90.999 -74.001s-63 -22 -101 -22c-66.667 0 -122.834 22.833 -168.501 68.5s-68.5 101.834 -68.5 168.501s22.833 122.667 68.5 168s101.834 68 168.501 68c36.667 0 69.667 -7.16699 99 -21.5s59.333 -37.833 90 -70.5z
M258 663.999c18.667 0 35 -6.99902 49 -20.999s21 -30.333 21 -49c0 -19.333 -7 -35.833 -21 -49.5s-30.667 -20.5 -50 -20.5c-20 0 -37 6.83301 -51 20.5s-21 30.5 -21 50.5c0 19.333 7 35.666 21 48.999s31.333 20 52 20z" />
    <glyph glyph-name="Ccaron" unicode="&#x10c;" horiz-adv-x="674" 
d="M648 558l-84.001 -81.0029c-30 32.667 -57.833 56.334 -83.5 71.001s-57.834 22 -96.501 22c-66 0 -121.167 -22.667 -165.5 -68s-66.5 -101.666 -66.5 -168.999c0 -66 22.333 -121.833 67 -167.5s99.334 -68.5 164.001 -68.5c38.667 0 70.834 7.5 96.501 22.5
s54.834 38.833 87.501 71.5l84 -80c-44.667 -46 -87.334 -78.5 -128.001 -97.5s-87 -28.5 -139 -28.5c-97.333 0 -180.333 33.833 -249 101.5s-103 149.834 -103 246.501s34.333 179 103 247s152 102 250 102c50 0 95.833 -9.83301 137.5 -29.5s83.5 -51.167 125.5 -94.5z
M286.999 894.997l88 -88l89 88l86 -43l-138 -151h-74l-138 151z" />
    <glyph glyph-name="ccaron" unicode="&#x10d;" horiz-adv-x="465" 
d="M451 366l-76 -74.001c-24.667 26 -44.167 43 -58.5 51s-32.5 12 -54.5 12c-36.667 0 -66.167 -12.167 -88.5 -36.5s-33.5 -56.5 -33.5 -96.5c0 -40.667 11.167 -73.167 33.5 -97.5s52.166 -36.5 89.499 -36.5c22 0 41.5 4.83301 58.5 14.5s35.833 26.834 56.5 51.501
l76 -73c-31.333 -34.667 -61.666 -59.334 -90.999 -74.001s-63 -22 -101 -22c-66.667 0 -122.834 22.833 -168.501 68.5s-68.5 101.834 -68.5 168.501s22.833 122.667 68.5 168s101.834 68 168.501 68c36.667 0 69.667 -7.16699 99 -21.5s59.333 -37.833 90 -70.5z
M164 694.999l89 -88l88 88l87 -43l-138 -151h-74l-138 151z" />
    <glyph glyph-name="Dcaron" unicode="&#x10e;" horiz-adv-x="619" 
d="M70 0v666.999h153c110.667 0 199 -30.167 265 -90.5s99 -141.166 99 -242.499c0 -102 -32.833 -183.167 -98.5 -243.5s-154.167 -90.5 -265.5 -90.5h-153zM226 556.999h-38v-447h38c75.333 0 134.5 20 177.5 60s64.5 94.667 64.5 164c0 68.667 -21.667 123 -65 163
s-102.333 60 -177 60zM203 894.999l88 -88l89 88l86 -43l-138 -151h-73l-139 151z" />
    <glyph glyph-name="dcaron" unicode="&#x10f;" horiz-adv-x="675" 
d="M491 667v-667h-114v28c-38 -28.667 -77.667 -43 -119 -43c-64.667 0 -119.667 23 -165 69s-68 102 -68 168c0 65.333 22.667 121 68 167s100.333 69 165 69c41.333 0 81 -14.333 119 -43v252h114zM262 355c-36.667 0 -66.166 -12.167 -88.499 -36.5
s-33.5 -56.5 -33.5 -96.5c0 -39.333 11.167 -71.5 33.5 -96.5s51.166 -37.5 86.499 -37.5c34.667 0 63 12.5 85 37.5s33 57.167 33 96.5c0 38.667 -10.833 70.5 -32.5 95.5s-49.5 37.5 -83.5 37.5zM524.001 508l58 194l108 -32l-81 -189z" />
    <glyph glyph-name="Dcroat" unicode="&#x110;" horiz-adv-x="630" 
d="M18 412l63 -0.000976562v255h153c110.667 0 199 -30.167 265 -90.5s99 -141.166 99 -242.499c0 -102 -32.833 -183.167 -98.5 -243.5s-154.167 -90.5 -265.5 -90.5h-153v307h-63v105zM199 556.999v-145h143v-105h-143v-197h38c75.333 0 134.5 20 177.5 60
s64.5 94.667 64.5 164c0 68.667 -21.667 123 -65 163s-102.333 60 -177 60h-38z" />
    <glyph glyph-name="dcroat" unicode="&#x111;" horiz-adv-x="544" 
d="M548 502h-57.001v-502h-114v28c-38 -28.667 -77.667 -43 -119 -43c-64.667 0 -119.667 23 -165 69s-68 102 -68 168c0 65.333 22.667 121 68 167s100.333 69 165 69c40.667 0 80.334 -14.333 119.001 -43v87h-112v102h112v63h114v-63h57v-102zM261.999 355
c-36.667 0 -66.166 -12.167 -88.499 -36.5s-33.5 -56.5 -33.5 -96.5c0 -39.333 11.167 -71.5 33.5 -96.5s51.166 -37.5 86.499 -37.5c34.667 0 63 12.5 85 37.5s33 57.167 33 96.5c0 38.667 -10.833 70.5 -32.5 95.5s-49.5 37.5 -83.5 37.5z" />
    <glyph glyph-name="Emacron" unicode="&#x112;" horiz-adv-x="483" 
d="M442 667v-109h-254v-165h226v-110h-226v-173h263v-110h-381v667h372zM105 740v102h312v-102h-312z" />
    <glyph glyph-name="emacron" unicode="&#x113;" horiz-adv-x="493" 
d="M468 179h-325.998c16.667 -60.667 53.667 -91 111 -91c39.333 0 70.666 12.333 93.999 37c2.66699 2 10.334 12.333 23.001 31l96 -40c-13.333 -23.333 -23.833 -39.666 -31.5 -48.999s-18.834 -20 -33.501 -32c-42.667 -33.333 -92 -50 -148 -50
c-64.667 0 -118.834 22.667 -162.501 68s-65.5 101.666 -65.5 168.999c0 66 21.667 121.833 65 167.5s96.333 68.5 159 68.5c67.333 0 120.833 -24.167 160.5 -72.5s59.5 -106.5 59.5 -174.5c0 -10 -0.333008 -20.667 -1 -32zM142.002 264h213c-20 62 -55.333 93 -106 93
c-55.333 0 -91 -31 -107 -93zM90.002 540v102h312v-102h-312z" />
    <glyph glyph-name="Ebreve" unicode="&#x114;" horiz-adv-x="483" 
d="M442 667v-109h-254v-165h226v-110h-226v-173h263v-110h-381v667h372zM108 864l99 8.99902c0 -2.66699 0.166992 -5.66699 0.5 -9s0.666016 -6 0.999023 -8s0.5 -3.33301 0.5 -4c1.33301 -39.333 17.666 -59 48.999 -59c20 0 35 9.33301 45 28c3.33301 6 7 23 11 51l99 -8
c-3.33301 -29.333 -6.16602 -48.333 -8.49902 -57s-6.83301 -19 -13.5 -31c-28.667 -53.333 -72.667 -80 -132 -80c-31.333 0 -59.666 8.33301 -84.999 25s-43.666 39.334 -54.999 68.001c-6.66699 15.333 -10.334 40.333 -11.001 75z" />
    <glyph glyph-name="ebreve" unicode="&#x115;" horiz-adv-x="493" 
d="M468 179h-325.998c16.667 -60.667 53.667 -91 111 -91c39.333 0 70.666 12.333 93.999 37c2.66699 2 10.334 12.333 23.001 31l96 -40c-13.333 -23.333 -23.833 -39.666 -31.5 -48.999s-18.834 -20 -33.501 -32c-42.667 -33.333 -92 -50 -148 -50
c-64.667 0 -118.834 22.667 -162.501 68s-65.5 101.666 -65.5 168.999c0 66 21.667 121.833 65 167.5s96.333 68.5 159 68.5c67.333 0 120.833 -24.167 160.5 -72.5s59.5 -106.5 59.5 -174.5c0 -10 -0.333008 -20.667 -1 -32zM142.002 264h213c-20 62 -55.333 93 -106 93
c-55.333 0 -91 -31 -107 -93zM95.002 665l98.998 8l1 -21c1.33301 -39.333 17.666 -59 48.999 -59c20 0 35 9.33301 45 28c3.33301 6 7 23.333 11 52l99 -8c-2.66699 -28.667 -5.16699 -47.5 -7.5 -56.5s-7.16602 -19.833 -14.499 -32.5
c-28.667 -53.333 -72.667 -80 -132 -80c-31.333 0 -59.666 8.33301 -84.999 25s-43.666 39.334 -54.999 68.001c-6 15.333 -9.33301 40.666 -10 75.999z" />
    <glyph glyph-name="Edotaccent" unicode="&#x116;" horiz-adv-x="483" 
d="M442 667v-109h-254v-165h226v-110h-226v-173h263v-110h-381v667h372zM262 860c18.667 0 35 -6.99902 49 -20.999s21 -30.333 21 -49c0 -19.333 -7 -35.833 -21 -49.5s-30.667 -20.5 -50 -20.5c-20 0 -37 6.83301 -51 20.5s-21 30.5 -21 50.5c0 19.333 7 35.666 21 48.999
s31.333 20 52 20z" />
    <glyph glyph-name="edotaccent" unicode="&#x117;" horiz-adv-x="493" 
d="M468 179h-325.998c16.667 -60.667 53.667 -91 111 -91c39.333 0 70.666 12.333 93.999 37c2.66699 2 10.334 12.333 23.001 31l96 -40c-13.333 -23.333 -23.833 -39.666 -31.5 -48.999s-18.834 -20 -33.501 -32c-42.667 -33.333 -92 -50 -148 -50
c-64.667 0 -118.834 22.667 -162.501 68s-65.5 101.666 -65.5 168.999c0 66 21.667 121.833 65 167.5s96.333 68.5 159 68.5c67.333 0 120.833 -24.167 160.5 -72.5s59.5 -106.5 59.5 -174.5c0 -10 -0.333008 -20.667 -1 -32zM142.002 264h213c-20 62 -55.333 93 -106 93
c-55.333 0 -91 -31 -107 -93zM248.002 664c18.667 0 35 -6.99902 49 -20.999s21 -30.333 21 -49c0 -19.333 -7 -35.833 -21 -49.5s-30.667 -20.5 -50 -20.5c-20 0 -37 6.83301 -51 20.5s-21 30.5 -21 50.5c0 19.333 7 35.666 21 48.999s31.333 20 52 20z" />
    <glyph glyph-name="Eogonek" unicode="&#x118;" horiz-adv-x="483" 
d="M451 110v-109.999l-2 -3c-22 -30 -33 -50.333 -33 -61c0 -6 4 -9 12 -9c11.333 0 27.666 4 48.999 12l34 -86c-39.333 -14 -68.666 -21 -87.999 -21c-32 0 -58.5 9.16699 -79.5 27.5s-31.5 41.166 -31.5 68.499c0 20.667 8.33301 44.667 25 72h-267v667h372v-109h-254
v-165h226v-110h-226v-173h263z" />
    <glyph glyph-name="eogonek" unicode="&#x119;" horiz-adv-x="493" 
d="M370 156l96 -39.999c-38 -70.667 -94 -113 -168 -127c-18.667 -24 -28 -42 -28 -54c0 -6 4.33301 -9 13 -9c12 0 28.333 4.33301 49 13l34 -86c-37.333 -14.667 -67 -22 -89 -22c-32 0 -58.5 9.16699 -79.5 27.5s-31.5 41.166 -31.5 68.499c0 20 7.33301 42.333 22 67
c-48.667 14 -88 42 -118 84s-45 90 -45 144c0 66 21.667 121.833 65 167.5s96.333 68.5 159 68.5c67.333 0 120.833 -24.167 160.5 -72.5s59.5 -106.5 59.5 -174.5c0 -10 -0.333008 -20.667 -1 -32h-326c16.667 -60.667 53.667 -91 111 -91c49.333 0 88.333 22.667 117 68z
M142 264.001h213c-20 62 -55.333 93 -106 93c-55.333 0 -91 -31 -107 -93z" />
    <glyph glyph-name="Ecaron" unicode="&#x11a;" horiz-adv-x="483" 
d="M442 667v-109h-254v-165h226v-110h-226v-173h263v-110h-381v667h372zM173 895l88 -88l89 88l86 -43l-138 -151h-73l-139 151z" />
    <glyph glyph-name="ecaron" unicode="&#x11b;" horiz-adv-x="493" 
d="M468 179h-325.998c16.667 -60.667 53.667 -91 111 -91c39.333 0 70.666 12.333 93.999 37c2.66699 2 10.334 12.333 23.001 31l96 -40c-13.333 -23.333 -23.833 -39.666 -31.5 -48.999s-18.834 -20 -33.501 -32c-42.667 -33.333 -92 -50 -148 -50
c-64.667 0 -118.834 22.667 -162.501 68s-65.5 101.666 -65.5 168.999c0 66 21.667 121.833 65 167.5s96.333 68.5 159 68.5c67.333 0 120.833 -24.167 160.5 -72.5s59.5 -106.5 59.5 -174.5c0 -10 -0.333008 -20.667 -1 -32zM142.002 264h213c-20 62 -55.333 93 -106 93
c-55.333 0 -91 -31 -107 -93zM158.002 695l88 -88l89 88l86 -43l-138 -151h-73l-138 151z" />
    <glyph glyph-name="Gcircumflex" unicode="&#x11c;" horiz-adv-x="726" 
d="M383 256v110h310v-57c0 -97.333 -28.167 -175.666 -84.5 -234.999s-130.5 -89 -222.5 -89c-98.667 0 -182.334 33.667 -251.001 101s-103 149.333 -103 246c0 97.333 34.167 180 102.5 248s151.5 102 249.5 102c54.667 0 101.167 -9.83301 139.5 -29.5
s79.833 -50.834 124.5 -93.501l-84 -81c-32 32.667 -60.5 56.167 -85.5 70.5s-56.833 21.5 -95.5 21.5c-65.333 0 -120.166 -22.833 -164.499 -68.5s-66.5 -102.167 -66.5 -169.5c0 -66 22.333 -121.667 67 -167s99.667 -68 165 -68c74 0 128.333 29.333 163 88
c10 18 17.667 41.667 23 71h-187zM457 692l-88 88l-89 -88l-86 43l138 151h74l138 -151z" />
    <glyph glyph-name="gcircumflex" unicode="&#x11d;" horiz-adv-x="544" 
d="M377 -9v37.001c-22.667 -16.667 -42.667 -28 -60 -34s-37.666 -9 -60.999 -9c-64 0 -118.5 23.167 -163.5 69.5s-67.5 102.166 -67.5 167.499s22.5 121 67.5 167s99.5 69 163.5 69c23.333 0 43.666 -3 60.999 -9s37.333 -17.333 60 -34v28h114v-452
c0 -71.333 -22 -129 -66 -173s-101.667 -66 -173 -66c-62 0 -115.667 18 -161 54c-12.667 10 -32 30 -58 60l74 74l18 -20c21.333 -25.333 41 -42.5 59 -51.5s40.333 -13.5 67 -13.5c40 0 71 11.833 93 35.5s33 57.167 33 100.5zM262 355.001
c-36.667 0 -66.166 -12.168 -88.499 -36.501s-33.5 -56.166 -33.5 -95.499c0 -40 11.167 -72.5 33.5 -97.5s51.166 -37.5 86.499 -37.5c34.667 0 63 12.5 85 37.5s33 57.167 33 96.5c0 38.667 -11 70.5 -33 95.5s-49.667 37.5 -83 37.5zM347.001 492l-89 88l-89 -88l-86 43
l138 151h74l138 -151z" />
    <glyph glyph-name="Gbreve" unicode="&#x11e;" horiz-adv-x="726" 
d="M383 256v110h310v-57c0 -97.333 -28.167 -175.666 -84.5 -234.999s-130.5 -89 -222.5 -89c-98.667 0 -182.334 33.667 -251.001 101s-103 149.333 -103 246c0 97.333 34.167 180 102.5 248s151.5 102 249.5 102c54.667 0 101.167 -9.83301 139.5 -29.5
s79.833 -50.834 124.5 -93.501l-84 -81c-32 32.667 -60.5 56.167 -85.5 70.5s-56.833 21.5 -95.5 21.5c-65.333 0 -120.166 -22.833 -164.499 -68.5s-66.5 -102.167 -66.5 -169.5c0 -66 22.333 -121.667 67 -167s99.667 -68 165 -68c74 0 128.333 29.333 163 88
c10 18 17.667 41.667 23 71h-187zM235 864l99 8.99902c0 -2.66699 0.166992 -5.66699 0.5 -9s0.666016 -6 0.999023 -8s0.5 -3.33301 0.5 -4c1.33301 -39.333 17.666 -59 48.999 -59c20 0 35 9.33301 45 28c3.33301 6 7 23 11 51l99 -8
c-3.33301 -29.333 -6.16602 -48.333 -8.49902 -57s-6.83301 -19 -13.5 -31c-28.667 -53.333 -72.667 -80 -132 -80c-31.333 0 -59.666 8.33301 -84.999 25s-43.666 39.334 -54.999 68.001c-6.66699 15.333 -10.334 40.333 -11.001 75z" />
    <glyph glyph-name="gbreve" unicode="&#x11f;" horiz-adv-x="544" 
d="M377 -9v37.001c-22.667 -16.667 -42.667 -28 -60 -34s-37.666 -9 -60.999 -9c-64 0 -118.5 23.167 -163.5 69.5s-67.5 102.166 -67.5 167.499s22.5 121 67.5 167s99.5 69 163.5 69c23.333 0 43.666 -3 60.999 -9s37.333 -17.333 60 -34v28h114v-452
c0 -71.333 -22 -129 -66 -173s-101.667 -66 -173 -66c-62 0 -115.667 18 -161 54c-12.667 10 -32 30 -58 60l74 74l18 -20c21.333 -25.333 41 -42.5 59 -51.5s40.333 -13.5 67 -13.5c40 0 71 11.833 93 35.5s33 57.167 33 100.5zM262 355.001
c-36.667 0 -66.166 -12.168 -88.499 -36.501s-33.5 -56.166 -33.5 -95.499c0 -40 11.167 -72.5 33.5 -97.5s51.166 -37.5 86.499 -37.5c34.667 0 63 12.5 85 37.5s33 57.167 33 96.5c0 38.667 -11 70.5 -33 95.5s-49.667 37.5 -83 37.5zM108.001 665l98.998 8
c0.666992 -6 1 -13 1 -21c2 -39.333 18.667 -59 50 -59c20 0 35 9.33301 45 28c3.33301 6 7 23.333 11 52l99 -8c-3.33301 -29.333 -6.16602 -48.5 -8.49902 -57.5s-6.83301 -19.5 -13.5 -31.5c-30 -53.333 -74 -80 -132 -80c-32 0 -60.667 8.33301 -86 25
s-43.666 39.334 -54.999 68.001c-6 15.333 -9.33301 40.666 -10 75.999z" />
    <glyph glyph-name="Gdotaccent" unicode="&#x120;" horiz-adv-x="726" 
d="M383 256v110h310v-57c0 -97.333 -28.167 -175.666 -84.5 -234.999s-130.5 -89 -222.5 -89c-98.667 0 -182.334 33.667 -251.001 101s-103 149.333 -103 246c0 97.333 34.167 180 102.5 248s151.5 102 249.5 102c54.667 0 101.167 -9.83301 139.5 -29.5
s79.833 -50.834 124.5 -93.501l-84 -81c-32 32.667 -60.5 56.167 -85.5 70.5s-56.833 21.5 -95.5 21.5c-65.333 0 -120.166 -22.833 -164.499 -68.5s-66.5 -102.167 -66.5 -169.5c0 -66 22.333 -121.667 67 -167s99.667 -68 165 -68c74 0 128.333 29.333 163 88
c10 18 17.667 41.667 23 71h-187zM387 860c19.333 0 35.833 -6.99902 49.5 -20.999s20.5 -30.333 20.5 -49c0 -19.333 -7 -35.833 -21 -49.5s-30.667 -20.5 -50 -20.5c-20 0 -37 6.83301 -51 20.5s-21 30.5 -21 50.5c0 19.333 7 35.666 21 48.999s31.333 20 52 20z" />
    <glyph glyph-name="gdotaccent" unicode="&#x121;" horiz-adv-x="544" 
d="M377 -9v37.001c-22.667 -16.667 -42.667 -28 -60 -34s-37.666 -9 -60.999 -9c-64 0 -118.5 23.167 -163.5 69.5s-67.5 102.166 -67.5 167.499s22.5 121 67.5 167s99.5 69 163.5 69c23.333 0 43.666 -3 60.999 -9s37.333 -17.333 60 -34v28h114v-452
c0 -71.333 -22 -129 -66 -173s-101.667 -66 -173 -66c-62 0 -115.667 18 -161 54c-12.667 10 -32 30 -58 60l74 74l18 -20c21.333 -25.333 41 -42.5 59 -51.5s40.333 -13.5 67 -13.5c40 0 71 11.833 93 35.5s33 57.167 33 100.5zM262 355.001
c-36.667 0 -66.166 -12.168 -88.499 -36.501s-33.5 -56.166 -33.5 -95.499c0 -40 11.167 -72.5 33.5 -97.5s51.166 -37.5 86.499 -37.5c34.667 0 63 12.5 85 37.5s33 57.167 33 96.5c0 38.667 -11 70.5 -33 95.5s-49.667 37.5 -83 37.5zM260.001 664
c18.667 0 35 -6.99902 49 -20.999s21 -30.333 21 -49c0 -19.333 -7 -35.833 -21 -49.5s-30.667 -20.5 -50 -20.5c-20 0 -37 6.83301 -51 20.5s-21 30.5 -21 50.5c0 19.333 7 35.666 21 48.999s31.333 20 52 20z" />
    <glyph glyph-name="Gcommaaccent" unicode="&#x122;" horiz-adv-x="726" 
d="M383 256v110h310v-57c0 -97.333 -28.167 -175.666 -84.5 -234.999s-130.5 -89 -222.5 -89c-98.667 0 -182.334 33.667 -251.001 101s-103 149.333 -103 246c0 97.333 34.167 180 102.5 248s151.5 102 249.5 102c54.667 0 101.167 -9.83301 139.5 -29.5
s79.833 -50.834 124.5 -93.501l-84 -81c-32 32.667 -60.5 56.167 -85.5 70.5s-56.833 21.5 -95.5 21.5c-65.333 0 -120.166 -22.833 -164.499 -68.5s-66.5 -102.167 -66.5 -169.5c0 -66 22.333 -121.667 67 -167s99.667 -68 165 -68c74 0 128.333 29.333 163 88
c10 18 17.667 41.667 23 71h-187zM281 -217l57 194l108 -32l-81 -189z" />
    <glyph glyph-name="gcommaaccent" unicode="&#x123;" horiz-adv-x="544" 
d="M377 -9v37.001c-22.667 -16.667 -42.667 -28 -60 -34s-37.666 -9 -60.999 -9c-64 0 -118.5 23.167 -163.5 69.5s-67.5 102.166 -67.5 167.499s22.5 121 67.5 167s99.5 69 163.5 69c23.333 0 43.666 -3 60.999 -9s37.333 -17.333 60 -34v28h114v-452
c0 -71.333 -22 -129 -66 -173s-101.667 -66 -173 -66c-62 0 -115.667 18 -161 54c-12.667 10 -32 30 -58 60l74 74l18 -20c21.333 -25.333 41 -42.5 59 -51.5s40.333 -13.5 67 -13.5c40 0 71 11.833 93 35.5s33 57.167 33 100.5zM262 355.001
c-36.667 0 -66.166 -12.168 -88.499 -36.501s-33.5 -56.166 -33.5 -95.499c0 -40 11.167 -72.5 33.5 -97.5s51.166 -37.5 86.499 -37.5c34.667 0 63 12.5 85 37.5s33 57.167 33 96.5c0 38.667 -11 70.5 -33 95.5s-49.667 37.5 -83 37.5zM366.001 675l-57 -194l-109 33
l81 188z" />
    <glyph glyph-name="Hcircumflex" unicode="&#x124;" horiz-adv-x="651" 
d="M188 667v-274h275v274h118v-667h-118v283h-275v-283h-118v667h118zM414 692l-89 88l-88 -88l-87 43l139 151h73l138 -151z" />
    <glyph glyph-name="hcircumflex" unicode="&#x125;" horiz-adv-x="509" 
d="M53 667l114 0.00292969v-247c32 25.333 66.333 38 103 38c55.333 0 101 -19.667 137 -59c32.667 -34.667 49 -88.334 49 -161.001v-238h-114v231c0 18 -0.833008 33.167 -2.5 45.5s-5 25.166 -10 38.499s-13.167 23.333 -24.5 30s-26 10 -44 10
c-20.667 0 -37.5 -3.5 -50.5 -10.5s-22.5 -17.333 -28.5 -31s-10 -27.334 -12 -41.001s-3 -30.5 -3 -50.5v-222h-114v667zM346 692.003l-88 88l-89 -88l-86 43l138 151h74l138 -151z" />
    <glyph glyph-name="Hbar" unicode="&#x126;" horiz-adv-x="647" 
d="M636 501h-57v-501h-118v283h-274v-283h-118v501h-57v103h57v63h118v-63h274v63h118v-63h57v-103zM461 393v108h-274v-108h274z" />
    <glyph glyph-name="hbar" unicode="&#x127;" horiz-adv-x="507" 
d="M50 0v502.001h-57v102h57v63h114v-63h115v-102h-115v-82c32 25.333 66.333 38 103 38c56 0 102 -19.667 138 -59c32.667 -34.667 49 -88.334 49 -161.001v-238h-114v231c0 18 -0.833008 33.167 -2.5 45.5s-5 25 -10 38s-13.333 22.833 -25 29.5s-26.5 10 -44.5 10
c-38 0 -63.167 -11.5 -75.5 -34.5s-18.5 -55.5 -18.5 -97.5v-222h-114z" />
    <glyph glyph-name="Itilde" unicode="&#x128;" horiz-adv-x="258" 
d="M70 667h118v-667h-118v667zM191 865l95.001 -22.999c-2 -25.333 -5.33301 -45 -10 -59c-7.33301 -18.667 -18.833 -33.334 -34.5 -44.001s-33.834 -16 -54.501 -16c-20 0 -45.333 7 -76 21c-18.667 8 -29.334 12 -32.001 12c-4 0 -6.33301 -1.33301 -7 -4
c-1.33301 -8 -3.66602 -19.667 -6.99902 -35l-93 22c3.33301 30 8 51 14 63c18.667 37.333 47.667 56 87 56c16.667 0 42.334 -7.33301 77.001 -22c15.333 -7.33301 25.666 -11 30.999 -11c3.33301 0 5.33301 1.66699 6 5s2 15 4 35z" />
    <glyph glyph-name="itilde" unicode="&#x129;" horiz-adv-x="221" 
d="M53 443h114v-443h-114v443zM172 665l94.999 -21.999c-2 -26.667 -5.33301 -46.334 -10 -59.001c-16 -40.667 -45.667 -61 -89 -61c-20 0 -45.333 7 -76 21c-17.333 8.66699 -28 13 -32 13s-6.33301 -1.33301 -7 -4c-1.33301 -8 -3.66602 -20 -6.99902 -36l-93 22
c3.33301 30.667 8 52 14 64c18.667 37.333 47.667 56 87 56c16.667 0 42.334 -7.66699 77.001 -23c15.333 -7.33301 25.666 -11 30.999 -11c2.66699 0 4.5 1.66699 5.5 5s2.5 15 4.5 35z" />
    <glyph glyph-name="Imacron" unicode="&#x12a;" horiz-adv-x="258" 
d="M70 667h118v-667h-118v667zM-27 740v102h312v-102h-312z" />
    <glyph glyph-name="imacron" unicode="&#x12b;" horiz-adv-x="221" 
d="M53 443h114v-443h-114v443zM-46 540v102h312v-102h-312z" />
    <glyph glyph-name="Ibreve" unicode="&#x12c;" horiz-adv-x="258" 
d="M70 667h118v-667h-118v667zM-23 864l98.9971 8.99902c0.666992 -6.66699 1 -13.667 1 -21c2 -39.333 18.667 -59 50 -59c19.333 0 34 9.33301 44 28c4 6 8 23 12 51l99 -8c-3.33301 -29.333 -6.16602 -48.333 -8.49902 -57s-6.83301 -19 -13.5 -31
c-30 -53.333 -74.333 -80 -133 -80c-31.333 0 -59.666 8.33301 -84.999 25s-43.666 39.334 -54.999 68.001c-6 15.333 -9.33301 40.333 -10 75z" />
    <glyph glyph-name="ibreve" unicode="&#x12d;" horiz-adv-x="221" 
d="M53 443h114v-443h-114v443zM-42 665l98.9971 8c0.666992 -6 1 -13 1 -21c2 -39.333 18.667 -59 50 -59c19.333 0 34 9.33301 44 28c4 6 8 23.333 12 52l99 -8c-3.33301 -29.333 -6.16602 -48.5 -8.49902 -57.5s-6.83301 -19.5 -13.5 -31.5
c-30 -53.333 -74.333 -80 -133 -80c-31.333 0 -59.666 8.33301 -84.999 25s-43.666 39.334 -54.999 68.001c-6 15.333 -9.33301 40.666 -10 75.999z" />
    <glyph glyph-name="Iogonek" unicode="&#x12e;" horiz-adv-x="258" 
d="M188 667v-666.999l-6 -8c-20 -26 -30 -44.667 -30 -56c0 -6 4.33301 -9 13 -9c10.667 0 27 4.33301 49 13l34 -87c-38 -14 -67.333 -21 -88 -21c-32 0 -58.5 9.16699 -79.5 27.5s-31.5 41.166 -31.5 68.499c0 22 8.33301 46 25 72h-4v667h118z" />
    <glyph glyph-name="iogonek" unicode="&#x12f;" horiz-adv-x="221" 
d="M167 443v-442.999l-2 -3c-22.667 -30 -34 -50.667 -34 -62c0 -6 4.33301 -9 13 -9c10.667 0 27 4.33301 49 13l34 -86c-38 -14.667 -67.667 -22 -89 -22c-32 0 -58.5 9.16699 -79.5 27.5s-31.5 41.166 -31.5 68.499c0 22.667 8.66699 47 26 73v443h114zM112 664.001
c18.667 0 35 -6.99902 49 -20.999s21 -30.333 21 -49c0 -19.333 -7 -35.833 -21 -49.5s-30.667 -20.5 -50 -20.5c-20 0 -37 6.83301 -51 20.5s-21 30.5 -21 50.5c0 19.333 7 35.666 21 48.999s31.333 20 52 20z" />
    <glyph glyph-name="Idotaccent" unicode="&#x130;" horiz-adv-x="258" 
d="M70 667h118v-667h-118v667zM131 860c19.333 0 35.833 -6.99902 49.5 -20.999s20.5 -30.333 20.5 -49c0 -19.333 -7 -35.833 -21 -49.5s-30.667 -20.5 -50 -20.5c-20 0 -37 6.83301 -51 20.5s-21 30.5 -21 50.5c0 19.333 7 35.666 21 48.999s31.333 20 52 20z" />
    <glyph glyph-name="dotlessi" unicode="&#x131;" horiz-adv-x="221" 
d="M53 443h114v-443h-114v443z" />
    <glyph glyph-name="IJ" unicode="&#x132;" horiz-adv-x="678" 
d="M70 667h118v-667h-118v667zM490 667h118v-460c0 -42 -3.5 -75.333 -10.5 -100s-19.833 -47 -38.5 -67c-32.667 -36.667 -77 -55 -133 -55c-31.333 0 -60.833 6.83301 -88.5 20.5s-57.167 36.167 -88.5 67.5l74 86c38.667 -41.333 73 -62 103 -62
c22.667 0 39 8.66699 49 26s15 45.333 15 84v460z" />
    <glyph glyph-name="ij" unicode="&#x133;" horiz-adv-x="447" 
d="M53 443h114v-443h-114v443zM280 443h114v-535c0 -48.667 -10.667 -86 -32 -112s-51.666 -39 -90.999 -39c-18 0 -39.667 3.66699 -65 11v108c23.333 -7.33301 40.666 -11 51.999 -11c8.66699 0 14.5 3 17.5 9s4.5 17.333 4.5 34v535zM112 664
c18.667 0 35 -6.99902 49 -20.999s21 -30.333 21 -49c0 -19.333 -7 -35.833 -21 -49.5s-30.667 -20.5 -50 -20.5c-20 0 -37 6.83301 -51 20.5s-21 30.5 -21 50.5c0 19.333 7 35.666 21 48.999s31.333 20 52 20zM339 664.001c19.333 0 35.833 -6.99902 49.5 -20.999
s20.5 -30.333 20.5 -49c0 -19.333 -7 -35.833 -21 -49.5s-30.667 -20.5 -50 -20.5c-20 0 -37 6.83301 -51 20.5s-21 30.5 -21 50.5c0 19.333 7 35.666 21 48.999s31.333 20 52 20z" />
    <glyph glyph-name="Jcircumflex" unicode="&#x134;" horiz-adv-x="423" 
d="M234 667h118v-460c0 -42 -3.5 -75.333 -10.5 -100s-19.833 -47 -38.5 -67c-32.667 -36.667 -77 -55 -133 -55c-31.333 0 -60.833 6.83301 -88.5 20.5s-57.167 36.167 -88.5 67.5l74 86c38.667 -41.333 73 -62 103 -62c22.667 0 39 8.66699 49 26s15 45.333 15 84v460z
M346 692l-89 88l-88 -88l-87 43l138 151h74l138 -151z" />
    <glyph glyph-name="jcircumflex" unicode="&#x135;" horiz-adv-x="230" 
d="M62 443h114v-535c0 -48.667 -10.667 -86 -32 -112s-51.666 -39 -90.999 -39c-18 0 -39.667 3.66699 -65 11v108c23.333 -7.33301 40.666 -11 51.999 -11c8.66699 0 14.5 3 17.5 9s4.5 17.333 4.5 34v535zM196 492l-88 88l-89 -88l-86 43l138 151h74l138 -151z" />
    <glyph glyph-name="Kcommaaccent" unicode="&#x136;" horiz-adv-x="592" 
d="M595 667l-261 -283l258 -384h-140l-198 298l-66 -71v-227h-118v667h118v-280l259 280h148zM227 -217l58 194l108 -32l-81 -189z" />
    <glyph glyph-name="kcommaaccent" unicode="&#x137;" horiz-adv-x="482" 
d="M478 443l-191 -186l203 -257h-140l-141 181l-42 -42v-139h-114v667h114v-382l161 158h150zM157 -217l57 194l109 -32l-81 -189z" />
    <glyph glyph-name="kgreenlandic" unicode="&#x138;" horiz-adv-x="482" 
d="M478 443l-191 -186l203 -257h-140l-141 181l-42 -42v-139h-114v443h114v-158l161 158h150z" />
    <glyph glyph-name="Lacute" unicode="&#x139;" horiz-adv-x="429" 
d="M70 667h118v-557h245v-110h-363v667zM184 903l107 -58l-154 -154l-76 44z" />
    <glyph glyph-name="lacute" unicode="&#x13a;" horiz-adv-x="222" 
d="M168 667v-667h-114v667h114zM167 915l107 -58l-154 -154l-76 43z" />
    <glyph glyph-name="Lcommaaccent" unicode="&#x13b;" horiz-adv-x="435" 
d="M70 667h118v-557h245v-110h-363v667zM179 -217l57 194l109 -32l-81 -189z" />
    <glyph glyph-name="lcommaaccent" unicode="&#x13c;" horiz-adv-x="222" 
d="M168 667v-667h-114v667h114zM12 -217l58 194l108 -32l-81 -189z" />
    <glyph glyph-name="Lcaron" unicode="&#x13d;" horiz-adv-x="435" 
d="M70 667h118v-557h245v-110h-363v667zM248 496l58 195l108 -33l-81 -188z" />
    <glyph glyph-name="lcaron" unicode="&#x13e;" horiz-adv-x="352" 
d="M168 667v-667h-114v667h114zM201 508l58 194l108 -32l-81 -189z" />
    <glyph glyph-name="Ldot" unicode="&#x13f;" horiz-adv-x="435" 
d="M70 667h118v-557h245v-110h-363v667zM339 403c19.333 0 35.833 -6.83203 49.5 -20.499s20.5 -30.167 20.5 -49.5s-7 -35.833 -21 -49.5s-30.667 -20.5 -50 -20.5c-20 0 -37 6.83301 -51 20.5s-21 30.5 -21 50.5c0 19.333 7 35.666 21 48.999s31.333 20 52 20z" />
    <glyph glyph-name="ldot" unicode="&#x140;" horiz-adv-x="364" 
d="M168 667v-667h-114v667h114zM294 403c18.667 0 35 -6.83203 49 -20.499s21 -30.167 21 -49.5s-7 -35.833 -21 -49.5s-30.667 -20.5 -50 -20.5c-20 0 -37 6.83301 -51 20.5s-21 30.5 -21 50.5c0 19.333 7 35.666 21 48.999s31.333 20 52 20z" />
    <glyph glyph-name="Lslash" unicode="&#x141;" horiz-adv-x="446" 
d="M199 667v-225l108 70v-123l-108 -70v-209h245v-110h-363v242l-63 -41v124l63 41v301h118z" />
    <glyph glyph-name="lslash" unicode="&#x142;" horiz-adv-x="265" 
d="M76 0v252l-61 -40v124l61 41v290h114v-214l60 41v-125l-60 -40v-329h-114z" />
    <glyph glyph-name="Nacute" unicode="&#x143;" horiz-adv-x="707" 
d="M188 0h-118v667h102l347 -464v464h118v-667h-102l-347 464v-464zM413 903l108 -58l-154 -154l-77 44z" />
    <glyph glyph-name="nacute" unicode="&#x144;" horiz-adv-x="509" 
d="M53 443l114 0.00292969v-23c32 25.333 66.333 38 103 38c55.333 0 101 -19.667 137 -59c32.667 -34.667 49 -88.334 49 -161.001v-238h-114v231c0 18 -0.833008 33.167 -2.5 45.5s-5 25.166 -10 38.499s-13.167 23.333 -24.5 30s-26 10 -44 10
c-20.667 0 -37.5 -3.5 -50.5 -10.5s-22.5 -17.333 -28.5 -31s-10 -27.334 -12 -41.001s-3 -30.5 -3 -50.5v-222h-114v443zM316 703.003l107 -58l-153 -154l-77 44z" />
    <glyph glyph-name="Ncommaaccent" unicode="&#x145;" horiz-adv-x="707" 
d="M188 0h-118v667h102l347 -464v464h118v-667h-102l-347 464v-464zM272 -217l58 194l108 -32l-81 -189z" />
    <glyph glyph-name="ncommaaccent" unicode="&#x146;" horiz-adv-x="509" 
d="M53 443l114 0.00292969v-23c32 25.333 66.333 38 103 38c55.333 0 101 -19.667 137 -59c32.667 -34.667 49 -88.334 49 -161.001v-238h-114v231c0 18 -0.833008 33.167 -2.5 45.5s-5 25.166 -10 38.499s-13.167 23.333 -24.5 30s-26 10 -44 10
c-20.667 0 -37.5 -3.5 -50.5 -10.5s-22.5 -17.333 -28.5 -31s-10 -27.334 -12 -41.001s-3 -30.5 -3 -50.5v-222h-114v443zM173 -216.997l58 194l108 -32l-81 -189z" />
    <glyph glyph-name="Ncaron" unicode="&#x147;" horiz-adv-x="707" 
d="M188 0h-118v667h102l347 -464v464h118v-667h-102l-347 464v-464zM282 895l88 -88l89 88l86 -43l-138 -151h-73l-139 151z" />
    <glyph glyph-name="ncaron" unicode="&#x148;" horiz-adv-x="509" 
d="M53 443l114 0.00292969v-23c32 25.333 66.333 38 103 38c55.333 0 101 -19.667 137 -59c32.667 -34.667 49 -88.334 49 -161.001v-238h-114v231c0 18 -0.833008 33.167 -2.5 45.5s-5 25.166 -10 38.499s-13.167 23.333 -24.5 30s-26 10 -44 10
c-20.667 0 -37.5 -3.5 -50.5 -10.5s-22.5 -17.333 -28.5 -31s-10 -27.334 -12 -41.001s-3 -30.5 -3 -50.5v-222h-114v443zM171 695.003l89 -88l88 88l86 -43l-137 -151h-74l-138 151z" />
    <glyph glyph-name="napostrophe" unicode="&#x149;" horiz-adv-x="604" 
d="M148 443l114 0.00292969v-23c32 25.333 66.333 38 103 38c55.333 0 101 -19.667 137 -59c32.667 -34.667 49 -88.334 49 -161.001v-238h-114v231c0 18 -0.833008 33.167 -2.5 45.5s-5 25.166 -10 38.499s-13.167 23.333 -24.5 30s-26 10 -44 10
c-20.667 0 -37.5 -3.5 -50.5 -10.5s-22.5 -17.333 -28.5 -31s-10 -27.334 -12 -41.001s-3 -30.5 -3 -50.5v-222h-114v443zM-10 415.003l96 266l103 -37l-117 -262z" />
    <glyph glyph-name="Eng" unicode="&#x14a;" horiz-adv-x="707" 
d="M519 667h118.001v-667c0 -49.333 -10.5 -87 -31.5 -113s-51.167 -39 -90.5 -39c-18.667 0 -40.667 3.66699 -66 11v108c23.333 -7.33301 40.666 -11 51.999 -11c8.66699 0 14.5 3 17.5 9s4.5 17.333 4.5 34v17l-335 448v-464h-118v667h102l347 -464v464z" />
    <glyph glyph-name="eng" unicode="&#x14b;" horiz-adv-x="509" 
d="M53 443l113.999 0.00292969v-23c32 25.333 66.333 38 103 38c55.333 0 101 -19.667 137 -59c32.667 -34.667 49 -88.334 49 -161.001v-251c0 -42 -11.167 -75.667 -33.5 -101s-52.166 -38 -89.499 -38c-18 0 -39.667 3.66699 -65 11v108c24 -7.33301 41.333 -11 52 -11
c8.66699 0 14.5 3 17.5 9s4.5 17 4.5 33v233c0 18 -0.833008 33.167 -2.5 45.5s-5 25.166 -10 38.499s-13.167 23.333 -24.5 30s-26 10 -44 10c-20.667 0 -37.5 -3.5 -50.5 -10.5s-22.5 -17.333 -28.5 -31s-10 -27.334 -12 -41.001s-3 -30.5 -3 -50.5v-222h-114v443z" />
    <glyph glyph-name="Omacron" unicode="&#x14c;" horiz-adv-x="762" 
d="M381 682c95.333 0 177.333 -34.166 246 -102.499s103 -150.5 103 -246.5s-34.333 -178 -103 -246s-151.667 -102 -249 -102c-95.333 0 -176.833 34.667 -244.5 104s-101.5 152.666 -101.5 249.999c0 92.667 34.667 173 104 241s151 102 245 102zM381 570.001
c-62.667 0 -116.5 -22.832 -161.5 -68.499s-67.5 -100.5 -67.5 -164.5c0 -66.667 22.167 -123.334 66.5 -170.001s97.833 -70 160.5 -70c64 0 118.5 23 163.5 69s67.5 101.667 67.5 167c0 66 -22.333 122 -67 168s-98.667 69 -162 69zM225 740.002v102h312v-102h-312z" />
    <glyph glyph-name="omacron" unicode="&#x14d;" horiz-adv-x="521" 
d="M264 458c64.667 0 119.5 -22.999 164.5 -68.999s67.5 -101.667 67.5 -167c0 -66.667 -22.667 -122.834 -68 -168.501s-101 -68.5 -167 -68.5c-66.667 0 -122.667 23 -168 69s-68 102.667 -68 170c0 66 23 121.5 69 166.5s102.667 67.5 170 67.5zM263 355.001
c-36.667 0 -66.332 -12.167 -88.999 -36.5s-34 -56.5 -34 -96.5c0 -39.333 11.167 -71.5 33.5 -96.5s51.5 -37.5 87.5 -37.5c35.333 0 64.166 12.5 86.499 37.5s33.5 57.167 33.5 96.5c0 38.667 -11 70.5 -33 95.5s-50.333 37.5 -85 37.5zM105.002 540.001v102h312v-102
h-312z" />
    <glyph glyph-name="Obreve" unicode="&#x14e;" horiz-adv-x="762" 
d="M381 682c95.333 0 177.333 -34.166 246 -102.499s103 -150.5 103 -246.5s-34.333 -178 -103 -246s-151.667 -102 -249 -102c-95.333 0 -176.833 34.667 -244.5 104s-101.5 152.666 -101.5 249.999c0 92.667 34.667 173 104 241s151 102 245 102zM381 570.001
c-62.667 0 -116.5 -22.832 -161.5 -68.499s-67.5 -100.5 -67.5 -164.5c0 -66.667 22.167 -123.334 66.5 -170.001s97.833 -70 160.5 -70c64 0 118.5 23 163.5 69s67.5 101.667 67.5 167c0 66 -22.333 122 -67 168s-98.667 69 -162 69zM229 864.002l98.998 8.99902l1 -21
c1.33301 -39.333 17.666 -59 48.999 -59c20 0 35 9.33301 45 28c3.33301 6 7 23 11 51l99 -8c-2.66699 -28 -5.16699 -46.5 -7.5 -55.5s-7.16602 -19.833 -14.499 -32.5c-28.667 -53.333 -72.667 -80 -132 -80c-31.333 0 -59.666 8.33301 -84.999 25
s-43.666 39.334 -54.999 68.001c-6 14 -9.33301 39 -10 75z" />
    <glyph glyph-name="obreve" unicode="&#x14f;" horiz-adv-x="521" 
d="M264 458c64.667 0 119.5 -22.999 164.5 -68.999s67.5 -101.667 67.5 -167c0 -66.667 -22.667 -122.834 -68 -168.501s-101 -68.5 -167 -68.5c-66.667 0 -122.667 23 -168 69s-68 102.667 -68 170c0 66 23 121.5 69 166.5s102.667 67.5 170 67.5zM263 355.001
c-36.667 0 -66.332 -12.167 -88.999 -36.5s-34 -56.5 -34 -96.5c0 -39.333 11.167 -71.5 33.5 -96.5s51.5 -37.5 87.5 -37.5c35.333 0 64.166 12.5 86.499 37.5s33.5 57.167 33.5 96.5c0 38.667 -11 70.5 -33 95.5s-50.333 37.5 -85 37.5zM108.002 665.001l99.0029 7.99902
c0 -2 0.166992 -4.66699 0.5 -8s0.666016 -6.16602 0.999023 -8.49902s0.5 -3.83301 0.5 -4.5c1.33301 -39.333 17.666 -59 48.999 -59c20 0 35 9.33301 45 28c3.33301 6 7 23.333 11 52l99 -8c-2.66699 -28.667 -5.16699 -47.5 -7.5 -56.5s-7.16602 -19.833 -14.499 -32.5
c-28.667 -53.333 -72.667 -80 -132 -80c-31.333 0 -59.833 8.33301 -85.5 25s-43.834 39.334 -54.501 68.001c-6.66699 15.333 -10.334 40.666 -11.001 75.999z" />
    <glyph glyph-name="Ohungarumlaut" unicode="&#x150;" horiz-adv-x="762" 
d="M381 682c95.333 0 177.333 -34.166 246 -102.499s103 -150.5 103 -246.5s-34.333 -178 -103 -246s-151.667 -102 -249 -102c-95.333 0 -176.833 34.667 -244.5 104s-101.5 152.666 -101.5 249.999c0 92.667 34.667 173 104 241s151 102 245 102zM381 570.001
c-62.667 0 -116.5 -22.832 -161.5 -68.499s-67.5 -100.5 -67.5 -164.5c0 -66.667 22.167 -123.334 66.5 -170.001s97.833 -70 160.5 -70c64 0 118.5 23 163.5 69s67.5 101.667 67.5 167c0 66 -22.333 122 -67 168s-98.667 69 -162 69zM464 848.002l-157 -158l-64 45l122 169
zM388 732.002l125 172l96 -59l-154 -155z" />
    <glyph glyph-name="ohungarumlaut" unicode="&#x151;" horiz-adv-x="523" 
d="M264 458c64.667 0 119.5 -22.999 164.5 -68.999s67.5 -101.667 67.5 -167c0 -66.667 -22.667 -122.834 -68 -168.501s-101 -68.5 -167 -68.5c-66.667 0 -122.667 23 -168 69s-68 102.667 -68 170c0 66 23 121.5 69 166.5s102.667 67.5 170 67.5zM263 355.001
c-36.667 0 -66.332 -12.167 -88.999 -36.5s-34 -56.5 -34 -96.5c0 -39.333 11.167 -71.5 33.5 -96.5s51.5 -37.5 87.5 -37.5c35.333 0 64.166 12.5 86.499 37.5s33.5 57.167 33.5 96.5c0 38.667 -11 70.5 -33 95.5s-50.333 37.5 -85 37.5zM354.002 648.001l-157 -158l-64 45
l122 169zM279.002 532.001l124 172l96 -59l-154 -155z" />
    <glyph glyph-name="OE" unicode="&#x152;" horiz-adv-x="1023" 
d="M991 0l-381.998 0.000976562v72c-66 -58 -142.333 -87 -229 -87c-94.667 0 -176.334 34.167 -245.001 102.5s-103 150.166 -103 245.499s34.167 177.333 102.5 246s150.166 103 245.499 103c86 0 162.333 -28.667 229 -86v71h372v-109h-253v-165h225v-110h-225v-173h263
v-110zM380.002 571.001c-62.667 0 -116.333 -22.998 -161 -68.998s-67 -100.667 -67 -164c0 -66.667 22 -123.5 66 -170.5s97.667 -70.5 161 -70.5s117.5 23.167 162.5 69.5s67.5 102.166 67.5 167.499s-22.333 121.166 -67 167.499s-98.667 69.5 -162 69.5z" />
    <glyph glyph-name="oe" unicode="&#x153;" horiz-adv-x="849" 
d="M726 156l97.001 -40c-14.667 -24 -25.834 -40.833 -33.501 -50.5s-18.5 -19.834 -32.5 -30.501c-42.667 -33.333 -91.667 -50 -147 -50c-70 0 -127.667 26.333 -173 79c-46.667 -52.667 -105.667 -79 -177 -79c-66 0 -121.667 22.833 -167 68.5s-68 101.834 -68 168.501
s22.667 122.667 68 168s101 68 167 68c72 0 131.333 -26.333 178 -79c44 52 99.667 78 167 78s120.833 -24 160.5 -72s59.5 -106 59.5 -174v-32h-326c15.333 -60.667 52.333 -91 111 -91c49.333 0 88 22.667 116 68zM263.001 355c-36.667 0 -66.332 -12.167 -88.999 -36.5
s-34 -56.5 -34 -96.5c0 -39.333 11.167 -71.5 33.5 -96.5s51.5 -37.5 87.5 -37.5c35.333 0 64.166 12.5 86.499 37.5s33.5 57.167 33.5 96.5c0 38.667 -11 70.5 -33 95.5s-50.333 37.5 -85 37.5zM498.003 264l213.001 -0.000976562c-18.667 62 -54 93 -106 93
c-26.667 0 -49.334 -8.16699 -68.001 -24.5s-31.667 -39.166 -39 -68.499z" />
    <glyph glyph-name="Racute" unicode="&#x154;" horiz-adv-x="554" 
d="M380 283l159.001 -283h-134l-141 253c-12.667 -0.666992 -26.334 -1 -41.001 -1h-35v-252h-118v667h153c82.667 0 144.667 -17.333 186 -52c47.333 -40 71 -92.667 71 -158c0 -36.667 -8.83301 -70.5 -26.5 -101.5s-42.167 -55.167 -73.5 -72.5zM188.001 559v-200h43
c88.667 0 133 33.333 133 100s-44.333 100 -133 100h-43zM304.001 903l108 -58l-154 -154l-76 44z" />
    <glyph glyph-name="racute" unicode="&#x155;" horiz-adv-x="307" 
d="M53 443h114v-29c24.667 21.333 53.667 32 87 32c10.667 0 24.667 -1 42 -3v-102c-24 1.33301 -37.667 2 -41 2c-33.333 0 -56.333 -9.5 -69 -28.5s-19 -52.833 -19 -101.5v-213h-114v443zM197 703l108 -58l-154 -154l-77 44z" />
    <glyph glyph-name="Rcommaaccent" unicode="&#x156;" horiz-adv-x="554" 
d="M380 283l159.001 -283h-134l-141 253c-12.667 -0.666992 -26.334 -1 -41.001 -1h-35v-252h-118v667h153c82.667 0 144.667 -17.333 186 -52c47.333 -40 71 -92.667 71 -158c0 -36.667 -8.83301 -70.5 -26.5 -101.5s-42.167 -55.167 -73.5 -72.5zM188.001 559v-200h43
c88.667 0 133 33.333 133 100s-44.333 100 -133 100h-43zM197.001 -217l57 194l109 -32l-82 -189z" />
    <glyph glyph-name="rcommaaccent" unicode="&#x157;" horiz-adv-x="307" 
d="M53 443h114v-29c24.667 21.333 53.667 32 87 32c10.667 0 24.667 -1 42 -3v-102c-24 1.33301 -37.667 2 -41 2c-33.333 0 -56.333 -9.5 -69 -28.5s-19 -52.833 -19 -101.5v-213h-114v443zM6 -217l58 194l108 -32l-81 -189z" />
    <glyph glyph-name="Rcaron" unicode="&#x158;" horiz-adv-x="554" 
d="M380 283l159.001 -283h-134l-141 253c-12.667 -0.666992 -26.334 -1 -41.001 -1h-35v-252h-118v667h153c82.667 0 144.667 -17.333 186 -52c47.333 -40 71 -92.667 71 -158c0 -36.667 -8.83301 -70.5 -26.5 -101.5s-42.167 -55.167 -73.5 -72.5zM188.001 559v-200h43
c88.667 0 133 33.333 133 100s-44.333 100 -133 100h-43zM171.001 895l89 -88l89 88l86 -43l-138 -151h-74l-138 151z" />
    <glyph glyph-name="rcaron" unicode="&#x159;" horiz-adv-x="304" 
d="M53 443h114.001v-29c24.667 21.333 53.334 32 86.001 32c11.333 0 25.333 -1 42 -3v-102c-22.667 1.33301 -36.334 2 -41.001 2c-32.667 0 -55.334 -9.33301 -68.001 -28s-19 -52.667 -19 -102v-213h-114v443zM85.001 695l89 -88l88 88l87 -43l-138 -151h-74l-138 151z
" />
    <glyph glyph-name="Sacute" unicode="&#x15a;" horiz-adv-x="520" 
d="M475 552l-97 -59.9971c-20 31.333 -37.333 52.5 -52 63.5s-33.334 16.5 -56.001 16.5c-27.333 0 -49.666 -7.83301 -66.999 -23.5s-26 -35.834 -26 -60.501c0 -31.333 26 -57 78 -77l63 -24c56 -21.333 97.333 -47.333 124 -78s40 -67.667 40 -111
c0 -60 -21.833 -110.5 -65.5 -151.5s-97.5 -61.5 -161.5 -61.5c-44.667 0 -85 11.167 -121 33.5s-63 53.166 -81 92.499c-6 13.333 -13.667 38.666 -23 75.999l115 30c9.33301 -35.333 16.333 -57.666 21 -66.999c19.333 -36 50 -54 92 -54
c28.667 0 53.167 9.83301 73.5 29.5s30.5 43.5 30.5 71.5c0 19.333 -7.16699 35.666 -21.5 48.999s-39.166 27 -74.499 41l-60 23c-98 38 -147 97.667 -147 179c0 55.333 20.167 101.333 60.5 138s90.833 55 151.5 55c48 0 87.167 -10.667 117.5 -32s59.166 -54 86.499 -98z
M320 903.003l108 -58l-154 -154l-76 44z" />
    <glyph glyph-name="sacute" unicode="&#x15b;" horiz-adv-x="384" 
d="M356 353l-88.998 -43.9971c-12.667 18.667 -23.667 31.334 -33 38.001s-20.666 10 -33.999 10c-14 0 -25.167 -3.33301 -33.5 -10s-12.5 -15.334 -12.5 -26.001c0 -9.33301 3.16699 -16.5 9.5 -21.5s22.166 -12.167 47.499 -21.5l40 -16
c37.333 -14.667 64.666 -32 81.999 -52s26 -44.333 26 -73c0 -42.667 -16 -78.667 -48 -108s-71.333 -44 -118 -44c-82.667 0 -140.334 46 -173.001 138l93 37c14 -28 26.667 -47 38 -57s25.666 -15 42.999 -15c15.333 0 27.666 4.16699 36.999 12.5s14 19.5 14 33.5
c0 9.33301 -3.5 16.666 -10.5 21.999s-22.167 12.666 -45.5 21.999l-45 17c-66 24.667 -99 65.667 -99 123c0 40 14.833 73.333 44.5 100s66.834 40 111.501 40c34.667 0 64.334 -8.33301 89.001 -25s46.667 -43.334 66 -80.001zM243.002 703.003l107 -58l-153 -154l-77 44z
" />
    <glyph glyph-name="Scircumflex" unicode="&#x15c;" horiz-adv-x="520" 
d="M475 552l-97 -59.9971c-20 31.333 -37.333 52.5 -52 63.5s-33.334 16.5 -56.001 16.5c-27.333 0 -49.666 -7.83301 -66.999 -23.5s-26 -35.834 -26 -60.501c0 -31.333 26 -57 78 -77l63 -24c56 -21.333 97.333 -47.333 124 -78s40 -67.667 40 -111
c0 -60 -21.833 -110.5 -65.5 -151.5s-97.5 -61.5 -161.5 -61.5c-44.667 0 -85 11.167 -121 33.5s-63 53.166 -81 92.499c-6 13.333 -13.667 38.666 -23 75.999l115 30c9.33301 -35.333 16.333 -57.666 21 -66.999c19.333 -36 50 -54 92 -54
c28.667 0 53.167 9.83301 73.5 29.5s30.5 43.5 30.5 71.5c0 19.333 -7.16699 35.666 -21.5 48.999s-39.166 27 -74.499 41l-60 23c-98 38 -147 97.667 -147 179c0 55.333 20.167 101.333 60.5 138s90.833 55 151.5 55c48 0 87.167 -10.667 117.5 -32s59.166 -54 86.499 -98z
M346 692.003l-88 88l-89 -88l-86 43l138 151h74l138 -151z" />
    <glyph glyph-name="scircumflex" unicode="&#x15d;" horiz-adv-x="394" 
d="M358 353l-89 -43.9971c-13.333 18.667 -24.666 31.334 -33.999 38.001s-20.333 10 -33 10c-14 0 -25.167 -3.33301 -33.5 -10s-12.5 -15.334 -12.5 -26.001c0 -9.33301 3.16699 -16.5 9.5 -21.5s21.833 -12.167 46.5 -21.5l40 -16c38 -14.667 65.667 -31.834 83 -51.501
s26 -44.167 26 -73.5c0 -42.667 -16 -78.667 -48 -108s-71.333 -44 -118 -44c-82.667 0 -140.334 46 -173.001 138l93 37c13.333 -27.333 25.833 -46.166 37.5 -56.499s26.167 -15.5 43.5 -15.5c15.333 0 27.666 4.16699 36.999 12.5s14 19.5 14 33.5
c0 9.33301 -3.33301 16.666 -10 21.999s-22.334 12.666 -47.001 21.999l-44 17c-66 24.667 -99 65.667 -99 123c0 40 14.833 73.333 44.5 100s66.834 40 111.501 40c34.667 0 64.334 -8.33301 89.001 -25s46.667 -43.334 66 -80.001zM283 492.003l-88 88l-89 -88l-86 43
l138 151h74l138 -151z" />
    <glyph glyph-name="Scedilla" unicode="&#x15e;" horiz-adv-x="520" 
d="M475 552l-97 -59.9971c-20 31.333 -37.333 52.5 -52 63.5s-33.334 16.5 -56.001 16.5c-27.333 0 -49.666 -7.83301 -66.999 -23.5s-26 -35.834 -26 -60.501c0 -31.333 26 -57 78 -77l63 -24c56 -21.333 97.333 -47.333 124 -78s40 -67.667 40 -111
c0 -60 -21.833 -110.5 -65.5 -151.5s-97.5 -61.5 -161.5 -61.5c-44.667 0 -85 11.167 -121 33.5s-63 53.166 -81 92.499c-6 13.333 -13.667 38.666 -23 75.999l115 30c9.33301 -35.333 16.333 -57.666 21 -66.999c19.333 -36 50 -54 92 -54
c28.667 0 53.167 9.83301 73.5 29.5s30.5 43.5 30.5 71.5c0 19.333 -7.16699 35.666 -21.5 48.999s-39.166 27 -74.499 41l-60 23c-98 38 -147 97.667 -147 179c0 55.333 20.167 101.333 60.5 138s90.833 55 151.5 55c48 0 87.167 -10.667 117.5 -32s59.166 -54 86.499 -98z
M259 -21.9971l104 -45l-126 -161l-82 42z" />
    <glyph glyph-name="scedilla" unicode="&#x15f;" horiz-adv-x="384" 
d="M356 353l-88.998 -43.9971c-12.667 18.667 -23.667 31.334 -33 38.001s-20.666 10 -33.999 10c-14 0 -25.167 -3.33301 -33.5 -10s-12.5 -15.334 -12.5 -26.001c0 -9.33301 3.16699 -16.5 9.5 -21.5s22.166 -12.167 47.499 -21.5l40 -16
c37.333 -14.667 64.666 -32 81.999 -52s26 -44.333 26 -73c0 -42.667 -16 -78.667 -48 -108s-71.333 -44 -118 -44c-82.667 0 -140.334 46 -173.001 138l93 37c14 -28 26.667 -47 38 -57s25.666 -15 42.999 -15c15.333 0 27.666 4.16699 36.999 12.5s14 19.5 14 33.5
c0 9.33301 -3.5 16.666 -10.5 21.999s-22.167 12.666 -45.5 21.999l-45 17c-66 24.667 -99 65.667 -99 123c0 40 14.833 73.333 44.5 100s66.834 40 111.501 40c34.667 0 64.334 -8.33301 89.001 -25s46.667 -43.334 66 -80.001zM186.002 -21.9971l105 -45l-127 -161l-82 42
z" />
    <glyph glyph-name="Scaron" unicode="&#x160;" horiz-adv-x="520" 
d="M475 552l-97 -59.9971c-20 31.333 -37.333 52.5 -52 63.5s-33.334 16.5 -56.001 16.5c-27.333 0 -49.666 -7.83301 -66.999 -23.5s-26 -35.834 -26 -60.501c0 -31.333 26 -57 78 -77l63 -24c56 -21.333 97.333 -47.333 124 -78s40 -67.667 40 -111
c0 -60 -21.833 -110.5 -65.5 -151.5s-97.5 -61.5 -161.5 -61.5c-44.667 0 -85 11.167 -121 33.5s-63 53.166 -81 92.499c-6 13.333 -13.667 38.666 -23 75.999l115 30c9.33301 -35.333 16.333 -57.666 21 -66.999c19.333 -36 50 -54 92 -54
c28.667 0 53.167 9.83301 73.5 29.5s30.5 43.5 30.5 71.5c0 19.333 -7.16699 35.666 -21.5 48.999s-39.166 27 -74.499 41l-60 23c-98 38 -147 97.667 -147 179c0 55.333 20.167 101.333 60.5 138s90.833 55 151.5 55c48 0 87.167 -10.667 117.5 -32s59.166 -54 86.499 -98z
M169 895.003l89 -88l88 88l87 -43l-138 -151h-74l-138 151z" />
    <glyph glyph-name="scaron" unicode="&#x161;" horiz-adv-x="394" 
d="M358 353l-89 -43.9971c-13.333 18.667 -24.666 31.334 -33.999 38.001s-20.333 10 -33 10c-14 0 -25.167 -3.33301 -33.5 -10s-12.5 -15.334 -12.5 -26.001c0 -9.33301 3.16699 -16.5 9.5 -21.5s21.833 -12.167 46.5 -21.5l40 -16c38 -14.667 65.667 -31.834 83 -51.501
s26 -44.167 26 -73.5c0 -42.667 -16 -78.667 -48 -108s-71.333 -44 -118 -44c-82.667 0 -140.334 46 -173.001 138l93 37c13.333 -27.333 25.833 -46.166 37.5 -56.499s26.167 -15.5 43.5 -15.5c15.333 0 27.666 4.16699 36.999 12.5s14 19.5 14 33.5
c0 9.33301 -3.33301 16.666 -10 21.999s-22.334 12.666 -47.001 21.999l-44 17c-66 24.667 -99 65.667 -99 123c0 40 14.833 73.333 44.5 100s66.834 40 111.501 40c34.667 0 64.334 -8.33301 89.001 -25s46.667 -43.334 66 -80.001zM106 695.003l89 -88l88 88l87 -43
l-138 -151h-74l-138 151z" />
    <glyph glyph-name="Tcommaaccent" unicode="&#x162;" horiz-adv-x="438" 
d="M441 558h-163v-558h-118v558h-163v109h444v-109zM122 -217l58 194l108 -32l-81 -189z" />
    <glyph glyph-name="tcommaaccent" unicode="&#x163;" horiz-adv-x="266" 
d="M240 340h-68.002v-197c0 -16.667 1.5 -28 4.5 -34s8.83301 -9 17.5 -9c10.667 0 28.334 3.33301 53.001 10v-107c-26.667 -7.33301 -48.667 -11 -66 -11c-39.333 0 -69.666 13 -90.999 39s-32 63.333 -32 112v197h-46v103h46v95l114 45v-140h68v-103zM47.998 -217l57 194
l109 -32l-81 -189z" />
    <glyph glyph-name="Tcaron" unicode="&#x164;" horiz-adv-x="438" 
d="M441 558h-163v-558h-118v558h-163v109h444v-109zM131 895l88 -88l89 88l86 -43l-138 -151h-74l-138 151z" />
    <glyph glyph-name="tcaron" unicode="&#x165;" horiz-adv-x="356" 
d="M240 340h-68.002v-197c0 -16.667 1.5 -28 4.5 -34s8.83301 -9 17.5 -9c10.667 0 28.334 3.33301 53.001 10v-107c-26.667 -7.33301 -48.667 -11 -66 -11c-39.333 0 -69.666 13 -90.999 39s-32 63.333 -32 112v197h-46v103h46v95l114 45v-140h68v-103zM205.998 508l57 194
l109 -32l-82 -189z" />
    <glyph glyph-name="Tbar" unicode="&#x166;" horiz-adv-x="438" 
d="M278 558v-115h100v-105h-100v-338h-118v338h-100v105h100v115h-163v109h444v-109h-163z" />
    <glyph glyph-name="tbar" unicode="&#x167;" horiz-adv-x="266" 
d="M172 583l-0.00195312 -140h68v-103h-68v-26h68v-103h-68v-68c0 -16.667 1.5 -28 4.5 -34s8.83301 -9 17.5 -9c10.667 0 28.334 3.33301 53.001 10v-107c-26.667 -7.33301 -48.667 -11 -66 -11c-39.333 0 -69.666 13 -90.999 39s-32 63.333 -32 112v68h-46v103h46v26h-46
v103h46v95z" />
    <glyph glyph-name="Utilde" unicode="&#x168;" horiz-adv-x="639" 
d="M70 667h118.001v-410c0 -52 6 -87 18 -105c10 -16 25.667 -29.167 47 -39.5s43.333 -15.5 66 -15.5c23.333 0 45.666 5.16699 66.999 15.5s37 23.5 47 39.5c12 18 18 53 18 105v410h118v-429c0 -68 -15.333 -121 -46 -159c-22.667 -29.333 -52.167 -52.333 -88.5 -69
s-74.5 -25 -114.5 -25c-40.667 0 -79.167 8.33301 -115.5 25s-65.833 39.667 -88.5 69c-30.667 38 -46 91 -46 159v429zM381.001 865l95.999 -23c-2.66699 -28 -6.33398 -47.667 -11.001 -59c-15.333 -40 -44.666 -60 -87.999 -60c-20.667 0 -46 7 -76 21
c-18.667 8 -29.667 12 -33 12s-5.33301 -1.33301 -6 -4c-0.666992 0 -3 -11.667 -7 -35l-93 22c2.66699 28 7.33398 49 14.001 63c17.333 37.333 46 56 86 56c17.333 0 43.333 -7.33301 78 -22c15.333 -7.33301 25.333 -11 30 -11c3.33301 0 5.5 1.66699 6.5 5
s2.16699 15 3.5 35z" />
    <glyph glyph-name="utilde" unicode="&#x169;" horiz-adv-x="509" 
d="M456 0l-114 -0.00390625v23c-32 -25.333 -66.333 -38 -103 -38c-55.333 0 -101 19.667 -137 59c-32.667 34.667 -49 88.334 -49 161.001v238h114v-231c0 -18 0.833008 -33.167 2.5 -45.5s5 -25.166 10 -38.499s13.167 -23.333 24.5 -30s26 -10 44 -10
c20.667 0 37.5 3.5 50.5 10.5s22.5 17.333 28.5 31s10 27.334 12 41.001s3 30.834 3 51.501v221h114v-443zM316 664.996l95.998 -21.999c-3.33301 -28.667 -7 -48.334 -11 -59.001c-7.33301 -19.333 -18.666 -34.333 -33.999 -45s-33.333 -16 -54 -16
c-20 0 -45.333 7 -76 21c-18 8.66699 -29 13 -33 13c-3.33301 0 -5.33301 -1.33301 -6 -4c-0.666992 0 -3 -12 -7 -36l-93 22c2.66699 28.667 7.33398 50 14.001 64c17.333 37.333 46 56 86 56c17.333 0 43.333 -7.66699 78 -23c15.333 -7.33301 25.333 -11 30 -11
c3.33301 0 5.5 1.66699 6.5 5s2.16699 15 3.5 35z" />
    <glyph glyph-name="Umacron" unicode="&#x16a;" horiz-adv-x="639" 
d="M70 667h118.001v-410c0 -52 6 -87 18 -105c10 -16 25.667 -29.167 47 -39.5s43.333 -15.5 66 -15.5c23.333 0 45.666 5.16699 66.999 15.5s37 23.5 47 39.5c12 18 18 53 18 105v410h118v-429c0 -68 -15.333 -121 -46 -159c-22.667 -29.333 -52.167 -52.333 -88.5 -69
s-74.5 -25 -114.5 -25c-40.667 0 -79.167 8.33301 -115.5 25s-65.833 39.667 -88.5 69c-30.667 38 -46 91 -46 159v429zM164.001 740v102h312v-102h-312z" />
    <glyph glyph-name="umacron" unicode="&#x16b;" horiz-adv-x="509" 
d="M456 0l-114 -0.00390625v23c-32 -25.333 -66.333 -38 -103 -38c-55.333 0 -101 19.667 -137 59c-32.667 34.667 -49 88.334 -49 161.001v238h114v-231c0 -18 0.833008 -33.167 2.5 -45.5s5 -25.166 10 -38.499s13.167 -23.333 24.5 -30s26 -10 44 -10
c20.667 0 37.5 3.5 50.5 10.5s22.5 17.333 28.5 31s10 27.334 12 41.001s3 30.834 3 51.501v221h114v-443zM99 539.996v102h312v-102h-312z" />
    <glyph glyph-name="Ubreve" unicode="&#x16c;" horiz-adv-x="639" 
d="M70 667h118.001v-410c0 -52 6 -87 18 -105c10 -16 25.667 -29.167 47 -39.5s43.333 -15.5 66 -15.5c23.333 0 45.666 5.16699 66.999 15.5s37 23.5 47 39.5c12 18 18 53 18 105v410h118v-429c0 -68 -15.333 -121 -46 -159c-22.667 -29.333 -52.167 -52.333 -88.5 -69
s-74.5 -25 -114.5 -25c-40.667 0 -79.167 8.33301 -115.5 25s-65.833 39.667 -88.5 69c-30.667 38 -46 91 -46 159v429zM167.001 864l99 8.99902c0 -2.66699 0.166992 -5.66699 0.5 -9s0.666016 -6 0.999023 -8s0.5 -3.33301 0.5 -4c1.33301 -39.333 17.666 -59 48.999 -59
c20 0 35 9.33301 45 28c3.33301 6 7 23 11 51l99 -8c-3.33301 -29.333 -6.16602 -48.333 -8.49902 -57s-6.83301 -19 -13.5 -31c-28.667 -53.333 -72.667 -80 -132 -80c-31.333 0 -59.666 8.33301 -84.999 25s-43.666 39.334 -54.999 68.001
c-6.66699 15.333 -10.334 40.333 -11.001 75z" />
    <glyph glyph-name="ubreve" unicode="&#x16d;" horiz-adv-x="509" 
d="M456 0l-114 -0.00390625v23c-32 -25.333 -66.333 -38 -103 -38c-55.333 0 -101 19.667 -137 59c-32.667 34.667 -49 88.334 -49 161.001v238h114v-231c0 -18 0.833008 -33.167 2.5 -45.5s5 -25.166 10 -38.499s13.167 -23.333 24.5 -30s26 -10 44 -10
c20.667 0 37.5 3.5 50.5 10.5s22.5 17.333 28.5 31s10 27.334 12 41.001s3 30.834 3 51.501v221h114v-443zM102 664.996l99.0029 7.99902c0 -2 0.166992 -4.66699 0.5 -8s0.666016 -6.16602 0.999023 -8.49902s0.5 -3.83301 0.5 -4.5c1.33301 -39.333 17.666 -59 48.999 -59
c20 0 35 9.33301 45 28c3.33301 6 7 23.333 11 52l99 -8c-2.66699 -28.667 -5.16699 -47.5 -7.5 -56.5s-7.16602 -19.833 -14.499 -32.5c-28.667 -53.333 -72.667 -80 -132 -80c-31.333 0 -59.833 8.33301 -85.5 25s-43.834 39.334 -54.501 68.001
c-6.66699 15.333 -10.334 40.666 -11.001 75.999z" />
    <glyph glyph-name="Uring" unicode="&#x16e;" horiz-adv-x="639" 
d="M70 667h118.001v-410c0 -52 6 -87 18 -105c10 -16 25.667 -29.167 47 -39.5s43.333 -15.5 66 -15.5c23.333 0 45.666 5.16699 66.999 15.5s37 23.5 47 39.5c12 18 18 53 18 105v410h118v-429c0 -68 -15.333 -121 -46 -159c-22.667 -29.333 -52.167 -52.333 -88.5 -69
s-74.5 -25 -114.5 -25c-40.667 0 -79.167 8.33301 -115.5 25s-65.833 39.667 -88.5 69c-30.667 38 -46 91 -46 159v429zM320.001 898c30 0 55.667 -10.5 77 -31.5s32 -46.167 32 -75.5s-10.667 -54.5 -32 -75.5s-47 -31.5 -77 -31.5c-30.667 0 -56.5 10.5 -77.5 31.5
s-31.5 46.5 -31.5 76.5c0 28.667 10.833 53.5 32.5 74.5s47.167 31.5 76.5 31.5zM320.001 843c-14 0 -26.167 -5 -36.5 -15s-15.5 -22 -15.5 -36c0 -14.667 5 -27.167 15 -37.5s22.333 -15.5 37 -15.5s27 5 37 15s15 22.333 15 37s-5 27 -15 37s-22.333 15 -37 15z" />
    <glyph glyph-name="uring" unicode="&#x16f;" horiz-adv-x="509" 
d="M456 0l-114 -0.00390625v23c-32 -25.333 -66.333 -38 -103 -38c-55.333 0 -101 19.667 -137 59c-32.667 34.667 -49 88.334 -49 161.001v238h114v-231c0 -18 0.833008 -33.167 2.5 -45.5s5 -25.166 10 -38.499s13.167 -23.333 24.5 -30s26 -10 44 -10
c20.667 0 37.5 3.5 50.5 10.5s22.5 17.333 28.5 31s10 27.334 12 41.001s3 30.834 3 51.501v221h114v-443zM255 697.996c30 0 55.667 -10.5 77 -31.5s32 -46.167 32 -75.5s-10.667 -54.5 -32 -75.5s-47 -31.5 -77 -31.5c-30.667 0 -56.5 10.5 -77.5 31.5
s-31.5 46.5 -31.5 76.5c0 28.667 10.833 53.5 32.5 74.5s47.167 31.5 76.5 31.5zM255 642.996c-14 0 -26.167 -5 -36.5 -15s-15.5 -22 -15.5 -36c0 -14.667 5 -27.167 15 -37.5s22.333 -15.5 37 -15.5s27 5 37 15s15 22.333 15 37s-5 27 -15 37s-22.333 15 -37 15z" />
    <glyph glyph-name="Uhungarumlaut" unicode="&#x170;" horiz-adv-x="639" 
d="M70 667h118.001v-410c0 -52 6 -87 18 -105c10 -16 25.667 -29.167 47 -39.5s43.333 -15.5 66 -15.5c23.333 0 45.666 5.16699 66.999 15.5s37 23.5 47 39.5c12 18 18 53 18 105v410h118v-429c0 -68 -15.333 -121 -46 -159c-22.667 -29.333 -52.167 -52.333 -88.5 -69
s-74.5 -25 -114.5 -25c-40.667 0 -79.167 8.33301 -115.5 25s-65.833 39.667 -88.5 69c-30.667 38 -46 91 -46 159v429zM393.001 848l-157 -158l-64 45l122 169zM318.001 732l124 172l96 -59l-154 -155z" />
    <glyph glyph-name="uhungarumlaut" unicode="&#x171;" horiz-adv-x="509" 
d="M456 0l-114 -0.00390625v23c-32 -25.333 -66.333 -38 -103 -38c-55.333 0 -101 19.667 -137 59c-32.667 34.667 -49 88.334 -49 161.001v238h114v-231c0 -18 0.833008 -33.167 2.5 -45.5s5 -25.166 10 -38.499s13.167 -23.333 24.5 -30s26 -10 44 -10
c20.667 0 37.5 3.5 50.5 10.5s22.5 17.333 28.5 31s10 27.334 12 41.001s3 30.834 3 51.501v221h114v-443zM333 647.996l-157 -158l-64 45l122 169zM258 531.996l124 172l96 -59l-154 -155z" />
    <glyph glyph-name="Uogonek" unicode="&#x172;" horiz-adv-x="639" 
d="M455 667l118.001 0.00195312v-428c2 -62.667 -13 -115.167 -45 -157.5s-78.667 -71.833 -140 -88.5c-20 -26.667 -30 -45.667 -30 -57c0 -6 4.33301 -9 13 -9c10.667 0 26.667 4.33301 48 13l34 -87c-38 -14 -67.333 -21 -88 -21c-32 0 -58.5 9.16699 -79.5 27.5
s-31.5 41.166 -31.5 68.499c0 19.333 6.33301 40 19 62c-65.333 14 -115.333 42.667 -150 86s-51 97.666 -49 162.999v428h118v-410c0 -51.333 6 -86.333 18 -105c10 -16 25.667 -29.167 47 -39.5s43.333 -15.5 66 -15.5c23.333 0 45.666 5.16699 66.999 15.5
s37 23.5 47 39.5c12 18.667 18 53.667 18 105v410z" />
    <glyph glyph-name="uogonek" unicode="&#x173;" horiz-adv-x="509" 
d="M456 443l0.000976562 -443.003l-6 -8c-19.333 -26 -29 -44.667 -29 -56c0 -6 4 -9 12 -9c11.333 0 27.666 4 48.999 12l34 -86c-38 -14 -67.333 -21 -88 -21c-32 0 -58.5 9.16699 -79.5 27.5s-31.5 41.166 -31.5 68.499c0 21.333 8.33301 45.333 25 72v23
c-32 -25.333 -66.333 -38 -103 -38c-55.333 0 -101 19.667 -137 59c-32.667 34.667 -49 88.334 -49 161.001v238h114v-231c0 -18 0.833008 -33.167 2.5 -45.5s5 -25.166 10 -38.499s13.167 -23.333 24.5 -30s26 -10 44 -10c20.667 0 37.5 3.5 50.5 10.5s22.5 17.333 28.5 31
s10 27.334 12 41.001s3 30.834 3 51.501v221h114z" />
    <glyph glyph-name="Wcircumflex" unicode="&#x174;" horiz-adv-x="876" 
d="M-3 667h123l130 -460l139 460h99l140 -460l129 460h123l-198 -667h-109l-135 440l-134 -440h-109zM527 692l-89 88l-88 -88l-86 43l138 151h73l138 -151z" />
    <glyph glyph-name="wcircumflex" unicode="&#x175;" horiz-adv-x="662" 
d="M-9 443h122l83 -255l91 255h90l90 -255l83 255h122l-161 -443h-90l-89 251l-90 -251h-90zM420 492l-88 88l-89 -88l-86 43l138 151h73l138 -151z" />
    <glyph glyph-name="Ycircumflex" unicode="&#x176;" horiz-adv-x="540" 
d="M211 0v276l-221 391h132l148 -270l148 270h132l-221 -391v-276h-118zM358 692l-88 88l-89 -88l-86 43l138 151h74l138 -151z" />
    <glyph glyph-name="ycircumflex" unicode="&#x177;" horiz-adv-x="473" 
d="M61 -233l113 254l-183 422h124l120 -283l125 283h123l-301 -676h-121zM326 492l-88 88l-89 -88l-86 43l138 151h74l138 -151z" />
    <glyph glyph-name="Ydieresis" unicode="&#x178;" horiz-adv-x="540" 
d="M211 0v276l-221 391h132l148 -270l148 270h132l-221 -391v-276h-118zM179 860c19.333 0 36 -6.83203 50 -20.499s21 -30.167 21 -49.5s-7 -35.833 -21 -49.5s-31 -20.5 -51 -20.5s-36.833 6.83301 -50.5 20.5s-20.5 30.5 -20.5 50.5c0 19.333 7 35.666 21 48.999
s31 20 51 20zM363 860.001c19.333 0 36 -6.83203 50 -20.499s21 -30.167 21 -49.5s-7 -35.833 -21 -49.5s-31 -20.5 -51 -20.5s-36.833 6.83301 -50.5 20.5s-20.5 30.5 -20.5 50.5c0 19.333 7 35.666 21 48.999s31 20 51 20z" />
    <glyph glyph-name="Zacute" unicode="&#x179;" horiz-adv-x="511" 
d="M489 575l-325 -465h332v-110h-483v92l329 466h-301v109h448v-92zM297 903l107 -58l-153 -154l-77 44z" />
    <glyph glyph-name="zacute" unicode="&#x17a;" horiz-adv-x="412" 
d="M397 358l-226 -255h235v-103h-387v85l227 256h-213v102h364v-85zM255 703l108 -58l-154 -154l-77 44z" />
    <glyph glyph-name="Zdotaccent" unicode="&#x17b;" horiz-adv-x="511" 
d="M489 575l-325 -465h332v-110h-483v92l329 466h-301v109h448v-92zM272 860c18.667 0 35 -6.99902 49 -20.999s21 -30.333 21 -49c0 -19.333 -7 -35.833 -21 -49.5s-30.667 -20.5 -50 -20.5c-20 0 -37 6.83301 -51 20.5s-21 30.5 -21 50.5c0 19.333 7 35.666 21 48.999
s31.333 20 52 20z" />
    <glyph glyph-name="zdotaccent" unicode="&#x17c;" horiz-adv-x="412" 
d="M397 358l-226 -255h235v-103h-387v85l227 256h-213v102h364v-85zM214 664c18.667 0 35 -6.99902 49 -20.999s21 -30.333 21 -49c0 -19.333 -7 -35.833 -21 -49.5s-30.667 -20.5 -50 -20.5c-20 0 -37 6.83301 -51 20.5s-21 30.5 -21 50.5c0 19.333 7 35.666 21 48.999
s31.333 20 52 20z" />
    <glyph glyph-name="Zcaron" unicode="&#x17d;" horiz-adv-x="511" 
d="M489 575l-325 -465h332v-110h-483v92l329 466h-301v109h448v-92zM182 895l89 -88l88 88l87 -43l-138 -151h-74l-138 151z" />
    <glyph glyph-name="zcaron" unicode="&#x17e;" horiz-adv-x="412" 
d="M397 358l-226 -255h235v-103h-387v85l227 256h-213v102h364v-85zM124 695l88 -88l89 88l86 -43l-138 -151h-73l-138 151z" />
    <glyph glyph-name="longs" unicode="&#x17f;" horiz-adv-x="239" 
d="M174 524v-524.001h-114v340h-42v103h42v81c0 48.667 10.667 86 32 112s52.333 39 93 39c18.667 0 39.667 -2.66699 63 -8v-103c-16.667 5.33301 -30 8 -40 8c-12.667 0 -21.5 -3.66699 -26.5 -11s-7.5 -19.666 -7.5 -36.999z" />
    <glyph glyph-name="uni018F" unicode="&#x18f;" horiz-adv-x="756" 
d="M33 381l564.999 -0.000976562c-13.333 58.667 -40.166 105.167 -80.499 139.5s-88.5 51.5 -144.5 51.5c-44 0 -83.333 -11.5 -118 -34.5s-62.667 -56.167 -84 -99.5l-104 56c31.333 60.667 73.333 107.167 126 139.5s112.667 48.5 180 48.5
c98.667 0 181.667 -33.5 249 -100.5s101 -149.5 101 -247.5c0 -96.667 -33.5 -179 -100.5 -247s-148.167 -102 -243.5 -102c-61.333 0 -119 15.333 -173 46s-96 71.667 -126 123c-29.333 50.667 -45 126.334 -47 227.001zM598.999 289.999l-439.001 -0.000976562
c8.66699 -59.333 32.834 -106.666 72.501 -141.999s88.167 -53 145.5 -53c38.667 0 74.5 9 107.5 27s59.833 43.333 80.5 76c12 19.333 23 50 33 92z" />
    <glyph glyph-name="florin" unicode="&#x192;" horiz-adv-x="488" 
d="M339 514l-13.998 -71h79l-22 -103h-79l-80 -388c-21.333 -101.333 -73.333 -152 -156 -152c-14 0 -37 4.33301 -69 13l23 109c4 -1.33301 8.83301 -2.66602 14.5 -3.99902s9.16699 -2.33301 10.5 -3c10 -2.66699 17.333 -4 22 -4c18.667 0 31.334 17 38.001 51l78 378
h-43l21 103h44l16 81c21.333 102 73 153 155 153c15.333 0 38.666 -4.33301 69.999 -13l-22 -110c-26.667 7.33301 -42.334 11 -47.001 11c-10.667 0 -18.834 -3.83301 -24.501 -11.5s-10.5 -20.834 -14.5 -39.501z" />
    <glyph glyph-name="Ohorn" unicode="&#x1a0;" horiz-adv-x="772" 
d="M600 723l87.001 43.001c20 -14 34.333 -26.333 43 -37c20 -26 30 -56.333 30 -91c0 -50 -26.333 -93 -79 -129c32.667 -57.333 49 -116.333 49 -177c0 -94.667 -34.333 -176.167 -103 -244.5s-150.667 -102.5 -246 -102.5s-177.333 34.167 -246 102.5
s-103 150.166 -103 245.499s34.167 177.333 102.5 246s150.166 103 245.499 103c43.333 0 85.833 -8.33301 127.5 -25s78.167 -39.667 109.5 -69c27.333 13.333 41 31 41 53c0 14 -5 28 -15 42c-4.66699 6 -19 19.333 -43 40zM381.001 570.001
c-62.667 0 -116.5 -22.832 -161.5 -68.499s-67.5 -100.5 -67.5 -164.5c0 -66.667 22.167 -123.334 66.5 -170.001s97.833 -70 160.5 -70c64 0 118.5 23 163.5 69s67.5 101.667 67.5 167c0 66 -22.333 122 -67 168s-98.667 69 -162 69z" />
    <glyph glyph-name="ohorn" unicode="&#x1a1;" horiz-adv-x="566" 
d="M400 499l86.999 43c20 -14 34.333 -26.333 43 -37c20 -26 30 -56.333 30 -91c0 -49.333 -24.333 -91 -73 -125c6 -24 9 -46.333 9 -67c0 -66.667 -22.667 -122.834 -68 -168.501s-101 -68.5 -167 -68.5c-66.667 0 -122.667 22.833 -168 68.5s-68 101.834 -68 168.501
c0 66 22.667 121.833 68 167.5s101 68.5 167 68.5c72.667 0 132.334 -27 179.001 -81c12.667 10.667 19 24 19 40c0 14 -5 28 -15 42c-4.66699 6 -19 19.333 -43 40zM262.999 355c-36.667 0 -66.332 -12.167 -88.999 -36.5s-34 -56.5 -34 -96.5
c0 -39.333 11.167 -71.5 33.5 -96.5s51.5 -37.5 87.5 -37.5c35.333 0 64.166 12.5 86.499 37.5s33.5 57.167 33.5 96.5c0 38.667 -11 70.5 -33 95.5s-50.333 37.5 -85 37.5z" />
    <glyph glyph-name="Uhorn" unicode="&#x1af;" horiz-adv-x="693" 
d="M451 667l118.001 0.000976562v-72c18.667 11.333 28 26.666 28 45.999c0 13.333 -4.66699 27.333 -14 42c-5.33301 6.66699 -20 20 -44 40l87 43c25.333 -18 43.833 -36.5 55.5 -55.5s17.5 -43.167 17.5 -72.5c0 -67.333 -41.333 -118 -124 -152l-6 -2v-246
c0 -68 -15.333 -121 -46 -159c-22.667 -29.333 -52.167 -52.333 -88.5 -69s-74.5 -25 -114.5 -25c-40.667 0 -79.167 8.33301 -115.5 25s-65.833 39.667 -88.5 69c-30.667 38 -46 91 -46 159v429h118v-410c0 -52 6 -87 18 -105c10 -16 25.667 -29.167 47 -39.5
s43.333 -15.5 66 -15.5c23.333 0 45.666 5.16699 66.999 15.5s37 23.5 47 39.5c12 18 18 53 18 105v410z" />
    <glyph glyph-name="uhorn" unicode="&#x1b0;" horiz-adv-x="595" 
d="M342 443l114 -0.00390625v-73c20 12 30 27.667 30 47c0 13.333 -4.66699 27.333 -14 42c-5.33301 6.66699 -20 20 -44 40l87 43c25.333 -18 43.833 -36.5 55.5 -55.5s17.5 -43.167 17.5 -72.5c0 -67.333 -41.333 -118 -124 -152l-8 -3v-259h-114v23
c-32 -25.333 -66.333 -38 -103 -38c-55.333 0 -101 19.667 -137 59c-32.667 34.667 -49 88.334 -49 161.001v238h114v-231c0 -18 0.833008 -33.167 2.5 -45.5s5 -25.166 10 -38.499s13.167 -23.333 24.5 -30s26 -10 44 -10c20.667 0 37.5 3.5 50.5 10.5s22.5 17.333 28.5 31
s10 27.334 12 41.001s3 30.834 3 51.501v221z" />
    <glyph glyph-name="uni01C4" unicode="&#x1c4;" horiz-adv-x="1130" 
d="M70 0v666.999h153c110.667 0 199 -30.167 265 -90.5s99 -141.166 99 -242.499c0 -102 -32.833 -183.167 -98.5 -243.5s-154.167 -90.5 -265.5 -90.5h-153zM226 556.999h-38v-447h38c75.333 0 134.5 20 177.5 60s64.5 94.667 64.5 164c0 68.667 -21.667 123 -65 163
s-102.333 60 -177 60zM1108 574.999l-324 -465h331v-110h-483v92l330 466h-301v109h447v-92zM802 894.999l88 -88l89 88l86 -43l-138 -151h-74l-138 151z" />
    <glyph glyph-name="uni01C5" unicode="&#x1c5;" horiz-adv-x="1031" 
d="M70 0v666.999h153c110.667 0 199 -30.167 265 -90.5s99 -141.166 99 -242.499c0 -102 -32.833 -183.167 -98.5 -243.5s-154.167 -90.5 -265.5 -90.5h-153zM226 556.999h-38v-447h38c75.333 0 134.5 20 177.5 60s64.5 94.667 64.5 164c0 68.667 -21.667 123 -65 163
s-102.333 60 -177 60zM1016 357.999l-226 -255h235v-103h-387v85l226 256h-213v102h365v-85zM743 694.999l88 -88l89 88l86 -43l-138 -151h-74l-138 151z" />
    <glyph glyph-name="uni01C6" unicode="&#x1c6;" horiz-adv-x="956" 
d="M491 667v-667h-114v28c-38 -28.667 -77.667 -43 -119 -43c-64.667 0 -119.667 23 -165 69s-68 102 -68 168c0 65.333 22.667 121 68 167s100.333 69 165 69c41.333 0 81 -14.333 119 -43v252h114zM262 355c-36.667 0 -66.166 -12.167 -88.499 -36.5
s-33.5 -56.5 -33.5 -96.5c0 -39.333 11.167 -71.5 33.5 -96.5s51.166 -37.5 86.499 -37.5c34.667 0 63 12.5 85 37.5s33 57.167 33 96.5c0 38.667 -10.833 70.5 -32.5 95.5s-49.5 37.5 -83.5 37.5zM941.001 358l-226 -255h235v-103h-387v85l226 256h-213v102h365v-85z
M668.001 695l88 -88l89 88l86 -43l-138 -151h-74l-138 151z" />
    <glyph glyph-name="uni01C7" unicode="&#x1c7;" horiz-adv-x="864" 
d="M70 667h118v-557h245v-110h-363v667zM676 667h118v-460c0 -42 -3.5 -75.333 -10.5 -100s-19.833 -47 -38.5 -67c-32.667 -36.667 -77 -55 -133 -55c-31.333 0 -60.833 6.83301 -88.5 20.5s-57.167 36.167 -88.5 67.5l74 86c38.667 -41.333 73 -62 103 -62
c22.667 0 39 8.66699 49 26s15 45.333 15 84v460z" />
    <glyph glyph-name="uni01C8" unicode="&#x1c8;" horiz-adv-x="665" 
d="M498 443h113.999v-535c0 -48.667 -10.667 -86 -32 -112s-51.666 -39 -90.999 -39c-18 0 -40 3.66699 -66 11v108c24 -7.33301 41.667 -11 53 -11c8.66699 0 14.5 3 17.5 9s4.5 17.333 4.5 34v535zM69.999 667h118v-557h245v-110h-363v667zM555.999 664
c18.667 0 35 -6.99902 49 -20.999s21 -30.333 21 -49c0 -19.333 -7 -35.833 -21 -49.5s-30.667 -20.5 -50 -20.5c-20 0 -37 6.83301 -51 20.5s-21 30.5 -21 50.5c0 19.333 7 35.666 21 48.999s31.333 20 52 20z" />
    <glyph glyph-name="uni01C9" unicode="&#x1c9;" horiz-adv-x="452" 
d="M285 443h113.999v-535c0 -48.667 -10.667 -86 -32 -112s-51.666 -39 -90.999 -39c-18 0 -40 3.66699 -66 11v108c24 -7.33301 41.667 -11 53 -11c8.66699 0 14.5 3 17.5 9s4.5 17.333 4.5 34v535zM167.999 667v-667h-114v667h114zM342.999 664
c19.333 0 35.833 -6.99902 49.5 -20.999s20.5 -30.333 20.5 -49c0 -19.333 -7 -35.833 -21 -49.5s-30.667 -20.5 -50 -20.5c-20 0 -37 6.83301 -51 20.5s-21 30.5 -21 50.5c0 19.333 7 35.666 21 48.999s31.333 20 52 20z" />
    <glyph glyph-name="uni01CA" unicode="&#x1ca;" horiz-adv-x="1130" 
d="M188 0h-118v667h102l347 -464v464h118v-667h-102l-347 464v-464zM942 667h118v-460c0 -42 -3.5 -75.333 -10.5 -100s-19.833 -47 -38.5 -67c-32.667 -36.667 -77 -55 -133 -55c-31.333 0 -60.833 6.83301 -88.5 20.5s-57.167 36.167 -88.5 67.5l74 86
c38.667 -41.333 73 -62 103 -62c22.667 0 39 8.66699 49 26s15 45.333 15 84v460z" />
    <glyph glyph-name="uni01CB" unicode="&#x1cb;" horiz-adv-x="937" 
d="M770 443h114v-535c0 -48.667 -10.667 -86 -32 -112s-51.666 -39 -90.999 -39c-18 0 -39.667 3.66699 -65 11v108c23.333 -7.33301 40.666 -11 51.999 -11c8.66699 0 14.5 3 17.5 9s4.5 17.333 4.5 34v535zM188 0h-118v667h102l347 -464v464h118v-667h-102l-347 464v-464z
M829 664c19.333 0 35.833 -6.99902 49.5 -20.999s20.5 -30.333 20.5 -49c0 -19.333 -7 -35.833 -21 -49.5s-30.667 -20.5 -50 -20.5c-20 0 -37 6.83301 -51 20.5s-21 30.5 -21 50.5c0 19.333 7 35.666 21 48.999s31.333 20 52 20z" />
    <glyph glyph-name="uni01CC" unicode="&#x1cc;" horiz-adv-x="739" 
d="M53 443l114 0.00292969v-23c32 25.333 66.333 38 103 38c55.333 0 101 -19.667 137 -59c32.667 -34.667 49 -88.334 49 -161.001v-238h-114v231c0 18 -0.833008 33.167 -2.5 45.5s-5 25.166 -10 38.499s-13.167 23.333 -24.5 30s-26 10 -44 10
c-20.667 0 -37.5 -3.5 -50.5 -10.5s-22.5 -17.333 -28.5 -31s-10 -27.334 -12 -41.001s-3 -30.5 -3 -50.5v-222h-114v443zM572 443.003h114v-535c0 -48.667 -10.667 -86 -32 -112s-51.666 -39 -90.999 -39c-18 0 -39.667 3.66699 -65 11v108
c23.333 -7.33301 40.666 -11 51.999 -11c8.66699 0 14.5 3 17.5 9s4.5 17.333 4.5 34v535zM631 664.003c19.333 0 35.833 -6.99902 49.5 -20.999s20.5 -30.333 20.5 -49c0 -19.333 -7 -35.833 -21 -49.5s-30.667 -20.5 -50 -20.5c-20 0 -37 6.83301 -51 20.5
s-21 30.5 -21 50.5c0 19.333 7 35.666 21 48.999s31.333 20 52 20z" />
    <glyph glyph-name="uni01CD" unicode="&#x1cd;" horiz-adv-x="636" 
d="M515 0l-60 164h-274l-60 -164h-124l249 667h145l249 -667h-125zM221 274h194l-97 268zM230 895l88 -88l89 88l86 -43l-138 -151h-73l-139 151z" />
    <glyph glyph-name="uni01CE" unicode="&#x1ce;" horiz-adv-x="544" 
d="M491 443v-443h-114v28c-38 -28.667 -77.667 -43 -119 -43c-64.667 0 -119.667 23 -165 69s-68 102 -68 168c0 65.333 22.667 121 68 167s100.333 69 165 69c41.333 0 81 -14.333 119 -43v28h114zM263 355c-36.667 0 -66.332 -12.167 -88.999 -36.5s-34 -56.5 -34 -96.5
c0 -39.333 11.167 -71.5 33.5 -96.5s51.166 -37.5 86.499 -37.5s64 12.5 86 37.5s33 57.167 33 96.5c0 38.667 -10.833 70.5 -32.5 95.5s-49.5 37.5 -83.5 37.5zM169.002 695l89 -88l88 88l87 -43l-138 -151h-74l-138 151z" />
    <glyph glyph-name="uni01CF" unicode="&#x1cf;" horiz-adv-x="258" 
d="M70 667h118v-667h-118v667zM40 895l89 -88l88 88l87 -43l-138 -151h-74l-138 151z" />
    <glyph glyph-name="uni01D0" unicode="&#x1d0;" horiz-adv-x="221" 
d="M54 443h114v-443h-114v443zM22 695l89 -88l88 88l87 -43l-138 -151h-74l-138 151z" />
    <glyph glyph-name="uni01D1" unicode="&#x1d1;" horiz-adv-x="762" 
d="M381 682c95.333 0 177.333 -34.166 246 -102.499s103 -150.5 103 -246.5s-34.333 -178 -103 -246s-151.667 -102 -249 -102c-95.333 0 -176.833 34.667 -244.5 104s-101.5 152.666 -101.5 249.999c0 92.667 34.667 173 104 241s151 102 245 102zM381 570.001
c-62.667 0 -116.5 -22.832 -161.5 -68.499s-67.5 -100.5 -67.5 -164.5c0 -66.667 22.167 -123.334 66.5 -170.001s97.833 -70 160.5 -70c64 0 118.5 23 163.5 69s67.5 101.667 67.5 167c0 66 -22.333 122 -67 168s-98.667 69 -162 69zM292 895.002l89 -88l88 88l87 -43
l-138 -151h-74l-138 151z" />
    <glyph glyph-name="uni01D2" unicode="&#x1d2;" horiz-adv-x="521" 
d="M264 458c64.667 0 119.5 -22.999 164.5 -68.999s67.5 -101.667 67.5 -167c0 -66.667 -22.667 -122.834 -68 -168.501s-101 -68.5 -167 -68.5c-66.667 0 -122.667 23 -168 69s-68 102.667 -68 170c0 66 23 121.5 69 166.5s102.667 67.5 170 67.5zM263 355.001
c-36.667 0 -66.332 -12.167 -88.999 -36.5s-34 -56.5 -34 -96.5c0 -39.333 11.167 -71.5 33.5 -96.5s51.5 -37.5 87.5 -37.5c35.333 0 64.166 12.5 86.499 37.5s33.5 57.167 33.5 96.5c0 38.667 -11 70.5 -33 95.5s-50.333 37.5 -85 37.5zM172.002 695.001l89 -88l88 88
l87 -43l-138 -151h-74l-138 151z" />
    <glyph glyph-name="uni01D3" unicode="&#x1d3;" horiz-adv-x="639" 
d="M70 667h118.001v-410c0 -52 6 -87 18 -105c10 -16 25.667 -29.167 47 -39.5s43.333 -15.5 66 -15.5c23.333 0 45.666 5.16699 66.999 15.5s37 23.5 47 39.5c12 18 18 53 18 105v410h118v-429c0 -68 -15.333 -121 -46 -159c-22.667 -29.333 -52.167 -52.333 -88.5 -69
s-74.5 -25 -114.5 -25c-40.667 0 -79.167 8.33301 -115.5 25s-65.833 39.667 -88.5 69c-30.667 38 -46 91 -46 159v429zM231.001 895l89 -88l88 88l87 -43l-138 -151h-74l-138 151z" />
    <glyph glyph-name="uni01D4" unicode="&#x1d4;" horiz-adv-x="509" 
d="M456 0l-114 -0.00390625v23c-32 -25.333 -66.333 -38 -103 -38c-55.333 0 -101 19.667 -137 59c-32.667 34.667 -49 88.334 -49 161.001v238h114v-231c0 -18 0.833008 -33.167 2.5 -45.5s5 -25.166 10 -38.499s13.167 -23.333 24.5 -30s26 -10 44 -10
c20.667 0 37.5 3.5 50.5 10.5s22.5 17.333 28.5 31s10 27.334 12 41.001s3 30.834 3 51.501v221h114v-443zM166 694.996l89 -88l88 88l87 -43l-138 -151h-74l-138 151z" />
    <glyph glyph-name="uni01DD" unicode="&#x1dd;" horiz-adv-x="496" 
d="M26 267h325.999c-8.66699 31.333 -21 54.5 -37 69.5s-39.667 22.5 -71 22.5c-40 0 -73 -16.333 -99 -49l-104 40c51.333 72 118.333 108 201 108c66.667 0 121.334 -22 164.001 -66s64 -100.333 64 -169c0 -67.333 -21.5 -123.833 -64.5 -169.5s-96.5 -68.5 -160.5 -68.5
c-63.333 0 -115.833 22.5 -157.5 67.5s-62.5 101.833 -62.5 170.5c0 4 0.333008 18.667 1 44zM353.999 187h-215.999c2.66699 -33.333 13.167 -59 31.5 -77s43.166 -27 74.499 -27c32.667 0 57.667 8.16699 75 24.5s29 42.833 35 79.5z" />
    <glyph glyph-name="Gcaron" unicode="&#x1e6;" horiz-adv-x="726" 
d="M383 256v110h310v-57c0 -97.333 -28.167 -175.666 -84.5 -234.999s-130.5 -89 -222.5 -89c-98.667 0 -182.334 33.667 -251.001 101s-103 149.333 -103 246c0 97.333 34.167 180 102.5 248s151.5 102 249.5 102c54.667 0 101.167 -9.83301 139.5 -29.5
s79.833 -50.834 124.5 -93.501l-84 -81c-32 32.667 -60.5 56.167 -85.5 70.5s-56.833 21.5 -95.5 21.5c-65.333 0 -120.166 -22.833 -164.499 -68.5s-66.5 -102.167 -66.5 -169.5c0 -66 22.333 -121.667 67 -167s99.667 -68 165 -68c74 0 128.333 29.333 163 88
c10 18 17.667 41.667 23 71h-187zM297 895l88 -88l89 88l86 -43l-138 -151h-73l-138 151z" />
    <glyph glyph-name="gcaron" unicode="&#x1e7;" horiz-adv-x="544" 
d="M377 -9v37.001c-22.667 -16.667 -42.667 -28 -60 -34s-37.666 -9 -60.999 -9c-64 0 -118.5 23.167 -163.5 69.5s-67.5 102.166 -67.5 167.499s22.5 121 67.5 167s99.5 69 163.5 69c23.333 0 43.666 -3 60.999 -9s37.333 -17.333 60 -34v28h114v-452
c0 -71.333 -22 -129 -66 -173s-101.667 -66 -173 -66c-62 0 -115.667 18 -161 54c-12.667 10 -32 30 -58 60l74 74l18 -20c21.333 -25.333 41 -42.5 59 -51.5s40.333 -13.5 67 -13.5c40 0 71 11.833 93 35.5s33 57.167 33 100.5zM262 355.001
c-36.667 0 -66.166 -12.168 -88.499 -36.501s-33.5 -56.166 -33.5 -95.499c0 -40 11.167 -72.5 33.5 -97.5s51.166 -37.5 86.499 -37.5c34.667 0 63 12.5 85 37.5s33 57.167 33 96.5c0 38.667 -11 70.5 -33 95.5s-49.667 37.5 -83 37.5zM170.001 695l88 -88l89 88l86 -43
l-138 -151h-74l-138 151z" />
    <glyph glyph-name="uni01F4" unicode="&#x1f4;" horiz-adv-x="726" 
d="M383 256v110h310v-57c0 -97.333 -28.167 -175.666 -84.5 -234.999s-130.5 -89 -222.5 -89c-98.667 0 -182.334 33.667 -251.001 101s-103 149.333 -103 246c0 97.333 34.167 180 102.5 248s151.5 102 249.5 102c54.667 0 101.167 -9.83301 139.5 -29.5
s79.833 -50.834 124.5 -93.501l-84 -81c-32 32.667 -60.5 56.167 -85.5 70.5s-56.833 21.5 -95.5 21.5c-65.333 0 -120.166 -22.833 -164.499 -68.5s-66.5 -102.167 -66.5 -169.5c0 -66 22.333 -121.667 67 -167s99.667 -68 165 -68c74 0 128.333 29.333 163 88
c10 18 17.667 41.667 23 71h-187zM435 903l108 -58l-154 -154l-77 44z" />
    <glyph glyph-name="uni01F5" unicode="&#x1f5;" horiz-adv-x="544" 
d="M377 -9v37.001c-22.667 -16.667 -42.667 -28 -60 -34s-37.666 -9 -60.999 -9c-64 0 -118.5 23.167 -163.5 69.5s-67.5 102.166 -67.5 167.499s22.5 121 67.5 167s99.5 69 163.5 69c23.333 0 43.666 -3 60.999 -9s37.333 -17.333 60 -34v28h114v-452
c0 -71.333 -22 -129 -66 -173s-101.667 -66 -173 -66c-62 0 -115.667 18 -161 54c-12.667 10 -32 30 -58 60l74 74l18 -20c21.333 -25.333 41 -42.5 59 -51.5s40.333 -13.5 67 -13.5c40 0 71 11.833 93 35.5s33 57.167 33 100.5zM262 355.001
c-36.667 0 -66.166 -12.168 -88.499 -36.501s-33.5 -56.166 -33.5 -95.499c0 -40 11.167 -72.5 33.5 -97.5s51.166 -37.5 86.499 -37.5c34.667 0 63 12.5 85 37.5s33 57.167 33 96.5c0 38.667 -11 70.5 -33 95.5s-49.667 37.5 -83 37.5zM306.001 703l108 -58l-154 -154
l-77 44z" />
    <glyph glyph-name="Aringacute" unicode="&#x1fa;" horiz-adv-x="636" 
d="M515 0l-60 164h-274l-60 -164h-124l249 667h145l249 -667h-125zM221 274h194l-97 268zM263 883l-58 34l123 168l107 -58l-129 -130c3.33301 0.666992 7.33301 1 12 1c30 0 55.667 -10.5 77 -31.5s32 -46.167 32 -75.5s-10.667 -54.5 -32 -75.5s-47 -31.5 -77 -31.5
s-55.667 10.5 -77 31.5s-32 46.167 -32 75.5c0 39.333 18 70 54 92zM318 843c-14 0 -26.167 -5 -36.5 -15s-15.5 -22 -15.5 -36c0 -14.667 5 -27.167 15 -37.5s22.333 -15.5 37 -15.5s27 5 37 15s15 22.333 15 37s-5 27 -15 37s-22.333 15 -37 15z" />
    <glyph glyph-name="aringacute" unicode="&#x1fb;" horiz-adv-x="544" 
d="M491 443v-443h-114v28c-38 -28.667 -77.667 -43 -119 -43c-64.667 0 -119.667 23 -165 69s-68 102 -68 168c0 65.333 22.667 121 68 167s100.333 69 165 69c41.333 0 81 -14.333 119 -43v28h114zM263 355c-36.667 0 -66.332 -12.167 -88.999 -36.5s-34 -56.5 -34 -96.5
c0 -39.333 11.167 -71.5 33.5 -96.5s51.166 -37.5 86.499 -37.5s64 12.5 86 37.5s33 57.167 33 96.5c0 38.667 -10.833 70.5 -32.5 95.5s-49.5 37.5 -83.5 37.5zM271.002 694c30 0 55.667 -10.5 77 -31.5s32 -46.167 32 -75.5s-10.667 -54.5 -32 -75.5s-47 -31.5 -77 -31.5
c-30.667 0 -56.5 10.5 -77.5 31.5s-31.5 46.5 -31.5 76.5c0 28.667 10.833 53.5 32.5 74.5s47.167 31.5 76.5 31.5zM271.002 639c-14 0 -26.167 -5 -36.5 -15s-15.5 -22 -15.5 -36c0 -14.667 5 -27.167 15 -37.5s22.333 -15.5 37 -15.5s27 5 37 15s15 22.333 15 37
s-5 27 -15 37s-22.333 15 -37 15zM281.002 903l107 -58l-154 -154l-76 44z" />
    <glyph glyph-name="AEacute" unicode="&#x1fc;" horiz-adv-x="839" 
d="M426 0v164h-213l-84 -164h-132l349 667h452v-109h-254v-165h226v-110h-226v-173h263v-110h-381zM270 274h156v284h-10zM569 903l107 -58l-154 -154l-76 44z" />
    <glyph glyph-name="aeacute" unicode="&#x1fd;" horiz-adv-x="815" 
d="M692 156l96.999 -40.001c-14 -23.333 -24.833 -39.666 -32.5 -48.999s-18.834 -20 -33.501 -32c-42.667 -33.333 -91.667 -50 -147 -50c-61.333 0 -114 21 -158 63c-36.667 -42 -96.334 -63 -179.001 -63c-64.667 0 -116.5 14.333 -155.5 43s-58.5 66.667 -58.5 114
c0 46.667 17.833 83.167 53.5 109.5s84.834 39.5 147.501 39.5h113c-14 44.667 -49 67 -105 67c-45.333 0 -90.666 -17 -135.999 -51l-59 73c35.333 28 68 48 98 60s66 18 108 18c76.667 0 133.334 -22 170.001 -66c42.667 44 94.667 66 156 66
c67.333 0 120.833 -24.167 160.5 -72.5s59.5 -106.5 59.5 -174.5c0 -5.33301 -0.333008 -16 -1 -32h-325c15.333 -60.667 52 -91 110 -91c39.333 0 70.666 12.333 93.999 37c4.66699 4 12.334 14.333 23.001 31zM341.999 149.999v56h-102c-67.333 0 -101 -21 -101 -63
c0 -38.667 33.667 -58 101 -58c68 0 102 21.667 102 65zM463.999 263.999l213.001 -0.000976562c-20 62 -55.333 93 -106 93c-26.667 0 -49.334 -8.16699 -68.001 -24.5s-31.667 -39.166 -39 -68.499zM452 702.998l108 -58l-154 -154l-77 44z" />
    <glyph glyph-name="Oslashacute" unicode="&#x1fe;" horiz-adv-x="769" 
d="M598 608l63 61.9971l64 -63l-63 -63c48 -65.333 72 -135.666 72 -210.999c0 -95.333 -34.333 -177.166 -103 -245.499s-150.334 -102.5 -245.001 -102.5c-78.667 0 -150 24.667 -214 74l-63 -62l-65 63l64 63c-48 64 -72 134.333 -72 211
c0 94.667 34.333 176.334 103 245.001s150.334 103 245.001 103c78.667 0 150 -24.667 214 -74zM192 205.997l323.999 320.999c-39.333 28.667 -83.333 43 -132 43c-63.333 0 -117.166 -23.167 -161.499 -69.5s-66.5 -102.166 -66.5 -167.499c0 -44.667 12 -87 36 -127z
M577.999 460.996l-324.001 -320c40.667 -29.333 84.667 -44 132 -44c62.667 0 116.334 23.167 161.001 69.5s67 101.833 67 166.5c0 45.333 -12 88 -36 128zM433.998 902.996l108 -58l-154 -154l-76 44z" />
    <glyph glyph-name="oslashacute" unicode="&#x1ff;" horiz-adv-x="534" 
d="M409 411l36 35l57 -55l-39 -37c26 -38.667 39 -83 39 -133c0 -66 -22.667 -121.833 -68 -167.5s-101 -68.5 -167 -68.5c-54 0 -101.667 15.667 -143 47l-36 -35l-57 55l39 37c-26 40.667 -39 85 -39 133c0 66.667 22.667 122.667 68 168s101 68 167 68
c53.333 0 101 -15.667 143 -47zM154 169l177 167.999c-20 12 -41.333 18 -64 18c-36 0 -65.167 -12.167 -87.5 -36.5s-33.5 -56.166 -33.5 -95.499c0 -16.667 2.66699 -34.667 8 -54zM379 273.999l-175.999 -168c20 -12 41.333 -18 64 -18c35.333 0 64.166 12.333 86.499 37
s33.5 56.667 33.5 96c0 19.333 -2.66699 37 -8 53zM316.001 702.999l108 -58l-154 -154l-77 44z" />
    <glyph glyph-name="uni0200" unicode="&#x200;" horiz-adv-x="636" 
d="M515 0l-60 164h-274l-60 -164h-124l249 667h145l249 -667h-125zM221 274h194l-97 268zM386 690l-130 131l62 -86l-72 -45l-154 155l104 59l41 -56l99 56l122 -169z" />
    <glyph glyph-name="uni0201" unicode="&#x201;" horiz-adv-x="544" 
d="M490 443v-443h-114v28c-38 -28.667 -77.667 -43 -119 -43c-64.667 0 -119.667 23 -165 69s-68 102 -68 168c0 65.333 22.667 121 68 167s100.333 69 165 69c41.333 0 81 -14.333 119 -43v28h114zM262 355c-36.667 0 -66.332 -12.167 -88.999 -36.5s-34 -56.5 -34 -96.5
c0 -39.333 11.167 -71.5 33.5 -96.5s51.166 -37.5 86.499 -37.5s64 12.5 86 37.5s33 57.167 33 96.5c0 38.667 -10.833 70.5 -32.5 95.5s-49.5 37.5 -83.5 37.5zM303.002 490l-130 131l62 -86l-72 -45l-154 155l104 59l41 -56l99 56l122 -169z" />
    <glyph glyph-name="Scommaaccent" unicode="&#x218;" horiz-adv-x="520" 
d="M475 552l-97 -59.9971c-20 31.333 -37.333 52.5 -52 63.5s-33.334 16.5 -56.001 16.5c-27.333 0 -49.666 -7.83301 -66.999 -23.5s-26 -35.834 -26 -60.501c0 -31.333 26 -57 78 -77l63 -24c56 -21.333 97.333 -47.333 124 -78s40 -67.667 40 -111
c0 -60 -21.833 -110.5 -65.5 -151.5s-97.5 -61.5 -161.5 -61.5c-44.667 0 -85 11.167 -121 33.5s-63 53.166 -81 92.499c-6 13.333 -13.667 38.666 -23 75.999l115 30c9.33301 -35.333 16.333 -57.666 21 -66.999c19.333 -36 50 -54 92 -54
c28.667 0 53.167 9.83301 73.5 29.5s30.5 43.5 30.5 71.5c0 19.333 -7.16699 35.666 -21.5 48.999s-39.166 27 -74.499 41l-60 23c-98 38 -147 97.667 -147 179c0 55.333 20.167 101.333 60.5 138s90.833 55 151.5 55c48 0 87.167 -10.667 117.5 -32s59.166 -54 86.499 -98z
M254 -21.9971l104 -45l-126 -161l-82 42z" />
    <glyph glyph-name="scommaaccent" unicode="&#x219;" horiz-adv-x="384" 
d="M356 353l-88.998 -43.9971c-12.667 18.667 -23.667 31.334 -33 38.001s-20.666 10 -33.999 10c-14 0 -25.167 -3.33301 -33.5 -10s-12.5 -15.334 -12.5 -26.001c0 -9.33301 3.16699 -16.5 9.5 -21.5s22.166 -12.167 47.499 -21.5l40 -16
c37.333 -14.667 64.666 -32 81.999 -52s26 -44.333 26 -73c0 -42.667 -16 -78.667 -48 -108s-71.333 -44 -118 -44c-82.667 0 -140.334 46 -173.001 138l93 37c14 -28 26.667 -47 38 -57s25.666 -15 42.999 -15c15.333 0 27.666 4.16699 36.999 12.5s14 19.5 14 33.5
c0 9.33301 -3.5 16.666 -10.5 21.999s-22.167 12.666 -45.5 21.999l-45 17c-66 24.667 -99 65.667 -99 123c0 40 14.833 73.333 44.5 100s66.834 40 111.501 40c34.667 0 64.334 -8.33301 89.001 -25s46.667 -43.334 66 -80.001zM111.002 -216.997l57 194l108 -32l-81 -189z
" />
    <glyph glyph-name="uni021A" unicode="&#x21a;" horiz-adv-x="438" 
d="M441 558h-163v-558h-118v558h-163v109h444v-109zM122 -217l58 194l108 -32l-81 -189z" />
    <glyph glyph-name="uni021B" unicode="&#x21b;" horiz-adv-x="266" 
d="M240 340h-68.002v-197c0 -16.667 1.5 -28 4.5 -34s8.83301 -9 17.5 -9c10.667 0 28.334 3.33301 53.001 10v-107c-26.667 -7.33301 -48.667 -11 -66 -11c-39.333 0 -69.666 13 -90.999 39s-32 63.333 -32 112v197h-46v103h46v95l114 45v-140h68v-103zM47.998 -217l57 194
l109 -32l-81 -189z" />
    <glyph glyph-name="uni0226" unicode="&#x226;" horiz-adv-x="636" 
d="M515 0l-60 164h-274l-60 -164h-124l249 667h145l249 -667h-125zM221 274h194l-97 268zM320 860c18.667 0 35 -6.99902 49 -20.999s21 -30.333 21 -49c0 -19.333 -7 -35.833 -21 -49.5s-30.667 -20.5 -50 -20.5c-20 0 -37 6.83301 -51 20.5s-21 30.5 -21 50.5
c0 19.333 7 35.666 21 48.999s31.333 20 52 20z" />
    <glyph glyph-name="uni0227" unicode="&#x227;" horiz-adv-x="544" 
d="M491 443v-443h-114v28c-38 -28.667 -77.667 -43 -119 -43c-64.667 0 -119.667 23 -165 69s-68 102 -68 168c0 65.333 22.667 121 68 167s100.333 69 165 69c41.333 0 81 -14.333 119 -43v28h114zM263 355c-36.667 0 -66.332 -12.167 -88.999 -36.5s-34 -56.5 -34 -96.5
c0 -39.333 11.167 -71.5 33.5 -96.5s51.166 -37.5 86.499 -37.5s64 12.5 86 37.5s33 57.167 33 96.5c0 38.667 -10.833 70.5 -32.5 95.5s-49.5 37.5 -83.5 37.5zM260.002 664c18.667 0 35 -6.99902 49 -20.999s21 -30.333 21 -49c0 -19.333 -7 -35.833 -21 -49.5
s-30.667 -20.5 -50 -20.5c-20 0 -37 6.83301 -51 20.5s-21 30.5 -21 50.5c0 19.333 7 35.666 21 48.999s31.333 20 52 20z" />
    <glyph glyph-name="uni0237" unicode="&#x237;" horiz-adv-x="230" 
d="M62 443h114v-535c0 -48.667 -10.667 -86 -32 -112s-51.666 -39 -90.999 -39c-18 0 -39.667 3.66699 -65 11v108c23.333 -7.33301 40.666 -11 51.999 -11c8.66699 0 14.5 3 17.5 9s4.5 17.333 4.5 34v535z" />
    <glyph glyph-name="uni0259" unicode="&#x259;" horiz-adv-x="496" 
d="M26 267h325.999c-8.66699 31.333 -21 54.5 -37 69.5s-39.667 22.5 -71 22.5c-40 0 -73 -16.333 -99 -49l-104 40c51.333 72 118.333 108 201 108c66.667 0 121.334 -22 164.001 -66s64 -100.333 64 -169c0 -67.333 -21.5 -123.833 -64.5 -169.5s-96.5 -68.5 -160.5 -68.5
c-63.333 0 -115.833 22.5 -157.5 67.5s-62.5 101.833 -62.5 170.5c0 4 0.333008 18.667 1 44zM353.999 187h-215.999c2.66699 -33.333 13.167 -59 31.5 -77s43.166 -27 74.499 -27c32.667 0 57.667 8.16699 75 24.5s29 42.833 35 79.5z" />
    <glyph glyph-name="uni02BB" unicode="&#x2bb;" horiz-adv-x="259" 
d="M235 692l-96 -266l-103 37l116 261z" />
    <glyph glyph-name="afii57929" unicode="&#x2bc;" horiz-adv-x="294" 
d="M47 458l96 267l105 -38l-117 -262z" />
    <glyph glyph-name="circumflex" unicode="&#x2c6;" horiz-adv-x="476" 
d="M326 492l-88 88l-89 -88l-86 43l138 151h74l138 -151z" />
    <glyph glyph-name="caron" unicode="&#x2c7;" horiz-adv-x="476" 
d="M149 695l89 -88l88 88l87 -43l-138 -151h-74l-138 151z" />
    <glyph glyph-name="uni02C9" unicode="&#x2c9;" horiz-adv-x="476" 
d="M82 540v102h312v-102h-312z" />
    <glyph glyph-name="breve" unicode="&#x2d8;" horiz-adv-x="476" 
d="M86 665l98.998 8c0.666992 -6 1 -13 1 -21c2 -39.333 18.667 -59 50 -59c19.333 0 34 9.33301 44 28c4 6 7.66699 23.333 11 52l99 -8c-3.33301 -29.333 -6 -48.5 -8 -57.5s-6.33301 -19.5 -13 -31.5c-30 -53.333 -74.333 -80 -133 -80
c-31.333 0 -59.666 8.33301 -84.999 25s-43.666 39.334 -54.999 68.001c-6 15.333 -9.33301 40.666 -10 75.999z" />
    <glyph glyph-name="dotaccent" unicode="&#x2d9;" horiz-adv-x="476" 
d="M240 664c18.667 0 35 -6.99902 49 -20.999s21 -30.333 21 -49c0 -19.333 -7 -35.833 -21 -49.5s-30.667 -20.5 -50 -20.5c-20 0 -37 6.83301 -51 20.5s-21 30.5 -21 50.5c0 19.333 7 35.666 21 48.999s31.333 20 52 20z" />
    <glyph glyph-name="ring" unicode="&#x2da;" horiz-adv-x="476" 
d="M238 698c30 0 55.667 -10.5 77 -31.5s32 -46.167 32 -75.5s-10.667 -54.5 -32 -75.5s-47 -31.5 -77 -31.5c-30.667 0 -56.5 10.5 -77.5 31.5s-31.5 46.5 -31.5 76.5c0 28.667 10.833 53.5 32.5 74.5s47.167 31.5 76.5 31.5zM238 643c-14 0 -26.167 -5 -36.5 -15
s-15.5 -22 -15.5 -36c0 -14.667 5 -27.167 15 -37.5s22.333 -15.5 37 -15.5s27 5 37 15s15 22.333 15 37s-5 27 -15 37s-22.333 15 -37 15z" />
    <glyph glyph-name="ogonek" unicode="&#x2db;" horiz-adv-x="476" 
d="M329 0h114c-23.333 -31.333 -35 -52.666 -35 -63.999c0 -6 4.33301 -9 13 -9c11.333 0 27.333 4 48 12l34 -86c-8 -2.66699 -14 -5 -18 -7c-28 -9.33301 -51.333 -14 -70 -14c-32 0 -58.5 9.16699 -79.5 27.5s-31.5 41.166 -31.5 68.499c0 22 8.33301 46 25 72z" />
    <glyph glyph-name="tilde" unicode="&#x2dc;" horiz-adv-x="476" 
d="M300 665l94.999 -21.999c-2 -26.667 -5.33301 -46.334 -10 -59.001c-16 -40.667 -45.667 -61 -89 -61c-20 0 -45.333 7 -76 21c-17.333 8.66699 -28 13 -32 13s-6.33301 -1.33301 -7 -4c-1.33301 -8 -3.66602 -20 -6.99902 -36l-93 22c3.33301 30.667 8 52 14 64
c18.667 37.333 47.667 56 87 56c16.667 0 42.334 -7.66699 77.001 -23c15.333 -7.33301 25.666 -11 30.999 -11c2.66699 0 4.5 1.66699 5.5 5s2.5 15 4.5 35z" />
    <glyph glyph-name="hungarumlaut" unicode="&#x2dd;" horiz-adv-x="476" 
d="M317 648l-157 -158l-64 45l122 169zM242 532l125 172l95 -59l-154 -155z" />
    <glyph glyph-name="uni0309" unicode="&#x309;" horiz-adv-x="476" 
d="M319 711l0.000976562 -10h-103c1.33301 21.333 2.83301 35.5 4.5 42.5s6.16699 16.167 13.5 27.5l10 14l5 7c3.33301 4 5 7.33301 5 10c0 4 -3.66699 6 -11 6c-8.66699 0 -25.667 -4.33301 -51 -13l-34 87c37.333 14 67.666 21 90.999 21c32.667 0 59 -8 79 -24
s30 -37 30 -63c0 -20 -6.33301 -39.667 -19 -59l-15 -24c-3.33301 -4.66699 -5 -12 -5 -22z" />
    <glyph glyph-name="uni0312" unicode="&#x312;" horiz-adv-x="476" 
d="M425 675l-58 -194l-108 33l81 188z" />
    <glyph glyph-name="uni0313" unicode="&#x313;" horiz-adv-x="476" 
d="M259 508l58 194l108 -32l-81 -189z" />
    <glyph glyph-name="uni031B" unicode="&#x31b;" horiz-adv-x="476" 
d="M259 508l58 194l108 -32l-81 -189z" />
    <glyph glyph-name="uni0323" unicode="&#x323;" horiz-adv-x="476" 
d="M240 -42c18.667 0 35 -6.99902 49 -20.999s21 -30.333 21 -49c0 -19.333 -7 -35.833 -21 -49.5s-30.667 -20.5 -50 -20.5c-20 0 -37 6.83301 -51 20.5s-21 30.5 -21 50.5c0 19.333 7 35.666 21 48.999s31.333 20 52 20z" />
    <glyph glyph-name="uni0374" unicode="&#x374;" horiz-adv-x="222" 
d="M111 440h-87l66 270h112z" />
    <glyph glyph-name="uni0375" unicode="&#x375;" horiz-adv-x="222" 
d="M103 -119h-87l66 270h112z" />
    <glyph glyph-name="uni037A" unicode="&#x37a;" horiz-adv-x="467" 
d="M201 -69l0.000976562 69h92v-41c0 -28 3 -45.333 9 -52c7.33301 -7.33301 17.666 -11 30.999 -11c14 0 29 1.33301 45 4l6 -70c-26.667 -6.66699 -54 -10 -82 -10c-42 0 -69.333 8 -82 24s-19 45 -19 87z" />
    <glyph glyph-name="uni037E" unicode="&#x37e;" horiz-adv-x="254" 
d="M147 429c19.333 0 35.833 -6.83203 49.5 -20.499s20.5 -30.167 20.5 -49.5s-7 -35.833 -21 -49.5s-30.667 -20.5 -50 -20.5c-20 0 -37 6.83301 -51 20.5s-21 30.5 -21 50.5c0 19.333 7 35.666 21 48.999s31.333 20 52 20zM14 -143.999l96 267l105 -38l-117 -262z" />
    <glyph glyph-name="tonos" unicode="&#x384;" horiz-adv-x="488" 
d="M284 517h-80l-14 199h109z" />
    <glyph glyph-name="dieresistonos" unicode="&#x385;" horiz-adv-x="488" 
d="M102 666c18.667 0 34.5 -6.66504 47.5 -19.998s19.5 -29.333 19.5 -48s-6.5 -34.834 -19.5 -48.501s-28.5 -20.5 -46.5 -20.5c-18.667 0 -34.5 6.66699 -47.5 20s-19.5 29.666 -19.5 48.999c0 18.667 6.5 34.667 19.5 48s28.5 20 46.5 20zM285 511.002h-81l-15 210h111z
M386 666.002c18.667 0 34.5 -6.66504 47.5 -19.998s19.5 -29.333 19.5 -48s-6.5 -34.834 -19.5 -48.501s-28.5 -20.5 -46.5 -20.5c-18.667 0 -34.5 6.66699 -47.5 20s-19.5 29.666 -19.5 48.999c0 18.667 6.5 34.667 19.5 48s28.5 20 46.5 20z" />
    <glyph glyph-name="Alphatonos" unicode="&#x386;" horiz-adv-x="639" 
d="M512 0l-59 159h-275l-59 -159h-125l259 668h126l259 -668h-126zM216 269h199l-99 266zM112 498h-81l-15 223h111z" />
    <glyph glyph-name="uni0387" unicode="&#x387;" horiz-adv-x="248" 
d="M125 379c19.333 0 35.666 -6.5 48.999 -19.5s20 -28.833 20 -47.5s-6.66699 -34.667 -20 -48s-29.666 -20 -48.999 -20s-35.833 6.66699 -49.5 20s-20.5 29.333 -20.5 48s6.83301 34.5 20.5 47.5s30.167 19.5 49.5 19.5z" />
    <glyph glyph-name="Epsilontonos" unicode="&#x388;" horiz-adv-x="630" 
d="M594 0h-382v667h373v-108h-256v-167h227v-109h-227v-173h265v-110zM109 498h-81l-15 223h110z" />
    <glyph glyph-name="Etatonos" unicode="&#x389;" horiz-adv-x="794" 
d="M329 0h-118v667h118v-274h276v274h118v-667h-118v283h-276v-283zM108 498h-81l-15 223h110z" />
    <glyph glyph-name="Iotatonos" unicode="&#x38a;" horiz-adv-x="401" 
d="M329 0h-118v667h118v-667zM108 498h-81l-15 223h110z" />
    <glyph glyph-name="Omicrontonos" unicode="&#x38c;" horiz-adv-x="879" 
d="M497 682c96.667 0 179.168 -34 247.501 -102s102.5 -150 102.5 -246c0 -96.667 -34.167 -179 -102.5 -247s-150.5 -102 -246.5 -102c-98.667 0 -181.834 34 -249.501 102s-101.5 151.667 -101.5 251c0 94 34.5 174.833 103.5 242.5s151.167 101.5 246.5 101.5z
M497.001 572c-64 0 -118.499 -23 -163.499 -69s-67.5 -101.667 -67.5 -167c0 -68.667 22.167 -126 66.5 -172s99.5 -69 165.5 -69c64.667 0 119.167 23 163.5 69s66.5 102.667 66.5 170c0 66.667 -22.333 123 -67 169s-99.334 69 -164.001 69zM109.002 498h-81l-15 223h110z
" />
    <glyph glyph-name="Upsilontonos" unicode="&#x38e;" horiz-adv-x="702" 
d="M490 0h-118v276l-221 391h133l147 -268l148 268h132l-221 -391v-276zM109 498h-81l-15 223h110z" />
    <glyph glyph-name="Omegatonos" unicode="&#x38f;" horiz-adv-x="884" 
d="M434 0h-280.999v110h163v22c-106.667 44 -160 124 -160 240c0 92 31.333 165.833 94 221.5s146 83.5 250 83.5c103.333 0 186.333 -27.833 249 -83.5s94 -129.834 94 -222.501c0 -77.333 -25.667 -140.666 -77 -189.999c-18 -16.667 -45.667 -33 -83 -49v-22h163v-110
h-281v160c48.667 13.333 87 37.333 115 72s42 75 42 121c0 63.333 -20 113.5 -60 150.5s-94.333 55.5 -163 55.5s-122.834 -18.5 -162.501 -55.5s-59.5 -87.167 -59.5 -150.5c0 -48 14.5 -89 43.5 -123s66.833 -57.333 113.5 -70v-160zM108.001 498h-81l-15 223h110z" />
    <glyph glyph-name="iotadieresistonos" unicode="&#x390;" horiz-adv-x="250" 
d="M54 169v274h114v-279c0 -27.333 2.33301 -45.5 7 -54.5s13.667 -13.5 27 -13.5c8.66699 0 21.667 3.66699 39 11l5 -103c-28.667 -8 -54 -12 -76 -12c-46 0 -79 19 -99 57c-11.333 22 -17 62 -17 120zM-32 666c18.667 0 34.5 -6.66504 47.5 -19.998
s19.5 -29.333 19.5 -48s-6.5 -34.834 -19.5 -48.501s-28.5 -20.5 -46.5 -20.5c-18.667 0 -34.5 6.66699 -47.5 20s-19.5 29.666 -19.5 48.999c0 18.667 6.5 34.667 19.5 48s28.5 20 46.5 20zM151 511.002h-81l-15 210h111zM252 666.002c18.667 0 34.5 -6.66504 47.5 -19.998
s19.5 -29.333 19.5 -48s-6.5 -34.834 -19.5 -48.501s-28.5 -20.5 -46.5 -20.5c-18.667 0 -34.5 6.66699 -47.5 20s-19.5 29.666 -19.5 48.999c0 18.667 6.5 34.667 19.5 48s28.5 20 46.5 20z" />
    <glyph glyph-name="Alpha" unicode="&#x391;" horiz-adv-x="639" 
d="M516 0l-59 159h-275l-59 -159h-125l259 668h126l259 -668h-126zM220 269h199l-99 266z" />
    <glyph glyph-name="Beta" unicode="&#x392;" horiz-adv-x="531" 
d="M257 0h-185.999v667h155c73.333 0 129 -13.667 167 -41c22 -16.667 39.667 -38 53 -64s20 -52.667 20 -80s-5.33301 -50.5 -16 -69.5s-29.334 -38.5 -56.001 -58.5c69.333 -41.333 104 -95 104 -161c0 -58.667 -24.667 -107 -74 -145c-40 -32 -95.667 -48 -167 -48z
M185.001 294v-189h67c46 0 79.333 8 100 24c22 18 33 41.333 33 70c0 20 -4 36.667 -12 50s-19.5 23 -34.5 29s-29.833 10.167 -44.5 12.5s-31.667 3.5 -51 3.5h-58zM185.001 565v-178h52c42 0 71.667 7.33301 89 22c20 16 30 38.667 30 68c0 34.667 -10.333 58 -31 70
s-50 18 -88 18h-52z" />
    <glyph glyph-name="Gamma" unicode="&#x393;" horiz-adv-x="459" 
d="M189 0h-118v667h372v-110h-254v-557z" />
    <glyph glyph-name="uni0394" unicode="&#x394;" horiz-adv-x="630" 
d="M611 85v-85h-593v85l234 582h125zM148 109h333l-167 427z" />
    <glyph glyph-name="Epsilon" unicode="&#x395;" horiz-adv-x="490" 
d="M453 0h-382v667h373v-108h-256v-167h227v-109h-227v-173h265v-110z" />
    <glyph glyph-name="Zeta" unicode="&#x396;" horiz-adv-x="514" 
d="M498 0h-484v85l325 472h-297v110h449v-85l-322 -472h329v-110z" />
    <glyph glyph-name="Eta" unicode="&#x397;" horiz-adv-x="653" 
d="M189 0h-118v667h118v-274h276v274h118v-667h-118v283h-276v-283z" />
    <glyph glyph-name="Theta" unicode="&#x398;" horiz-adv-x="765" 
d="M383 682c96.667 0 179 -34 247 -102s102 -150 102 -246c0 -96.667 -34.167 -179 -102.5 -247s-150.5 -102 -246.5 -102c-98 0 -180.833 34.167 -248.5 102.5s-101.5 151.833 -101.5 250.5c0 94 34.5 174.833 103.5 242.5s151.167 101.5 246.5 101.5zM383 572
c-64.667 0 -119.332 -23 -163.999 -69s-67 -101.667 -67 -167c0 -68.667 22.167 -126 66.5 -172s99.166 -69 164.499 -69c64.667 0 119.167 23 163.5 69s66.5 102.667 66.5 170c0 66.667 -22.167 123 -66.5 169s-98.833 69 -163.5 69zM516.002 294h-266v84h266v-84z" />
    <glyph glyph-name="Iota" unicode="&#x399;" horiz-adv-x="260" 
d="M189 0h-118v667h118v-667z" />
    <glyph glyph-name="Kappa" unicode="&#x39a;" horiz-adv-x="601" 
d="M189 0h-118v667h118v-280l257 280h151l-259 -279l256 -388h-140l-196 302l-69 -75v-227z" />
    <glyph glyph-name="Lambda" unicode="&#x39b;" horiz-adv-x="587" 
d="M125 0h-125l235 667h121l232 -667h-126l-167 509z" />
    <glyph glyph-name="Mu" unicode="&#x39c;" horiz-adv-x="805" 
d="M189 0h-118v667h112l219 -387l219 387h112v-667h-118v437l-168 -298h-90l-168 299v-438z" />
    <glyph glyph-name="Nu" unicode="&#x39d;" horiz-adv-x="710" 
d="M189 0h-118v667h102l348 -462v462h118v-667h-102l-348 462v-462z" />
    <glyph glyph-name="Xi" unicode="&#x39e;" horiz-adv-x="580" 
d="M537 0h-494v110h494v-110zM505 285h-430v105h430v-105zM537 557h-494v110h494v-110z" />
    <glyph glyph-name="Omicron" unicode="&#x39f;" horiz-adv-x="765" 
d="M383 682c96.667 0 179 -34 247 -102s102 -150 102 -246c0 -96.667 -34 -179 -102 -247s-150.333 -102 -247 -102c-98 0 -180.833 34.167 -248.5 102.5s-101.5 151.833 -101.5 250.5c0 94 34.5 174.833 103.5 242.5s151.167 101.5 246.5 101.5zM383 572
c-64.667 0 -119.332 -23 -163.999 -69s-67 -101.667 -67 -167c0 -68.667 22.167 -126 66.5 -172s99.166 -69 164.499 -69c64.667 0 119.167 23 163.5 69s66.5 102.667 66.5 170c0 66.667 -22.167 123 -66.5 169s-98.833 69 -163.5 69z" />
    <glyph glyph-name="Pi" unicode="&#x3a0;" horiz-adv-x="670" 
d="M189 0h-118v667h529v-667h-118v557h-293v-557z" />
    <glyph glyph-name="Rho" unicode="&#x3a1;" horiz-adv-x="477" 
d="M224 244h-35v-244h-118v667h153c78 0 136.667 -17.333 176 -52c44 -40 66 -92.667 66 -158c0 -66 -22 -119.333 -66 -160c-39.333 -35.333 -98 -53 -176 -53zM189 559v-207h44c79.333 0 119 34.667 119 104c0 68.667 -39.667 103 -119 103h-44z" />
    <glyph glyph-name="Sigma" unicode="&#x3a3;" horiz-adv-x="514" 
d="M480 0h-438v61l185 289l-170 253v64h414v-110h-269l139 -189v-28l-149 -230h288v-110z" />
    <glyph glyph-name="Tau" unicode="&#x3a4;" horiz-adv-x="440" 
d="M278 0h-118v557h-163v110h445v-110h-164v-557z" />
    <glyph glyph-name="Upsilon" unicode="&#x3a5;" horiz-adv-x="542" 
d="M330 0h-118v276l-221 391h133l147 -268l148 268h132l-221 -391v-276z" />
    <glyph glyph-name="Phi" unicode="&#x3a6;" horiz-adv-x="874" 
d="M491 -55h-106.999v97c-86 6 -154 21.667 -204 47c-46.667 24.667 -82.834 58 -108.501 100s-38.5 89.667 -38.5 143c0 58 15 109.167 45 153.5s72.333 78.166 127 101.499c46 18.667 105.667 30.334 179 35.001v98h107v-98c86.667 -6 154.667 -21.667 204 -47
c46.667 -24.667 82.834 -58 108.501 -100s38.5 -89.667 38.5 -143c0 -58 -15 -109.167 -45 -153.5s-72.333 -77.833 -127 -100.5c-44.667 -19.333 -104.334 -31.333 -179.001 -36v-97zM384.001 145v373.999c-56 -4.66699 -98.667 -14 -128 -28c-68 -34 -102 -87 -102 -159
c0 -37.333 10.167 -70.5 30.5 -99.5s48.833 -50.833 85.5 -65.5c28 -11.333 66 -18.666 114 -21.999zM491.001 518.999v-374.001c56.667 4.66699 99.667 14.334 129 29.001c67.333 33.333 101 86 101 158c0 37.333 -10.167 70.5 -30.5 99.5s-48.833 50.833 -85.5 65.5
c-24 10.667 -62 18 -114 22z" />
    <glyph glyph-name="Chi" unicode="&#x3a7;" horiz-adv-x="572" 
d="M-3 0l221 347l-202 320h135l135 -215l135 215h134l-202 -318l221 -349h-137l-152 244l-153 -244h-135z" />
    <glyph glyph-name="Psi" unicode="&#x3a8;" horiz-adv-x="800" 
d="M459 0h-115v147c-104 4.66699 -179.333 27.334 -226 68.001s-69.667 104 -69 190v262h119v-245c-1.33301 -57.333 11 -97.833 37 -121.5s72.333 -36.5 139 -38.5v405h115v-405c66.667 2 113.167 14.833 139.5 38.5s38.833 64.167 37.5 121.5v245h118v-262
c0.666992 -86 -22.333 -149.333 -69 -190s-122 -63.334 -226 -68.001v-147z" />
    <glyph glyph-name="uni03A9" unicode="&#x3a9;" horiz-adv-x="770" 
d="M319 0h-280.999v110h163v22c-106.667 44.667 -160 124.667 -160 240c0 92 31.333 165.833 94 221.5s145.667 83.5 249 83.5c104 0 187.333 -27.833 250 -83.5s94 -129.834 94 -222.501c0 -77.333 -25.667 -140.666 -77 -189.999c-18 -16.667 -45.667 -33 -83 -49v-22h163
v-110h-281v160c47.333 13.333 85.333 37 114 71s43 75 43 123c0 63.333 -20 113.333 -60 150s-94.333 55 -163 55s-122.834 -18.5 -162.501 -55.5s-59.5 -87.167 -59.5 -150.5c0 -48 14.5 -89 43.5 -123s66.833 -57.333 113.5 -70v-160z" />
    <glyph glyph-name="Iotadieresis" unicode="&#x3aa;" horiz-adv-x="260" 
d="M188 0h-118v667h118v-667zM36 861c17.333 0 32.166 -6 44.499 -18s18.5 -26.667 18.5 -44c0 -16.667 -6.16699 -31 -18.5 -43s-27.166 -18 -44.499 -18c-18 0 -33.167 6 -45.5 18s-18.5 26.667 -18.5 44c0 16.667 6.33301 31 19 43s27.667 18 45 18zM224 861
c17.333 0 32.166 -6 44.499 -18s18.5 -26.333 18.5 -43c0 -17.333 -6.16699 -32 -18.5 -44s-27.166 -18 -44.499 -18c-18 0 -33.167 6 -45.5 18s-18.5 26.667 -18.5 44c0 16.667 6.33301 31 19 43s27.667 18 45 18z" />
    <glyph glyph-name="Upsilondieresis" unicode="&#x3ab;" horiz-adv-x="542" 
d="M330 0h-118v276l-221 391h133l147 -268l148 268h132l-221 -391v-276zM178 861c17.333 0 32.166 -6 44.499 -18s18.5 -26.667 18.5 -44c0 -16.667 -6.16699 -31 -18.5 -43s-27.166 -18 -44.499 -18c-18 0 -33.167 6 -45.5 18s-18.5 26.667 -18.5 44
c0 16.667 6.33301 31 19 43s27.667 18 45 18zM366 861c17.333 0 32.166 -6 44.499 -18s18.5 -26.333 18.5 -43c0 -17.333 -6.16699 -32 -18.5 -44s-27.166 -18 -44.499 -18c-18 0 -33.167 6 -45.5 18s-18.5 26.667 -18.5 44c0 16.667 6.33301 31 19 43s27.667 18 45 18z" />
    <glyph glyph-name="alphatonos" unicode="&#x3ac;" horiz-adv-x="547" 
d="M492 0h-112.999v46c-34.667 -40.667 -79.334 -61 -134.001 -61c-61.333 0 -113.333 23 -156 69s-64 102 -64 168c0 65.333 21.333 121 64 167s94.667 69 156 69c28 0 52 -4.66699 72 -14s40.667 -25 62 -47v46h113v-443zM263.001 356
c-36.667 0 -66.332 -12.334 -88.999 -37.001s-34 -57 -34 -97s11.333 -72.5 34 -97.5s51.667 -37.5 87 -37.5s64.166 12.333 86.499 37s33.5 56.334 33.5 95.001c0 40.667 -10.833 73.667 -32.5 99s-50.167 38 -85.5 38zM311.003 516.999h-80l-15 199h109z" />
    <glyph glyph-name="epsilontonos" unicode="&#x3ad;" horiz-adv-x="455" 
d="M260 263l87.001 -0.00195312v-77h-89c-66 0 -99 -17 -99 -51c0 -36.667 34 -55 102 -55c27.333 0 50.333 3.33301 69 10s38.667 19 60 37l58 -79c-34 -23.333 -65.833 -39.666 -95.5 -48.999s-65.834 -14 -108.501 -14c-66.667 0 -117.667 11.833 -153 35.5
s-53 58.167 -53 103.5c0 52.667 23.333 88.667 70 108c-39.333 20.667 -59 52 -59 94c0 42.667 16.833 75.334 50.5 98.001s82.167 34 145.5 34c39.333 0 73.5 -4.5 102.5 -13.5s59.167 -24.167 90.5 -45.5l-60 -78c-32.667 28 -71.667 42 -117 42c-62 0 -93 -18 -93 -54
c0 -30.667 30.667 -46 92 -46zM291.001 516.998h-80l-14 199h109z" />
    <glyph glyph-name="etatonos" unicode="&#x3ae;" horiz-adv-x="511" 
d="M167 0h-112.999v443h114v-38c20.667 20.667 39.167 34.667 55.5 42s37.166 11 62.499 11c52 0 94.333 -19.333 127 -58c29.333 -35.333 44 -88.333 44 -159v-474h-113v466c0 18 -0.833008 33.167 -2.5 45.5s-5 25 -10 38s-13.333 22.833 -25 29.5s-26.5 10 -44.5 10
c-38 0 -63.333 -11.5 -76 -34.5s-19 -55.5 -19 -97.5v-224zM298.001 517h-80l-15 199h109z" />
    <glyph glyph-name="iotatonos" unicode="&#x3af;" horiz-adv-x="250" 
d="M53 169l0.000976562 274h113v-279c0 -26.667 2.33301 -44.667 7 -54s13.667 -14 27 -14c8.66699 0 21.667 3.66699 39 11l5 -103c-28.667 -8 -54 -12 -76 -12c-46.667 0 -79.334 19 -98.001 57c-11.333 22 -17 62 -17 120zM150.001 517h-80l-15 199h109z" />
    <glyph glyph-name="upsilondieresistonos" unicode="&#x3b0;" horiz-adv-x="505" 
d="M38 190v253h114v-248c0 -36.667 5.66699 -64.667 17 -84s34 -29 68 -29s56.667 9.66699 68 29s17 47.333 17 84v248h113v-253c0 -70 -13.333 -119.667 -40 -149c-35.333 -38 -88 -57 -158 -57c-77.333 0 -133 22.333 -167 67c-21.333 28 -32 74.333 -32 139zM94 666
c18.667 0 34.5 -6.66504 47.5 -19.998s19.5 -29.333 19.5 -48s-6.5 -34.834 -19.5 -48.501s-28.5 -20.5 -46.5 -20.5c-18.667 0 -34.5 6.66699 -47.5 20s-19.5 29.666 -19.5 48.999c0 18.667 6.5 34.667 19.5 48s28.5 20 46.5 20zM277 511.002h-81l-15 210h111zM378 666.002
c18.667 0 34.5 -6.66504 47.5 -19.998s19.5 -29.333 19.5 -48s-6.5 -34.834 -19.5 -48.501s-28.5 -20.5 -46.5 -20.5c-18.667 0 -34.5 6.66699 -47.5 20s-19.5 29.666 -19.5 48.999c0 18.667 6.5 34.667 19.5 48s28.5 20 46.5 20z" />
    <glyph glyph-name="alpha" unicode="&#x3b1;" horiz-adv-x="547" 
d="M492 0l-113 -0.000976562v33c-36 -32 -80 -48 -132 -48c-62 0 -114.5 22.833 -157.5 68.5s-64.5 101.834 -64.5 168.501c0 66 21.5 121.833 64.5 167.5s95.5 68.5 157.5 68.5c49.333 0 93.333 -16 132 -48v33h113v-443zM262 355.999
c-36.667 0 -66.167 -12.334 -88.5 -37.001s-33.5 -57 -33.5 -97s11.333 -72.5 34 -97.5s51.667 -37.5 87 -37.5s64 12.333 86 37s33 56.334 33 95.001c0 41.333 -10.667 74.5 -32 99.5s-50 37.5 -86 37.5z" />
    <glyph glyph-name="beta" unicode="&#x3b2;" horiz-adv-x="522" 
d="M167 29l0.000976562 -262h-113v700c0 37.333 2.83301 66.5 8.5 87.5s16.167 41.167 31.5 60.5c35.333 44.667 86.666 67 153.999 67c56.667 0 103.5 -17.667 140.5 -53s55.5 -80 55.5 -134c0 -46.667 -16.667 -87.667 -50 -123c66 -38.667 99 -95.667 99 -171
c0 -62.667 -18.333 -112.667 -55 -150s-85.667 -56 -147 -56c-24 0 -43.667 2.16699 -59 6.5s-37 13.5 -65 27.5zM167.001 474l0.000976562 -343.999c1.33301 -0.666992 2.66602 -1.66699 3.99902 -3c2.66699 -1.33301 4 -2.33301 4 -3c31.333 -20.667 62 -31 92 -31
c32.667 0 59.5 10.5 80.5 31.5s31.5 47.833 31.5 80.5c0 38.667 -11.667 65 -35 79s-55.333 21 -96 21v101c23.333 0 41 3 53 9c21.333 12.667 32 37 32 73c0 29.333 -7.33301 52.166 -22 68.499s-35 24.5 -61 24.5c-55.333 0 -83 -35.667 -83 -107z" />
    <glyph glyph-name="gamma" unicode="&#x3b3;" horiz-adv-x="464" 
d="M172 -233v233l-180 443h119l122 -311l121 311h119l-180 -443v-233h-121z" />
    <glyph glyph-name="delta" unicode="&#x3b4;" horiz-adv-x="524" 
d="M401 667l-0.00195312 -99.001h-79c-32.667 0 -55 -2.16699 -67 -6.5s-18 -12.5 -18 -24.5c0 -10.667 5 -20.167 15 -28.5s40.333 -27.5 91 -57.5c40 -24.667 73.667 -52 101 -82c36.667 -38.667 55 -88.667 55 -150c0 -68.667 -22 -124.667 -66 -168s-101 -65 -171 -65
s-127 22 -171 66s-66 101 -66 171c0 43.333 9.33301 82 28 116s44.334 59.333 77.001 76c20.667 11.333 48.667 18.666 84 21.999c-5.33301 5.33301 -8.66602 8 -9.99902 8c-6 4.66699 -15.667 11.667 -29 21c-36.667 26.667 -55 58.334 -55 95.001
c0 44.667 22.667 75.334 68 92.001c23.333 9.33301 69.333 14 138 14h75zM263.998 352.999c-36 0 -65.335 -12.167 -88.002 -36.5s-34 -55.833 -34 -94.5s11.333 -70.334 34 -95.001s51.334 -37 86.001 -37s63.334 12.333 86.001 37s34 56.334 34 95.001
c0 38 -11.167 69.333 -33.5 94s-50.5 37 -84.5 37z" />
    <glyph glyph-name="epsilon" unicode="&#x3b5;" horiz-adv-x="455" 
d="M260 264l87.002 -0.00195312v-81h-89c-66 0 -99 -16.333 -99 -49c0 -36.667 34 -55 102 -55c27.333 0 50.333 3.5 69 10.5s38.667 19.5 60 37.5l58 -79c-34 -23.333 -65.833 -39.666 -95.5 -48.999s-65.834 -14 -108.501 -14c-66.667 0 -117.667 11.833 -153 35.5
s-53 58.167 -53 103.5c0 52.667 23.333 88.667 70 108c-39.333 20.667 -59 52 -59 94c0 42.667 16.833 75.334 50.5 98.001s82.167 34 145.5 34c39.333 0 73.666 -4.5 102.999 -13.5s59.333 -24.167 90 -45.5l-60 -78c-32.667 28 -71.667 42 -117 42c-62 0 -93 -18 -93 -54
c0 -16 7.16699 -27.5 21.5 -34.5s37.833 -10.5 70.5 -10.5z" />
    <glyph glyph-name="zeta" unicode="&#x3b6;" horiz-adv-x="373" 
d="M227 567l-178.003 0.00195312v100h316v-65c-81.333 -126 -136 -217.167 -164 -273.5s-42 -103.5 -42 -141.5c0 -38.667 12.333 -66 37 -82c8 -6 16.167 -10.167 24.5 -12.5s30.166 -7.5 65.499 -15.5c28.667 -6 50.834 -18.5 66.501 -37.5s23.5 -42.5 23.5 -70.5
c0 -33.333 -8.66699 -62.833 -26 -88.5s-48.666 -55.834 -93.999 -90.501l-63 69c30 20.667 50 37.167 60 49.5s15 26.833 15 43.5c0 16 -6 27.333 -18 34c-7.33301 4 -24.666 8 -51.999 12c-55.333 8 -95.666 25.167 -120.999 51.5s-38 67.166 -38 122.499
c0 46.667 12 95.167 36 145.5s74.667 133.5 152 249.5z" />
    <glyph glyph-name="eta" unicode="&#x3b7;" horiz-adv-x="511" 
d="M167 0l-113 0.000976562v443h113v-25c32.667 26.667 71.667 40 117 40c53.333 0 96.333 -19.333 129 -58c29.333 -35.333 44 -88.333 44 -159v-474h-113v466c0 18 -0.833008 33.167 -2.5 45.5s-5 25 -10 38s-13.333 22.833 -25 29.5s-26.5 10 -44.5 10
c-20.667 0 -37.667 -3.33301 -51 -10s-23 -16.667 -29 -30s-10 -26.833 -12 -40.5s-3 -30.834 -3 -51.501v-224z" />
    <glyph glyph-name="theta" unicode="&#x3b8;" horiz-adv-x="533" 
d="M267 682c44 0 82.4971 -10.668 115.497 -32.001s58.333 -49.833 76 -85.5s30.667 -72.834 39 -111.501s12.5 -78.667 12.5 -120s-4.16699 -81.333 -12.5 -120s-21.333 -75.667 -39 -111s-43 -63.666 -76 -84.999s-71.5 -32 -115.5 -32
c-45.333 0 -84.666 10.833 -117.999 32.5s-58.666 50.5 -75.999 86.5s-30 73.333 -38 112s-12 79.334 -12 122.001c0 40.667 4.33301 80.167 13 118.5s21.834 75 39.501 110s43 63 76 84s71.5 31.5 115.5 31.5zM394.997 288.999h-257c8 -134 50.667 -201 128 -201
c78 0 121 67 129 201zM137.997 384.999h257c-10 129.333 -53 194 -129 194s-118.667 -64.667 -128 -194z" />
    <glyph glyph-name="iota" unicode="&#x3b9;" horiz-adv-x="250" 
d="M54 169v274h113v-279c0 -26.667 2.33301 -44.667 7 -54s13.667 -14 27 -14c8.66699 0 21.667 3.66699 39 11l5 -103c-28.667 -8 -54 -12 -76 -12c-46 0 -78.667 19 -98 57c-11.333 22 -17 62 -17 120z" />
    <glyph glyph-name="kappa" unicode="&#x3ba;" horiz-adv-x="488" 
d="M167 0h-113v443h113v-175l170 175h140l-188 -180l206 -263h-133l-147 192l-48 -47v-145z" />
    <glyph glyph-name="lambda" unicode="&#x3bb;" horiz-adv-x="451" 
d="M-9 0l170 439l-94 228h121l276 -667h-121l-123 294l-102 -294h-127z" />
    <glyph glyph-name="uni03BC" unicode="&#x3bc;" horiz-adv-x="511" 
d="M54 -233l-0.000976562 675.999h113v-234c0 -18 0.833008 -33.167 2.5 -45.5s5 -24.833 10 -37.5s13.333 -22.334 25 -29.001s26.5 -10 44.5 -10c20.667 0 37.667 3.33301 51 10s23 16.667 29 30s10 26.833 12 40.5s3 30.834 3 51.501v224h113v-443h-113v25
c-29.333 -26.667 -65 -40 -107 -40c-15.333 0 -27.666 1.83301 -36.999 5.5s-20.333 10.834 -33 21.501v-245h-113z" />
    <glyph glyph-name="nu" unicode="&#x3bd;" horiz-adv-x="464" 
d="M285 0h-105l-188 443h120l121 -290l121 290h119z" />
    <glyph glyph-name="xi" unicode="&#x3be;" horiz-adv-x="383" 
d="M176 567h-124.998v100h319v-82c-118 -18 -177 -57.667 -177 -119c0 -59.333 47 -89 141 -89h30v-83h-58c-21.333 0 -39.833 -1.33301 -55.5 -4s-30.834 -7.5 -45.501 -14.5s-26 -17.833 -34 -32.5s-12 -33 -12 -55c0 -38 13 -65 39 -81
c8.66699 -6 17.334 -10.5 26.001 -13.5s29.334 -7.83301 62.001 -14.5c64.667 -14 97 -51 97 -111c0 -32 -8.83301 -61.333 -26.5 -88s-48.834 -57 -93.501 -91l-63 70c29.333 20 49.166 36.333 59.499 49s15.5 27 15.5 43c0 16.667 -6.33301 28.334 -19 35.001
c-7.33301 4 -25.666 8.33301 -54.999 13c-56 8 -97 24.833 -123 50.5s-39 66.167 -39 121.5c0 42 8.83301 77.333 26.5 106s45.5 53 83.5 73c-26.667 15.333 -44.834 30 -54.501 44s-14.5 33.333 -14.5 58c0 27.333 7.16699 49.666 21.5 66.999s39.166 33.333 74.499 48z
" />
    <glyph glyph-name="omicron" unicode="&#x3bf;" horiz-adv-x="524" 
d="M262 458c66.667 0 122.666 -22.665 167.999 -67.998s68 -101.333 68 -168s-22.667 -122.834 -68 -168.501s-101.333 -68.5 -168 -68.5c-67.333 0 -123.666 22.833 -168.999 68.5s-68 102.5 -68 170.5c0 65.333 23 120.666 69 165.999s102 68 168 68zM261.999 356.002
c-36 0 -65.333 -12.333 -88 -37s-34 -56.667 -34 -96c0 -40.667 11.167 -73.5 33.5 -98.5s51.833 -37.5 88.5 -37.5c35.333 0 64.333 12.5 87 37.5s34 57.5 34 97.5c0 39.333 -11.333 71.5 -34 96.5s-51.667 37.5 -87 37.5z" />
    <glyph glyph-name="pi" unicode="&#x3c0;" horiz-adv-x="531" 
d="M198 0h-114v343h-65v100h492v-100h-64v-343h-114v343h-135v-343z" />
    <glyph glyph-name="rho" unicode="&#x3c1;" horiz-adv-x="534" 
d="M155 33v-256.999h-114v396c0 86 14.333 150.333 43 193c40 61.333 103.667 92 191 92c72 0 129 -21.333 171 -64s63 -100.667 63 -174c0 -68.667 -17.833 -124.834 -53.5 -168.501s-87.167 -65.5 -154.5 -65.5c-30.667 0 -56.667 3.5 -78 10.5s-44 19.5 -68 37.5z
M278 355.001c-35.333 0 -64.167 -12.166 -86.5 -36.499s-33.5 -55.833 -33.5 -94.5c0 -40.667 11 -73.334 33 -98.001s51.333 -37 88 -37c34.667 0 62.5 12.167 83.5 36.5s31.5 56.5 31.5 96.5s-10.667 72.167 -32 96.5s-49.333 36.5 -84 36.5z" />
    <glyph glyph-name="uni03C2" unicode="&#x3c2;" horiz-adv-x="452" 
d="M436 385l-69 -78.998c-31.333 33.333 -66 50 -104 50c-37.333 0 -67.166 -12.667 -89.499 -38s-33.5 -59.333 -33.5 -102c0 -49.333 16 -84.333 48 -105c14 -8.66699 49.333 -19.334 106 -32.001c64 -14 96 -51 96 -111c0 -32.667 -8.66699 -62 -26 -88
s-48.333 -56.333 -93 -91l-63 70c29.333 20.667 49 37.167 59 49.5s15 26.5 15 42.5c0 18 -6.66699 30 -20 36c-7.33301 3.33301 -26.333 7.33301 -57 12c-36 5.33301 -63.833 12.166 -83.5 20.499s-36.834 20.5 -51.501 36.5c-30 32 -45 81.333 -45 148
c0 74.667 22.167 135.667 66.5 183s101.5 71 171.5 71c62 0 119.667 -24.333 173 -73z" />
    <glyph glyph-name="sigma" unicode="&#x3c3;" horiz-adv-x="533" 
d="M302 443l236.003 -0.000976562v-99h-90l7 -9c15.333 -22.667 25.666 -42.167 30.999 -58.5s8 -37.166 8 -62.499c0 -67.333 -22 -122.333 -66 -165s-100.667 -64 -170 -64c-68.667 0 -124.5 21.667 -167.5 65s-64.5 99.333 -64.5 168c0 42 8.83301 79.833 26.5 113.5
s42.167 60.167 73.5 79.5c21.333 13.333 43.166 22 65.499 26s59.166 6 110.499 6zM327.003 343.999h-36c-28.667 0 -50.5 -1.83301 -65.5 -5.5s-28.167 -10.5 -39.5 -20.5c-26.667 -22.667 -40 -56.667 -40 -102c0 -40 10 -71.5 30 -94.5s47.667 -34.5 83 -34.5
c38 0 67.333 11.667 88 35s31 56.333 31 99c0 25.333 -3.5 46.333 -10.5 63s-20.5 36.667 -40.5 60z" />
    <glyph glyph-name="tau" unicode="&#x3c4;" horiz-adv-x="378" 
d="M128 169l0.000976562 175h-118v99h358v-99h-126v-180c0 -26.667 2.16699 -44.667 6.5 -54s13.166 -14 26.499 -14c10.667 0 24 3.66699 40 11l5 -103c-28.667 -8 -54 -12 -76 -12c-46 0 -79 19 -99 57c-11.333 22 -17 62 -17 120z" />
    <glyph glyph-name="upsilon" unicode="&#x3c5;" horiz-adv-x="505" 
d="M54 190v253h113v-248c0 -36.667 5.66699 -64.667 17 -84s34.333 -29 69 -29c34 0 56.667 9.66699 68 29s17 47.333 17 84v248h113v-253c0 -70 -13.333 -119.667 -40 -149c-34 -38 -86.667 -57 -158 -57c-77.333 0 -133 22.333 -167 67c-21.333 28 -32 74.333 -32 139z
" />
    <glyph glyph-name="phi" unicode="&#x3c6;" horiz-adv-x="654" 
d="M381 -12l-0.000976562 -220.999h-111v222c-76.667 5.33301 -136.667 28.166 -180 68.499s-65 93.166 -65 158.499c0 94 45.667 161 137 201l46 -69l-9 -7l-3 -3c-21.333 -18 -36.166 -35.167 -44.499 -51.5s-12.5 -36.833 -12.5 -61.5c0 -39.333 11.667 -71.5 35 -96.5
s55.333 -39.167 96 -42.5v362c24 3.33301 46.333 5 67 5c95.333 0 167.833 -19.833 217.5 -59.5s74.5 -97.5 74.5 -173.5c0 -69.333 -21.5 -124.166 -64.5 -164.499s-104.167 -62.833 -183.5 -67.5zM380.999 356.001v-270.998c43.333 2.66699 76.5 15.667 99.5 39
s34.5 55.666 34.5 96.999s-11.667 73.666 -35 96.999s-56.333 36 -99 38z" />
    <glyph glyph-name="chi" unicode="&#x3c7;" horiz-adv-x="483" 
d="M-5 0l177 229l-165 214h136l97 -128l97 128h135l-165 -214l177 -229h-136l-108 143l-109 -143h-136z" />
    <glyph glyph-name="psi" unicode="&#x3c8;" horiz-adv-x="697" 
d="M59 236v207h116v-215c-0.666992 -52 6.5 -87.5 21.5 -106.5s43.833 -28.5 86.5 -28.5h15v350h111v-350h15c42.667 0 71.667 9.5 87 28.5s22.333 54.5 21 106.5v215h116v-207c2.66699 -87.333 -13.5 -149.5 -48.5 -186.5s-94.833 -55.5 -179.5 -55.5h-11v-227h-111v227
h-11c-84.667 0 -144.5 18.5 -179.5 55.5s-51.167 99.167 -48.5 186.5z" />
    <glyph glyph-name="omega" unicode="&#x3c9;" horiz-adv-x="676" 
d="M287 223l-0.00390625 84.002h101v-84c0 -44 3.33301 -74 10 -90c10 -28 28.667 -42 56 -42c23.333 0 42.333 11.667 57 35s22 54 22 92c0 39.333 -6.16699 74 -18.5 104s-33.166 61.667 -62.499 95l94 39c69.333 -66.667 104 -150.334 104 -251.001
c0 -66.667 -16.667 -119.834 -50 -159.501s-77.666 -59.5 -132.999 -59.5c-60 0 -103 21.667 -129 65c-27.333 -43.333 -70.666 -65 -129.999 -65c-55.333 0 -99.666 19.833 -132.999 59.5s-50 92.834 -50 159.501c0 102 34.667 185.667 104 251l94 -39
c-29.333 -33.333 -50.166 -65 -62.499 -95s-18.5 -64.667 -18.5 -104c0 -38 7.33301 -68.667 22 -92s33.667 -35 57 -35c12.667 0 23.334 3.33301 32.001 10s15.167 14.167 19.5 22.5s7.66602 19.5 9.99902 33.5s3.66602 25.167 3.99902 33.5s0.5 19.166 0.5 32.499z" />
    <glyph glyph-name="iotadieresis" unicode="&#x3ca;" horiz-adv-x="250" 
d="M54 169v274h113v-279c0 -26.667 2.33301 -44.667 7 -54s13.667 -14 27 -14c8.66699 0 21.667 3.66699 39 11l5 -103c-28.667 -8 -54 -12 -76 -12c-46 0 -78.667 19 -98 57c-11.333 22.667 -17 62.667 -17 120zM33 662c18.667 0 34.667 -6.5 48 -19.5s20 -28.833 20 -47.5
s-6.66699 -34.667 -20 -48s-29.333 -20 -48 -20c-19.333 0 -35.666 6.5 -48.999 19.5s-20 29.167 -20 48.5c0 18.667 6.66699 34.5 20 47.5s29.666 19.5 48.999 19.5zM219 662c18.667 0 34.667 -6.5 48 -19.5s20 -28.833 20 -47.5s-6.66699 -34.667 -20 -48
s-29.333 -20 -48 -20c-19.333 0 -35.666 6.5 -48.999 19.5s-20 29.167 -20 48.5c0 18.667 6.66699 34.5 20 47.5s29.666 19.5 48.999 19.5z" />
    <glyph glyph-name="upsilondieresis" unicode="&#x3cb;" horiz-adv-x="505" 
d="M54 190v253h113v-248c0 -36.667 5.66699 -64.667 17 -84s34.333 -29 69 -29c34 0 56.667 9.66699 68 29s17 47.333 17 84v248h113v-253c0 -70 -13.333 -119.667 -40 -149c-34 -38 -86.667 -57 -158 -57c-77.333 0 -133 22.333 -167 67c-21.333 28 -32 74.333 -32 139z
M160 662c18.667 0 34.667 -6.66699 48 -20s20 -29.333 20 -48s-6.66699 -34.5 -20 -47.5s-29.333 -19.5 -48 -19.5c-19.333 0 -35.666 6.5 -48.999 19.5s-20 29.167 -20 48.5c0 18.667 6.66699 34.5 20 47.5s29.666 19.5 48.999 19.5zM346 662
c18.667 0 34.667 -6.5 48 -19.5s20 -28.833 20 -47.5s-6.66699 -34.667 -20 -48s-29.333 -20 -48 -20c-19.333 0 -35.666 6.5 -48.999 19.5s-20 29.167 -20 48.5c0 18.667 6.66699 34.5 20 47.5s29.666 19.5 48.999 19.5z" />
    <glyph glyph-name="omicrontonos" unicode="&#x3cc;" horiz-adv-x="524" 
d="M262 458c66.667 0 122.666 -22.665 167.999 -67.998s68 -101.333 68 -168s-22.667 -122.834 -68 -168.501s-101.333 -68.5 -168 -68.5c-67.333 0 -123.666 22.833 -168.999 68.5s-68 102.5 -68 170.5c0 65.333 23 120.666 69 165.999s102 68 168 68zM261.999 356.002
c-36 0 -65.333 -12.333 -88 -37s-34 -56.667 -34 -96c0 -40.667 11.167 -73.5 33.5 -98.5s51.833 -37.5 88.5 -37.5c35.333 0 64.333 12.5 87 37.5s34 57.5 34 97.5c0 39.333 -11.333 71.5 -34 96.5s-51.667 37.5 -87 37.5zM300.999 517.002h-80l-14 199h109z" />
    <glyph glyph-name="upsilontonos" unicode="&#x3cd;" horiz-adv-x="505" 
d="M54 190v253h113v-248c0 -36.667 5.66699 -64.667 17 -84s34.333 -29 69 -29c34 0 56.667 9.66699 68 29s17 47.333 17 84v248h113v-253c0 -70 -13.333 -119.667 -40 -149c-34 -38 -86.667 -57 -158 -57c-77.333 0 -133 22.333 -167 67c-21.333 28 -32 74.333 -32 139z
M292 517h-80l-14 199h109z" />
    </font>
</defs>
</svg>
